%TF.GenerationSoftware,KiCad,Pcbnew,(5.1.10)-1*%
%TF.CreationDate,2021-10-27T21:18:11-05:00*%
%TF.ProjectId,KVLShield,4b564c53-6869-4656-9c64-2e6b69636164,1.0*%
%TF.SameCoordinates,Original*%
%TF.FileFunction,Other,User*%
%FSLAX46Y46*%
G04 Gerber Fmt 4.6, Leading zero omitted, Abs format (unit mm)*
G04 Created by KiCad (PCBNEW (5.1.10)-1) date 2021-10-27 21:18:11*
%MOMM*%
%LPD*%
G01*
G04 APERTURE LIST*
%ADD10C,0.050000*%
G04 APERTURE END LIST*
D10*
%TO.C,SW1*%
X112348000Y-81805000D02*
X122348000Y-81805000D01*
X122348000Y-81805000D02*
X122348000Y-74405000D01*
X122348000Y-74405000D02*
X112348000Y-74405000D01*
X112348000Y-74405000D02*
X112348000Y-81805000D01*
%TO.C,R9*%
X122638000Y-93845000D02*
X122638000Y-95305000D01*
X122638000Y-95305000D02*
X119678000Y-95305000D01*
X119678000Y-95305000D02*
X119678000Y-93845000D01*
X119678000Y-93845000D02*
X122638000Y-93845000D01*
%TO.C,D5*%
X115868000Y-95345000D02*
X115868000Y-93885000D01*
X115868000Y-93885000D02*
X118828000Y-93885000D01*
X118828000Y-93885000D02*
X118828000Y-95345000D01*
X118828000Y-95345000D02*
X115868000Y-95345000D01*
%TO.C,D4*%
X115868000Y-91535000D02*
X115868000Y-90075000D01*
X115868000Y-90075000D02*
X118828000Y-90075000D01*
X118828000Y-90075000D02*
X118828000Y-91535000D01*
X118828000Y-91535000D02*
X115868000Y-91535000D01*
%TO.C,D3*%
X115868000Y-87725000D02*
X115868000Y-86265000D01*
X115868000Y-86265000D02*
X118828000Y-86265000D01*
X118828000Y-86265000D02*
X118828000Y-87725000D01*
X118828000Y-87725000D02*
X115868000Y-87725000D01*
%TO.C,J1*%
X118378000Y-97905000D02*
X107578000Y-97905000D01*
X107578000Y-97905000D02*
X107578000Y-110915000D01*
X107578000Y-110915000D02*
X118378000Y-110915000D01*
X118378000Y-110915000D02*
X118378000Y-97905000D01*
%TO.C,J2*%
X148568000Y-93875000D02*
X159768000Y-93875000D01*
X159768000Y-93875000D02*
X159768000Y-90275000D01*
X159768000Y-90275000D02*
X148568000Y-90275000D01*
X148568000Y-90275000D02*
X148568000Y-93875000D01*
%TO.C,Q2*%
X167718000Y-78895000D02*
X171118000Y-78895000D01*
X171118000Y-78895000D02*
X171118000Y-82395000D01*
X171118000Y-82395000D02*
X167718000Y-82395000D01*
X167718000Y-82395000D02*
X167718000Y-78895000D01*
%TO.C,Q1*%
X153338000Y-82395000D02*
X149938000Y-82395000D01*
X149938000Y-82395000D02*
X149938000Y-78895000D01*
X149938000Y-78895000D02*
X153338000Y-78895000D01*
X153338000Y-78895000D02*
X153338000Y-82395000D01*
%TO.C,R8*%
X122638000Y-90075000D02*
X122638000Y-91535000D01*
X122638000Y-91535000D02*
X119678000Y-91535000D01*
X119678000Y-91535000D02*
X119678000Y-90075000D01*
X119678000Y-90075000D02*
X122638000Y-90075000D01*
%TO.C,R7*%
X122638000Y-86265000D02*
X122638000Y-87725000D01*
X122638000Y-87725000D02*
X119678000Y-87725000D01*
X119678000Y-87725000D02*
X119678000Y-86265000D01*
X119678000Y-86265000D02*
X122638000Y-86265000D01*
%TO.C,R6*%
X162858000Y-80105000D02*
X162858000Y-78645000D01*
X162858000Y-78645000D02*
X165818000Y-78645000D01*
X165818000Y-78645000D02*
X165818000Y-80105000D01*
X165818000Y-80105000D02*
X162858000Y-80105000D01*
%TO.C,R5*%
X149308000Y-86265000D02*
X149308000Y-87725000D01*
X149308000Y-87725000D02*
X146348000Y-87725000D01*
X146348000Y-87725000D02*
X146348000Y-86265000D01*
X146348000Y-86265000D02*
X149308000Y-86265000D01*
%TO.C,R4*%
X162858000Y-82645000D02*
X162858000Y-81185000D01*
X162858000Y-81185000D02*
X165818000Y-81185000D01*
X165818000Y-81185000D02*
X165818000Y-82645000D01*
X165818000Y-82645000D02*
X162858000Y-82645000D01*
%TO.C,R3*%
X158198000Y-81185000D02*
X158198000Y-82645000D01*
X158198000Y-82645000D02*
X155238000Y-82645000D01*
X155238000Y-82645000D02*
X155238000Y-81185000D01*
X155238000Y-81185000D02*
X158198000Y-81185000D01*
%TO.C,R2*%
X149308000Y-83725000D02*
X149308000Y-85185000D01*
X149308000Y-85185000D02*
X146348000Y-85185000D01*
X146348000Y-85185000D02*
X146348000Y-83725000D01*
X146348000Y-83725000D02*
X149308000Y-83725000D01*
%TO.C,R1*%
X158198000Y-78645000D02*
X158198000Y-80105000D01*
X158198000Y-80105000D02*
X155238000Y-80105000D01*
X155238000Y-80105000D02*
X155238000Y-78645000D01*
X155238000Y-78645000D02*
X158198000Y-78645000D01*
%TO.C,P1*%
X137188000Y-122075000D02*
X137188000Y-125575000D01*
X158488000Y-122075000D02*
X158488000Y-125575000D01*
X137188000Y-122075000D02*
X158488000Y-122075000D01*
X137188000Y-125575000D02*
X158488000Y-125575000D01*
%TO.C,P2*%
X160048000Y-122075000D02*
X160048000Y-125575000D01*
X176248000Y-122075000D02*
X176248000Y-125575000D01*
X160048000Y-122075000D02*
X176248000Y-122075000D01*
X160048000Y-125575000D02*
X176248000Y-125575000D01*
%TO.C,P3*%
X128044000Y-73815000D02*
X128044000Y-77315000D01*
X154444000Y-73815000D02*
X154444000Y-77315000D01*
X128044000Y-73815000D02*
X154444000Y-73815000D01*
X128044000Y-77315000D02*
X154444000Y-77315000D01*
%TO.C,P4*%
X154968000Y-73815000D02*
X154968000Y-77315000D01*
X176268000Y-73815000D02*
X176268000Y-77315000D01*
X154968000Y-73815000D02*
X176268000Y-73815000D01*
X154968000Y-77315000D02*
X176268000Y-77315000D01*
%TD*%
M02*
