M48
; DRILL file {KiCad (5.1.10)-1} date 10/27/21 21:18:17
; FORMAT={-:-/ absolute / inch / decimal}
; #@! TF.CreationDate,2021-10-27T21:18:17-05:00
; #@! TF.GenerationSoftware,Kicad,Pcbnew,(5.1.10)-1
FMAT,2
INCH
T1C0.0157
T2C0.0394
T3C0.0400
T4C0.0472
T5C0.1200
%
G90
G05
T1
X4.87Y-3.525
X4.87Y-3.625
X5.07Y-3.575
X5.32Y-3.675
X5.32Y-3.775
X5.37Y-3.825
X5.97Y-3.275
X6.12Y-3.375
X6.27Y-3.225
X6.27Y-3.325
X6.32Y-3.075
X6.62Y-3.075
X6.77Y-4.575
X6.77Y-4.575
T2
X5.92Y-3.625
X6.02Y-3.625
X6.12Y-3.625
X6.22Y-3.625
T3
X5.11Y-2.975
X5.21Y-2.975
X5.31Y-2.975
X5.41Y-2.975
X5.47Y-4.875
X5.51Y-2.975
X5.57Y-4.875
X5.61Y-2.975
X5.67Y-4.875
X5.71Y-2.975
X5.77Y-4.875
X5.81Y-2.975
X5.87Y-4.875
X5.91Y-2.975
X5.97Y-4.875
X6.01Y-2.975
X6.07Y-4.875
X6.17Y-2.975
X6.17Y-4.875
X6.27Y-2.975
X6.37Y-2.975
X6.37Y-4.875
X6.47Y-2.975
X6.47Y-4.875
X6.57Y-2.975
X6.57Y-4.875
X6.67Y-2.975
X6.67Y-4.875
X6.77Y-2.975
X6.77Y-4.875
X6.87Y-2.975
X6.87Y-4.875
T4
X4.57Y-3.975
X4.57Y-4.1128
X4.57Y-4.2506
T5
X4.92Y-4.875
X4.97Y-2.975
X6.97Y-3.575
X6.97Y-4.675
T0
M30
