%TF.GenerationSoftware,KiCad,Pcbnew,(5.1.10)-1*%
%TF.CreationDate,2021-10-27T21:18:11-05:00*%
%TF.ProjectId,KVLShield,4b564c53-6869-4656-9c64-2e6b69636164,1.0*%
%TF.SameCoordinates,Original*%
%TF.FileFunction,Soldermask,Bot*%
%TF.FilePolarity,Negative*%
%FSLAX46Y46*%
G04 Gerber Fmt 4.6, Leading zero omitted, Abs format (unit mm)*
G04 Created by KiCad (PCBNEW (5.1.10)-1) date 2021-10-27 21:18:11*
%MOMM*%
%LPD*%
G01*
G04 APERTURE LIST*
%ADD10O,3.600000X1.800000*%
%ADD11O,1.700000X1.700000*%
%ADD12R,1.700000X1.700000*%
%ADD13O,1.727200X2.032000*%
%ADD14C,4.064000*%
G04 APERTURE END LIST*
D10*
%TO.C,J1*%
X116078000Y-107965000D03*
X116078000Y-104465000D03*
G36*
G01*
X114528000Y-100065000D02*
X117628000Y-100065000D01*
G75*
G02*
X117878000Y-100315000I0J-250000D01*
G01*
X117878000Y-101615000D01*
G75*
G02*
X117628000Y-101865000I-250000J0D01*
G01*
X114528000Y-101865000D01*
G75*
G02*
X114278000Y-101615000I0J250000D01*
G01*
X114278000Y-100315000D01*
G75*
G02*
X114528000Y-100065000I250000J0D01*
G01*
G37*
%TD*%
D11*
%TO.C,J2*%
X157988000Y-92075000D03*
X155448000Y-92075000D03*
X152908000Y-92075000D03*
D12*
X150368000Y-92075000D03*
%TD*%
D13*
%TO.C,P1*%
X156718000Y-123825000D03*
X154178000Y-123825000D03*
X151638000Y-123825000D03*
X149098000Y-123825000D03*
X146558000Y-123825000D03*
X144018000Y-123825000D03*
X141478000Y-123825000D03*
X138938000Y-123825000D03*
%TD*%
%TO.C,P2*%
X174498000Y-123825000D03*
X171958000Y-123825000D03*
X169418000Y-123825000D03*
X166878000Y-123825000D03*
X164338000Y-123825000D03*
X161798000Y-123825000D03*
%TD*%
%TO.C,P3*%
X152654000Y-75565000D03*
X150114000Y-75565000D03*
X147574000Y-75565000D03*
X145034000Y-75565000D03*
X142494000Y-75565000D03*
X139954000Y-75565000D03*
X137414000Y-75565000D03*
X134874000Y-75565000D03*
X132334000Y-75565000D03*
X129794000Y-75565000D03*
%TD*%
%TO.C,P4*%
X174498000Y-75565000D03*
X171958000Y-75565000D03*
X169418000Y-75565000D03*
X166878000Y-75565000D03*
X164338000Y-75565000D03*
X161798000Y-75565000D03*
X159258000Y-75565000D03*
X156718000Y-75565000D03*
%TD*%
D14*
%TO.C,P5*%
X124968000Y-123825000D03*
%TD*%
%TO.C,P6*%
X177038000Y-118745000D03*
%TD*%
%TO.C,P7*%
X126238000Y-75565000D03*
%TD*%
%TO.C,P8*%
X177038000Y-90805000D03*
%TD*%
M02*
