%TF.GenerationSoftware,KiCad,Pcbnew,(5.1.10)-1*%
%TF.CreationDate,2021-10-27T21:18:10-05:00*%
%TF.ProjectId,KVLShield,4b564c53-6869-4656-9c64-2e6b69636164,1.0*%
%TF.SameCoordinates,Original*%
%TF.FileFunction,Paste,Top*%
%TF.FilePolarity,Positive*%
%FSLAX46Y46*%
G04 Gerber Fmt 4.6, Leading zero omitted, Abs format (unit mm)*
G04 Created by KiCad (PCBNEW (5.1.10)-1) date 2021-10-27 21:18:10*
%MOMM*%
%LPD*%
G01*
G04 APERTURE LIST*
%ADD10R,1.550000X1.300000*%
%ADD11R,0.900000X0.800000*%
G04 APERTURE END LIST*
D10*
%TO.C,SW1*%
X121323000Y-80355000D03*
X113373000Y-80355000D03*
X121323000Y-75855000D03*
X113373000Y-75855000D03*
%TD*%
%TO.C,R9*%
G36*
G01*
X120733000Y-94300000D02*
X120733000Y-94850000D01*
G75*
G02*
X120533000Y-95050000I-200000J0D01*
G01*
X120133000Y-95050000D01*
G75*
G02*
X119933000Y-94850000I0J200000D01*
G01*
X119933000Y-94300000D01*
G75*
G02*
X120133000Y-94100000I200000J0D01*
G01*
X120533000Y-94100000D01*
G75*
G02*
X120733000Y-94300000I0J-200000D01*
G01*
G37*
G36*
G01*
X122383000Y-94300000D02*
X122383000Y-94850000D01*
G75*
G02*
X122183000Y-95050000I-200000J0D01*
G01*
X121783000Y-95050000D01*
G75*
G02*
X121583000Y-94850000I0J200000D01*
G01*
X121583000Y-94300000D01*
G75*
G02*
X121783000Y-94100000I200000J0D01*
G01*
X122183000Y-94100000D01*
G75*
G02*
X122383000Y-94300000I0J-200000D01*
G01*
G37*
%TD*%
%TO.C,D5*%
G36*
G01*
X117698000Y-94871250D02*
X117698000Y-94358750D01*
G75*
G02*
X117916750Y-94140000I218750J0D01*
G01*
X118354250Y-94140000D01*
G75*
G02*
X118573000Y-94358750I0J-218750D01*
G01*
X118573000Y-94871250D01*
G75*
G02*
X118354250Y-95090000I-218750J0D01*
G01*
X117916750Y-95090000D01*
G75*
G02*
X117698000Y-94871250I0J218750D01*
G01*
G37*
G36*
G01*
X116123000Y-94871250D02*
X116123000Y-94358750D01*
G75*
G02*
X116341750Y-94140000I218750J0D01*
G01*
X116779250Y-94140000D01*
G75*
G02*
X116998000Y-94358750I0J-218750D01*
G01*
X116998000Y-94871250D01*
G75*
G02*
X116779250Y-95090000I-218750J0D01*
G01*
X116341750Y-95090000D01*
G75*
G02*
X116123000Y-94871250I0J218750D01*
G01*
G37*
%TD*%
%TO.C,D4*%
G36*
G01*
X117698000Y-91061250D02*
X117698000Y-90548750D01*
G75*
G02*
X117916750Y-90330000I218750J0D01*
G01*
X118354250Y-90330000D01*
G75*
G02*
X118573000Y-90548750I0J-218750D01*
G01*
X118573000Y-91061250D01*
G75*
G02*
X118354250Y-91280000I-218750J0D01*
G01*
X117916750Y-91280000D01*
G75*
G02*
X117698000Y-91061250I0J218750D01*
G01*
G37*
G36*
G01*
X116123000Y-91061250D02*
X116123000Y-90548750D01*
G75*
G02*
X116341750Y-90330000I218750J0D01*
G01*
X116779250Y-90330000D01*
G75*
G02*
X116998000Y-90548750I0J-218750D01*
G01*
X116998000Y-91061250D01*
G75*
G02*
X116779250Y-91280000I-218750J0D01*
G01*
X116341750Y-91280000D01*
G75*
G02*
X116123000Y-91061250I0J218750D01*
G01*
G37*
%TD*%
%TO.C,D3*%
G36*
G01*
X117698000Y-87251250D02*
X117698000Y-86738750D01*
G75*
G02*
X117916750Y-86520000I218750J0D01*
G01*
X118354250Y-86520000D01*
G75*
G02*
X118573000Y-86738750I0J-218750D01*
G01*
X118573000Y-87251250D01*
G75*
G02*
X118354250Y-87470000I-218750J0D01*
G01*
X117916750Y-87470000D01*
G75*
G02*
X117698000Y-87251250I0J218750D01*
G01*
G37*
G36*
G01*
X116123000Y-87251250D02*
X116123000Y-86738750D01*
G75*
G02*
X116341750Y-86520000I218750J0D01*
G01*
X116779250Y-86520000D01*
G75*
G02*
X116998000Y-86738750I0J-218750D01*
G01*
X116998000Y-87251250D01*
G75*
G02*
X116779250Y-87470000I-218750J0D01*
G01*
X116341750Y-87470000D01*
G75*
G02*
X116123000Y-87251250I0J218750D01*
G01*
G37*
%TD*%
D11*
%TO.C,Q2*%
X170418000Y-80645000D03*
X168418000Y-81595000D03*
X168418000Y-79695000D03*
%TD*%
%TO.C,Q1*%
X150638000Y-80645000D03*
X152638000Y-79695000D03*
X152638000Y-81595000D03*
%TD*%
%TO.C,R8*%
G36*
G01*
X120733000Y-90530000D02*
X120733000Y-91080000D01*
G75*
G02*
X120533000Y-91280000I-200000J0D01*
G01*
X120133000Y-91280000D01*
G75*
G02*
X119933000Y-91080000I0J200000D01*
G01*
X119933000Y-90530000D01*
G75*
G02*
X120133000Y-90330000I200000J0D01*
G01*
X120533000Y-90330000D01*
G75*
G02*
X120733000Y-90530000I0J-200000D01*
G01*
G37*
G36*
G01*
X122383000Y-90530000D02*
X122383000Y-91080000D01*
G75*
G02*
X122183000Y-91280000I-200000J0D01*
G01*
X121783000Y-91280000D01*
G75*
G02*
X121583000Y-91080000I0J200000D01*
G01*
X121583000Y-90530000D01*
G75*
G02*
X121783000Y-90330000I200000J0D01*
G01*
X122183000Y-90330000D01*
G75*
G02*
X122383000Y-90530000I0J-200000D01*
G01*
G37*
%TD*%
%TO.C,R7*%
G36*
G01*
X120733000Y-86720000D02*
X120733000Y-87270000D01*
G75*
G02*
X120533000Y-87470000I-200000J0D01*
G01*
X120133000Y-87470000D01*
G75*
G02*
X119933000Y-87270000I0J200000D01*
G01*
X119933000Y-86720000D01*
G75*
G02*
X120133000Y-86520000I200000J0D01*
G01*
X120533000Y-86520000D01*
G75*
G02*
X120733000Y-86720000I0J-200000D01*
G01*
G37*
G36*
G01*
X122383000Y-86720000D02*
X122383000Y-87270000D01*
G75*
G02*
X122183000Y-87470000I-200000J0D01*
G01*
X121783000Y-87470000D01*
G75*
G02*
X121583000Y-87270000I0J200000D01*
G01*
X121583000Y-86720000D01*
G75*
G02*
X121783000Y-86520000I200000J0D01*
G01*
X122183000Y-86520000D01*
G75*
G02*
X122383000Y-86720000I0J-200000D01*
G01*
G37*
%TD*%
%TO.C,R6*%
G36*
G01*
X164763000Y-79650000D02*
X164763000Y-79100000D01*
G75*
G02*
X164963000Y-78900000I200000J0D01*
G01*
X165363000Y-78900000D01*
G75*
G02*
X165563000Y-79100000I0J-200000D01*
G01*
X165563000Y-79650000D01*
G75*
G02*
X165363000Y-79850000I-200000J0D01*
G01*
X164963000Y-79850000D01*
G75*
G02*
X164763000Y-79650000I0J200000D01*
G01*
G37*
G36*
G01*
X163113000Y-79650000D02*
X163113000Y-79100000D01*
G75*
G02*
X163313000Y-78900000I200000J0D01*
G01*
X163713000Y-78900000D01*
G75*
G02*
X163913000Y-79100000I0J-200000D01*
G01*
X163913000Y-79650000D01*
G75*
G02*
X163713000Y-79850000I-200000J0D01*
G01*
X163313000Y-79850000D01*
G75*
G02*
X163113000Y-79650000I0J200000D01*
G01*
G37*
%TD*%
%TO.C,R5*%
G36*
G01*
X147403000Y-86720000D02*
X147403000Y-87270000D01*
G75*
G02*
X147203000Y-87470000I-200000J0D01*
G01*
X146803000Y-87470000D01*
G75*
G02*
X146603000Y-87270000I0J200000D01*
G01*
X146603000Y-86720000D01*
G75*
G02*
X146803000Y-86520000I200000J0D01*
G01*
X147203000Y-86520000D01*
G75*
G02*
X147403000Y-86720000I0J-200000D01*
G01*
G37*
G36*
G01*
X149053000Y-86720000D02*
X149053000Y-87270000D01*
G75*
G02*
X148853000Y-87470000I-200000J0D01*
G01*
X148453000Y-87470000D01*
G75*
G02*
X148253000Y-87270000I0J200000D01*
G01*
X148253000Y-86720000D01*
G75*
G02*
X148453000Y-86520000I200000J0D01*
G01*
X148853000Y-86520000D01*
G75*
G02*
X149053000Y-86720000I0J-200000D01*
G01*
G37*
%TD*%
%TO.C,R4*%
G36*
G01*
X164763000Y-82190000D02*
X164763000Y-81640000D01*
G75*
G02*
X164963000Y-81440000I200000J0D01*
G01*
X165363000Y-81440000D01*
G75*
G02*
X165563000Y-81640000I0J-200000D01*
G01*
X165563000Y-82190000D01*
G75*
G02*
X165363000Y-82390000I-200000J0D01*
G01*
X164963000Y-82390000D01*
G75*
G02*
X164763000Y-82190000I0J200000D01*
G01*
G37*
G36*
G01*
X163113000Y-82190000D02*
X163113000Y-81640000D01*
G75*
G02*
X163313000Y-81440000I200000J0D01*
G01*
X163713000Y-81440000D01*
G75*
G02*
X163913000Y-81640000I0J-200000D01*
G01*
X163913000Y-82190000D01*
G75*
G02*
X163713000Y-82390000I-200000J0D01*
G01*
X163313000Y-82390000D01*
G75*
G02*
X163113000Y-82190000I0J200000D01*
G01*
G37*
%TD*%
%TO.C,R3*%
G36*
G01*
X156293000Y-81640000D02*
X156293000Y-82190000D01*
G75*
G02*
X156093000Y-82390000I-200000J0D01*
G01*
X155693000Y-82390000D01*
G75*
G02*
X155493000Y-82190000I0J200000D01*
G01*
X155493000Y-81640000D01*
G75*
G02*
X155693000Y-81440000I200000J0D01*
G01*
X156093000Y-81440000D01*
G75*
G02*
X156293000Y-81640000I0J-200000D01*
G01*
G37*
G36*
G01*
X157943000Y-81640000D02*
X157943000Y-82190000D01*
G75*
G02*
X157743000Y-82390000I-200000J0D01*
G01*
X157343000Y-82390000D01*
G75*
G02*
X157143000Y-82190000I0J200000D01*
G01*
X157143000Y-81640000D01*
G75*
G02*
X157343000Y-81440000I200000J0D01*
G01*
X157743000Y-81440000D01*
G75*
G02*
X157943000Y-81640000I0J-200000D01*
G01*
G37*
%TD*%
%TO.C,R2*%
G36*
G01*
X147403000Y-84180000D02*
X147403000Y-84730000D01*
G75*
G02*
X147203000Y-84930000I-200000J0D01*
G01*
X146803000Y-84930000D01*
G75*
G02*
X146603000Y-84730000I0J200000D01*
G01*
X146603000Y-84180000D01*
G75*
G02*
X146803000Y-83980000I200000J0D01*
G01*
X147203000Y-83980000D01*
G75*
G02*
X147403000Y-84180000I0J-200000D01*
G01*
G37*
G36*
G01*
X149053000Y-84180000D02*
X149053000Y-84730000D01*
G75*
G02*
X148853000Y-84930000I-200000J0D01*
G01*
X148453000Y-84930000D01*
G75*
G02*
X148253000Y-84730000I0J200000D01*
G01*
X148253000Y-84180000D01*
G75*
G02*
X148453000Y-83980000I200000J0D01*
G01*
X148853000Y-83980000D01*
G75*
G02*
X149053000Y-84180000I0J-200000D01*
G01*
G37*
%TD*%
%TO.C,R1*%
G36*
G01*
X156293000Y-79100000D02*
X156293000Y-79650000D01*
G75*
G02*
X156093000Y-79850000I-200000J0D01*
G01*
X155693000Y-79850000D01*
G75*
G02*
X155493000Y-79650000I0J200000D01*
G01*
X155493000Y-79100000D01*
G75*
G02*
X155693000Y-78900000I200000J0D01*
G01*
X156093000Y-78900000D01*
G75*
G02*
X156293000Y-79100000I0J-200000D01*
G01*
G37*
G36*
G01*
X157943000Y-79100000D02*
X157943000Y-79650000D01*
G75*
G02*
X157743000Y-79850000I-200000J0D01*
G01*
X157343000Y-79850000D01*
G75*
G02*
X157143000Y-79650000I0J200000D01*
G01*
X157143000Y-79100000D01*
G75*
G02*
X157343000Y-78900000I200000J0D01*
G01*
X157743000Y-78900000D01*
G75*
G02*
X157943000Y-79100000I0J-200000D01*
G01*
G37*
%TD*%
M02*
