%TF.GenerationSoftware,KiCad,Pcbnew,(5.1.10)-1*%
%TF.CreationDate,2021-10-27T21:18:10-05:00*%
%TF.ProjectId,KVLShield,4b564c53-6869-4656-9c64-2e6b69636164,1.0*%
%TF.SameCoordinates,Original*%
%TF.FileFunction,Copper,L1,Top*%
%TF.FilePolarity,Positive*%
%FSLAX46Y46*%
G04 Gerber Fmt 4.6, Leading zero omitted, Abs format (unit mm)*
G04 Created by KiCad (PCBNEW (5.1.10)-1) date 2021-10-27 21:18:10*
%MOMM*%
%LPD*%
G01*
G04 APERTURE LIST*
%TA.AperFunction,SMDPad,CuDef*%
%ADD10R,1.550000X1.300000*%
%TD*%
%TA.AperFunction,ComponentPad*%
%ADD11O,3.600000X1.800000*%
%TD*%
%TA.AperFunction,ComponentPad*%
%ADD12O,1.700000X1.700000*%
%TD*%
%TA.AperFunction,ComponentPad*%
%ADD13R,1.700000X1.700000*%
%TD*%
%TA.AperFunction,SMDPad,CuDef*%
%ADD14R,0.900000X0.800000*%
%TD*%
%TA.AperFunction,ComponentPad*%
%ADD15O,1.727200X2.032000*%
%TD*%
%TA.AperFunction,ComponentPad*%
%ADD16C,4.064000*%
%TD*%
%TA.AperFunction,ViaPad*%
%ADD17C,0.600000*%
%TD*%
%TA.AperFunction,Conductor*%
%ADD18C,0.250000*%
%TD*%
%TA.AperFunction,Conductor*%
%ADD19C,0.254000*%
%TD*%
%TA.AperFunction,Conductor*%
%ADD20C,0.100000*%
%TD*%
G04 APERTURE END LIST*
D10*
%TO.P,SW1,2*%
%TO.N,/Reset*%
X121323000Y-80355000D03*
X113373000Y-80355000D03*
%TO.P,SW1,1*%
%TO.N,GND*%
X121323000Y-75855000D03*
X113373000Y-75855000D03*
%TD*%
%TO.P,R9,2*%
%TO.N,Net-(D5-Pad2)*%
%TA.AperFunction,SMDPad,CuDef*%
G36*
G01*
X120733000Y-94300000D02*
X120733000Y-94850000D01*
G75*
G02*
X120533000Y-95050000I-200000J0D01*
G01*
X120133000Y-95050000D01*
G75*
G02*
X119933000Y-94850000I0J200000D01*
G01*
X119933000Y-94300000D01*
G75*
G02*
X120133000Y-94100000I200000J0D01*
G01*
X120533000Y-94100000D01*
G75*
G02*
X120733000Y-94300000I0J-200000D01*
G01*
G37*
%TD.AperFunction*%
%TO.P,R9,1*%
%TO.N,/6(\u002A\u002A)*%
%TA.AperFunction,SMDPad,CuDef*%
G36*
G01*
X122383000Y-94300000D02*
X122383000Y-94850000D01*
G75*
G02*
X122183000Y-95050000I-200000J0D01*
G01*
X121783000Y-95050000D01*
G75*
G02*
X121583000Y-94850000I0J200000D01*
G01*
X121583000Y-94300000D01*
G75*
G02*
X121783000Y-94100000I200000J0D01*
G01*
X122183000Y-94100000D01*
G75*
G02*
X122383000Y-94300000I0J-200000D01*
G01*
G37*
%TD.AperFunction*%
%TD*%
%TO.P,D5,2*%
%TO.N,Net-(D5-Pad2)*%
%TA.AperFunction,SMDPad,CuDef*%
G36*
G01*
X117698000Y-94871250D02*
X117698000Y-94358750D01*
G75*
G02*
X117916750Y-94140000I218750J0D01*
G01*
X118354250Y-94140000D01*
G75*
G02*
X118573000Y-94358750I0J-218750D01*
G01*
X118573000Y-94871250D01*
G75*
G02*
X118354250Y-95090000I-218750J0D01*
G01*
X117916750Y-95090000D01*
G75*
G02*
X117698000Y-94871250I0J218750D01*
G01*
G37*
%TD.AperFunction*%
%TO.P,D5,1*%
%TO.N,GND*%
%TA.AperFunction,SMDPad,CuDef*%
G36*
G01*
X116123000Y-94871250D02*
X116123000Y-94358750D01*
G75*
G02*
X116341750Y-94140000I218750J0D01*
G01*
X116779250Y-94140000D01*
G75*
G02*
X116998000Y-94358750I0J-218750D01*
G01*
X116998000Y-94871250D01*
G75*
G02*
X116779250Y-95090000I-218750J0D01*
G01*
X116341750Y-95090000D01*
G75*
G02*
X116123000Y-94871250I0J218750D01*
G01*
G37*
%TD.AperFunction*%
%TD*%
%TO.P,D4,2*%
%TO.N,Net-(D4-Pad2)*%
%TA.AperFunction,SMDPad,CuDef*%
G36*
G01*
X117698000Y-91061250D02*
X117698000Y-90548750D01*
G75*
G02*
X117916750Y-90330000I218750J0D01*
G01*
X118354250Y-90330000D01*
G75*
G02*
X118573000Y-90548750I0J-218750D01*
G01*
X118573000Y-91061250D01*
G75*
G02*
X118354250Y-91280000I-218750J0D01*
G01*
X117916750Y-91280000D01*
G75*
G02*
X117698000Y-91061250I0J218750D01*
G01*
G37*
%TD.AperFunction*%
%TO.P,D4,1*%
%TO.N,GND*%
%TA.AperFunction,SMDPad,CuDef*%
G36*
G01*
X116123000Y-91061250D02*
X116123000Y-90548750D01*
G75*
G02*
X116341750Y-90330000I218750J0D01*
G01*
X116779250Y-90330000D01*
G75*
G02*
X116998000Y-90548750I0J-218750D01*
G01*
X116998000Y-91061250D01*
G75*
G02*
X116779250Y-91280000I-218750J0D01*
G01*
X116341750Y-91280000D01*
G75*
G02*
X116123000Y-91061250I0J218750D01*
G01*
G37*
%TD.AperFunction*%
%TD*%
%TO.P,D3,2*%
%TO.N,Net-(D3-Pad2)*%
%TA.AperFunction,SMDPad,CuDef*%
G36*
G01*
X117698000Y-87251250D02*
X117698000Y-86738750D01*
G75*
G02*
X117916750Y-86520000I218750J0D01*
G01*
X118354250Y-86520000D01*
G75*
G02*
X118573000Y-86738750I0J-218750D01*
G01*
X118573000Y-87251250D01*
G75*
G02*
X118354250Y-87470000I-218750J0D01*
G01*
X117916750Y-87470000D01*
G75*
G02*
X117698000Y-87251250I0J218750D01*
G01*
G37*
%TD.AperFunction*%
%TO.P,D3,1*%
%TO.N,GND*%
%TA.AperFunction,SMDPad,CuDef*%
G36*
G01*
X116123000Y-87251250D02*
X116123000Y-86738750D01*
G75*
G02*
X116341750Y-86520000I218750J0D01*
G01*
X116779250Y-86520000D01*
G75*
G02*
X116998000Y-86738750I0J-218750D01*
G01*
X116998000Y-87251250D01*
G75*
G02*
X116779250Y-87470000I-218750J0D01*
G01*
X116341750Y-87470000D01*
G75*
G02*
X116123000Y-87251250I0J218750D01*
G01*
G37*
%TD.AperFunction*%
%TD*%
D11*
%TO.P,J1,3*%
%TO.N,/KFD_SENSE*%
X116078000Y-107965000D03*
%TO.P,J1,2*%
%TO.N,/KFD_DATA*%
X116078000Y-104465000D03*
%TO.P,J1,1*%
%TO.N,GND*%
%TA.AperFunction,ComponentPad*%
G36*
G01*
X114528000Y-100065000D02*
X117628000Y-100065000D01*
G75*
G02*
X117878000Y-100315000I0J-250000D01*
G01*
X117878000Y-101615000D01*
G75*
G02*
X117628000Y-101865000I-250000J0D01*
G01*
X114528000Y-101865000D01*
G75*
G02*
X114278000Y-101615000I0J250000D01*
G01*
X114278000Y-100315000D01*
G75*
G02*
X114528000Y-100065000I250000J0D01*
G01*
G37*
%TD.AperFunction*%
%TD*%
D12*
%TO.P,J2,4*%
%TO.N,/A4(SDA)*%
X157988000Y-92075000D03*
%TO.P,J2,3*%
%TO.N,/A5(SCL)*%
X155448000Y-92075000D03*
%TO.P,J2,2*%
%TO.N,GND*%
X152908000Y-92075000D03*
D13*
%TO.P,J2,1*%
%TO.N,+5V*%
X150368000Y-92075000D03*
%TD*%
D14*
%TO.P,Q2,3*%
%TO.N,/2*%
X170418000Y-80645000D03*
%TO.P,Q2,2*%
%TO.N,GND*%
X168418000Y-81595000D03*
%TO.P,Q2,1*%
%TO.N,Net-(Q2-Pad1)*%
X168418000Y-79695000D03*
%TD*%
%TO.P,Q1,3*%
%TO.N,/3(\u002A\u002A)*%
X150638000Y-80645000D03*
%TO.P,Q1,2*%
%TO.N,GND*%
X152638000Y-79695000D03*
%TO.P,Q1,1*%
%TO.N,Net-(Q1-Pad1)*%
X152638000Y-81595000D03*
%TD*%
%TO.P,R8,2*%
%TO.N,Net-(D4-Pad2)*%
%TA.AperFunction,SMDPad,CuDef*%
G36*
G01*
X120733000Y-90530000D02*
X120733000Y-91080000D01*
G75*
G02*
X120533000Y-91280000I-200000J0D01*
G01*
X120133000Y-91280000D01*
G75*
G02*
X119933000Y-91080000I0J200000D01*
G01*
X119933000Y-90530000D01*
G75*
G02*
X120133000Y-90330000I200000J0D01*
G01*
X120533000Y-90330000D01*
G75*
G02*
X120733000Y-90530000I0J-200000D01*
G01*
G37*
%TD.AperFunction*%
%TO.P,R8,1*%
%TO.N,/7*%
%TA.AperFunction,SMDPad,CuDef*%
G36*
G01*
X122383000Y-90530000D02*
X122383000Y-91080000D01*
G75*
G02*
X122183000Y-91280000I-200000J0D01*
G01*
X121783000Y-91280000D01*
G75*
G02*
X121583000Y-91080000I0J200000D01*
G01*
X121583000Y-90530000D01*
G75*
G02*
X121783000Y-90330000I200000J0D01*
G01*
X122183000Y-90330000D01*
G75*
G02*
X122383000Y-90530000I0J-200000D01*
G01*
G37*
%TD.AperFunction*%
%TD*%
%TO.P,R7,2*%
%TO.N,Net-(D3-Pad2)*%
%TA.AperFunction,SMDPad,CuDef*%
G36*
G01*
X120733000Y-86720000D02*
X120733000Y-87270000D01*
G75*
G02*
X120533000Y-87470000I-200000J0D01*
G01*
X120133000Y-87470000D01*
G75*
G02*
X119933000Y-87270000I0J200000D01*
G01*
X119933000Y-86720000D01*
G75*
G02*
X120133000Y-86520000I200000J0D01*
G01*
X120533000Y-86520000D01*
G75*
G02*
X120733000Y-86720000I0J-200000D01*
G01*
G37*
%TD.AperFunction*%
%TO.P,R7,1*%
%TO.N,+5V*%
%TA.AperFunction,SMDPad,CuDef*%
G36*
G01*
X122383000Y-86720000D02*
X122383000Y-87270000D01*
G75*
G02*
X122183000Y-87470000I-200000J0D01*
G01*
X121783000Y-87470000D01*
G75*
G02*
X121583000Y-87270000I0J200000D01*
G01*
X121583000Y-86720000D01*
G75*
G02*
X121783000Y-86520000I200000J0D01*
G01*
X122183000Y-86520000D01*
G75*
G02*
X122383000Y-86720000I0J-200000D01*
G01*
G37*
%TD.AperFunction*%
%TD*%
%TO.P,R6,2*%
%TO.N,Net-(Q2-Pad1)*%
%TA.AperFunction,SMDPad,CuDef*%
G36*
G01*
X164763000Y-79650000D02*
X164763000Y-79100000D01*
G75*
G02*
X164963000Y-78900000I200000J0D01*
G01*
X165363000Y-78900000D01*
G75*
G02*
X165563000Y-79100000I0J-200000D01*
G01*
X165563000Y-79650000D01*
G75*
G02*
X165363000Y-79850000I-200000J0D01*
G01*
X164963000Y-79850000D01*
G75*
G02*
X164763000Y-79650000I0J200000D01*
G01*
G37*
%TD.AperFunction*%
%TO.P,R6,1*%
%TO.N,/4*%
%TA.AperFunction,SMDPad,CuDef*%
G36*
G01*
X163113000Y-79650000D02*
X163113000Y-79100000D01*
G75*
G02*
X163313000Y-78900000I200000J0D01*
G01*
X163713000Y-78900000D01*
G75*
G02*
X163913000Y-79100000I0J-200000D01*
G01*
X163913000Y-79650000D01*
G75*
G02*
X163713000Y-79850000I-200000J0D01*
G01*
X163313000Y-79850000D01*
G75*
G02*
X163113000Y-79650000I0J200000D01*
G01*
G37*
%TD.AperFunction*%
%TD*%
%TO.P,R5,2*%
%TO.N,/KFD_SENSE*%
%TA.AperFunction,SMDPad,CuDef*%
G36*
G01*
X147403000Y-86720000D02*
X147403000Y-87270000D01*
G75*
G02*
X147203000Y-87470000I-200000J0D01*
G01*
X146803000Y-87470000D01*
G75*
G02*
X146603000Y-87270000I0J200000D01*
G01*
X146603000Y-86720000D01*
G75*
G02*
X146803000Y-86520000I200000J0D01*
G01*
X147203000Y-86520000D01*
G75*
G02*
X147403000Y-86720000I0J-200000D01*
G01*
G37*
%TD.AperFunction*%
%TO.P,R5,1*%
%TO.N,/2*%
%TA.AperFunction,SMDPad,CuDef*%
G36*
G01*
X149053000Y-86720000D02*
X149053000Y-87270000D01*
G75*
G02*
X148853000Y-87470000I-200000J0D01*
G01*
X148453000Y-87470000D01*
G75*
G02*
X148253000Y-87270000I0J200000D01*
G01*
X148253000Y-86720000D01*
G75*
G02*
X148453000Y-86520000I200000J0D01*
G01*
X148853000Y-86520000D01*
G75*
G02*
X149053000Y-86720000I0J-200000D01*
G01*
G37*
%TD.AperFunction*%
%TD*%
%TO.P,R4,2*%
%TO.N,/2*%
%TA.AperFunction,SMDPad,CuDef*%
G36*
G01*
X164763000Y-82190000D02*
X164763000Y-81640000D01*
G75*
G02*
X164963000Y-81440000I200000J0D01*
G01*
X165363000Y-81440000D01*
G75*
G02*
X165563000Y-81640000I0J-200000D01*
G01*
X165563000Y-82190000D01*
G75*
G02*
X165363000Y-82390000I-200000J0D01*
G01*
X164963000Y-82390000D01*
G75*
G02*
X164763000Y-82190000I0J200000D01*
G01*
G37*
%TD.AperFunction*%
%TO.P,R4,1*%
%TO.N,+5V*%
%TA.AperFunction,SMDPad,CuDef*%
G36*
G01*
X163113000Y-82190000D02*
X163113000Y-81640000D01*
G75*
G02*
X163313000Y-81440000I200000J0D01*
G01*
X163713000Y-81440000D01*
G75*
G02*
X163913000Y-81640000I0J-200000D01*
G01*
X163913000Y-82190000D01*
G75*
G02*
X163713000Y-82390000I-200000J0D01*
G01*
X163313000Y-82390000D01*
G75*
G02*
X163113000Y-82190000I0J200000D01*
G01*
G37*
%TD.AperFunction*%
%TD*%
%TO.P,R3,2*%
%TO.N,Net-(Q1-Pad1)*%
%TA.AperFunction,SMDPad,CuDef*%
G36*
G01*
X156293000Y-81640000D02*
X156293000Y-82190000D01*
G75*
G02*
X156093000Y-82390000I-200000J0D01*
G01*
X155693000Y-82390000D01*
G75*
G02*
X155493000Y-82190000I0J200000D01*
G01*
X155493000Y-81640000D01*
G75*
G02*
X155693000Y-81440000I200000J0D01*
G01*
X156093000Y-81440000D01*
G75*
G02*
X156293000Y-81640000I0J-200000D01*
G01*
G37*
%TD.AperFunction*%
%TO.P,R3,1*%
%TO.N,/5(\u002A\u002A)*%
%TA.AperFunction,SMDPad,CuDef*%
G36*
G01*
X157943000Y-81640000D02*
X157943000Y-82190000D01*
G75*
G02*
X157743000Y-82390000I-200000J0D01*
G01*
X157343000Y-82390000D01*
G75*
G02*
X157143000Y-82190000I0J200000D01*
G01*
X157143000Y-81640000D01*
G75*
G02*
X157343000Y-81440000I200000J0D01*
G01*
X157743000Y-81440000D01*
G75*
G02*
X157943000Y-81640000I0J-200000D01*
G01*
G37*
%TD.AperFunction*%
%TD*%
%TO.P,R2,2*%
%TO.N,/KFD_DATA*%
%TA.AperFunction,SMDPad,CuDef*%
G36*
G01*
X147403000Y-84180000D02*
X147403000Y-84730000D01*
G75*
G02*
X147203000Y-84930000I-200000J0D01*
G01*
X146803000Y-84930000D01*
G75*
G02*
X146603000Y-84730000I0J200000D01*
G01*
X146603000Y-84180000D01*
G75*
G02*
X146803000Y-83980000I200000J0D01*
G01*
X147203000Y-83980000D01*
G75*
G02*
X147403000Y-84180000I0J-200000D01*
G01*
G37*
%TD.AperFunction*%
%TO.P,R2,1*%
%TO.N,/3(\u002A\u002A)*%
%TA.AperFunction,SMDPad,CuDef*%
G36*
G01*
X149053000Y-84180000D02*
X149053000Y-84730000D01*
G75*
G02*
X148853000Y-84930000I-200000J0D01*
G01*
X148453000Y-84930000D01*
G75*
G02*
X148253000Y-84730000I0J200000D01*
G01*
X148253000Y-84180000D01*
G75*
G02*
X148453000Y-83980000I200000J0D01*
G01*
X148853000Y-83980000D01*
G75*
G02*
X149053000Y-84180000I0J-200000D01*
G01*
G37*
%TD.AperFunction*%
%TD*%
%TO.P,R1,2*%
%TO.N,/3(\u002A\u002A)*%
%TA.AperFunction,SMDPad,CuDef*%
G36*
G01*
X156293000Y-79100000D02*
X156293000Y-79650000D01*
G75*
G02*
X156093000Y-79850000I-200000J0D01*
G01*
X155693000Y-79850000D01*
G75*
G02*
X155493000Y-79650000I0J200000D01*
G01*
X155493000Y-79100000D01*
G75*
G02*
X155693000Y-78900000I200000J0D01*
G01*
X156093000Y-78900000D01*
G75*
G02*
X156293000Y-79100000I0J-200000D01*
G01*
G37*
%TD.AperFunction*%
%TO.P,R1,1*%
%TO.N,+5V*%
%TA.AperFunction,SMDPad,CuDef*%
G36*
G01*
X157943000Y-79100000D02*
X157943000Y-79650000D01*
G75*
G02*
X157743000Y-79850000I-200000J0D01*
G01*
X157343000Y-79850000D01*
G75*
G02*
X157143000Y-79650000I0J200000D01*
G01*
X157143000Y-79100000D01*
G75*
G02*
X157343000Y-78900000I200000J0D01*
G01*
X157743000Y-78900000D01*
G75*
G02*
X157943000Y-79100000I0J-200000D01*
G01*
G37*
%TD.AperFunction*%
%TD*%
D15*
%TO.P,P1,8*%
%TO.N,/Vin*%
X156718000Y-123825000D03*
%TO.P,P1,7*%
%TO.N,GND*%
X154178000Y-123825000D03*
%TO.P,P1,6*%
X151638000Y-123825000D03*
%TO.P,P1,5*%
%TO.N,+5V*%
X149098000Y-123825000D03*
%TO.P,P1,4*%
%TO.N,+3V3*%
X146558000Y-123825000D03*
%TO.P,P1,3*%
%TO.N,/Reset*%
X144018000Y-123825000D03*
%TO.P,P1,2*%
%TO.N,/IOREF*%
X141478000Y-123825000D03*
%TO.P,P1,1*%
%TO.N,Net-(P1-Pad1)*%
X138938000Y-123825000D03*
%TD*%
%TO.P,P2,6*%
%TO.N,/A5(SCL)*%
X174498000Y-123825000D03*
%TO.P,P2,5*%
%TO.N,/A4(SDA)*%
X171958000Y-123825000D03*
%TO.P,P2,4*%
%TO.N,/A3*%
X169418000Y-123825000D03*
%TO.P,P2,3*%
%TO.N,/A2*%
X166878000Y-123825000D03*
%TO.P,P2,2*%
%TO.N,/A1*%
X164338000Y-123825000D03*
%TO.P,P2,1*%
%TO.N,/A0*%
X161798000Y-123825000D03*
%TD*%
%TO.P,P3,10*%
%TO.N,/8*%
X152654000Y-75565000D03*
%TO.P,P3,9*%
%TO.N,/9(\u002A\u002A)*%
X150114000Y-75565000D03*
%TO.P,P3,8*%
%TO.N,/10(\u002A\u002A/SS)*%
X147574000Y-75565000D03*
%TO.P,P3,7*%
%TO.N,/11(\u002A\u002A/MOSI)*%
X145034000Y-75565000D03*
%TO.P,P3,6*%
%TO.N,/12(MISO)*%
X142494000Y-75565000D03*
%TO.P,P3,5*%
%TO.N,/13(SCK)*%
X139954000Y-75565000D03*
%TO.P,P3,4*%
%TO.N,GND*%
X137414000Y-75565000D03*
%TO.P,P3,3*%
%TO.N,/AREF*%
X134874000Y-75565000D03*
%TO.P,P3,2*%
%TO.N,Net-(P3-Pad2)*%
X132334000Y-75565000D03*
%TO.P,P3,1*%
%TO.N,Net-(P3-Pad1)*%
X129794000Y-75565000D03*
%TD*%
%TO.P,P4,8*%
%TO.N,/0(Rx)*%
X174498000Y-75565000D03*
%TO.P,P4,7*%
%TO.N,/1(Tx)*%
X171958000Y-75565000D03*
%TO.P,P4,6*%
%TO.N,/2*%
X169418000Y-75565000D03*
%TO.P,P4,5*%
%TO.N,/3(\u002A\u002A)*%
X166878000Y-75565000D03*
%TO.P,P4,4*%
%TO.N,/4*%
X164338000Y-75565000D03*
%TO.P,P4,3*%
%TO.N,/5(\u002A\u002A)*%
X161798000Y-75565000D03*
%TO.P,P4,2*%
%TO.N,/6(\u002A\u002A)*%
X159258000Y-75565000D03*
%TO.P,P4,1*%
%TO.N,/7*%
X156718000Y-75565000D03*
%TD*%
D16*
%TO.P,P5,1*%
%TO.N,Net-(P5-Pad1)*%
X124968000Y-123825000D03*
%TD*%
%TO.P,P6,1*%
%TO.N,Net-(P6-Pad1)*%
X177038000Y-118745000D03*
%TD*%
%TO.P,P7,1*%
%TO.N,Net-(P7-Pad1)*%
X126238000Y-75565000D03*
%TD*%
%TO.P,P8,1*%
%TO.N,Net-(P8-Pad1)*%
X177038000Y-90805000D03*
%TD*%
D17*
%TO.N,/Reset*%
X135128000Y-93345000D03*
%TO.N,+5V*%
X128778000Y-90805000D03*
X159258000Y-84455000D03*
%TO.N,/A4(SDA)*%
X171958000Y-116205000D03*
X171958000Y-116205000D03*
%TO.N,/7*%
X123698000Y-89535000D03*
%TO.N,/6(\u002A\u002A)*%
X123698000Y-92075000D03*
%TO.N,GND*%
X155448000Y-85725000D03*
X168148000Y-78105000D03*
X160528000Y-78105000D03*
%TO.N,/5(\u002A\u002A)*%
X159258000Y-81915000D03*
%TO.N,/3(\u002A\u002A)*%
X151638000Y-83185000D03*
%TO.N,/KFD_DATA*%
X135128000Y-95885000D03*
%TO.N,/KFD_SENSE*%
X136398000Y-97155000D03*
%TD*%
D18*
%TO.N,/Reset*%
X113373000Y-80355000D02*
X121323000Y-80355000D01*
X122138000Y-80355000D02*
X133858000Y-92075000D01*
X121323000Y-80355000D02*
X122138000Y-80355000D01*
X133858000Y-92075000D02*
X135128000Y-93345000D01*
%TO.N,+5V*%
X121983000Y-86995000D02*
X124968000Y-86995000D01*
X124968000Y-86995000D02*
X128778000Y-90805000D01*
X157543000Y-79375000D02*
X159258000Y-79375000D01*
X159258000Y-79375000D02*
X161798000Y-81915000D01*
X161798000Y-81915000D02*
X163513000Y-81915000D01*
X159258000Y-84455000D02*
X161798000Y-81915000D01*
%TO.N,/A4(SDA)*%
X171958000Y-116205000D02*
X171958000Y-123825000D01*
%TO.N,/7*%
X121983000Y-90805000D02*
X122428000Y-90805000D01*
X122428000Y-90805000D02*
X123698000Y-89535000D01*
%TO.N,/6(\u002A\u002A)*%
X121983000Y-94575000D02*
X121983000Y-93790000D01*
X121983000Y-93790000D02*
X123698000Y-92075000D01*
%TO.N,GND*%
X168098000Y-81915000D02*
X168418000Y-81595000D01*
%TO.N,/5(\u002A\u002A)*%
X157543000Y-81915000D02*
X159258000Y-81915000D01*
%TO.N,/4*%
X164338000Y-78550000D02*
X163513000Y-79375000D01*
X164338000Y-75565000D02*
X164338000Y-78550000D01*
%TO.N,/3(\u002A\u002A)*%
X150638000Y-80645000D02*
X150638000Y-82915000D01*
X149098000Y-84455000D02*
X148653000Y-84455000D01*
X150638000Y-82915000D02*
X149098000Y-84455000D01*
X154623000Y-80645000D02*
X155893000Y-79375000D01*
X150638000Y-80645000D02*
X154623000Y-80645000D01*
X151368000Y-82915000D02*
X151638000Y-83185000D01*
X150638000Y-82915000D02*
X151368000Y-82915000D01*
%TO.N,/2*%
X169418000Y-75565000D02*
X169418000Y-76835000D01*
X169418000Y-76835000D02*
X170688000Y-78105000D01*
X170688000Y-80375000D02*
X170418000Y-80645000D01*
X170688000Y-78105000D02*
X170688000Y-80375000D01*
X160528000Y-86995000D02*
X148653000Y-86995000D01*
X164338000Y-83185000D02*
X160528000Y-86995000D01*
X169418000Y-83185000D02*
X164338000Y-83185000D01*
X170418000Y-82185000D02*
X169418000Y-83185000D01*
X170418000Y-80645000D02*
X170418000Y-82185000D01*
X165163000Y-82360000D02*
X164338000Y-83185000D01*
X165163000Y-81915000D02*
X165163000Y-82360000D01*
%TO.N,Net-(Q1-Pad1)*%
X155573000Y-81595000D02*
X155893000Y-81915000D01*
X152638000Y-81595000D02*
X155573000Y-81595000D01*
%TO.N,Net-(Q2-Pad1)*%
X168098000Y-79375000D02*
X168418000Y-79695000D01*
X165483000Y-79695000D02*
X165163000Y-79375000D01*
X168418000Y-79695000D02*
X165483000Y-79695000D01*
%TO.N,/KFD_DATA*%
X146558000Y-84455000D02*
X135128000Y-95885000D01*
X147003000Y-84455000D02*
X146558000Y-84455000D01*
%TO.N,/KFD_SENSE*%
X147003000Y-86995000D02*
X146558000Y-86995000D01*
X146558000Y-86995000D02*
X136398000Y-97155000D01*
%TO.N,Net-(D3-Pad2)*%
X118135500Y-86995000D02*
X120333000Y-86995000D01*
%TO.N,Net-(D4-Pad2)*%
X118135500Y-90805000D02*
X120333000Y-90805000D01*
%TO.N,Net-(D5-Pad2)*%
X120493000Y-94615000D02*
X120533000Y-94575000D01*
X118135500Y-94615000D02*
X120493000Y-94615000D01*
%TD*%
D19*
%TO.N,GND*%
X124166406Y-73864887D02*
X123874536Y-74301702D01*
X123673492Y-74787065D01*
X123571000Y-75302323D01*
X123571000Y-75827677D01*
X123673492Y-76342935D01*
X123874536Y-76828298D01*
X124166406Y-77265113D01*
X124537887Y-77636594D01*
X124974702Y-77928464D01*
X125460065Y-78129508D01*
X125975323Y-78232000D01*
X126500677Y-78232000D01*
X127015935Y-78129508D01*
X127501298Y-77928464D01*
X127938113Y-77636594D01*
X128309594Y-77265113D01*
X128601464Y-76828298D01*
X128657001Y-76694219D01*
X128729203Y-76782197D01*
X128957395Y-76969469D01*
X129217737Y-77108625D01*
X129500224Y-77194316D01*
X129794000Y-77223251D01*
X130087777Y-77194316D01*
X130370264Y-77108625D01*
X130630606Y-76969469D01*
X130858797Y-76782197D01*
X131046069Y-76554006D01*
X131064000Y-76520459D01*
X131081931Y-76554006D01*
X131269203Y-76782197D01*
X131497395Y-76969469D01*
X131757737Y-77108625D01*
X132040224Y-77194316D01*
X132334000Y-77223251D01*
X132627777Y-77194316D01*
X132910264Y-77108625D01*
X133170606Y-76969469D01*
X133398797Y-76782197D01*
X133586069Y-76554006D01*
X133604000Y-76520459D01*
X133621931Y-76554006D01*
X133809203Y-76782197D01*
X134037395Y-76969469D01*
X134297737Y-77108625D01*
X134580224Y-77194316D01*
X134874000Y-77223251D01*
X135167777Y-77194316D01*
X135450264Y-77108625D01*
X135710606Y-76969469D01*
X135938797Y-76782197D01*
X136126069Y-76554006D01*
X136147424Y-76514053D01*
X136295514Y-76716729D01*
X136511965Y-76915733D01*
X136763081Y-77068686D01*
X137039211Y-77169709D01*
X137054974Y-77172358D01*
X137287000Y-77051217D01*
X137287000Y-75692000D01*
X137267000Y-75692000D01*
X137267000Y-75438000D01*
X137287000Y-75438000D01*
X137287000Y-74078783D01*
X137541000Y-74078783D01*
X137541000Y-75438000D01*
X137561000Y-75438000D01*
X137561000Y-75692000D01*
X137541000Y-75692000D01*
X137541000Y-77051217D01*
X137773026Y-77172358D01*
X137788789Y-77169709D01*
X138064919Y-77068686D01*
X138316035Y-76915733D01*
X138532486Y-76716729D01*
X138680576Y-76514053D01*
X138701931Y-76554006D01*
X138889203Y-76782197D01*
X139117395Y-76969469D01*
X139377737Y-77108625D01*
X139660224Y-77194316D01*
X139954000Y-77223251D01*
X140247777Y-77194316D01*
X140530264Y-77108625D01*
X140790606Y-76969469D01*
X141018797Y-76782197D01*
X141206069Y-76554006D01*
X141224000Y-76520459D01*
X141241931Y-76554006D01*
X141429203Y-76782197D01*
X141657395Y-76969469D01*
X141917737Y-77108625D01*
X142200224Y-77194316D01*
X142494000Y-77223251D01*
X142787777Y-77194316D01*
X143070264Y-77108625D01*
X143330606Y-76969469D01*
X143558797Y-76782197D01*
X143746069Y-76554006D01*
X143764000Y-76520459D01*
X143781931Y-76554006D01*
X143969203Y-76782197D01*
X144197395Y-76969469D01*
X144457737Y-77108625D01*
X144740224Y-77194316D01*
X145034000Y-77223251D01*
X145327777Y-77194316D01*
X145610264Y-77108625D01*
X145870606Y-76969469D01*
X146098797Y-76782197D01*
X146286069Y-76554006D01*
X146304000Y-76520459D01*
X146321931Y-76554006D01*
X146509203Y-76782197D01*
X146737395Y-76969469D01*
X146997737Y-77108625D01*
X147280224Y-77194316D01*
X147574000Y-77223251D01*
X147867777Y-77194316D01*
X148150264Y-77108625D01*
X148410606Y-76969469D01*
X148638797Y-76782197D01*
X148826069Y-76554006D01*
X148844000Y-76520459D01*
X148861931Y-76554006D01*
X149049203Y-76782197D01*
X149277395Y-76969469D01*
X149537737Y-77108625D01*
X149820224Y-77194316D01*
X150114000Y-77223251D01*
X150407777Y-77194316D01*
X150690264Y-77108625D01*
X150950606Y-76969469D01*
X151178797Y-76782197D01*
X151366069Y-76554006D01*
X151384000Y-76520459D01*
X151401931Y-76554006D01*
X151589203Y-76782197D01*
X151817395Y-76969469D01*
X152077737Y-77108625D01*
X152360224Y-77194316D01*
X152654000Y-77223251D01*
X152947777Y-77194316D01*
X153230264Y-77108625D01*
X153490606Y-76969469D01*
X153718797Y-76782197D01*
X153906069Y-76554006D01*
X154045225Y-76293663D01*
X154130916Y-76011176D01*
X154152600Y-75791018D01*
X154152600Y-75338981D01*
X154130916Y-75118823D01*
X154045225Y-74836336D01*
X153906069Y-74575994D01*
X153718797Y-74347803D01*
X153490605Y-74160531D01*
X153230263Y-74021375D01*
X152947776Y-73935684D01*
X152654000Y-73906749D01*
X152360223Y-73935684D01*
X152077736Y-74021375D01*
X151817394Y-74160531D01*
X151589203Y-74347803D01*
X151401931Y-74575995D01*
X151384000Y-74609541D01*
X151366069Y-74575994D01*
X151178797Y-74347803D01*
X150950605Y-74160531D01*
X150690263Y-74021375D01*
X150407776Y-73935684D01*
X150114000Y-73906749D01*
X149820223Y-73935684D01*
X149537736Y-74021375D01*
X149277394Y-74160531D01*
X149049203Y-74347803D01*
X148861931Y-74575995D01*
X148844000Y-74609541D01*
X148826069Y-74575994D01*
X148638797Y-74347803D01*
X148410605Y-74160531D01*
X148150263Y-74021375D01*
X147867776Y-73935684D01*
X147574000Y-73906749D01*
X147280223Y-73935684D01*
X146997736Y-74021375D01*
X146737394Y-74160531D01*
X146509203Y-74347803D01*
X146321931Y-74575995D01*
X146304000Y-74609541D01*
X146286069Y-74575994D01*
X146098797Y-74347803D01*
X145870605Y-74160531D01*
X145610263Y-74021375D01*
X145327776Y-73935684D01*
X145034000Y-73906749D01*
X144740223Y-73935684D01*
X144457736Y-74021375D01*
X144197394Y-74160531D01*
X143969203Y-74347803D01*
X143781931Y-74575995D01*
X143764000Y-74609541D01*
X143746069Y-74575994D01*
X143558797Y-74347803D01*
X143330605Y-74160531D01*
X143070263Y-74021375D01*
X142787776Y-73935684D01*
X142494000Y-73906749D01*
X142200223Y-73935684D01*
X141917736Y-74021375D01*
X141657394Y-74160531D01*
X141429203Y-74347803D01*
X141241931Y-74575995D01*
X141224000Y-74609541D01*
X141206069Y-74575994D01*
X141018797Y-74347803D01*
X140790605Y-74160531D01*
X140530263Y-74021375D01*
X140247776Y-73935684D01*
X139954000Y-73906749D01*
X139660223Y-73935684D01*
X139377736Y-74021375D01*
X139117394Y-74160531D01*
X138889203Y-74347803D01*
X138701931Y-74575995D01*
X138680576Y-74615947D01*
X138532486Y-74413271D01*
X138316035Y-74214267D01*
X138064919Y-74061314D01*
X137788789Y-73960291D01*
X137773026Y-73957642D01*
X137541000Y-74078783D01*
X137287000Y-74078783D01*
X137054974Y-73957642D01*
X137039211Y-73960291D01*
X136763081Y-74061314D01*
X136511965Y-74214267D01*
X136295514Y-74413271D01*
X136147424Y-74615947D01*
X136126069Y-74575994D01*
X135938797Y-74347803D01*
X135710605Y-74160531D01*
X135450263Y-74021375D01*
X135167776Y-73935684D01*
X134874000Y-73906749D01*
X134580223Y-73935684D01*
X134297736Y-74021375D01*
X134037394Y-74160531D01*
X133809203Y-74347803D01*
X133621931Y-74575995D01*
X133604000Y-74609541D01*
X133586069Y-74575994D01*
X133398797Y-74347803D01*
X133170605Y-74160531D01*
X132910263Y-74021375D01*
X132627776Y-73935684D01*
X132334000Y-73906749D01*
X132040223Y-73935684D01*
X131757736Y-74021375D01*
X131497394Y-74160531D01*
X131269203Y-74347803D01*
X131081931Y-74575995D01*
X131064000Y-74609541D01*
X131046069Y-74575994D01*
X130858797Y-74347803D01*
X130630605Y-74160531D01*
X130370263Y-74021375D01*
X130087776Y-73935684D01*
X129794000Y-73906749D01*
X129500223Y-73935684D01*
X129217736Y-74021375D01*
X128957394Y-74160531D01*
X128729203Y-74347803D01*
X128657001Y-74435781D01*
X128601464Y-74301702D01*
X128309594Y-73864887D01*
X128179707Y-73735000D01*
X175219909Y-73735000D01*
X176328001Y-74843093D01*
X176328000Y-85944125D01*
X176324565Y-85979000D01*
X176328000Y-86013875D01*
X176328000Y-86013876D01*
X176338273Y-86118183D01*
X176378872Y-86252019D01*
X176444800Y-86375362D01*
X176533525Y-86483474D01*
X176560617Y-86505708D01*
X178868001Y-88813093D01*
X178868001Y-88863294D01*
X178738113Y-88733406D01*
X178301298Y-88441536D01*
X177815935Y-88240492D01*
X177300677Y-88138000D01*
X176775323Y-88138000D01*
X176260065Y-88240492D01*
X175774702Y-88441536D01*
X175337887Y-88733406D01*
X174966406Y-89104887D01*
X174674536Y-89541702D01*
X174473492Y-90027065D01*
X174371000Y-90542323D01*
X174371000Y-91067677D01*
X174473492Y-91582935D01*
X174674536Y-92068298D01*
X174966406Y-92505113D01*
X175337887Y-92876594D01*
X175774702Y-93168464D01*
X176260065Y-93369508D01*
X176775323Y-93472000D01*
X177300677Y-93472000D01*
X177815935Y-93369508D01*
X178301298Y-93168464D01*
X178738113Y-92876594D01*
X178868001Y-92746706D01*
X178868000Y-116803293D01*
X178738113Y-116673406D01*
X178301298Y-116381536D01*
X177815935Y-116180492D01*
X177300677Y-116078000D01*
X176775323Y-116078000D01*
X176260065Y-116180492D01*
X175774702Y-116381536D01*
X175337887Y-116673406D01*
X174966406Y-117044887D01*
X174674536Y-117481702D01*
X174473492Y-117967065D01*
X174371000Y-118482323D01*
X174371000Y-119007677D01*
X174473492Y-119522935D01*
X174674536Y-120008298D01*
X174966406Y-120445113D01*
X175337887Y-120816594D01*
X175774702Y-121108464D01*
X176260065Y-121309508D01*
X176775323Y-121412000D01*
X177300677Y-121412000D01*
X177815935Y-121309508D01*
X178301298Y-121108464D01*
X178738113Y-120816594D01*
X178868000Y-120686707D01*
X178868000Y-120990908D01*
X176560617Y-123298292D01*
X176533526Y-123320525D01*
X176511293Y-123347616D01*
X176444801Y-123428637D01*
X176378872Y-123551981D01*
X176338274Y-123685816D01*
X176324565Y-123825000D01*
X176328001Y-123859885D01*
X176328000Y-125655000D01*
X126909707Y-125655000D01*
X127039594Y-125525113D01*
X127331464Y-125088298D01*
X127532508Y-124602935D01*
X127635000Y-124087677D01*
X127635000Y-123598982D01*
X137439400Y-123598982D01*
X137439400Y-124051019D01*
X137461084Y-124271177D01*
X137546775Y-124553664D01*
X137685931Y-124814006D01*
X137873203Y-125042197D01*
X138101395Y-125229469D01*
X138361737Y-125368625D01*
X138644224Y-125454316D01*
X138938000Y-125483251D01*
X139231777Y-125454316D01*
X139514264Y-125368625D01*
X139774606Y-125229469D01*
X140002797Y-125042197D01*
X140190069Y-124814006D01*
X140208000Y-124780459D01*
X140225931Y-124814006D01*
X140413203Y-125042197D01*
X140641395Y-125229469D01*
X140901737Y-125368625D01*
X141184224Y-125454316D01*
X141478000Y-125483251D01*
X141771777Y-125454316D01*
X142054264Y-125368625D01*
X142314606Y-125229469D01*
X142542797Y-125042197D01*
X142730069Y-124814006D01*
X142748000Y-124780459D01*
X142765931Y-124814006D01*
X142953203Y-125042197D01*
X143181395Y-125229469D01*
X143441737Y-125368625D01*
X143724224Y-125454316D01*
X144018000Y-125483251D01*
X144311777Y-125454316D01*
X144594264Y-125368625D01*
X144854606Y-125229469D01*
X145082797Y-125042197D01*
X145270069Y-124814006D01*
X145288000Y-124780459D01*
X145305931Y-124814006D01*
X145493203Y-125042197D01*
X145721395Y-125229469D01*
X145981737Y-125368625D01*
X146264224Y-125454316D01*
X146558000Y-125483251D01*
X146851777Y-125454316D01*
X147134264Y-125368625D01*
X147394606Y-125229469D01*
X147622797Y-125042197D01*
X147810069Y-124814006D01*
X147828000Y-124780459D01*
X147845931Y-124814006D01*
X148033203Y-125042197D01*
X148261395Y-125229469D01*
X148521737Y-125368625D01*
X148804224Y-125454316D01*
X149098000Y-125483251D01*
X149391777Y-125454316D01*
X149674264Y-125368625D01*
X149934606Y-125229469D01*
X150162797Y-125042197D01*
X150350069Y-124814006D01*
X150371424Y-124774053D01*
X150519514Y-124976729D01*
X150735965Y-125175733D01*
X150987081Y-125328686D01*
X151263211Y-125429709D01*
X151278974Y-125432358D01*
X151511000Y-125311217D01*
X151511000Y-123952000D01*
X151765000Y-123952000D01*
X151765000Y-125311217D01*
X151997026Y-125432358D01*
X152012789Y-125429709D01*
X152288919Y-125328686D01*
X152540035Y-125175733D01*
X152756486Y-124976729D01*
X152908000Y-124769367D01*
X153059514Y-124976729D01*
X153275965Y-125175733D01*
X153527081Y-125328686D01*
X153803211Y-125429709D01*
X153818974Y-125432358D01*
X154051000Y-125311217D01*
X154051000Y-123952000D01*
X151765000Y-123952000D01*
X151511000Y-123952000D01*
X151491000Y-123952000D01*
X151491000Y-123698000D01*
X151511000Y-123698000D01*
X151511000Y-122338783D01*
X151765000Y-122338783D01*
X151765000Y-123698000D01*
X154051000Y-123698000D01*
X154051000Y-122338783D01*
X154305000Y-122338783D01*
X154305000Y-123698000D01*
X154325000Y-123698000D01*
X154325000Y-123952000D01*
X154305000Y-123952000D01*
X154305000Y-125311217D01*
X154537026Y-125432358D01*
X154552789Y-125429709D01*
X154828919Y-125328686D01*
X155080035Y-125175733D01*
X155296486Y-124976729D01*
X155444576Y-124774053D01*
X155465931Y-124814006D01*
X155653203Y-125042197D01*
X155881395Y-125229469D01*
X156141737Y-125368625D01*
X156424224Y-125454316D01*
X156718000Y-125483251D01*
X157011777Y-125454316D01*
X157294264Y-125368625D01*
X157554606Y-125229469D01*
X157782797Y-125042197D01*
X157970069Y-124814006D01*
X158109225Y-124553663D01*
X158194916Y-124271176D01*
X158216600Y-124051018D01*
X158216600Y-123598982D01*
X160299400Y-123598982D01*
X160299400Y-124051019D01*
X160321084Y-124271177D01*
X160406775Y-124553664D01*
X160545931Y-124814006D01*
X160733203Y-125042197D01*
X160961395Y-125229469D01*
X161221737Y-125368625D01*
X161504224Y-125454316D01*
X161798000Y-125483251D01*
X162091777Y-125454316D01*
X162374264Y-125368625D01*
X162634606Y-125229469D01*
X162862797Y-125042197D01*
X163050069Y-124814006D01*
X163068000Y-124780459D01*
X163085931Y-124814006D01*
X163273203Y-125042197D01*
X163501395Y-125229469D01*
X163761737Y-125368625D01*
X164044224Y-125454316D01*
X164338000Y-125483251D01*
X164631777Y-125454316D01*
X164914264Y-125368625D01*
X165174606Y-125229469D01*
X165402797Y-125042197D01*
X165590069Y-124814006D01*
X165608000Y-124780459D01*
X165625931Y-124814006D01*
X165813203Y-125042197D01*
X166041395Y-125229469D01*
X166301737Y-125368625D01*
X166584224Y-125454316D01*
X166878000Y-125483251D01*
X167171777Y-125454316D01*
X167454264Y-125368625D01*
X167714606Y-125229469D01*
X167942797Y-125042197D01*
X168130069Y-124814006D01*
X168148000Y-124780459D01*
X168165931Y-124814006D01*
X168353203Y-125042197D01*
X168581395Y-125229469D01*
X168841737Y-125368625D01*
X169124224Y-125454316D01*
X169418000Y-125483251D01*
X169711777Y-125454316D01*
X169994264Y-125368625D01*
X170254606Y-125229469D01*
X170482797Y-125042197D01*
X170670069Y-124814006D01*
X170688000Y-124780459D01*
X170705931Y-124814006D01*
X170893203Y-125042197D01*
X171121395Y-125229469D01*
X171381737Y-125368625D01*
X171664224Y-125454316D01*
X171958000Y-125483251D01*
X172251777Y-125454316D01*
X172534264Y-125368625D01*
X172794606Y-125229469D01*
X173022797Y-125042197D01*
X173210069Y-124814006D01*
X173228000Y-124780459D01*
X173245931Y-124814006D01*
X173433203Y-125042197D01*
X173661395Y-125229469D01*
X173921737Y-125368625D01*
X174204224Y-125454316D01*
X174498000Y-125483251D01*
X174791777Y-125454316D01*
X175074264Y-125368625D01*
X175334606Y-125229469D01*
X175562797Y-125042197D01*
X175750069Y-124814006D01*
X175889225Y-124553663D01*
X175974916Y-124271176D01*
X175996600Y-124051018D01*
X175996600Y-123598981D01*
X175974916Y-123378823D01*
X175889225Y-123096336D01*
X175750069Y-122835994D01*
X175562797Y-122607803D01*
X175334605Y-122420531D01*
X175074263Y-122281375D01*
X174791776Y-122195684D01*
X174498000Y-122166749D01*
X174204223Y-122195684D01*
X173921736Y-122281375D01*
X173661394Y-122420531D01*
X173433203Y-122607803D01*
X173245931Y-122835995D01*
X173228000Y-122869541D01*
X173210069Y-122835994D01*
X173022797Y-122607803D01*
X172794605Y-122420531D01*
X172718000Y-122379585D01*
X172718000Y-116750535D01*
X172786586Y-116647889D01*
X172857068Y-116477729D01*
X172893000Y-116297089D01*
X172893000Y-116112911D01*
X172857068Y-115932271D01*
X172786586Y-115762111D01*
X172684262Y-115608972D01*
X172554028Y-115478738D01*
X172400889Y-115376414D01*
X172230729Y-115305932D01*
X172050089Y-115270000D01*
X171865911Y-115270000D01*
X171685271Y-115305932D01*
X171515111Y-115376414D01*
X171361972Y-115478738D01*
X171231738Y-115608972D01*
X171129414Y-115762111D01*
X171058932Y-115932271D01*
X171023000Y-116112911D01*
X171023000Y-116297089D01*
X171058932Y-116477729D01*
X171129414Y-116647889D01*
X171198000Y-116750536D01*
X171198001Y-122379584D01*
X171121394Y-122420531D01*
X170893203Y-122607803D01*
X170705931Y-122835995D01*
X170688000Y-122869541D01*
X170670069Y-122835994D01*
X170482797Y-122607803D01*
X170254605Y-122420531D01*
X169994263Y-122281375D01*
X169711776Y-122195684D01*
X169418000Y-122166749D01*
X169124223Y-122195684D01*
X168841736Y-122281375D01*
X168581394Y-122420531D01*
X168353203Y-122607803D01*
X168165931Y-122835995D01*
X168148000Y-122869541D01*
X168130069Y-122835994D01*
X167942797Y-122607803D01*
X167714605Y-122420531D01*
X167454263Y-122281375D01*
X167171776Y-122195684D01*
X166878000Y-122166749D01*
X166584223Y-122195684D01*
X166301736Y-122281375D01*
X166041394Y-122420531D01*
X165813203Y-122607803D01*
X165625931Y-122835995D01*
X165608000Y-122869541D01*
X165590069Y-122835994D01*
X165402797Y-122607803D01*
X165174605Y-122420531D01*
X164914263Y-122281375D01*
X164631776Y-122195684D01*
X164338000Y-122166749D01*
X164044223Y-122195684D01*
X163761736Y-122281375D01*
X163501394Y-122420531D01*
X163273203Y-122607803D01*
X163085931Y-122835995D01*
X163068000Y-122869541D01*
X163050069Y-122835994D01*
X162862797Y-122607803D01*
X162634605Y-122420531D01*
X162374263Y-122281375D01*
X162091776Y-122195684D01*
X161798000Y-122166749D01*
X161504223Y-122195684D01*
X161221736Y-122281375D01*
X160961394Y-122420531D01*
X160733203Y-122607803D01*
X160545931Y-122835995D01*
X160406775Y-123096337D01*
X160321084Y-123378824D01*
X160299400Y-123598982D01*
X158216600Y-123598982D01*
X158216600Y-123598981D01*
X158194916Y-123378823D01*
X158109225Y-123096336D01*
X157970069Y-122835994D01*
X157782797Y-122607803D01*
X157554605Y-122420531D01*
X157294263Y-122281375D01*
X157011776Y-122195684D01*
X156718000Y-122166749D01*
X156424223Y-122195684D01*
X156141736Y-122281375D01*
X155881394Y-122420531D01*
X155653203Y-122607803D01*
X155465931Y-122835995D01*
X155444576Y-122875947D01*
X155296486Y-122673271D01*
X155080035Y-122474267D01*
X154828919Y-122321314D01*
X154552789Y-122220291D01*
X154537026Y-122217642D01*
X154305000Y-122338783D01*
X154051000Y-122338783D01*
X153818974Y-122217642D01*
X153803211Y-122220291D01*
X153527081Y-122321314D01*
X153275965Y-122474267D01*
X153059514Y-122673271D01*
X152908000Y-122880633D01*
X152756486Y-122673271D01*
X152540035Y-122474267D01*
X152288919Y-122321314D01*
X152012789Y-122220291D01*
X151997026Y-122217642D01*
X151765000Y-122338783D01*
X151511000Y-122338783D01*
X151278974Y-122217642D01*
X151263211Y-122220291D01*
X150987081Y-122321314D01*
X150735965Y-122474267D01*
X150519514Y-122673271D01*
X150371424Y-122875947D01*
X150350069Y-122835994D01*
X150162797Y-122607803D01*
X149934605Y-122420531D01*
X149674263Y-122281375D01*
X149391776Y-122195684D01*
X149098000Y-122166749D01*
X148804223Y-122195684D01*
X148521736Y-122281375D01*
X148261394Y-122420531D01*
X148033203Y-122607803D01*
X147845931Y-122835995D01*
X147828000Y-122869541D01*
X147810069Y-122835994D01*
X147622797Y-122607803D01*
X147394605Y-122420531D01*
X147134263Y-122281375D01*
X146851776Y-122195684D01*
X146558000Y-122166749D01*
X146264223Y-122195684D01*
X145981736Y-122281375D01*
X145721394Y-122420531D01*
X145493203Y-122607803D01*
X145305931Y-122835995D01*
X145288000Y-122869541D01*
X145270069Y-122835994D01*
X145082797Y-122607803D01*
X144854605Y-122420531D01*
X144594263Y-122281375D01*
X144311776Y-122195684D01*
X144018000Y-122166749D01*
X143724223Y-122195684D01*
X143441736Y-122281375D01*
X143181394Y-122420531D01*
X142953203Y-122607803D01*
X142765931Y-122835995D01*
X142748000Y-122869541D01*
X142730069Y-122835994D01*
X142542797Y-122607803D01*
X142314605Y-122420531D01*
X142054263Y-122281375D01*
X141771776Y-122195684D01*
X141478000Y-122166749D01*
X141184223Y-122195684D01*
X140901736Y-122281375D01*
X140641394Y-122420531D01*
X140413203Y-122607803D01*
X140225931Y-122835995D01*
X140208000Y-122869541D01*
X140190069Y-122835994D01*
X140002797Y-122607803D01*
X139774605Y-122420531D01*
X139514263Y-122281375D01*
X139231776Y-122195684D01*
X138938000Y-122166749D01*
X138644223Y-122195684D01*
X138361736Y-122281375D01*
X138101394Y-122420531D01*
X137873203Y-122607803D01*
X137685931Y-122835995D01*
X137546775Y-123096337D01*
X137461084Y-123378824D01*
X137439400Y-123598982D01*
X127635000Y-123598982D01*
X127635000Y-123562323D01*
X127532508Y-123047065D01*
X127331464Y-122561702D01*
X127039594Y-122124887D01*
X126668113Y-121753406D01*
X126231298Y-121461536D01*
X125745935Y-121260492D01*
X125230677Y-121158000D01*
X124705323Y-121158000D01*
X124190065Y-121260492D01*
X123704702Y-121461536D01*
X123267887Y-121753406D01*
X122896406Y-122124887D01*
X122604536Y-122561702D01*
X122403492Y-123047065D01*
X122301000Y-123562323D01*
X122301000Y-124087677D01*
X122403492Y-124602935D01*
X122604536Y-125088298D01*
X122896406Y-125525113D01*
X123026293Y-125655000D01*
X111708000Y-125655000D01*
X111708000Y-107965000D01*
X113635573Y-107965000D01*
X113665210Y-108265913D01*
X113752983Y-108555261D01*
X113895519Y-108821927D01*
X114087339Y-109055661D01*
X114321073Y-109247481D01*
X114587739Y-109390017D01*
X114877087Y-109477790D01*
X115102592Y-109500000D01*
X117053408Y-109500000D01*
X117278913Y-109477790D01*
X117568261Y-109390017D01*
X117834927Y-109247481D01*
X118068661Y-109055661D01*
X118260481Y-108821927D01*
X118403017Y-108555261D01*
X118490790Y-108265913D01*
X118520427Y-107965000D01*
X118490790Y-107664087D01*
X118403017Y-107374739D01*
X118260481Y-107108073D01*
X118068661Y-106874339D01*
X117834927Y-106682519D01*
X117568261Y-106539983D01*
X117278913Y-106452210D01*
X117053408Y-106430000D01*
X115102592Y-106430000D01*
X114877087Y-106452210D01*
X114587739Y-106539983D01*
X114321073Y-106682519D01*
X114087339Y-106874339D01*
X113895519Y-107108073D01*
X113752983Y-107374739D01*
X113665210Y-107664087D01*
X113635573Y-107965000D01*
X111708000Y-107965000D01*
X111708000Y-104465000D01*
X113635573Y-104465000D01*
X113665210Y-104765913D01*
X113752983Y-105055261D01*
X113895519Y-105321927D01*
X114087339Y-105555661D01*
X114321073Y-105747481D01*
X114587739Y-105890017D01*
X114877087Y-105977790D01*
X115102592Y-106000000D01*
X117053408Y-106000000D01*
X117278913Y-105977790D01*
X117568261Y-105890017D01*
X117834927Y-105747481D01*
X118068661Y-105555661D01*
X118260481Y-105321927D01*
X118403017Y-105055261D01*
X118490790Y-104765913D01*
X118520427Y-104465000D01*
X118490790Y-104164087D01*
X118403017Y-103874739D01*
X118260481Y-103608073D01*
X118068661Y-103374339D01*
X117834927Y-103182519D01*
X117568261Y-103039983D01*
X117278913Y-102952210D01*
X117053408Y-102930000D01*
X115102592Y-102930000D01*
X114877087Y-102952210D01*
X114587739Y-103039983D01*
X114321073Y-103182519D01*
X114087339Y-103374339D01*
X113895519Y-103608073D01*
X113752983Y-103874739D01*
X113665210Y-104164087D01*
X113635573Y-104465000D01*
X111708000Y-104465000D01*
X111708000Y-101865000D01*
X113639928Y-101865000D01*
X113652188Y-101989482D01*
X113688498Y-102109180D01*
X113747463Y-102219494D01*
X113826815Y-102316185D01*
X113923506Y-102395537D01*
X114033820Y-102454502D01*
X114153518Y-102490812D01*
X114278000Y-102503072D01*
X115792250Y-102500000D01*
X115951000Y-102341250D01*
X115951000Y-101092000D01*
X116205000Y-101092000D01*
X116205000Y-102341250D01*
X116363750Y-102500000D01*
X117878000Y-102503072D01*
X118002482Y-102490812D01*
X118122180Y-102454502D01*
X118232494Y-102395537D01*
X118329185Y-102316185D01*
X118408537Y-102219494D01*
X118467502Y-102109180D01*
X118503812Y-101989482D01*
X118516072Y-101865000D01*
X118513000Y-101250750D01*
X118354250Y-101092000D01*
X116205000Y-101092000D01*
X115951000Y-101092000D01*
X113801750Y-101092000D01*
X113643000Y-101250750D01*
X113639928Y-101865000D01*
X111708000Y-101865000D01*
X111708000Y-100065000D01*
X113639928Y-100065000D01*
X113643000Y-100679250D01*
X113801750Y-100838000D01*
X115951000Y-100838000D01*
X115951000Y-99588750D01*
X116205000Y-99588750D01*
X116205000Y-100838000D01*
X118354250Y-100838000D01*
X118513000Y-100679250D01*
X118516072Y-100065000D01*
X118503812Y-99940518D01*
X118467502Y-99820820D01*
X118408537Y-99710506D01*
X118329185Y-99613815D01*
X118232494Y-99534463D01*
X118122180Y-99475498D01*
X118002482Y-99439188D01*
X117878000Y-99426928D01*
X116363750Y-99430000D01*
X116205000Y-99588750D01*
X115951000Y-99588750D01*
X115792250Y-99430000D01*
X114278000Y-99426928D01*
X114153518Y-99439188D01*
X114033820Y-99475498D01*
X113923506Y-99534463D01*
X113826815Y-99613815D01*
X113747463Y-99710506D01*
X113688498Y-99820820D01*
X113652188Y-99940518D01*
X113639928Y-100065000D01*
X111708000Y-100065000D01*
X111708000Y-95792911D01*
X134193000Y-95792911D01*
X134193000Y-95977089D01*
X134228932Y-96157729D01*
X134299414Y-96327889D01*
X134401738Y-96481028D01*
X134531972Y-96611262D01*
X134685111Y-96713586D01*
X134855271Y-96784068D01*
X135035911Y-96820000D01*
X135220089Y-96820000D01*
X135400729Y-96784068D01*
X135568371Y-96714629D01*
X135498932Y-96882271D01*
X135463000Y-97062911D01*
X135463000Y-97247089D01*
X135498932Y-97427729D01*
X135569414Y-97597889D01*
X135671738Y-97751028D01*
X135801972Y-97881262D01*
X135955111Y-97983586D01*
X136125271Y-98054068D01*
X136305911Y-98090000D01*
X136490089Y-98090000D01*
X136670729Y-98054068D01*
X136840889Y-97983586D01*
X136994028Y-97881262D01*
X137124262Y-97751028D01*
X137226586Y-97597889D01*
X137297068Y-97427729D01*
X137321153Y-97306648D01*
X143402801Y-91225000D01*
X148879928Y-91225000D01*
X148879928Y-92925000D01*
X148892188Y-93049482D01*
X148928498Y-93169180D01*
X148987463Y-93279494D01*
X149066815Y-93376185D01*
X149163506Y-93455537D01*
X149273820Y-93514502D01*
X149393518Y-93550812D01*
X149518000Y-93563072D01*
X151218000Y-93563072D01*
X151342482Y-93550812D01*
X151462180Y-93514502D01*
X151572494Y-93455537D01*
X151669185Y-93376185D01*
X151748537Y-93279494D01*
X151807502Y-93169180D01*
X151831966Y-93088534D01*
X151907731Y-93172588D01*
X152141080Y-93346641D01*
X152403901Y-93471825D01*
X152551110Y-93516476D01*
X152781000Y-93395155D01*
X152781000Y-92202000D01*
X152761000Y-92202000D01*
X152761000Y-91948000D01*
X152781000Y-91948000D01*
X152781000Y-90754845D01*
X153035000Y-90754845D01*
X153035000Y-91948000D01*
X153055000Y-91948000D01*
X153055000Y-92202000D01*
X153035000Y-92202000D01*
X153035000Y-93395155D01*
X153264890Y-93516476D01*
X153412099Y-93471825D01*
X153674920Y-93346641D01*
X153908269Y-93172588D01*
X154103178Y-92956355D01*
X154172805Y-92839466D01*
X154294525Y-93021632D01*
X154501368Y-93228475D01*
X154744589Y-93390990D01*
X155014842Y-93502932D01*
X155301740Y-93560000D01*
X155594260Y-93560000D01*
X155881158Y-93502932D01*
X156151411Y-93390990D01*
X156394632Y-93228475D01*
X156601475Y-93021632D01*
X156718000Y-92847240D01*
X156834525Y-93021632D01*
X157041368Y-93228475D01*
X157284589Y-93390990D01*
X157554842Y-93502932D01*
X157841740Y-93560000D01*
X158134260Y-93560000D01*
X158421158Y-93502932D01*
X158691411Y-93390990D01*
X158934632Y-93228475D01*
X159141475Y-93021632D01*
X159303990Y-92778411D01*
X159415932Y-92508158D01*
X159473000Y-92221260D01*
X159473000Y-91928740D01*
X159415932Y-91641842D01*
X159303990Y-91371589D01*
X159141475Y-91128368D01*
X158934632Y-90921525D01*
X158691411Y-90759010D01*
X158421158Y-90647068D01*
X158134260Y-90590000D01*
X157841740Y-90590000D01*
X157554842Y-90647068D01*
X157284589Y-90759010D01*
X157041368Y-90921525D01*
X156834525Y-91128368D01*
X156718000Y-91302760D01*
X156601475Y-91128368D01*
X156394632Y-90921525D01*
X156151411Y-90759010D01*
X155881158Y-90647068D01*
X155594260Y-90590000D01*
X155301740Y-90590000D01*
X155014842Y-90647068D01*
X154744589Y-90759010D01*
X154501368Y-90921525D01*
X154294525Y-91128368D01*
X154172805Y-91310534D01*
X154103178Y-91193645D01*
X153908269Y-90977412D01*
X153674920Y-90803359D01*
X153412099Y-90678175D01*
X153264890Y-90633524D01*
X153035000Y-90754845D01*
X152781000Y-90754845D01*
X152551110Y-90633524D01*
X152403901Y-90678175D01*
X152141080Y-90803359D01*
X151907731Y-90977412D01*
X151831966Y-91061466D01*
X151807502Y-90980820D01*
X151748537Y-90870506D01*
X151669185Y-90773815D01*
X151572494Y-90694463D01*
X151462180Y-90635498D01*
X151342482Y-90599188D01*
X151218000Y-90586928D01*
X149518000Y-90586928D01*
X149393518Y-90599188D01*
X149273820Y-90635498D01*
X149163506Y-90694463D01*
X149066815Y-90773815D01*
X148987463Y-90870506D01*
X148928498Y-90980820D01*
X148892188Y-91100518D01*
X148879928Y-91225000D01*
X143402801Y-91225000D01*
X146559961Y-88067841D01*
X146639500Y-88091969D01*
X146803000Y-88108072D01*
X147203000Y-88108072D01*
X147366500Y-88091969D01*
X147523716Y-88044278D01*
X147668608Y-87966831D01*
X147795606Y-87862606D01*
X147828000Y-87823134D01*
X147860394Y-87862606D01*
X147987392Y-87966831D01*
X148132284Y-88044278D01*
X148289500Y-88091969D01*
X148453000Y-88108072D01*
X148853000Y-88108072D01*
X149016500Y-88091969D01*
X149173716Y-88044278D01*
X149318608Y-87966831D01*
X149445606Y-87862606D01*
X149533916Y-87755000D01*
X160490678Y-87755000D01*
X160528000Y-87758676D01*
X160565322Y-87755000D01*
X160565333Y-87755000D01*
X160676986Y-87744003D01*
X160820247Y-87700546D01*
X160952276Y-87629974D01*
X161068001Y-87535001D01*
X161091804Y-87505997D01*
X164652802Y-83945000D01*
X169380678Y-83945000D01*
X169418000Y-83948676D01*
X169455322Y-83945000D01*
X169455333Y-83945000D01*
X169566986Y-83934003D01*
X169710247Y-83890546D01*
X169842276Y-83819974D01*
X169958001Y-83725001D01*
X169981804Y-83695998D01*
X170929003Y-82748799D01*
X170958001Y-82725001D01*
X171052974Y-82609276D01*
X171123546Y-82477247D01*
X171167003Y-82333986D01*
X171178000Y-82222333D01*
X171181677Y-82185000D01*
X171178000Y-82147667D01*
X171178000Y-81599320D01*
X171222494Y-81575537D01*
X171319185Y-81496185D01*
X171398537Y-81399494D01*
X171457502Y-81289180D01*
X171493812Y-81169482D01*
X171506072Y-81045000D01*
X171506072Y-80245000D01*
X171493812Y-80120518D01*
X171457502Y-80000820D01*
X171448000Y-79983043D01*
X171448000Y-78142322D01*
X171451676Y-78104999D01*
X171448000Y-78067676D01*
X171448000Y-78067667D01*
X171437003Y-77956014D01*
X171393546Y-77812753D01*
X171322974Y-77680724D01*
X171228001Y-77564999D01*
X171199004Y-77541202D01*
X170459290Y-76801489D01*
X170482797Y-76782197D01*
X170670069Y-76554006D01*
X170688000Y-76520459D01*
X170705931Y-76554006D01*
X170893203Y-76782197D01*
X171121395Y-76969469D01*
X171381737Y-77108625D01*
X171664224Y-77194316D01*
X171958000Y-77223251D01*
X172251777Y-77194316D01*
X172534264Y-77108625D01*
X172794606Y-76969469D01*
X173022797Y-76782197D01*
X173210069Y-76554006D01*
X173228000Y-76520459D01*
X173245931Y-76554006D01*
X173433203Y-76782197D01*
X173661395Y-76969469D01*
X173921737Y-77108625D01*
X174204224Y-77194316D01*
X174498000Y-77223251D01*
X174791777Y-77194316D01*
X175074264Y-77108625D01*
X175334606Y-76969469D01*
X175562797Y-76782197D01*
X175750069Y-76554006D01*
X175889225Y-76293663D01*
X175974916Y-76011176D01*
X175996600Y-75791018D01*
X175996600Y-75338981D01*
X175974916Y-75118823D01*
X175889225Y-74836336D01*
X175750069Y-74575994D01*
X175562797Y-74347803D01*
X175334605Y-74160531D01*
X175074263Y-74021375D01*
X174791776Y-73935684D01*
X174498000Y-73906749D01*
X174204223Y-73935684D01*
X173921736Y-74021375D01*
X173661394Y-74160531D01*
X173433203Y-74347803D01*
X173245931Y-74575995D01*
X173228000Y-74609541D01*
X173210069Y-74575994D01*
X173022797Y-74347803D01*
X172794605Y-74160531D01*
X172534263Y-74021375D01*
X172251776Y-73935684D01*
X171958000Y-73906749D01*
X171664223Y-73935684D01*
X171381736Y-74021375D01*
X171121394Y-74160531D01*
X170893203Y-74347803D01*
X170705931Y-74575995D01*
X170688000Y-74609541D01*
X170670069Y-74575994D01*
X170482797Y-74347803D01*
X170254605Y-74160531D01*
X169994263Y-74021375D01*
X169711776Y-73935684D01*
X169418000Y-73906749D01*
X169124223Y-73935684D01*
X168841736Y-74021375D01*
X168581394Y-74160531D01*
X168353203Y-74347803D01*
X168165931Y-74575995D01*
X168148000Y-74609541D01*
X168130069Y-74575994D01*
X167942797Y-74347803D01*
X167714605Y-74160531D01*
X167454263Y-74021375D01*
X167171776Y-73935684D01*
X166878000Y-73906749D01*
X166584223Y-73935684D01*
X166301736Y-74021375D01*
X166041394Y-74160531D01*
X165813203Y-74347803D01*
X165625931Y-74575995D01*
X165608000Y-74609541D01*
X165590069Y-74575994D01*
X165402797Y-74347803D01*
X165174605Y-74160531D01*
X164914263Y-74021375D01*
X164631776Y-73935684D01*
X164338000Y-73906749D01*
X164044223Y-73935684D01*
X163761736Y-74021375D01*
X163501394Y-74160531D01*
X163273203Y-74347803D01*
X163085931Y-74575995D01*
X163068000Y-74609541D01*
X163050069Y-74575994D01*
X162862797Y-74347803D01*
X162634605Y-74160531D01*
X162374263Y-74021375D01*
X162091776Y-73935684D01*
X161798000Y-73906749D01*
X161504223Y-73935684D01*
X161221736Y-74021375D01*
X160961394Y-74160531D01*
X160733203Y-74347803D01*
X160545931Y-74575995D01*
X160528000Y-74609541D01*
X160510069Y-74575994D01*
X160322797Y-74347803D01*
X160094605Y-74160531D01*
X159834263Y-74021375D01*
X159551776Y-73935684D01*
X159258000Y-73906749D01*
X158964223Y-73935684D01*
X158681736Y-74021375D01*
X158421394Y-74160531D01*
X158193203Y-74347803D01*
X158005931Y-74575995D01*
X157988000Y-74609541D01*
X157970069Y-74575994D01*
X157782797Y-74347803D01*
X157554605Y-74160531D01*
X157294263Y-74021375D01*
X157011776Y-73935684D01*
X156718000Y-73906749D01*
X156424223Y-73935684D01*
X156141736Y-74021375D01*
X155881394Y-74160531D01*
X155653203Y-74347803D01*
X155465931Y-74575995D01*
X155326775Y-74836337D01*
X155241084Y-75118824D01*
X155219400Y-75338982D01*
X155219400Y-75791019D01*
X155241084Y-76011177D01*
X155326775Y-76293664D01*
X155465931Y-76554006D01*
X155653203Y-76782197D01*
X155881395Y-76969469D01*
X156141737Y-77108625D01*
X156424224Y-77194316D01*
X156718000Y-77223251D01*
X157011777Y-77194316D01*
X157294264Y-77108625D01*
X157554606Y-76969469D01*
X157782797Y-76782197D01*
X157970069Y-76554006D01*
X157988000Y-76520459D01*
X158005931Y-76554006D01*
X158193203Y-76782197D01*
X158421395Y-76969469D01*
X158681737Y-77108625D01*
X158964224Y-77194316D01*
X159258000Y-77223251D01*
X159551777Y-77194316D01*
X159834264Y-77108625D01*
X160094606Y-76969469D01*
X160322797Y-76782197D01*
X160510069Y-76554006D01*
X160528000Y-76520459D01*
X160545931Y-76554006D01*
X160733203Y-76782197D01*
X160961395Y-76969469D01*
X161221737Y-77108625D01*
X161504224Y-77194316D01*
X161798000Y-77223251D01*
X162091777Y-77194316D01*
X162374264Y-77108625D01*
X162634606Y-76969469D01*
X162862797Y-76782197D01*
X163050069Y-76554006D01*
X163068000Y-76520459D01*
X163085931Y-76554006D01*
X163273203Y-76782197D01*
X163501395Y-76969469D01*
X163578000Y-77010416D01*
X163578001Y-78235197D01*
X163551270Y-78261928D01*
X163313000Y-78261928D01*
X163149500Y-78278031D01*
X162992284Y-78325722D01*
X162847392Y-78403169D01*
X162720394Y-78507394D01*
X162616169Y-78634392D01*
X162538722Y-78779284D01*
X162491031Y-78936500D01*
X162474928Y-79100000D01*
X162474928Y-79650000D01*
X162491031Y-79813500D01*
X162538722Y-79970716D01*
X162616169Y-80115608D01*
X162720394Y-80242606D01*
X162847392Y-80346831D01*
X162992284Y-80424278D01*
X163149500Y-80471969D01*
X163313000Y-80488072D01*
X163713000Y-80488072D01*
X163876500Y-80471969D01*
X164033716Y-80424278D01*
X164178608Y-80346831D01*
X164305606Y-80242606D01*
X164338000Y-80203134D01*
X164370394Y-80242606D01*
X164497392Y-80346831D01*
X164642284Y-80424278D01*
X164799500Y-80471969D01*
X164963000Y-80488072D01*
X165363000Y-80488072D01*
X165526500Y-80471969D01*
X165582439Y-80455000D01*
X167441982Y-80455000D01*
X167516815Y-80546185D01*
X167613506Y-80625537D01*
X167649918Y-80645000D01*
X167613506Y-80664463D01*
X167516815Y-80743815D01*
X167437463Y-80840506D01*
X167378498Y-80950820D01*
X167342188Y-81070518D01*
X167329928Y-81195000D01*
X167333000Y-81309250D01*
X167491750Y-81468000D01*
X168291000Y-81468000D01*
X168291000Y-81448000D01*
X168545000Y-81448000D01*
X168545000Y-81468000D01*
X169344250Y-81468000D01*
X169428857Y-81383393D01*
X169437463Y-81399494D01*
X169516815Y-81496185D01*
X169613506Y-81575537D01*
X169658001Y-81599320D01*
X169658001Y-81870197D01*
X169503109Y-82025090D01*
X169506072Y-81995000D01*
X169503000Y-81880750D01*
X169344250Y-81722000D01*
X168545000Y-81722000D01*
X168545000Y-81742000D01*
X168291000Y-81742000D01*
X168291000Y-81722000D01*
X167491750Y-81722000D01*
X167333000Y-81880750D01*
X167329928Y-81995000D01*
X167342188Y-82119482D01*
X167378498Y-82239180D01*
X167437463Y-82349494D01*
X167499429Y-82425000D01*
X166163280Y-82425000D01*
X166184969Y-82353500D01*
X166201072Y-82190000D01*
X166201072Y-81640000D01*
X166184969Y-81476500D01*
X166137278Y-81319284D01*
X166059831Y-81174392D01*
X165955606Y-81047394D01*
X165828608Y-80943169D01*
X165683716Y-80865722D01*
X165526500Y-80818031D01*
X165363000Y-80801928D01*
X164963000Y-80801928D01*
X164799500Y-80818031D01*
X164642284Y-80865722D01*
X164497392Y-80943169D01*
X164370394Y-81047394D01*
X164338000Y-81086866D01*
X164305606Y-81047394D01*
X164178608Y-80943169D01*
X164033716Y-80865722D01*
X163876500Y-80818031D01*
X163713000Y-80801928D01*
X163313000Y-80801928D01*
X163149500Y-80818031D01*
X162992284Y-80865722D01*
X162847392Y-80943169D01*
X162720394Y-81047394D01*
X162632084Y-81155000D01*
X162112803Y-81155000D01*
X159821804Y-78864003D01*
X159798001Y-78834999D01*
X159682276Y-78740026D01*
X159550247Y-78669454D01*
X159406986Y-78625997D01*
X159295333Y-78615000D01*
X159295322Y-78615000D01*
X159258000Y-78611324D01*
X159220678Y-78615000D01*
X158423916Y-78615000D01*
X158335606Y-78507394D01*
X158208608Y-78403169D01*
X158063716Y-78325722D01*
X157906500Y-78278031D01*
X157743000Y-78261928D01*
X157343000Y-78261928D01*
X157179500Y-78278031D01*
X157022284Y-78325722D01*
X156877392Y-78403169D01*
X156750394Y-78507394D01*
X156718000Y-78546866D01*
X156685606Y-78507394D01*
X156558608Y-78403169D01*
X156413716Y-78325722D01*
X156256500Y-78278031D01*
X156093000Y-78261928D01*
X155693000Y-78261928D01*
X155529500Y-78278031D01*
X155372284Y-78325722D01*
X155227392Y-78403169D01*
X155100394Y-78507394D01*
X154996169Y-78634392D01*
X154918722Y-78779284D01*
X154871031Y-78936500D01*
X154854928Y-79100000D01*
X154854928Y-79338270D01*
X154308199Y-79885000D01*
X153627250Y-79885000D01*
X153564250Y-79822000D01*
X152765000Y-79822000D01*
X152765000Y-79842000D01*
X152511000Y-79842000D01*
X152511000Y-79822000D01*
X151711750Y-79822000D01*
X151648750Y-79885000D01*
X151614018Y-79885000D01*
X151539185Y-79793815D01*
X151442494Y-79714463D01*
X151332180Y-79655498D01*
X151212482Y-79619188D01*
X151088000Y-79606928D01*
X150188000Y-79606928D01*
X150063518Y-79619188D01*
X149943820Y-79655498D01*
X149833506Y-79714463D01*
X149736815Y-79793815D01*
X149657463Y-79890506D01*
X149598498Y-80000820D01*
X149562188Y-80120518D01*
X149549928Y-80245000D01*
X149549928Y-81045000D01*
X149562188Y-81169482D01*
X149598498Y-81289180D01*
X149657463Y-81399494D01*
X149736815Y-81496185D01*
X149833506Y-81575537D01*
X149878000Y-81599320D01*
X149878001Y-82600197D01*
X149096040Y-83382159D01*
X149016500Y-83358031D01*
X148853000Y-83341928D01*
X148453000Y-83341928D01*
X148289500Y-83358031D01*
X148132284Y-83405722D01*
X147987392Y-83483169D01*
X147860394Y-83587394D01*
X147828000Y-83626866D01*
X147795606Y-83587394D01*
X147668608Y-83483169D01*
X147523716Y-83405722D01*
X147366500Y-83358031D01*
X147203000Y-83341928D01*
X146803000Y-83341928D01*
X146639500Y-83358031D01*
X146482284Y-83405722D01*
X146337392Y-83483169D01*
X146210394Y-83587394D01*
X146106169Y-83714392D01*
X146028722Y-83859284D01*
X146008198Y-83926941D01*
X145994201Y-83943997D01*
X134976352Y-94961847D01*
X134855271Y-94985932D01*
X134685111Y-95056414D01*
X134531972Y-95158738D01*
X134401738Y-95288972D01*
X134299414Y-95442111D01*
X134228932Y-95612271D01*
X134193000Y-95792911D01*
X111708000Y-95792911D01*
X111708000Y-95090000D01*
X115484928Y-95090000D01*
X115497188Y-95214482D01*
X115533498Y-95334180D01*
X115592463Y-95444494D01*
X115671815Y-95541185D01*
X115768506Y-95620537D01*
X115878820Y-95679502D01*
X115998518Y-95715812D01*
X116123000Y-95728072D01*
X116274750Y-95725000D01*
X116433500Y-95566250D01*
X116433500Y-94742000D01*
X115646750Y-94742000D01*
X115488000Y-94900750D01*
X115484928Y-95090000D01*
X111708000Y-95090000D01*
X111708000Y-94140000D01*
X115484928Y-94140000D01*
X115488000Y-94329250D01*
X115646750Y-94488000D01*
X116433500Y-94488000D01*
X116433500Y-93663750D01*
X116687500Y-93663750D01*
X116687500Y-94488000D01*
X116707500Y-94488000D01*
X116707500Y-94742000D01*
X116687500Y-94742000D01*
X116687500Y-95566250D01*
X116846250Y-95725000D01*
X116998000Y-95728072D01*
X117122482Y-95715812D01*
X117242180Y-95679502D01*
X117352494Y-95620537D01*
X117419070Y-95565900D01*
X117440725Y-95583671D01*
X117588858Y-95662850D01*
X117749592Y-95711608D01*
X117916750Y-95728072D01*
X118354250Y-95728072D01*
X118521408Y-95711608D01*
X118682142Y-95662850D01*
X118830275Y-95583671D01*
X118960115Y-95477115D01*
X119043918Y-95375000D01*
X119484911Y-95375000D01*
X119540394Y-95442606D01*
X119667392Y-95546831D01*
X119812284Y-95624278D01*
X119969500Y-95671969D01*
X120133000Y-95688072D01*
X120533000Y-95688072D01*
X120696500Y-95671969D01*
X120853716Y-95624278D01*
X120998608Y-95546831D01*
X121125606Y-95442606D01*
X121158000Y-95403134D01*
X121190394Y-95442606D01*
X121317392Y-95546831D01*
X121462284Y-95624278D01*
X121619500Y-95671969D01*
X121783000Y-95688072D01*
X122183000Y-95688072D01*
X122346500Y-95671969D01*
X122503716Y-95624278D01*
X122648608Y-95546831D01*
X122775606Y-95442606D01*
X122879831Y-95315608D01*
X122957278Y-95170716D01*
X123004969Y-95013500D01*
X123021072Y-94850000D01*
X123021072Y-94300000D01*
X123004969Y-94136500D01*
X122957278Y-93979284D01*
X122926360Y-93921441D01*
X123849649Y-92998153D01*
X123970729Y-92974068D01*
X124140889Y-92903586D01*
X124294028Y-92801262D01*
X124424262Y-92671028D01*
X124526586Y-92517889D01*
X124597068Y-92347729D01*
X124633000Y-92167089D01*
X124633000Y-91982911D01*
X124597068Y-91802271D01*
X124526586Y-91632111D01*
X124424262Y-91478972D01*
X124294028Y-91348738D01*
X124140889Y-91246414D01*
X123970729Y-91175932D01*
X123790089Y-91140000D01*
X123605911Y-91140000D01*
X123425271Y-91175932D01*
X123255111Y-91246414D01*
X123101972Y-91348738D01*
X122971738Y-91478972D01*
X122869414Y-91632111D01*
X122798932Y-91802271D01*
X122774847Y-91923351D01*
X121471998Y-93226201D01*
X121443000Y-93249999D01*
X121419202Y-93278997D01*
X121419201Y-93278998D01*
X121348026Y-93365724D01*
X121277454Y-93497754D01*
X121262317Y-93547656D01*
X121233997Y-93641014D01*
X121230719Y-93674300D01*
X121190394Y-93707394D01*
X121158000Y-93746866D01*
X121125606Y-93707394D01*
X120998608Y-93603169D01*
X120853716Y-93525722D01*
X120696500Y-93478031D01*
X120533000Y-93461928D01*
X120133000Y-93461928D01*
X119969500Y-93478031D01*
X119812284Y-93525722D01*
X119667392Y-93603169D01*
X119540394Y-93707394D01*
X119436169Y-93834392D01*
X119425154Y-93855000D01*
X119043918Y-93855000D01*
X118960115Y-93752885D01*
X118830275Y-93646329D01*
X118682142Y-93567150D01*
X118521408Y-93518392D01*
X118354250Y-93501928D01*
X117916750Y-93501928D01*
X117749592Y-93518392D01*
X117588858Y-93567150D01*
X117440725Y-93646329D01*
X117419070Y-93664100D01*
X117352494Y-93609463D01*
X117242180Y-93550498D01*
X117122482Y-93514188D01*
X116998000Y-93501928D01*
X116846250Y-93505000D01*
X116687500Y-93663750D01*
X116433500Y-93663750D01*
X116274750Y-93505000D01*
X116123000Y-93501928D01*
X115998518Y-93514188D01*
X115878820Y-93550498D01*
X115768506Y-93609463D01*
X115671815Y-93688815D01*
X115592463Y-93785506D01*
X115533498Y-93895820D01*
X115497188Y-94015518D01*
X115484928Y-94140000D01*
X111708000Y-94140000D01*
X111708000Y-91280000D01*
X115484928Y-91280000D01*
X115497188Y-91404482D01*
X115533498Y-91524180D01*
X115592463Y-91634494D01*
X115671815Y-91731185D01*
X115768506Y-91810537D01*
X115878820Y-91869502D01*
X115998518Y-91905812D01*
X116123000Y-91918072D01*
X116274750Y-91915000D01*
X116433500Y-91756250D01*
X116433500Y-90932000D01*
X115646750Y-90932000D01*
X115488000Y-91090750D01*
X115484928Y-91280000D01*
X111708000Y-91280000D01*
X111708000Y-90330000D01*
X115484928Y-90330000D01*
X115488000Y-90519250D01*
X115646750Y-90678000D01*
X116433500Y-90678000D01*
X116433500Y-89853750D01*
X116687500Y-89853750D01*
X116687500Y-90678000D01*
X116707500Y-90678000D01*
X116707500Y-90932000D01*
X116687500Y-90932000D01*
X116687500Y-91756250D01*
X116846250Y-91915000D01*
X116998000Y-91918072D01*
X117122482Y-91905812D01*
X117242180Y-91869502D01*
X117352494Y-91810537D01*
X117419070Y-91755900D01*
X117440725Y-91773671D01*
X117588858Y-91852850D01*
X117749592Y-91901608D01*
X117916750Y-91918072D01*
X118354250Y-91918072D01*
X118521408Y-91901608D01*
X118682142Y-91852850D01*
X118830275Y-91773671D01*
X118960115Y-91667115D01*
X119043918Y-91565000D01*
X119452084Y-91565000D01*
X119540394Y-91672606D01*
X119667392Y-91776831D01*
X119812284Y-91854278D01*
X119969500Y-91901969D01*
X120133000Y-91918072D01*
X120533000Y-91918072D01*
X120696500Y-91901969D01*
X120853716Y-91854278D01*
X120998608Y-91776831D01*
X121125606Y-91672606D01*
X121158000Y-91633134D01*
X121190394Y-91672606D01*
X121317392Y-91776831D01*
X121462284Y-91854278D01*
X121619500Y-91901969D01*
X121783000Y-91918072D01*
X122183000Y-91918072D01*
X122346500Y-91901969D01*
X122503716Y-91854278D01*
X122648608Y-91776831D01*
X122775606Y-91672606D01*
X122879831Y-91545608D01*
X122957278Y-91400716D01*
X122977802Y-91333059D01*
X122991804Y-91315997D01*
X123849649Y-90458153D01*
X123970729Y-90434068D01*
X124140889Y-90363586D01*
X124294028Y-90261262D01*
X124424262Y-90131028D01*
X124526586Y-89977889D01*
X124597068Y-89807729D01*
X124633000Y-89627089D01*
X124633000Y-89442911D01*
X124597068Y-89262271D01*
X124526586Y-89092111D01*
X124424262Y-88938972D01*
X124294028Y-88808738D01*
X124140889Y-88706414D01*
X123970729Y-88635932D01*
X123790089Y-88600000D01*
X123605911Y-88600000D01*
X123425271Y-88635932D01*
X123255111Y-88706414D01*
X123101972Y-88808738D01*
X122971738Y-88938972D01*
X122869414Y-89092111D01*
X122798932Y-89262271D01*
X122774847Y-89383351D01*
X122426040Y-89732159D01*
X122346500Y-89708031D01*
X122183000Y-89691928D01*
X121783000Y-89691928D01*
X121619500Y-89708031D01*
X121462284Y-89755722D01*
X121317392Y-89833169D01*
X121190394Y-89937394D01*
X121158000Y-89976866D01*
X121125606Y-89937394D01*
X120998608Y-89833169D01*
X120853716Y-89755722D01*
X120696500Y-89708031D01*
X120533000Y-89691928D01*
X120133000Y-89691928D01*
X119969500Y-89708031D01*
X119812284Y-89755722D01*
X119667392Y-89833169D01*
X119540394Y-89937394D01*
X119452084Y-90045000D01*
X119043918Y-90045000D01*
X118960115Y-89942885D01*
X118830275Y-89836329D01*
X118682142Y-89757150D01*
X118521408Y-89708392D01*
X118354250Y-89691928D01*
X117916750Y-89691928D01*
X117749592Y-89708392D01*
X117588858Y-89757150D01*
X117440725Y-89836329D01*
X117419070Y-89854100D01*
X117352494Y-89799463D01*
X117242180Y-89740498D01*
X117122482Y-89704188D01*
X116998000Y-89691928D01*
X116846250Y-89695000D01*
X116687500Y-89853750D01*
X116433500Y-89853750D01*
X116274750Y-89695000D01*
X116123000Y-89691928D01*
X115998518Y-89704188D01*
X115878820Y-89740498D01*
X115768506Y-89799463D01*
X115671815Y-89878815D01*
X115592463Y-89975506D01*
X115533498Y-90085820D01*
X115497188Y-90205518D01*
X115484928Y-90330000D01*
X111708000Y-90330000D01*
X111708000Y-87470000D01*
X115484928Y-87470000D01*
X115497188Y-87594482D01*
X115533498Y-87714180D01*
X115592463Y-87824494D01*
X115671815Y-87921185D01*
X115768506Y-88000537D01*
X115878820Y-88059502D01*
X115998518Y-88095812D01*
X116123000Y-88108072D01*
X116274750Y-88105000D01*
X116433500Y-87946250D01*
X116433500Y-87122000D01*
X115646750Y-87122000D01*
X115488000Y-87280750D01*
X115484928Y-87470000D01*
X111708000Y-87470000D01*
X111708000Y-86520000D01*
X115484928Y-86520000D01*
X115488000Y-86709250D01*
X115646750Y-86868000D01*
X116433500Y-86868000D01*
X116433500Y-86043750D01*
X116687500Y-86043750D01*
X116687500Y-86868000D01*
X116707500Y-86868000D01*
X116707500Y-87122000D01*
X116687500Y-87122000D01*
X116687500Y-87946250D01*
X116846250Y-88105000D01*
X116998000Y-88108072D01*
X117122482Y-88095812D01*
X117242180Y-88059502D01*
X117352494Y-88000537D01*
X117419070Y-87945900D01*
X117440725Y-87963671D01*
X117588858Y-88042850D01*
X117749592Y-88091608D01*
X117916750Y-88108072D01*
X118354250Y-88108072D01*
X118521408Y-88091608D01*
X118682142Y-88042850D01*
X118830275Y-87963671D01*
X118960115Y-87857115D01*
X119043918Y-87755000D01*
X119452084Y-87755000D01*
X119540394Y-87862606D01*
X119667392Y-87966831D01*
X119812284Y-88044278D01*
X119969500Y-88091969D01*
X120133000Y-88108072D01*
X120533000Y-88108072D01*
X120696500Y-88091969D01*
X120853716Y-88044278D01*
X120998608Y-87966831D01*
X121125606Y-87862606D01*
X121158000Y-87823134D01*
X121190394Y-87862606D01*
X121317392Y-87966831D01*
X121462284Y-88044278D01*
X121619500Y-88091969D01*
X121783000Y-88108072D01*
X122183000Y-88108072D01*
X122346500Y-88091969D01*
X122503716Y-88044278D01*
X122648608Y-87966831D01*
X122775606Y-87862606D01*
X122863916Y-87755000D01*
X124653199Y-87755000D01*
X127854847Y-90956649D01*
X127878932Y-91077729D01*
X127949414Y-91247889D01*
X128051738Y-91401028D01*
X128181972Y-91531262D01*
X128335111Y-91633586D01*
X128505271Y-91704068D01*
X128685911Y-91740000D01*
X128870089Y-91740000D01*
X129050729Y-91704068D01*
X129220889Y-91633586D01*
X129374028Y-91531262D01*
X129504262Y-91401028D01*
X129606586Y-91247889D01*
X129677068Y-91077729D01*
X129713000Y-90897089D01*
X129713000Y-90712911D01*
X129677068Y-90532271D01*
X129606586Y-90362111D01*
X129504262Y-90208972D01*
X129374028Y-90078738D01*
X129220889Y-89976414D01*
X129050729Y-89905932D01*
X128929649Y-89881847D01*
X125531804Y-86484003D01*
X125508001Y-86454999D01*
X125392276Y-86360026D01*
X125260247Y-86289454D01*
X125116986Y-86245997D01*
X125005333Y-86235000D01*
X125005322Y-86235000D01*
X124968000Y-86231324D01*
X124930678Y-86235000D01*
X122863916Y-86235000D01*
X122775606Y-86127394D01*
X122648608Y-86023169D01*
X122503716Y-85945722D01*
X122346500Y-85898031D01*
X122183000Y-85881928D01*
X121783000Y-85881928D01*
X121619500Y-85898031D01*
X121462284Y-85945722D01*
X121317392Y-86023169D01*
X121190394Y-86127394D01*
X121158000Y-86166866D01*
X121125606Y-86127394D01*
X120998608Y-86023169D01*
X120853716Y-85945722D01*
X120696500Y-85898031D01*
X120533000Y-85881928D01*
X120133000Y-85881928D01*
X119969500Y-85898031D01*
X119812284Y-85945722D01*
X119667392Y-86023169D01*
X119540394Y-86127394D01*
X119452084Y-86235000D01*
X119043918Y-86235000D01*
X118960115Y-86132885D01*
X118830275Y-86026329D01*
X118682142Y-85947150D01*
X118521408Y-85898392D01*
X118354250Y-85881928D01*
X117916750Y-85881928D01*
X117749592Y-85898392D01*
X117588858Y-85947150D01*
X117440725Y-86026329D01*
X117419070Y-86044100D01*
X117352494Y-85989463D01*
X117242180Y-85930498D01*
X117122482Y-85894188D01*
X116998000Y-85881928D01*
X116846250Y-85885000D01*
X116687500Y-86043750D01*
X116433500Y-86043750D01*
X116274750Y-85885000D01*
X116123000Y-85881928D01*
X115998518Y-85894188D01*
X115878820Y-85930498D01*
X115768506Y-85989463D01*
X115671815Y-86068815D01*
X115592463Y-86165506D01*
X115533498Y-86275820D01*
X115497188Y-86395518D01*
X115484928Y-86520000D01*
X111708000Y-86520000D01*
X111708000Y-79705000D01*
X111959928Y-79705000D01*
X111959928Y-81005000D01*
X111972188Y-81129482D01*
X112008498Y-81249180D01*
X112067463Y-81359494D01*
X112146815Y-81456185D01*
X112243506Y-81535537D01*
X112353820Y-81594502D01*
X112473518Y-81630812D01*
X112598000Y-81643072D01*
X114148000Y-81643072D01*
X114272482Y-81630812D01*
X114392180Y-81594502D01*
X114502494Y-81535537D01*
X114599185Y-81456185D01*
X114678537Y-81359494D01*
X114737502Y-81249180D01*
X114773812Y-81129482D01*
X114775238Y-81115000D01*
X119920762Y-81115000D01*
X119922188Y-81129482D01*
X119958498Y-81249180D01*
X120017463Y-81359494D01*
X120096815Y-81456185D01*
X120193506Y-81535537D01*
X120303820Y-81594502D01*
X120423518Y-81630812D01*
X120548000Y-81643072D01*
X122098000Y-81643072D01*
X122222482Y-81630812D01*
X122311889Y-81603691D01*
X133346997Y-92638799D01*
X133347002Y-92638803D01*
X134204847Y-93496649D01*
X134228932Y-93617729D01*
X134299414Y-93787889D01*
X134401738Y-93941028D01*
X134531972Y-94071262D01*
X134685111Y-94173586D01*
X134855271Y-94244068D01*
X135035911Y-94280000D01*
X135220089Y-94280000D01*
X135400729Y-94244068D01*
X135570889Y-94173586D01*
X135724028Y-94071262D01*
X135854262Y-93941028D01*
X135956586Y-93787889D01*
X136027068Y-93617729D01*
X136063000Y-93437089D01*
X136063000Y-93252911D01*
X136027068Y-93072271D01*
X135956586Y-92902111D01*
X135854262Y-92748972D01*
X135724028Y-92618738D01*
X135570889Y-92516414D01*
X135400729Y-92445932D01*
X135279649Y-92421847D01*
X134421803Y-91564002D01*
X134421799Y-91563997D01*
X122736072Y-79878271D01*
X122736072Y-79705000D01*
X122723812Y-79580518D01*
X122687502Y-79460820D01*
X122628537Y-79350506D01*
X122582985Y-79295000D01*
X151549928Y-79295000D01*
X151553000Y-79409250D01*
X151711750Y-79568000D01*
X152511000Y-79568000D01*
X152511000Y-78818750D01*
X152765000Y-78818750D01*
X152765000Y-79568000D01*
X153564250Y-79568000D01*
X153723000Y-79409250D01*
X153726072Y-79295000D01*
X153713812Y-79170518D01*
X153677502Y-79050820D01*
X153618537Y-78940506D01*
X153539185Y-78843815D01*
X153442494Y-78764463D01*
X153332180Y-78705498D01*
X153212482Y-78669188D01*
X153088000Y-78656928D01*
X152923750Y-78660000D01*
X152765000Y-78818750D01*
X152511000Y-78818750D01*
X152352250Y-78660000D01*
X152188000Y-78656928D01*
X152063518Y-78669188D01*
X151943820Y-78705498D01*
X151833506Y-78764463D01*
X151736815Y-78843815D01*
X151657463Y-78940506D01*
X151598498Y-79050820D01*
X151562188Y-79170518D01*
X151549928Y-79295000D01*
X122582985Y-79295000D01*
X122549185Y-79253815D01*
X122452494Y-79174463D01*
X122342180Y-79115498D01*
X122222482Y-79079188D01*
X122098000Y-79066928D01*
X120548000Y-79066928D01*
X120423518Y-79079188D01*
X120303820Y-79115498D01*
X120193506Y-79174463D01*
X120096815Y-79253815D01*
X120017463Y-79350506D01*
X119958498Y-79460820D01*
X119922188Y-79580518D01*
X119920762Y-79595000D01*
X114775238Y-79595000D01*
X114773812Y-79580518D01*
X114737502Y-79460820D01*
X114678537Y-79350506D01*
X114599185Y-79253815D01*
X114502494Y-79174463D01*
X114392180Y-79115498D01*
X114272482Y-79079188D01*
X114148000Y-79066928D01*
X112598000Y-79066928D01*
X112473518Y-79079188D01*
X112353820Y-79115498D01*
X112243506Y-79174463D01*
X112146815Y-79253815D01*
X112067463Y-79350506D01*
X112008498Y-79460820D01*
X111972188Y-79580518D01*
X111959928Y-79705000D01*
X111708000Y-79705000D01*
X111708000Y-76505000D01*
X111959928Y-76505000D01*
X111972188Y-76629482D01*
X112008498Y-76749180D01*
X112067463Y-76859494D01*
X112146815Y-76956185D01*
X112243506Y-77035537D01*
X112353820Y-77094502D01*
X112473518Y-77130812D01*
X112598000Y-77143072D01*
X113087250Y-77140000D01*
X113246000Y-76981250D01*
X113246000Y-75982000D01*
X113500000Y-75982000D01*
X113500000Y-76981250D01*
X113658750Y-77140000D01*
X114148000Y-77143072D01*
X114272482Y-77130812D01*
X114392180Y-77094502D01*
X114502494Y-77035537D01*
X114599185Y-76956185D01*
X114678537Y-76859494D01*
X114737502Y-76749180D01*
X114773812Y-76629482D01*
X114786072Y-76505000D01*
X119909928Y-76505000D01*
X119922188Y-76629482D01*
X119958498Y-76749180D01*
X120017463Y-76859494D01*
X120096815Y-76956185D01*
X120193506Y-77035537D01*
X120303820Y-77094502D01*
X120423518Y-77130812D01*
X120548000Y-77143072D01*
X121037250Y-77140000D01*
X121196000Y-76981250D01*
X121196000Y-75982000D01*
X121450000Y-75982000D01*
X121450000Y-76981250D01*
X121608750Y-77140000D01*
X122098000Y-77143072D01*
X122222482Y-77130812D01*
X122342180Y-77094502D01*
X122452494Y-77035537D01*
X122549185Y-76956185D01*
X122628537Y-76859494D01*
X122687502Y-76749180D01*
X122723812Y-76629482D01*
X122736072Y-76505000D01*
X122733000Y-76140750D01*
X122574250Y-75982000D01*
X121450000Y-75982000D01*
X121196000Y-75982000D01*
X120071750Y-75982000D01*
X119913000Y-76140750D01*
X119909928Y-76505000D01*
X114786072Y-76505000D01*
X114783000Y-76140750D01*
X114624250Y-75982000D01*
X113500000Y-75982000D01*
X113246000Y-75982000D01*
X112121750Y-75982000D01*
X111963000Y-76140750D01*
X111959928Y-76505000D01*
X111708000Y-76505000D01*
X111708000Y-75205000D01*
X111959928Y-75205000D01*
X111963000Y-75569250D01*
X112121750Y-75728000D01*
X113246000Y-75728000D01*
X113246000Y-74728750D01*
X113500000Y-74728750D01*
X113500000Y-75728000D01*
X114624250Y-75728000D01*
X114783000Y-75569250D01*
X114786072Y-75205000D01*
X119909928Y-75205000D01*
X119913000Y-75569250D01*
X120071750Y-75728000D01*
X121196000Y-75728000D01*
X121196000Y-74728750D01*
X121450000Y-74728750D01*
X121450000Y-75728000D01*
X122574250Y-75728000D01*
X122733000Y-75569250D01*
X122736072Y-75205000D01*
X122723812Y-75080518D01*
X122687502Y-74960820D01*
X122628537Y-74850506D01*
X122549185Y-74753815D01*
X122452494Y-74674463D01*
X122342180Y-74615498D01*
X122222482Y-74579188D01*
X122098000Y-74566928D01*
X121608750Y-74570000D01*
X121450000Y-74728750D01*
X121196000Y-74728750D01*
X121037250Y-74570000D01*
X120548000Y-74566928D01*
X120423518Y-74579188D01*
X120303820Y-74615498D01*
X120193506Y-74674463D01*
X120096815Y-74753815D01*
X120017463Y-74850506D01*
X119958498Y-74960820D01*
X119922188Y-75080518D01*
X119909928Y-75205000D01*
X114786072Y-75205000D01*
X114773812Y-75080518D01*
X114737502Y-74960820D01*
X114678537Y-74850506D01*
X114599185Y-74753815D01*
X114502494Y-74674463D01*
X114392180Y-74615498D01*
X114272482Y-74579188D01*
X114148000Y-74566928D01*
X113658750Y-74570000D01*
X113500000Y-74728750D01*
X113246000Y-74728750D01*
X113087250Y-74570000D01*
X112598000Y-74566928D01*
X112473518Y-74579188D01*
X112353820Y-74615498D01*
X112243506Y-74674463D01*
X112146815Y-74753815D01*
X112067463Y-74850506D01*
X112008498Y-74960820D01*
X111972188Y-75080518D01*
X111959928Y-75205000D01*
X111708000Y-75205000D01*
X111708000Y-73735000D01*
X124296293Y-73735000D01*
X124166406Y-73864887D01*
%TA.AperFunction,Conductor*%
D20*
G36*
X124166406Y-73864887D02*
G01*
X123874536Y-74301702D01*
X123673492Y-74787065D01*
X123571000Y-75302323D01*
X123571000Y-75827677D01*
X123673492Y-76342935D01*
X123874536Y-76828298D01*
X124166406Y-77265113D01*
X124537887Y-77636594D01*
X124974702Y-77928464D01*
X125460065Y-78129508D01*
X125975323Y-78232000D01*
X126500677Y-78232000D01*
X127015935Y-78129508D01*
X127501298Y-77928464D01*
X127938113Y-77636594D01*
X128309594Y-77265113D01*
X128601464Y-76828298D01*
X128657001Y-76694219D01*
X128729203Y-76782197D01*
X128957395Y-76969469D01*
X129217737Y-77108625D01*
X129500224Y-77194316D01*
X129794000Y-77223251D01*
X130087777Y-77194316D01*
X130370264Y-77108625D01*
X130630606Y-76969469D01*
X130858797Y-76782197D01*
X131046069Y-76554006D01*
X131064000Y-76520459D01*
X131081931Y-76554006D01*
X131269203Y-76782197D01*
X131497395Y-76969469D01*
X131757737Y-77108625D01*
X132040224Y-77194316D01*
X132334000Y-77223251D01*
X132627777Y-77194316D01*
X132910264Y-77108625D01*
X133170606Y-76969469D01*
X133398797Y-76782197D01*
X133586069Y-76554006D01*
X133604000Y-76520459D01*
X133621931Y-76554006D01*
X133809203Y-76782197D01*
X134037395Y-76969469D01*
X134297737Y-77108625D01*
X134580224Y-77194316D01*
X134874000Y-77223251D01*
X135167777Y-77194316D01*
X135450264Y-77108625D01*
X135710606Y-76969469D01*
X135938797Y-76782197D01*
X136126069Y-76554006D01*
X136147424Y-76514053D01*
X136295514Y-76716729D01*
X136511965Y-76915733D01*
X136763081Y-77068686D01*
X137039211Y-77169709D01*
X137054974Y-77172358D01*
X137287000Y-77051217D01*
X137287000Y-75692000D01*
X137267000Y-75692000D01*
X137267000Y-75438000D01*
X137287000Y-75438000D01*
X137287000Y-74078783D01*
X137541000Y-74078783D01*
X137541000Y-75438000D01*
X137561000Y-75438000D01*
X137561000Y-75692000D01*
X137541000Y-75692000D01*
X137541000Y-77051217D01*
X137773026Y-77172358D01*
X137788789Y-77169709D01*
X138064919Y-77068686D01*
X138316035Y-76915733D01*
X138532486Y-76716729D01*
X138680576Y-76514053D01*
X138701931Y-76554006D01*
X138889203Y-76782197D01*
X139117395Y-76969469D01*
X139377737Y-77108625D01*
X139660224Y-77194316D01*
X139954000Y-77223251D01*
X140247777Y-77194316D01*
X140530264Y-77108625D01*
X140790606Y-76969469D01*
X141018797Y-76782197D01*
X141206069Y-76554006D01*
X141224000Y-76520459D01*
X141241931Y-76554006D01*
X141429203Y-76782197D01*
X141657395Y-76969469D01*
X141917737Y-77108625D01*
X142200224Y-77194316D01*
X142494000Y-77223251D01*
X142787777Y-77194316D01*
X143070264Y-77108625D01*
X143330606Y-76969469D01*
X143558797Y-76782197D01*
X143746069Y-76554006D01*
X143764000Y-76520459D01*
X143781931Y-76554006D01*
X143969203Y-76782197D01*
X144197395Y-76969469D01*
X144457737Y-77108625D01*
X144740224Y-77194316D01*
X145034000Y-77223251D01*
X145327777Y-77194316D01*
X145610264Y-77108625D01*
X145870606Y-76969469D01*
X146098797Y-76782197D01*
X146286069Y-76554006D01*
X146304000Y-76520459D01*
X146321931Y-76554006D01*
X146509203Y-76782197D01*
X146737395Y-76969469D01*
X146997737Y-77108625D01*
X147280224Y-77194316D01*
X147574000Y-77223251D01*
X147867777Y-77194316D01*
X148150264Y-77108625D01*
X148410606Y-76969469D01*
X148638797Y-76782197D01*
X148826069Y-76554006D01*
X148844000Y-76520459D01*
X148861931Y-76554006D01*
X149049203Y-76782197D01*
X149277395Y-76969469D01*
X149537737Y-77108625D01*
X149820224Y-77194316D01*
X150114000Y-77223251D01*
X150407777Y-77194316D01*
X150690264Y-77108625D01*
X150950606Y-76969469D01*
X151178797Y-76782197D01*
X151366069Y-76554006D01*
X151384000Y-76520459D01*
X151401931Y-76554006D01*
X151589203Y-76782197D01*
X151817395Y-76969469D01*
X152077737Y-77108625D01*
X152360224Y-77194316D01*
X152654000Y-77223251D01*
X152947777Y-77194316D01*
X153230264Y-77108625D01*
X153490606Y-76969469D01*
X153718797Y-76782197D01*
X153906069Y-76554006D01*
X154045225Y-76293663D01*
X154130916Y-76011176D01*
X154152600Y-75791018D01*
X154152600Y-75338981D01*
X154130916Y-75118823D01*
X154045225Y-74836336D01*
X153906069Y-74575994D01*
X153718797Y-74347803D01*
X153490605Y-74160531D01*
X153230263Y-74021375D01*
X152947776Y-73935684D01*
X152654000Y-73906749D01*
X152360223Y-73935684D01*
X152077736Y-74021375D01*
X151817394Y-74160531D01*
X151589203Y-74347803D01*
X151401931Y-74575995D01*
X151384000Y-74609541D01*
X151366069Y-74575994D01*
X151178797Y-74347803D01*
X150950605Y-74160531D01*
X150690263Y-74021375D01*
X150407776Y-73935684D01*
X150114000Y-73906749D01*
X149820223Y-73935684D01*
X149537736Y-74021375D01*
X149277394Y-74160531D01*
X149049203Y-74347803D01*
X148861931Y-74575995D01*
X148844000Y-74609541D01*
X148826069Y-74575994D01*
X148638797Y-74347803D01*
X148410605Y-74160531D01*
X148150263Y-74021375D01*
X147867776Y-73935684D01*
X147574000Y-73906749D01*
X147280223Y-73935684D01*
X146997736Y-74021375D01*
X146737394Y-74160531D01*
X146509203Y-74347803D01*
X146321931Y-74575995D01*
X146304000Y-74609541D01*
X146286069Y-74575994D01*
X146098797Y-74347803D01*
X145870605Y-74160531D01*
X145610263Y-74021375D01*
X145327776Y-73935684D01*
X145034000Y-73906749D01*
X144740223Y-73935684D01*
X144457736Y-74021375D01*
X144197394Y-74160531D01*
X143969203Y-74347803D01*
X143781931Y-74575995D01*
X143764000Y-74609541D01*
X143746069Y-74575994D01*
X143558797Y-74347803D01*
X143330605Y-74160531D01*
X143070263Y-74021375D01*
X142787776Y-73935684D01*
X142494000Y-73906749D01*
X142200223Y-73935684D01*
X141917736Y-74021375D01*
X141657394Y-74160531D01*
X141429203Y-74347803D01*
X141241931Y-74575995D01*
X141224000Y-74609541D01*
X141206069Y-74575994D01*
X141018797Y-74347803D01*
X140790605Y-74160531D01*
X140530263Y-74021375D01*
X140247776Y-73935684D01*
X139954000Y-73906749D01*
X139660223Y-73935684D01*
X139377736Y-74021375D01*
X139117394Y-74160531D01*
X138889203Y-74347803D01*
X138701931Y-74575995D01*
X138680576Y-74615947D01*
X138532486Y-74413271D01*
X138316035Y-74214267D01*
X138064919Y-74061314D01*
X137788789Y-73960291D01*
X137773026Y-73957642D01*
X137541000Y-74078783D01*
X137287000Y-74078783D01*
X137054974Y-73957642D01*
X137039211Y-73960291D01*
X136763081Y-74061314D01*
X136511965Y-74214267D01*
X136295514Y-74413271D01*
X136147424Y-74615947D01*
X136126069Y-74575994D01*
X135938797Y-74347803D01*
X135710605Y-74160531D01*
X135450263Y-74021375D01*
X135167776Y-73935684D01*
X134874000Y-73906749D01*
X134580223Y-73935684D01*
X134297736Y-74021375D01*
X134037394Y-74160531D01*
X133809203Y-74347803D01*
X133621931Y-74575995D01*
X133604000Y-74609541D01*
X133586069Y-74575994D01*
X133398797Y-74347803D01*
X133170605Y-74160531D01*
X132910263Y-74021375D01*
X132627776Y-73935684D01*
X132334000Y-73906749D01*
X132040223Y-73935684D01*
X131757736Y-74021375D01*
X131497394Y-74160531D01*
X131269203Y-74347803D01*
X131081931Y-74575995D01*
X131064000Y-74609541D01*
X131046069Y-74575994D01*
X130858797Y-74347803D01*
X130630605Y-74160531D01*
X130370263Y-74021375D01*
X130087776Y-73935684D01*
X129794000Y-73906749D01*
X129500223Y-73935684D01*
X129217736Y-74021375D01*
X128957394Y-74160531D01*
X128729203Y-74347803D01*
X128657001Y-74435781D01*
X128601464Y-74301702D01*
X128309594Y-73864887D01*
X128179707Y-73735000D01*
X175219909Y-73735000D01*
X176328001Y-74843093D01*
X176328000Y-85944125D01*
X176324565Y-85979000D01*
X176328000Y-86013875D01*
X176328000Y-86013876D01*
X176338273Y-86118183D01*
X176378872Y-86252019D01*
X176444800Y-86375362D01*
X176533525Y-86483474D01*
X176560617Y-86505708D01*
X178868001Y-88813093D01*
X178868001Y-88863294D01*
X178738113Y-88733406D01*
X178301298Y-88441536D01*
X177815935Y-88240492D01*
X177300677Y-88138000D01*
X176775323Y-88138000D01*
X176260065Y-88240492D01*
X175774702Y-88441536D01*
X175337887Y-88733406D01*
X174966406Y-89104887D01*
X174674536Y-89541702D01*
X174473492Y-90027065D01*
X174371000Y-90542323D01*
X174371000Y-91067677D01*
X174473492Y-91582935D01*
X174674536Y-92068298D01*
X174966406Y-92505113D01*
X175337887Y-92876594D01*
X175774702Y-93168464D01*
X176260065Y-93369508D01*
X176775323Y-93472000D01*
X177300677Y-93472000D01*
X177815935Y-93369508D01*
X178301298Y-93168464D01*
X178738113Y-92876594D01*
X178868001Y-92746706D01*
X178868000Y-116803293D01*
X178738113Y-116673406D01*
X178301298Y-116381536D01*
X177815935Y-116180492D01*
X177300677Y-116078000D01*
X176775323Y-116078000D01*
X176260065Y-116180492D01*
X175774702Y-116381536D01*
X175337887Y-116673406D01*
X174966406Y-117044887D01*
X174674536Y-117481702D01*
X174473492Y-117967065D01*
X174371000Y-118482323D01*
X174371000Y-119007677D01*
X174473492Y-119522935D01*
X174674536Y-120008298D01*
X174966406Y-120445113D01*
X175337887Y-120816594D01*
X175774702Y-121108464D01*
X176260065Y-121309508D01*
X176775323Y-121412000D01*
X177300677Y-121412000D01*
X177815935Y-121309508D01*
X178301298Y-121108464D01*
X178738113Y-120816594D01*
X178868000Y-120686707D01*
X178868000Y-120990908D01*
X176560617Y-123298292D01*
X176533526Y-123320525D01*
X176511293Y-123347616D01*
X176444801Y-123428637D01*
X176378872Y-123551981D01*
X176338274Y-123685816D01*
X176324565Y-123825000D01*
X176328001Y-123859885D01*
X176328000Y-125655000D01*
X126909707Y-125655000D01*
X127039594Y-125525113D01*
X127331464Y-125088298D01*
X127532508Y-124602935D01*
X127635000Y-124087677D01*
X127635000Y-123598982D01*
X137439400Y-123598982D01*
X137439400Y-124051019D01*
X137461084Y-124271177D01*
X137546775Y-124553664D01*
X137685931Y-124814006D01*
X137873203Y-125042197D01*
X138101395Y-125229469D01*
X138361737Y-125368625D01*
X138644224Y-125454316D01*
X138938000Y-125483251D01*
X139231777Y-125454316D01*
X139514264Y-125368625D01*
X139774606Y-125229469D01*
X140002797Y-125042197D01*
X140190069Y-124814006D01*
X140208000Y-124780459D01*
X140225931Y-124814006D01*
X140413203Y-125042197D01*
X140641395Y-125229469D01*
X140901737Y-125368625D01*
X141184224Y-125454316D01*
X141478000Y-125483251D01*
X141771777Y-125454316D01*
X142054264Y-125368625D01*
X142314606Y-125229469D01*
X142542797Y-125042197D01*
X142730069Y-124814006D01*
X142748000Y-124780459D01*
X142765931Y-124814006D01*
X142953203Y-125042197D01*
X143181395Y-125229469D01*
X143441737Y-125368625D01*
X143724224Y-125454316D01*
X144018000Y-125483251D01*
X144311777Y-125454316D01*
X144594264Y-125368625D01*
X144854606Y-125229469D01*
X145082797Y-125042197D01*
X145270069Y-124814006D01*
X145288000Y-124780459D01*
X145305931Y-124814006D01*
X145493203Y-125042197D01*
X145721395Y-125229469D01*
X145981737Y-125368625D01*
X146264224Y-125454316D01*
X146558000Y-125483251D01*
X146851777Y-125454316D01*
X147134264Y-125368625D01*
X147394606Y-125229469D01*
X147622797Y-125042197D01*
X147810069Y-124814006D01*
X147828000Y-124780459D01*
X147845931Y-124814006D01*
X148033203Y-125042197D01*
X148261395Y-125229469D01*
X148521737Y-125368625D01*
X148804224Y-125454316D01*
X149098000Y-125483251D01*
X149391777Y-125454316D01*
X149674264Y-125368625D01*
X149934606Y-125229469D01*
X150162797Y-125042197D01*
X150350069Y-124814006D01*
X150371424Y-124774053D01*
X150519514Y-124976729D01*
X150735965Y-125175733D01*
X150987081Y-125328686D01*
X151263211Y-125429709D01*
X151278974Y-125432358D01*
X151511000Y-125311217D01*
X151511000Y-123952000D01*
X151765000Y-123952000D01*
X151765000Y-125311217D01*
X151997026Y-125432358D01*
X152012789Y-125429709D01*
X152288919Y-125328686D01*
X152540035Y-125175733D01*
X152756486Y-124976729D01*
X152908000Y-124769367D01*
X153059514Y-124976729D01*
X153275965Y-125175733D01*
X153527081Y-125328686D01*
X153803211Y-125429709D01*
X153818974Y-125432358D01*
X154051000Y-125311217D01*
X154051000Y-123952000D01*
X151765000Y-123952000D01*
X151511000Y-123952000D01*
X151491000Y-123952000D01*
X151491000Y-123698000D01*
X151511000Y-123698000D01*
X151511000Y-122338783D01*
X151765000Y-122338783D01*
X151765000Y-123698000D01*
X154051000Y-123698000D01*
X154051000Y-122338783D01*
X154305000Y-122338783D01*
X154305000Y-123698000D01*
X154325000Y-123698000D01*
X154325000Y-123952000D01*
X154305000Y-123952000D01*
X154305000Y-125311217D01*
X154537026Y-125432358D01*
X154552789Y-125429709D01*
X154828919Y-125328686D01*
X155080035Y-125175733D01*
X155296486Y-124976729D01*
X155444576Y-124774053D01*
X155465931Y-124814006D01*
X155653203Y-125042197D01*
X155881395Y-125229469D01*
X156141737Y-125368625D01*
X156424224Y-125454316D01*
X156718000Y-125483251D01*
X157011777Y-125454316D01*
X157294264Y-125368625D01*
X157554606Y-125229469D01*
X157782797Y-125042197D01*
X157970069Y-124814006D01*
X158109225Y-124553663D01*
X158194916Y-124271176D01*
X158216600Y-124051018D01*
X158216600Y-123598982D01*
X160299400Y-123598982D01*
X160299400Y-124051019D01*
X160321084Y-124271177D01*
X160406775Y-124553664D01*
X160545931Y-124814006D01*
X160733203Y-125042197D01*
X160961395Y-125229469D01*
X161221737Y-125368625D01*
X161504224Y-125454316D01*
X161798000Y-125483251D01*
X162091777Y-125454316D01*
X162374264Y-125368625D01*
X162634606Y-125229469D01*
X162862797Y-125042197D01*
X163050069Y-124814006D01*
X163068000Y-124780459D01*
X163085931Y-124814006D01*
X163273203Y-125042197D01*
X163501395Y-125229469D01*
X163761737Y-125368625D01*
X164044224Y-125454316D01*
X164338000Y-125483251D01*
X164631777Y-125454316D01*
X164914264Y-125368625D01*
X165174606Y-125229469D01*
X165402797Y-125042197D01*
X165590069Y-124814006D01*
X165608000Y-124780459D01*
X165625931Y-124814006D01*
X165813203Y-125042197D01*
X166041395Y-125229469D01*
X166301737Y-125368625D01*
X166584224Y-125454316D01*
X166878000Y-125483251D01*
X167171777Y-125454316D01*
X167454264Y-125368625D01*
X167714606Y-125229469D01*
X167942797Y-125042197D01*
X168130069Y-124814006D01*
X168148000Y-124780459D01*
X168165931Y-124814006D01*
X168353203Y-125042197D01*
X168581395Y-125229469D01*
X168841737Y-125368625D01*
X169124224Y-125454316D01*
X169418000Y-125483251D01*
X169711777Y-125454316D01*
X169994264Y-125368625D01*
X170254606Y-125229469D01*
X170482797Y-125042197D01*
X170670069Y-124814006D01*
X170688000Y-124780459D01*
X170705931Y-124814006D01*
X170893203Y-125042197D01*
X171121395Y-125229469D01*
X171381737Y-125368625D01*
X171664224Y-125454316D01*
X171958000Y-125483251D01*
X172251777Y-125454316D01*
X172534264Y-125368625D01*
X172794606Y-125229469D01*
X173022797Y-125042197D01*
X173210069Y-124814006D01*
X173228000Y-124780459D01*
X173245931Y-124814006D01*
X173433203Y-125042197D01*
X173661395Y-125229469D01*
X173921737Y-125368625D01*
X174204224Y-125454316D01*
X174498000Y-125483251D01*
X174791777Y-125454316D01*
X175074264Y-125368625D01*
X175334606Y-125229469D01*
X175562797Y-125042197D01*
X175750069Y-124814006D01*
X175889225Y-124553663D01*
X175974916Y-124271176D01*
X175996600Y-124051018D01*
X175996600Y-123598981D01*
X175974916Y-123378823D01*
X175889225Y-123096336D01*
X175750069Y-122835994D01*
X175562797Y-122607803D01*
X175334605Y-122420531D01*
X175074263Y-122281375D01*
X174791776Y-122195684D01*
X174498000Y-122166749D01*
X174204223Y-122195684D01*
X173921736Y-122281375D01*
X173661394Y-122420531D01*
X173433203Y-122607803D01*
X173245931Y-122835995D01*
X173228000Y-122869541D01*
X173210069Y-122835994D01*
X173022797Y-122607803D01*
X172794605Y-122420531D01*
X172718000Y-122379585D01*
X172718000Y-116750535D01*
X172786586Y-116647889D01*
X172857068Y-116477729D01*
X172893000Y-116297089D01*
X172893000Y-116112911D01*
X172857068Y-115932271D01*
X172786586Y-115762111D01*
X172684262Y-115608972D01*
X172554028Y-115478738D01*
X172400889Y-115376414D01*
X172230729Y-115305932D01*
X172050089Y-115270000D01*
X171865911Y-115270000D01*
X171685271Y-115305932D01*
X171515111Y-115376414D01*
X171361972Y-115478738D01*
X171231738Y-115608972D01*
X171129414Y-115762111D01*
X171058932Y-115932271D01*
X171023000Y-116112911D01*
X171023000Y-116297089D01*
X171058932Y-116477729D01*
X171129414Y-116647889D01*
X171198000Y-116750536D01*
X171198001Y-122379584D01*
X171121394Y-122420531D01*
X170893203Y-122607803D01*
X170705931Y-122835995D01*
X170688000Y-122869541D01*
X170670069Y-122835994D01*
X170482797Y-122607803D01*
X170254605Y-122420531D01*
X169994263Y-122281375D01*
X169711776Y-122195684D01*
X169418000Y-122166749D01*
X169124223Y-122195684D01*
X168841736Y-122281375D01*
X168581394Y-122420531D01*
X168353203Y-122607803D01*
X168165931Y-122835995D01*
X168148000Y-122869541D01*
X168130069Y-122835994D01*
X167942797Y-122607803D01*
X167714605Y-122420531D01*
X167454263Y-122281375D01*
X167171776Y-122195684D01*
X166878000Y-122166749D01*
X166584223Y-122195684D01*
X166301736Y-122281375D01*
X166041394Y-122420531D01*
X165813203Y-122607803D01*
X165625931Y-122835995D01*
X165608000Y-122869541D01*
X165590069Y-122835994D01*
X165402797Y-122607803D01*
X165174605Y-122420531D01*
X164914263Y-122281375D01*
X164631776Y-122195684D01*
X164338000Y-122166749D01*
X164044223Y-122195684D01*
X163761736Y-122281375D01*
X163501394Y-122420531D01*
X163273203Y-122607803D01*
X163085931Y-122835995D01*
X163068000Y-122869541D01*
X163050069Y-122835994D01*
X162862797Y-122607803D01*
X162634605Y-122420531D01*
X162374263Y-122281375D01*
X162091776Y-122195684D01*
X161798000Y-122166749D01*
X161504223Y-122195684D01*
X161221736Y-122281375D01*
X160961394Y-122420531D01*
X160733203Y-122607803D01*
X160545931Y-122835995D01*
X160406775Y-123096337D01*
X160321084Y-123378824D01*
X160299400Y-123598982D01*
X158216600Y-123598982D01*
X158216600Y-123598981D01*
X158194916Y-123378823D01*
X158109225Y-123096336D01*
X157970069Y-122835994D01*
X157782797Y-122607803D01*
X157554605Y-122420531D01*
X157294263Y-122281375D01*
X157011776Y-122195684D01*
X156718000Y-122166749D01*
X156424223Y-122195684D01*
X156141736Y-122281375D01*
X155881394Y-122420531D01*
X155653203Y-122607803D01*
X155465931Y-122835995D01*
X155444576Y-122875947D01*
X155296486Y-122673271D01*
X155080035Y-122474267D01*
X154828919Y-122321314D01*
X154552789Y-122220291D01*
X154537026Y-122217642D01*
X154305000Y-122338783D01*
X154051000Y-122338783D01*
X153818974Y-122217642D01*
X153803211Y-122220291D01*
X153527081Y-122321314D01*
X153275965Y-122474267D01*
X153059514Y-122673271D01*
X152908000Y-122880633D01*
X152756486Y-122673271D01*
X152540035Y-122474267D01*
X152288919Y-122321314D01*
X152012789Y-122220291D01*
X151997026Y-122217642D01*
X151765000Y-122338783D01*
X151511000Y-122338783D01*
X151278974Y-122217642D01*
X151263211Y-122220291D01*
X150987081Y-122321314D01*
X150735965Y-122474267D01*
X150519514Y-122673271D01*
X150371424Y-122875947D01*
X150350069Y-122835994D01*
X150162797Y-122607803D01*
X149934605Y-122420531D01*
X149674263Y-122281375D01*
X149391776Y-122195684D01*
X149098000Y-122166749D01*
X148804223Y-122195684D01*
X148521736Y-122281375D01*
X148261394Y-122420531D01*
X148033203Y-122607803D01*
X147845931Y-122835995D01*
X147828000Y-122869541D01*
X147810069Y-122835994D01*
X147622797Y-122607803D01*
X147394605Y-122420531D01*
X147134263Y-122281375D01*
X146851776Y-122195684D01*
X146558000Y-122166749D01*
X146264223Y-122195684D01*
X145981736Y-122281375D01*
X145721394Y-122420531D01*
X145493203Y-122607803D01*
X145305931Y-122835995D01*
X145288000Y-122869541D01*
X145270069Y-122835994D01*
X145082797Y-122607803D01*
X144854605Y-122420531D01*
X144594263Y-122281375D01*
X144311776Y-122195684D01*
X144018000Y-122166749D01*
X143724223Y-122195684D01*
X143441736Y-122281375D01*
X143181394Y-122420531D01*
X142953203Y-122607803D01*
X142765931Y-122835995D01*
X142748000Y-122869541D01*
X142730069Y-122835994D01*
X142542797Y-122607803D01*
X142314605Y-122420531D01*
X142054263Y-122281375D01*
X141771776Y-122195684D01*
X141478000Y-122166749D01*
X141184223Y-122195684D01*
X140901736Y-122281375D01*
X140641394Y-122420531D01*
X140413203Y-122607803D01*
X140225931Y-122835995D01*
X140208000Y-122869541D01*
X140190069Y-122835994D01*
X140002797Y-122607803D01*
X139774605Y-122420531D01*
X139514263Y-122281375D01*
X139231776Y-122195684D01*
X138938000Y-122166749D01*
X138644223Y-122195684D01*
X138361736Y-122281375D01*
X138101394Y-122420531D01*
X137873203Y-122607803D01*
X137685931Y-122835995D01*
X137546775Y-123096337D01*
X137461084Y-123378824D01*
X137439400Y-123598982D01*
X127635000Y-123598982D01*
X127635000Y-123562323D01*
X127532508Y-123047065D01*
X127331464Y-122561702D01*
X127039594Y-122124887D01*
X126668113Y-121753406D01*
X126231298Y-121461536D01*
X125745935Y-121260492D01*
X125230677Y-121158000D01*
X124705323Y-121158000D01*
X124190065Y-121260492D01*
X123704702Y-121461536D01*
X123267887Y-121753406D01*
X122896406Y-122124887D01*
X122604536Y-122561702D01*
X122403492Y-123047065D01*
X122301000Y-123562323D01*
X122301000Y-124087677D01*
X122403492Y-124602935D01*
X122604536Y-125088298D01*
X122896406Y-125525113D01*
X123026293Y-125655000D01*
X111708000Y-125655000D01*
X111708000Y-107965000D01*
X113635573Y-107965000D01*
X113665210Y-108265913D01*
X113752983Y-108555261D01*
X113895519Y-108821927D01*
X114087339Y-109055661D01*
X114321073Y-109247481D01*
X114587739Y-109390017D01*
X114877087Y-109477790D01*
X115102592Y-109500000D01*
X117053408Y-109500000D01*
X117278913Y-109477790D01*
X117568261Y-109390017D01*
X117834927Y-109247481D01*
X118068661Y-109055661D01*
X118260481Y-108821927D01*
X118403017Y-108555261D01*
X118490790Y-108265913D01*
X118520427Y-107965000D01*
X118490790Y-107664087D01*
X118403017Y-107374739D01*
X118260481Y-107108073D01*
X118068661Y-106874339D01*
X117834927Y-106682519D01*
X117568261Y-106539983D01*
X117278913Y-106452210D01*
X117053408Y-106430000D01*
X115102592Y-106430000D01*
X114877087Y-106452210D01*
X114587739Y-106539983D01*
X114321073Y-106682519D01*
X114087339Y-106874339D01*
X113895519Y-107108073D01*
X113752983Y-107374739D01*
X113665210Y-107664087D01*
X113635573Y-107965000D01*
X111708000Y-107965000D01*
X111708000Y-104465000D01*
X113635573Y-104465000D01*
X113665210Y-104765913D01*
X113752983Y-105055261D01*
X113895519Y-105321927D01*
X114087339Y-105555661D01*
X114321073Y-105747481D01*
X114587739Y-105890017D01*
X114877087Y-105977790D01*
X115102592Y-106000000D01*
X117053408Y-106000000D01*
X117278913Y-105977790D01*
X117568261Y-105890017D01*
X117834927Y-105747481D01*
X118068661Y-105555661D01*
X118260481Y-105321927D01*
X118403017Y-105055261D01*
X118490790Y-104765913D01*
X118520427Y-104465000D01*
X118490790Y-104164087D01*
X118403017Y-103874739D01*
X118260481Y-103608073D01*
X118068661Y-103374339D01*
X117834927Y-103182519D01*
X117568261Y-103039983D01*
X117278913Y-102952210D01*
X117053408Y-102930000D01*
X115102592Y-102930000D01*
X114877087Y-102952210D01*
X114587739Y-103039983D01*
X114321073Y-103182519D01*
X114087339Y-103374339D01*
X113895519Y-103608073D01*
X113752983Y-103874739D01*
X113665210Y-104164087D01*
X113635573Y-104465000D01*
X111708000Y-104465000D01*
X111708000Y-101865000D01*
X113639928Y-101865000D01*
X113652188Y-101989482D01*
X113688498Y-102109180D01*
X113747463Y-102219494D01*
X113826815Y-102316185D01*
X113923506Y-102395537D01*
X114033820Y-102454502D01*
X114153518Y-102490812D01*
X114278000Y-102503072D01*
X115792250Y-102500000D01*
X115951000Y-102341250D01*
X115951000Y-101092000D01*
X116205000Y-101092000D01*
X116205000Y-102341250D01*
X116363750Y-102500000D01*
X117878000Y-102503072D01*
X118002482Y-102490812D01*
X118122180Y-102454502D01*
X118232494Y-102395537D01*
X118329185Y-102316185D01*
X118408537Y-102219494D01*
X118467502Y-102109180D01*
X118503812Y-101989482D01*
X118516072Y-101865000D01*
X118513000Y-101250750D01*
X118354250Y-101092000D01*
X116205000Y-101092000D01*
X115951000Y-101092000D01*
X113801750Y-101092000D01*
X113643000Y-101250750D01*
X113639928Y-101865000D01*
X111708000Y-101865000D01*
X111708000Y-100065000D01*
X113639928Y-100065000D01*
X113643000Y-100679250D01*
X113801750Y-100838000D01*
X115951000Y-100838000D01*
X115951000Y-99588750D01*
X116205000Y-99588750D01*
X116205000Y-100838000D01*
X118354250Y-100838000D01*
X118513000Y-100679250D01*
X118516072Y-100065000D01*
X118503812Y-99940518D01*
X118467502Y-99820820D01*
X118408537Y-99710506D01*
X118329185Y-99613815D01*
X118232494Y-99534463D01*
X118122180Y-99475498D01*
X118002482Y-99439188D01*
X117878000Y-99426928D01*
X116363750Y-99430000D01*
X116205000Y-99588750D01*
X115951000Y-99588750D01*
X115792250Y-99430000D01*
X114278000Y-99426928D01*
X114153518Y-99439188D01*
X114033820Y-99475498D01*
X113923506Y-99534463D01*
X113826815Y-99613815D01*
X113747463Y-99710506D01*
X113688498Y-99820820D01*
X113652188Y-99940518D01*
X113639928Y-100065000D01*
X111708000Y-100065000D01*
X111708000Y-95792911D01*
X134193000Y-95792911D01*
X134193000Y-95977089D01*
X134228932Y-96157729D01*
X134299414Y-96327889D01*
X134401738Y-96481028D01*
X134531972Y-96611262D01*
X134685111Y-96713586D01*
X134855271Y-96784068D01*
X135035911Y-96820000D01*
X135220089Y-96820000D01*
X135400729Y-96784068D01*
X135568371Y-96714629D01*
X135498932Y-96882271D01*
X135463000Y-97062911D01*
X135463000Y-97247089D01*
X135498932Y-97427729D01*
X135569414Y-97597889D01*
X135671738Y-97751028D01*
X135801972Y-97881262D01*
X135955111Y-97983586D01*
X136125271Y-98054068D01*
X136305911Y-98090000D01*
X136490089Y-98090000D01*
X136670729Y-98054068D01*
X136840889Y-97983586D01*
X136994028Y-97881262D01*
X137124262Y-97751028D01*
X137226586Y-97597889D01*
X137297068Y-97427729D01*
X137321153Y-97306648D01*
X143402801Y-91225000D01*
X148879928Y-91225000D01*
X148879928Y-92925000D01*
X148892188Y-93049482D01*
X148928498Y-93169180D01*
X148987463Y-93279494D01*
X149066815Y-93376185D01*
X149163506Y-93455537D01*
X149273820Y-93514502D01*
X149393518Y-93550812D01*
X149518000Y-93563072D01*
X151218000Y-93563072D01*
X151342482Y-93550812D01*
X151462180Y-93514502D01*
X151572494Y-93455537D01*
X151669185Y-93376185D01*
X151748537Y-93279494D01*
X151807502Y-93169180D01*
X151831966Y-93088534D01*
X151907731Y-93172588D01*
X152141080Y-93346641D01*
X152403901Y-93471825D01*
X152551110Y-93516476D01*
X152781000Y-93395155D01*
X152781000Y-92202000D01*
X152761000Y-92202000D01*
X152761000Y-91948000D01*
X152781000Y-91948000D01*
X152781000Y-90754845D01*
X153035000Y-90754845D01*
X153035000Y-91948000D01*
X153055000Y-91948000D01*
X153055000Y-92202000D01*
X153035000Y-92202000D01*
X153035000Y-93395155D01*
X153264890Y-93516476D01*
X153412099Y-93471825D01*
X153674920Y-93346641D01*
X153908269Y-93172588D01*
X154103178Y-92956355D01*
X154172805Y-92839466D01*
X154294525Y-93021632D01*
X154501368Y-93228475D01*
X154744589Y-93390990D01*
X155014842Y-93502932D01*
X155301740Y-93560000D01*
X155594260Y-93560000D01*
X155881158Y-93502932D01*
X156151411Y-93390990D01*
X156394632Y-93228475D01*
X156601475Y-93021632D01*
X156718000Y-92847240D01*
X156834525Y-93021632D01*
X157041368Y-93228475D01*
X157284589Y-93390990D01*
X157554842Y-93502932D01*
X157841740Y-93560000D01*
X158134260Y-93560000D01*
X158421158Y-93502932D01*
X158691411Y-93390990D01*
X158934632Y-93228475D01*
X159141475Y-93021632D01*
X159303990Y-92778411D01*
X159415932Y-92508158D01*
X159473000Y-92221260D01*
X159473000Y-91928740D01*
X159415932Y-91641842D01*
X159303990Y-91371589D01*
X159141475Y-91128368D01*
X158934632Y-90921525D01*
X158691411Y-90759010D01*
X158421158Y-90647068D01*
X158134260Y-90590000D01*
X157841740Y-90590000D01*
X157554842Y-90647068D01*
X157284589Y-90759010D01*
X157041368Y-90921525D01*
X156834525Y-91128368D01*
X156718000Y-91302760D01*
X156601475Y-91128368D01*
X156394632Y-90921525D01*
X156151411Y-90759010D01*
X155881158Y-90647068D01*
X155594260Y-90590000D01*
X155301740Y-90590000D01*
X155014842Y-90647068D01*
X154744589Y-90759010D01*
X154501368Y-90921525D01*
X154294525Y-91128368D01*
X154172805Y-91310534D01*
X154103178Y-91193645D01*
X153908269Y-90977412D01*
X153674920Y-90803359D01*
X153412099Y-90678175D01*
X153264890Y-90633524D01*
X153035000Y-90754845D01*
X152781000Y-90754845D01*
X152551110Y-90633524D01*
X152403901Y-90678175D01*
X152141080Y-90803359D01*
X151907731Y-90977412D01*
X151831966Y-91061466D01*
X151807502Y-90980820D01*
X151748537Y-90870506D01*
X151669185Y-90773815D01*
X151572494Y-90694463D01*
X151462180Y-90635498D01*
X151342482Y-90599188D01*
X151218000Y-90586928D01*
X149518000Y-90586928D01*
X149393518Y-90599188D01*
X149273820Y-90635498D01*
X149163506Y-90694463D01*
X149066815Y-90773815D01*
X148987463Y-90870506D01*
X148928498Y-90980820D01*
X148892188Y-91100518D01*
X148879928Y-91225000D01*
X143402801Y-91225000D01*
X146559961Y-88067841D01*
X146639500Y-88091969D01*
X146803000Y-88108072D01*
X147203000Y-88108072D01*
X147366500Y-88091969D01*
X147523716Y-88044278D01*
X147668608Y-87966831D01*
X147795606Y-87862606D01*
X147828000Y-87823134D01*
X147860394Y-87862606D01*
X147987392Y-87966831D01*
X148132284Y-88044278D01*
X148289500Y-88091969D01*
X148453000Y-88108072D01*
X148853000Y-88108072D01*
X149016500Y-88091969D01*
X149173716Y-88044278D01*
X149318608Y-87966831D01*
X149445606Y-87862606D01*
X149533916Y-87755000D01*
X160490678Y-87755000D01*
X160528000Y-87758676D01*
X160565322Y-87755000D01*
X160565333Y-87755000D01*
X160676986Y-87744003D01*
X160820247Y-87700546D01*
X160952276Y-87629974D01*
X161068001Y-87535001D01*
X161091804Y-87505997D01*
X164652802Y-83945000D01*
X169380678Y-83945000D01*
X169418000Y-83948676D01*
X169455322Y-83945000D01*
X169455333Y-83945000D01*
X169566986Y-83934003D01*
X169710247Y-83890546D01*
X169842276Y-83819974D01*
X169958001Y-83725001D01*
X169981804Y-83695998D01*
X170929003Y-82748799D01*
X170958001Y-82725001D01*
X171052974Y-82609276D01*
X171123546Y-82477247D01*
X171167003Y-82333986D01*
X171178000Y-82222333D01*
X171181677Y-82185000D01*
X171178000Y-82147667D01*
X171178000Y-81599320D01*
X171222494Y-81575537D01*
X171319185Y-81496185D01*
X171398537Y-81399494D01*
X171457502Y-81289180D01*
X171493812Y-81169482D01*
X171506072Y-81045000D01*
X171506072Y-80245000D01*
X171493812Y-80120518D01*
X171457502Y-80000820D01*
X171448000Y-79983043D01*
X171448000Y-78142322D01*
X171451676Y-78104999D01*
X171448000Y-78067676D01*
X171448000Y-78067667D01*
X171437003Y-77956014D01*
X171393546Y-77812753D01*
X171322974Y-77680724D01*
X171228001Y-77564999D01*
X171199004Y-77541202D01*
X170459290Y-76801489D01*
X170482797Y-76782197D01*
X170670069Y-76554006D01*
X170688000Y-76520459D01*
X170705931Y-76554006D01*
X170893203Y-76782197D01*
X171121395Y-76969469D01*
X171381737Y-77108625D01*
X171664224Y-77194316D01*
X171958000Y-77223251D01*
X172251777Y-77194316D01*
X172534264Y-77108625D01*
X172794606Y-76969469D01*
X173022797Y-76782197D01*
X173210069Y-76554006D01*
X173228000Y-76520459D01*
X173245931Y-76554006D01*
X173433203Y-76782197D01*
X173661395Y-76969469D01*
X173921737Y-77108625D01*
X174204224Y-77194316D01*
X174498000Y-77223251D01*
X174791777Y-77194316D01*
X175074264Y-77108625D01*
X175334606Y-76969469D01*
X175562797Y-76782197D01*
X175750069Y-76554006D01*
X175889225Y-76293663D01*
X175974916Y-76011176D01*
X175996600Y-75791018D01*
X175996600Y-75338981D01*
X175974916Y-75118823D01*
X175889225Y-74836336D01*
X175750069Y-74575994D01*
X175562797Y-74347803D01*
X175334605Y-74160531D01*
X175074263Y-74021375D01*
X174791776Y-73935684D01*
X174498000Y-73906749D01*
X174204223Y-73935684D01*
X173921736Y-74021375D01*
X173661394Y-74160531D01*
X173433203Y-74347803D01*
X173245931Y-74575995D01*
X173228000Y-74609541D01*
X173210069Y-74575994D01*
X173022797Y-74347803D01*
X172794605Y-74160531D01*
X172534263Y-74021375D01*
X172251776Y-73935684D01*
X171958000Y-73906749D01*
X171664223Y-73935684D01*
X171381736Y-74021375D01*
X171121394Y-74160531D01*
X170893203Y-74347803D01*
X170705931Y-74575995D01*
X170688000Y-74609541D01*
X170670069Y-74575994D01*
X170482797Y-74347803D01*
X170254605Y-74160531D01*
X169994263Y-74021375D01*
X169711776Y-73935684D01*
X169418000Y-73906749D01*
X169124223Y-73935684D01*
X168841736Y-74021375D01*
X168581394Y-74160531D01*
X168353203Y-74347803D01*
X168165931Y-74575995D01*
X168148000Y-74609541D01*
X168130069Y-74575994D01*
X167942797Y-74347803D01*
X167714605Y-74160531D01*
X167454263Y-74021375D01*
X167171776Y-73935684D01*
X166878000Y-73906749D01*
X166584223Y-73935684D01*
X166301736Y-74021375D01*
X166041394Y-74160531D01*
X165813203Y-74347803D01*
X165625931Y-74575995D01*
X165608000Y-74609541D01*
X165590069Y-74575994D01*
X165402797Y-74347803D01*
X165174605Y-74160531D01*
X164914263Y-74021375D01*
X164631776Y-73935684D01*
X164338000Y-73906749D01*
X164044223Y-73935684D01*
X163761736Y-74021375D01*
X163501394Y-74160531D01*
X163273203Y-74347803D01*
X163085931Y-74575995D01*
X163068000Y-74609541D01*
X163050069Y-74575994D01*
X162862797Y-74347803D01*
X162634605Y-74160531D01*
X162374263Y-74021375D01*
X162091776Y-73935684D01*
X161798000Y-73906749D01*
X161504223Y-73935684D01*
X161221736Y-74021375D01*
X160961394Y-74160531D01*
X160733203Y-74347803D01*
X160545931Y-74575995D01*
X160528000Y-74609541D01*
X160510069Y-74575994D01*
X160322797Y-74347803D01*
X160094605Y-74160531D01*
X159834263Y-74021375D01*
X159551776Y-73935684D01*
X159258000Y-73906749D01*
X158964223Y-73935684D01*
X158681736Y-74021375D01*
X158421394Y-74160531D01*
X158193203Y-74347803D01*
X158005931Y-74575995D01*
X157988000Y-74609541D01*
X157970069Y-74575994D01*
X157782797Y-74347803D01*
X157554605Y-74160531D01*
X157294263Y-74021375D01*
X157011776Y-73935684D01*
X156718000Y-73906749D01*
X156424223Y-73935684D01*
X156141736Y-74021375D01*
X155881394Y-74160531D01*
X155653203Y-74347803D01*
X155465931Y-74575995D01*
X155326775Y-74836337D01*
X155241084Y-75118824D01*
X155219400Y-75338982D01*
X155219400Y-75791019D01*
X155241084Y-76011177D01*
X155326775Y-76293664D01*
X155465931Y-76554006D01*
X155653203Y-76782197D01*
X155881395Y-76969469D01*
X156141737Y-77108625D01*
X156424224Y-77194316D01*
X156718000Y-77223251D01*
X157011777Y-77194316D01*
X157294264Y-77108625D01*
X157554606Y-76969469D01*
X157782797Y-76782197D01*
X157970069Y-76554006D01*
X157988000Y-76520459D01*
X158005931Y-76554006D01*
X158193203Y-76782197D01*
X158421395Y-76969469D01*
X158681737Y-77108625D01*
X158964224Y-77194316D01*
X159258000Y-77223251D01*
X159551777Y-77194316D01*
X159834264Y-77108625D01*
X160094606Y-76969469D01*
X160322797Y-76782197D01*
X160510069Y-76554006D01*
X160528000Y-76520459D01*
X160545931Y-76554006D01*
X160733203Y-76782197D01*
X160961395Y-76969469D01*
X161221737Y-77108625D01*
X161504224Y-77194316D01*
X161798000Y-77223251D01*
X162091777Y-77194316D01*
X162374264Y-77108625D01*
X162634606Y-76969469D01*
X162862797Y-76782197D01*
X163050069Y-76554006D01*
X163068000Y-76520459D01*
X163085931Y-76554006D01*
X163273203Y-76782197D01*
X163501395Y-76969469D01*
X163578000Y-77010416D01*
X163578001Y-78235197D01*
X163551270Y-78261928D01*
X163313000Y-78261928D01*
X163149500Y-78278031D01*
X162992284Y-78325722D01*
X162847392Y-78403169D01*
X162720394Y-78507394D01*
X162616169Y-78634392D01*
X162538722Y-78779284D01*
X162491031Y-78936500D01*
X162474928Y-79100000D01*
X162474928Y-79650000D01*
X162491031Y-79813500D01*
X162538722Y-79970716D01*
X162616169Y-80115608D01*
X162720394Y-80242606D01*
X162847392Y-80346831D01*
X162992284Y-80424278D01*
X163149500Y-80471969D01*
X163313000Y-80488072D01*
X163713000Y-80488072D01*
X163876500Y-80471969D01*
X164033716Y-80424278D01*
X164178608Y-80346831D01*
X164305606Y-80242606D01*
X164338000Y-80203134D01*
X164370394Y-80242606D01*
X164497392Y-80346831D01*
X164642284Y-80424278D01*
X164799500Y-80471969D01*
X164963000Y-80488072D01*
X165363000Y-80488072D01*
X165526500Y-80471969D01*
X165582439Y-80455000D01*
X167441982Y-80455000D01*
X167516815Y-80546185D01*
X167613506Y-80625537D01*
X167649918Y-80645000D01*
X167613506Y-80664463D01*
X167516815Y-80743815D01*
X167437463Y-80840506D01*
X167378498Y-80950820D01*
X167342188Y-81070518D01*
X167329928Y-81195000D01*
X167333000Y-81309250D01*
X167491750Y-81468000D01*
X168291000Y-81468000D01*
X168291000Y-81448000D01*
X168545000Y-81448000D01*
X168545000Y-81468000D01*
X169344250Y-81468000D01*
X169428857Y-81383393D01*
X169437463Y-81399494D01*
X169516815Y-81496185D01*
X169613506Y-81575537D01*
X169658001Y-81599320D01*
X169658001Y-81870197D01*
X169503109Y-82025090D01*
X169506072Y-81995000D01*
X169503000Y-81880750D01*
X169344250Y-81722000D01*
X168545000Y-81722000D01*
X168545000Y-81742000D01*
X168291000Y-81742000D01*
X168291000Y-81722000D01*
X167491750Y-81722000D01*
X167333000Y-81880750D01*
X167329928Y-81995000D01*
X167342188Y-82119482D01*
X167378498Y-82239180D01*
X167437463Y-82349494D01*
X167499429Y-82425000D01*
X166163280Y-82425000D01*
X166184969Y-82353500D01*
X166201072Y-82190000D01*
X166201072Y-81640000D01*
X166184969Y-81476500D01*
X166137278Y-81319284D01*
X166059831Y-81174392D01*
X165955606Y-81047394D01*
X165828608Y-80943169D01*
X165683716Y-80865722D01*
X165526500Y-80818031D01*
X165363000Y-80801928D01*
X164963000Y-80801928D01*
X164799500Y-80818031D01*
X164642284Y-80865722D01*
X164497392Y-80943169D01*
X164370394Y-81047394D01*
X164338000Y-81086866D01*
X164305606Y-81047394D01*
X164178608Y-80943169D01*
X164033716Y-80865722D01*
X163876500Y-80818031D01*
X163713000Y-80801928D01*
X163313000Y-80801928D01*
X163149500Y-80818031D01*
X162992284Y-80865722D01*
X162847392Y-80943169D01*
X162720394Y-81047394D01*
X162632084Y-81155000D01*
X162112803Y-81155000D01*
X159821804Y-78864003D01*
X159798001Y-78834999D01*
X159682276Y-78740026D01*
X159550247Y-78669454D01*
X159406986Y-78625997D01*
X159295333Y-78615000D01*
X159295322Y-78615000D01*
X159258000Y-78611324D01*
X159220678Y-78615000D01*
X158423916Y-78615000D01*
X158335606Y-78507394D01*
X158208608Y-78403169D01*
X158063716Y-78325722D01*
X157906500Y-78278031D01*
X157743000Y-78261928D01*
X157343000Y-78261928D01*
X157179500Y-78278031D01*
X157022284Y-78325722D01*
X156877392Y-78403169D01*
X156750394Y-78507394D01*
X156718000Y-78546866D01*
X156685606Y-78507394D01*
X156558608Y-78403169D01*
X156413716Y-78325722D01*
X156256500Y-78278031D01*
X156093000Y-78261928D01*
X155693000Y-78261928D01*
X155529500Y-78278031D01*
X155372284Y-78325722D01*
X155227392Y-78403169D01*
X155100394Y-78507394D01*
X154996169Y-78634392D01*
X154918722Y-78779284D01*
X154871031Y-78936500D01*
X154854928Y-79100000D01*
X154854928Y-79338270D01*
X154308199Y-79885000D01*
X153627250Y-79885000D01*
X153564250Y-79822000D01*
X152765000Y-79822000D01*
X152765000Y-79842000D01*
X152511000Y-79842000D01*
X152511000Y-79822000D01*
X151711750Y-79822000D01*
X151648750Y-79885000D01*
X151614018Y-79885000D01*
X151539185Y-79793815D01*
X151442494Y-79714463D01*
X151332180Y-79655498D01*
X151212482Y-79619188D01*
X151088000Y-79606928D01*
X150188000Y-79606928D01*
X150063518Y-79619188D01*
X149943820Y-79655498D01*
X149833506Y-79714463D01*
X149736815Y-79793815D01*
X149657463Y-79890506D01*
X149598498Y-80000820D01*
X149562188Y-80120518D01*
X149549928Y-80245000D01*
X149549928Y-81045000D01*
X149562188Y-81169482D01*
X149598498Y-81289180D01*
X149657463Y-81399494D01*
X149736815Y-81496185D01*
X149833506Y-81575537D01*
X149878000Y-81599320D01*
X149878001Y-82600197D01*
X149096040Y-83382159D01*
X149016500Y-83358031D01*
X148853000Y-83341928D01*
X148453000Y-83341928D01*
X148289500Y-83358031D01*
X148132284Y-83405722D01*
X147987392Y-83483169D01*
X147860394Y-83587394D01*
X147828000Y-83626866D01*
X147795606Y-83587394D01*
X147668608Y-83483169D01*
X147523716Y-83405722D01*
X147366500Y-83358031D01*
X147203000Y-83341928D01*
X146803000Y-83341928D01*
X146639500Y-83358031D01*
X146482284Y-83405722D01*
X146337392Y-83483169D01*
X146210394Y-83587394D01*
X146106169Y-83714392D01*
X146028722Y-83859284D01*
X146008198Y-83926941D01*
X145994201Y-83943997D01*
X134976352Y-94961847D01*
X134855271Y-94985932D01*
X134685111Y-95056414D01*
X134531972Y-95158738D01*
X134401738Y-95288972D01*
X134299414Y-95442111D01*
X134228932Y-95612271D01*
X134193000Y-95792911D01*
X111708000Y-95792911D01*
X111708000Y-95090000D01*
X115484928Y-95090000D01*
X115497188Y-95214482D01*
X115533498Y-95334180D01*
X115592463Y-95444494D01*
X115671815Y-95541185D01*
X115768506Y-95620537D01*
X115878820Y-95679502D01*
X115998518Y-95715812D01*
X116123000Y-95728072D01*
X116274750Y-95725000D01*
X116433500Y-95566250D01*
X116433500Y-94742000D01*
X115646750Y-94742000D01*
X115488000Y-94900750D01*
X115484928Y-95090000D01*
X111708000Y-95090000D01*
X111708000Y-94140000D01*
X115484928Y-94140000D01*
X115488000Y-94329250D01*
X115646750Y-94488000D01*
X116433500Y-94488000D01*
X116433500Y-93663750D01*
X116687500Y-93663750D01*
X116687500Y-94488000D01*
X116707500Y-94488000D01*
X116707500Y-94742000D01*
X116687500Y-94742000D01*
X116687500Y-95566250D01*
X116846250Y-95725000D01*
X116998000Y-95728072D01*
X117122482Y-95715812D01*
X117242180Y-95679502D01*
X117352494Y-95620537D01*
X117419070Y-95565900D01*
X117440725Y-95583671D01*
X117588858Y-95662850D01*
X117749592Y-95711608D01*
X117916750Y-95728072D01*
X118354250Y-95728072D01*
X118521408Y-95711608D01*
X118682142Y-95662850D01*
X118830275Y-95583671D01*
X118960115Y-95477115D01*
X119043918Y-95375000D01*
X119484911Y-95375000D01*
X119540394Y-95442606D01*
X119667392Y-95546831D01*
X119812284Y-95624278D01*
X119969500Y-95671969D01*
X120133000Y-95688072D01*
X120533000Y-95688072D01*
X120696500Y-95671969D01*
X120853716Y-95624278D01*
X120998608Y-95546831D01*
X121125606Y-95442606D01*
X121158000Y-95403134D01*
X121190394Y-95442606D01*
X121317392Y-95546831D01*
X121462284Y-95624278D01*
X121619500Y-95671969D01*
X121783000Y-95688072D01*
X122183000Y-95688072D01*
X122346500Y-95671969D01*
X122503716Y-95624278D01*
X122648608Y-95546831D01*
X122775606Y-95442606D01*
X122879831Y-95315608D01*
X122957278Y-95170716D01*
X123004969Y-95013500D01*
X123021072Y-94850000D01*
X123021072Y-94300000D01*
X123004969Y-94136500D01*
X122957278Y-93979284D01*
X122926360Y-93921441D01*
X123849649Y-92998153D01*
X123970729Y-92974068D01*
X124140889Y-92903586D01*
X124294028Y-92801262D01*
X124424262Y-92671028D01*
X124526586Y-92517889D01*
X124597068Y-92347729D01*
X124633000Y-92167089D01*
X124633000Y-91982911D01*
X124597068Y-91802271D01*
X124526586Y-91632111D01*
X124424262Y-91478972D01*
X124294028Y-91348738D01*
X124140889Y-91246414D01*
X123970729Y-91175932D01*
X123790089Y-91140000D01*
X123605911Y-91140000D01*
X123425271Y-91175932D01*
X123255111Y-91246414D01*
X123101972Y-91348738D01*
X122971738Y-91478972D01*
X122869414Y-91632111D01*
X122798932Y-91802271D01*
X122774847Y-91923351D01*
X121471998Y-93226201D01*
X121443000Y-93249999D01*
X121419202Y-93278997D01*
X121419201Y-93278998D01*
X121348026Y-93365724D01*
X121277454Y-93497754D01*
X121262317Y-93547656D01*
X121233997Y-93641014D01*
X121230719Y-93674300D01*
X121190394Y-93707394D01*
X121158000Y-93746866D01*
X121125606Y-93707394D01*
X120998608Y-93603169D01*
X120853716Y-93525722D01*
X120696500Y-93478031D01*
X120533000Y-93461928D01*
X120133000Y-93461928D01*
X119969500Y-93478031D01*
X119812284Y-93525722D01*
X119667392Y-93603169D01*
X119540394Y-93707394D01*
X119436169Y-93834392D01*
X119425154Y-93855000D01*
X119043918Y-93855000D01*
X118960115Y-93752885D01*
X118830275Y-93646329D01*
X118682142Y-93567150D01*
X118521408Y-93518392D01*
X118354250Y-93501928D01*
X117916750Y-93501928D01*
X117749592Y-93518392D01*
X117588858Y-93567150D01*
X117440725Y-93646329D01*
X117419070Y-93664100D01*
X117352494Y-93609463D01*
X117242180Y-93550498D01*
X117122482Y-93514188D01*
X116998000Y-93501928D01*
X116846250Y-93505000D01*
X116687500Y-93663750D01*
X116433500Y-93663750D01*
X116274750Y-93505000D01*
X116123000Y-93501928D01*
X115998518Y-93514188D01*
X115878820Y-93550498D01*
X115768506Y-93609463D01*
X115671815Y-93688815D01*
X115592463Y-93785506D01*
X115533498Y-93895820D01*
X115497188Y-94015518D01*
X115484928Y-94140000D01*
X111708000Y-94140000D01*
X111708000Y-91280000D01*
X115484928Y-91280000D01*
X115497188Y-91404482D01*
X115533498Y-91524180D01*
X115592463Y-91634494D01*
X115671815Y-91731185D01*
X115768506Y-91810537D01*
X115878820Y-91869502D01*
X115998518Y-91905812D01*
X116123000Y-91918072D01*
X116274750Y-91915000D01*
X116433500Y-91756250D01*
X116433500Y-90932000D01*
X115646750Y-90932000D01*
X115488000Y-91090750D01*
X115484928Y-91280000D01*
X111708000Y-91280000D01*
X111708000Y-90330000D01*
X115484928Y-90330000D01*
X115488000Y-90519250D01*
X115646750Y-90678000D01*
X116433500Y-90678000D01*
X116433500Y-89853750D01*
X116687500Y-89853750D01*
X116687500Y-90678000D01*
X116707500Y-90678000D01*
X116707500Y-90932000D01*
X116687500Y-90932000D01*
X116687500Y-91756250D01*
X116846250Y-91915000D01*
X116998000Y-91918072D01*
X117122482Y-91905812D01*
X117242180Y-91869502D01*
X117352494Y-91810537D01*
X117419070Y-91755900D01*
X117440725Y-91773671D01*
X117588858Y-91852850D01*
X117749592Y-91901608D01*
X117916750Y-91918072D01*
X118354250Y-91918072D01*
X118521408Y-91901608D01*
X118682142Y-91852850D01*
X118830275Y-91773671D01*
X118960115Y-91667115D01*
X119043918Y-91565000D01*
X119452084Y-91565000D01*
X119540394Y-91672606D01*
X119667392Y-91776831D01*
X119812284Y-91854278D01*
X119969500Y-91901969D01*
X120133000Y-91918072D01*
X120533000Y-91918072D01*
X120696500Y-91901969D01*
X120853716Y-91854278D01*
X120998608Y-91776831D01*
X121125606Y-91672606D01*
X121158000Y-91633134D01*
X121190394Y-91672606D01*
X121317392Y-91776831D01*
X121462284Y-91854278D01*
X121619500Y-91901969D01*
X121783000Y-91918072D01*
X122183000Y-91918072D01*
X122346500Y-91901969D01*
X122503716Y-91854278D01*
X122648608Y-91776831D01*
X122775606Y-91672606D01*
X122879831Y-91545608D01*
X122957278Y-91400716D01*
X122977802Y-91333059D01*
X122991804Y-91315997D01*
X123849649Y-90458153D01*
X123970729Y-90434068D01*
X124140889Y-90363586D01*
X124294028Y-90261262D01*
X124424262Y-90131028D01*
X124526586Y-89977889D01*
X124597068Y-89807729D01*
X124633000Y-89627089D01*
X124633000Y-89442911D01*
X124597068Y-89262271D01*
X124526586Y-89092111D01*
X124424262Y-88938972D01*
X124294028Y-88808738D01*
X124140889Y-88706414D01*
X123970729Y-88635932D01*
X123790089Y-88600000D01*
X123605911Y-88600000D01*
X123425271Y-88635932D01*
X123255111Y-88706414D01*
X123101972Y-88808738D01*
X122971738Y-88938972D01*
X122869414Y-89092111D01*
X122798932Y-89262271D01*
X122774847Y-89383351D01*
X122426040Y-89732159D01*
X122346500Y-89708031D01*
X122183000Y-89691928D01*
X121783000Y-89691928D01*
X121619500Y-89708031D01*
X121462284Y-89755722D01*
X121317392Y-89833169D01*
X121190394Y-89937394D01*
X121158000Y-89976866D01*
X121125606Y-89937394D01*
X120998608Y-89833169D01*
X120853716Y-89755722D01*
X120696500Y-89708031D01*
X120533000Y-89691928D01*
X120133000Y-89691928D01*
X119969500Y-89708031D01*
X119812284Y-89755722D01*
X119667392Y-89833169D01*
X119540394Y-89937394D01*
X119452084Y-90045000D01*
X119043918Y-90045000D01*
X118960115Y-89942885D01*
X118830275Y-89836329D01*
X118682142Y-89757150D01*
X118521408Y-89708392D01*
X118354250Y-89691928D01*
X117916750Y-89691928D01*
X117749592Y-89708392D01*
X117588858Y-89757150D01*
X117440725Y-89836329D01*
X117419070Y-89854100D01*
X117352494Y-89799463D01*
X117242180Y-89740498D01*
X117122482Y-89704188D01*
X116998000Y-89691928D01*
X116846250Y-89695000D01*
X116687500Y-89853750D01*
X116433500Y-89853750D01*
X116274750Y-89695000D01*
X116123000Y-89691928D01*
X115998518Y-89704188D01*
X115878820Y-89740498D01*
X115768506Y-89799463D01*
X115671815Y-89878815D01*
X115592463Y-89975506D01*
X115533498Y-90085820D01*
X115497188Y-90205518D01*
X115484928Y-90330000D01*
X111708000Y-90330000D01*
X111708000Y-87470000D01*
X115484928Y-87470000D01*
X115497188Y-87594482D01*
X115533498Y-87714180D01*
X115592463Y-87824494D01*
X115671815Y-87921185D01*
X115768506Y-88000537D01*
X115878820Y-88059502D01*
X115998518Y-88095812D01*
X116123000Y-88108072D01*
X116274750Y-88105000D01*
X116433500Y-87946250D01*
X116433500Y-87122000D01*
X115646750Y-87122000D01*
X115488000Y-87280750D01*
X115484928Y-87470000D01*
X111708000Y-87470000D01*
X111708000Y-86520000D01*
X115484928Y-86520000D01*
X115488000Y-86709250D01*
X115646750Y-86868000D01*
X116433500Y-86868000D01*
X116433500Y-86043750D01*
X116687500Y-86043750D01*
X116687500Y-86868000D01*
X116707500Y-86868000D01*
X116707500Y-87122000D01*
X116687500Y-87122000D01*
X116687500Y-87946250D01*
X116846250Y-88105000D01*
X116998000Y-88108072D01*
X117122482Y-88095812D01*
X117242180Y-88059502D01*
X117352494Y-88000537D01*
X117419070Y-87945900D01*
X117440725Y-87963671D01*
X117588858Y-88042850D01*
X117749592Y-88091608D01*
X117916750Y-88108072D01*
X118354250Y-88108072D01*
X118521408Y-88091608D01*
X118682142Y-88042850D01*
X118830275Y-87963671D01*
X118960115Y-87857115D01*
X119043918Y-87755000D01*
X119452084Y-87755000D01*
X119540394Y-87862606D01*
X119667392Y-87966831D01*
X119812284Y-88044278D01*
X119969500Y-88091969D01*
X120133000Y-88108072D01*
X120533000Y-88108072D01*
X120696500Y-88091969D01*
X120853716Y-88044278D01*
X120998608Y-87966831D01*
X121125606Y-87862606D01*
X121158000Y-87823134D01*
X121190394Y-87862606D01*
X121317392Y-87966831D01*
X121462284Y-88044278D01*
X121619500Y-88091969D01*
X121783000Y-88108072D01*
X122183000Y-88108072D01*
X122346500Y-88091969D01*
X122503716Y-88044278D01*
X122648608Y-87966831D01*
X122775606Y-87862606D01*
X122863916Y-87755000D01*
X124653199Y-87755000D01*
X127854847Y-90956649D01*
X127878932Y-91077729D01*
X127949414Y-91247889D01*
X128051738Y-91401028D01*
X128181972Y-91531262D01*
X128335111Y-91633586D01*
X128505271Y-91704068D01*
X128685911Y-91740000D01*
X128870089Y-91740000D01*
X129050729Y-91704068D01*
X129220889Y-91633586D01*
X129374028Y-91531262D01*
X129504262Y-91401028D01*
X129606586Y-91247889D01*
X129677068Y-91077729D01*
X129713000Y-90897089D01*
X129713000Y-90712911D01*
X129677068Y-90532271D01*
X129606586Y-90362111D01*
X129504262Y-90208972D01*
X129374028Y-90078738D01*
X129220889Y-89976414D01*
X129050729Y-89905932D01*
X128929649Y-89881847D01*
X125531804Y-86484003D01*
X125508001Y-86454999D01*
X125392276Y-86360026D01*
X125260247Y-86289454D01*
X125116986Y-86245997D01*
X125005333Y-86235000D01*
X125005322Y-86235000D01*
X124968000Y-86231324D01*
X124930678Y-86235000D01*
X122863916Y-86235000D01*
X122775606Y-86127394D01*
X122648608Y-86023169D01*
X122503716Y-85945722D01*
X122346500Y-85898031D01*
X122183000Y-85881928D01*
X121783000Y-85881928D01*
X121619500Y-85898031D01*
X121462284Y-85945722D01*
X121317392Y-86023169D01*
X121190394Y-86127394D01*
X121158000Y-86166866D01*
X121125606Y-86127394D01*
X120998608Y-86023169D01*
X120853716Y-85945722D01*
X120696500Y-85898031D01*
X120533000Y-85881928D01*
X120133000Y-85881928D01*
X119969500Y-85898031D01*
X119812284Y-85945722D01*
X119667392Y-86023169D01*
X119540394Y-86127394D01*
X119452084Y-86235000D01*
X119043918Y-86235000D01*
X118960115Y-86132885D01*
X118830275Y-86026329D01*
X118682142Y-85947150D01*
X118521408Y-85898392D01*
X118354250Y-85881928D01*
X117916750Y-85881928D01*
X117749592Y-85898392D01*
X117588858Y-85947150D01*
X117440725Y-86026329D01*
X117419070Y-86044100D01*
X117352494Y-85989463D01*
X117242180Y-85930498D01*
X117122482Y-85894188D01*
X116998000Y-85881928D01*
X116846250Y-85885000D01*
X116687500Y-86043750D01*
X116433500Y-86043750D01*
X116274750Y-85885000D01*
X116123000Y-85881928D01*
X115998518Y-85894188D01*
X115878820Y-85930498D01*
X115768506Y-85989463D01*
X115671815Y-86068815D01*
X115592463Y-86165506D01*
X115533498Y-86275820D01*
X115497188Y-86395518D01*
X115484928Y-86520000D01*
X111708000Y-86520000D01*
X111708000Y-79705000D01*
X111959928Y-79705000D01*
X111959928Y-81005000D01*
X111972188Y-81129482D01*
X112008498Y-81249180D01*
X112067463Y-81359494D01*
X112146815Y-81456185D01*
X112243506Y-81535537D01*
X112353820Y-81594502D01*
X112473518Y-81630812D01*
X112598000Y-81643072D01*
X114148000Y-81643072D01*
X114272482Y-81630812D01*
X114392180Y-81594502D01*
X114502494Y-81535537D01*
X114599185Y-81456185D01*
X114678537Y-81359494D01*
X114737502Y-81249180D01*
X114773812Y-81129482D01*
X114775238Y-81115000D01*
X119920762Y-81115000D01*
X119922188Y-81129482D01*
X119958498Y-81249180D01*
X120017463Y-81359494D01*
X120096815Y-81456185D01*
X120193506Y-81535537D01*
X120303820Y-81594502D01*
X120423518Y-81630812D01*
X120548000Y-81643072D01*
X122098000Y-81643072D01*
X122222482Y-81630812D01*
X122311889Y-81603691D01*
X133346997Y-92638799D01*
X133347002Y-92638803D01*
X134204847Y-93496649D01*
X134228932Y-93617729D01*
X134299414Y-93787889D01*
X134401738Y-93941028D01*
X134531972Y-94071262D01*
X134685111Y-94173586D01*
X134855271Y-94244068D01*
X135035911Y-94280000D01*
X135220089Y-94280000D01*
X135400729Y-94244068D01*
X135570889Y-94173586D01*
X135724028Y-94071262D01*
X135854262Y-93941028D01*
X135956586Y-93787889D01*
X136027068Y-93617729D01*
X136063000Y-93437089D01*
X136063000Y-93252911D01*
X136027068Y-93072271D01*
X135956586Y-92902111D01*
X135854262Y-92748972D01*
X135724028Y-92618738D01*
X135570889Y-92516414D01*
X135400729Y-92445932D01*
X135279649Y-92421847D01*
X134421803Y-91564002D01*
X134421799Y-91563997D01*
X122736072Y-79878271D01*
X122736072Y-79705000D01*
X122723812Y-79580518D01*
X122687502Y-79460820D01*
X122628537Y-79350506D01*
X122582985Y-79295000D01*
X151549928Y-79295000D01*
X151553000Y-79409250D01*
X151711750Y-79568000D01*
X152511000Y-79568000D01*
X152511000Y-78818750D01*
X152765000Y-78818750D01*
X152765000Y-79568000D01*
X153564250Y-79568000D01*
X153723000Y-79409250D01*
X153726072Y-79295000D01*
X153713812Y-79170518D01*
X153677502Y-79050820D01*
X153618537Y-78940506D01*
X153539185Y-78843815D01*
X153442494Y-78764463D01*
X153332180Y-78705498D01*
X153212482Y-78669188D01*
X153088000Y-78656928D01*
X152923750Y-78660000D01*
X152765000Y-78818750D01*
X152511000Y-78818750D01*
X152352250Y-78660000D01*
X152188000Y-78656928D01*
X152063518Y-78669188D01*
X151943820Y-78705498D01*
X151833506Y-78764463D01*
X151736815Y-78843815D01*
X151657463Y-78940506D01*
X151598498Y-79050820D01*
X151562188Y-79170518D01*
X151549928Y-79295000D01*
X122582985Y-79295000D01*
X122549185Y-79253815D01*
X122452494Y-79174463D01*
X122342180Y-79115498D01*
X122222482Y-79079188D01*
X122098000Y-79066928D01*
X120548000Y-79066928D01*
X120423518Y-79079188D01*
X120303820Y-79115498D01*
X120193506Y-79174463D01*
X120096815Y-79253815D01*
X120017463Y-79350506D01*
X119958498Y-79460820D01*
X119922188Y-79580518D01*
X119920762Y-79595000D01*
X114775238Y-79595000D01*
X114773812Y-79580518D01*
X114737502Y-79460820D01*
X114678537Y-79350506D01*
X114599185Y-79253815D01*
X114502494Y-79174463D01*
X114392180Y-79115498D01*
X114272482Y-79079188D01*
X114148000Y-79066928D01*
X112598000Y-79066928D01*
X112473518Y-79079188D01*
X112353820Y-79115498D01*
X112243506Y-79174463D01*
X112146815Y-79253815D01*
X112067463Y-79350506D01*
X112008498Y-79460820D01*
X111972188Y-79580518D01*
X111959928Y-79705000D01*
X111708000Y-79705000D01*
X111708000Y-76505000D01*
X111959928Y-76505000D01*
X111972188Y-76629482D01*
X112008498Y-76749180D01*
X112067463Y-76859494D01*
X112146815Y-76956185D01*
X112243506Y-77035537D01*
X112353820Y-77094502D01*
X112473518Y-77130812D01*
X112598000Y-77143072D01*
X113087250Y-77140000D01*
X113246000Y-76981250D01*
X113246000Y-75982000D01*
X113500000Y-75982000D01*
X113500000Y-76981250D01*
X113658750Y-77140000D01*
X114148000Y-77143072D01*
X114272482Y-77130812D01*
X114392180Y-77094502D01*
X114502494Y-77035537D01*
X114599185Y-76956185D01*
X114678537Y-76859494D01*
X114737502Y-76749180D01*
X114773812Y-76629482D01*
X114786072Y-76505000D01*
X119909928Y-76505000D01*
X119922188Y-76629482D01*
X119958498Y-76749180D01*
X120017463Y-76859494D01*
X120096815Y-76956185D01*
X120193506Y-77035537D01*
X120303820Y-77094502D01*
X120423518Y-77130812D01*
X120548000Y-77143072D01*
X121037250Y-77140000D01*
X121196000Y-76981250D01*
X121196000Y-75982000D01*
X121450000Y-75982000D01*
X121450000Y-76981250D01*
X121608750Y-77140000D01*
X122098000Y-77143072D01*
X122222482Y-77130812D01*
X122342180Y-77094502D01*
X122452494Y-77035537D01*
X122549185Y-76956185D01*
X122628537Y-76859494D01*
X122687502Y-76749180D01*
X122723812Y-76629482D01*
X122736072Y-76505000D01*
X122733000Y-76140750D01*
X122574250Y-75982000D01*
X121450000Y-75982000D01*
X121196000Y-75982000D01*
X120071750Y-75982000D01*
X119913000Y-76140750D01*
X119909928Y-76505000D01*
X114786072Y-76505000D01*
X114783000Y-76140750D01*
X114624250Y-75982000D01*
X113500000Y-75982000D01*
X113246000Y-75982000D01*
X112121750Y-75982000D01*
X111963000Y-76140750D01*
X111959928Y-76505000D01*
X111708000Y-76505000D01*
X111708000Y-75205000D01*
X111959928Y-75205000D01*
X111963000Y-75569250D01*
X112121750Y-75728000D01*
X113246000Y-75728000D01*
X113246000Y-74728750D01*
X113500000Y-74728750D01*
X113500000Y-75728000D01*
X114624250Y-75728000D01*
X114783000Y-75569250D01*
X114786072Y-75205000D01*
X119909928Y-75205000D01*
X119913000Y-75569250D01*
X120071750Y-75728000D01*
X121196000Y-75728000D01*
X121196000Y-74728750D01*
X121450000Y-74728750D01*
X121450000Y-75728000D01*
X122574250Y-75728000D01*
X122733000Y-75569250D01*
X122736072Y-75205000D01*
X122723812Y-75080518D01*
X122687502Y-74960820D01*
X122628537Y-74850506D01*
X122549185Y-74753815D01*
X122452494Y-74674463D01*
X122342180Y-74615498D01*
X122222482Y-74579188D01*
X122098000Y-74566928D01*
X121608750Y-74570000D01*
X121450000Y-74728750D01*
X121196000Y-74728750D01*
X121037250Y-74570000D01*
X120548000Y-74566928D01*
X120423518Y-74579188D01*
X120303820Y-74615498D01*
X120193506Y-74674463D01*
X120096815Y-74753815D01*
X120017463Y-74850506D01*
X119958498Y-74960820D01*
X119922188Y-75080518D01*
X119909928Y-75205000D01*
X114786072Y-75205000D01*
X114773812Y-75080518D01*
X114737502Y-74960820D01*
X114678537Y-74850506D01*
X114599185Y-74753815D01*
X114502494Y-74674463D01*
X114392180Y-74615498D01*
X114272482Y-74579188D01*
X114148000Y-74566928D01*
X113658750Y-74570000D01*
X113500000Y-74728750D01*
X113246000Y-74728750D01*
X113087250Y-74570000D01*
X112598000Y-74566928D01*
X112473518Y-74579188D01*
X112353820Y-74615498D01*
X112243506Y-74674463D01*
X112146815Y-74753815D01*
X112067463Y-74850506D01*
X112008498Y-74960820D01*
X111972188Y-75080518D01*
X111959928Y-75205000D01*
X111708000Y-75205000D01*
X111708000Y-73735000D01*
X124296293Y-73735000D01*
X124166406Y-73864887D01*
G37*
%TD.AperFunction*%
D19*
X160723197Y-81915000D02*
X159106351Y-83531847D01*
X158985271Y-83555932D01*
X158815111Y-83626414D01*
X158661972Y-83728738D01*
X158531738Y-83858972D01*
X158429414Y-84012111D01*
X158358932Y-84182271D01*
X158323000Y-84362911D01*
X158323000Y-84547089D01*
X158358932Y-84727729D01*
X158429414Y-84897889D01*
X158531738Y-85051028D01*
X158661972Y-85181262D01*
X158815111Y-85283586D01*
X158985271Y-85354068D01*
X159165911Y-85390000D01*
X159350089Y-85390000D01*
X159530729Y-85354068D01*
X159700889Y-85283586D01*
X159854028Y-85181262D01*
X159984262Y-85051028D01*
X160086586Y-84897889D01*
X160157068Y-84727729D01*
X160181153Y-84606649D01*
X162112803Y-82675000D01*
X162632084Y-82675000D01*
X162720394Y-82782606D01*
X162847392Y-82886831D01*
X162992284Y-82964278D01*
X163149500Y-83011969D01*
X163313000Y-83028072D01*
X163420126Y-83028072D01*
X160213199Y-86235000D01*
X149533916Y-86235000D01*
X149445606Y-86127394D01*
X149318608Y-86023169D01*
X149173716Y-85945722D01*
X149016500Y-85898031D01*
X148853000Y-85881928D01*
X148453000Y-85881928D01*
X148289500Y-85898031D01*
X148132284Y-85945722D01*
X147987392Y-86023169D01*
X147860394Y-86127394D01*
X147828000Y-86166866D01*
X147795606Y-86127394D01*
X147668608Y-86023169D01*
X147523716Y-85945722D01*
X147366500Y-85898031D01*
X147203000Y-85881928D01*
X146803000Y-85881928D01*
X146639500Y-85898031D01*
X146482284Y-85945722D01*
X146337392Y-86023169D01*
X146210394Y-86127394D01*
X146106169Y-86254392D01*
X146028722Y-86399284D01*
X146008198Y-86466941D01*
X145994201Y-86483997D01*
X136246352Y-96231847D01*
X136125271Y-96255932D01*
X135957629Y-96325371D01*
X136027068Y-96157729D01*
X136051153Y-96036648D01*
X146559961Y-85527841D01*
X146639500Y-85551969D01*
X146803000Y-85568072D01*
X147203000Y-85568072D01*
X147366500Y-85551969D01*
X147523716Y-85504278D01*
X147668608Y-85426831D01*
X147795606Y-85322606D01*
X147828000Y-85283134D01*
X147860394Y-85322606D01*
X147987392Y-85426831D01*
X148132284Y-85504278D01*
X148289500Y-85551969D01*
X148453000Y-85568072D01*
X148853000Y-85568072D01*
X149016500Y-85551969D01*
X149173716Y-85504278D01*
X149318608Y-85426831D01*
X149445606Y-85322606D01*
X149549831Y-85195608D01*
X149627278Y-85050716D01*
X149647802Y-84983059D01*
X149661804Y-84965997D01*
X150885717Y-83742085D01*
X150911738Y-83781028D01*
X151041972Y-83911262D01*
X151195111Y-84013586D01*
X151365271Y-84084068D01*
X151545911Y-84120000D01*
X151730089Y-84120000D01*
X151910729Y-84084068D01*
X152080889Y-84013586D01*
X152234028Y-83911262D01*
X152364262Y-83781028D01*
X152466586Y-83627889D01*
X152537068Y-83457729D01*
X152573000Y-83277089D01*
X152573000Y-83092911D01*
X152537068Y-82912271D01*
X152466586Y-82742111D01*
X152393729Y-82633072D01*
X153088000Y-82633072D01*
X153212482Y-82620812D01*
X153332180Y-82584502D01*
X153442494Y-82525537D01*
X153539185Y-82446185D01*
X153614018Y-82355000D01*
X154871486Y-82355000D01*
X154918722Y-82510716D01*
X154996169Y-82655608D01*
X155100394Y-82782606D01*
X155227392Y-82886831D01*
X155372284Y-82964278D01*
X155529500Y-83011969D01*
X155693000Y-83028072D01*
X156093000Y-83028072D01*
X156256500Y-83011969D01*
X156413716Y-82964278D01*
X156558608Y-82886831D01*
X156685606Y-82782606D01*
X156718000Y-82743134D01*
X156750394Y-82782606D01*
X156877392Y-82886831D01*
X157022284Y-82964278D01*
X157179500Y-83011969D01*
X157343000Y-83028072D01*
X157743000Y-83028072D01*
X157906500Y-83011969D01*
X158063716Y-82964278D01*
X158208608Y-82886831D01*
X158335606Y-82782606D01*
X158423916Y-82675000D01*
X158712465Y-82675000D01*
X158815111Y-82743586D01*
X158985271Y-82814068D01*
X159165911Y-82850000D01*
X159350089Y-82850000D01*
X159530729Y-82814068D01*
X159700889Y-82743586D01*
X159854028Y-82641262D01*
X159984262Y-82511028D01*
X160086586Y-82357889D01*
X160157068Y-82187729D01*
X160193000Y-82007089D01*
X160193000Y-81822911D01*
X160157068Y-81642271D01*
X160086586Y-81472111D01*
X159984262Y-81318972D01*
X159854028Y-81188738D01*
X159700889Y-81086414D01*
X159530729Y-81015932D01*
X159350089Y-80980000D01*
X159165911Y-80980000D01*
X158985271Y-81015932D01*
X158815111Y-81086414D01*
X158712465Y-81155000D01*
X158423916Y-81155000D01*
X158335606Y-81047394D01*
X158208608Y-80943169D01*
X158063716Y-80865722D01*
X157906500Y-80818031D01*
X157743000Y-80801928D01*
X157343000Y-80801928D01*
X157179500Y-80818031D01*
X157022284Y-80865722D01*
X156877392Y-80943169D01*
X156750394Y-81047394D01*
X156718000Y-81086866D01*
X156685606Y-81047394D01*
X156558608Y-80943169D01*
X156413716Y-80865722D01*
X156256500Y-80818031D01*
X156093000Y-80801928D01*
X155693000Y-80801928D01*
X155529500Y-80818031D01*
X155522711Y-80820090D01*
X155854730Y-80488072D01*
X156093000Y-80488072D01*
X156256500Y-80471969D01*
X156413716Y-80424278D01*
X156558608Y-80346831D01*
X156685606Y-80242606D01*
X156718000Y-80203134D01*
X156750394Y-80242606D01*
X156877392Y-80346831D01*
X157022284Y-80424278D01*
X157179500Y-80471969D01*
X157343000Y-80488072D01*
X157743000Y-80488072D01*
X157906500Y-80471969D01*
X158063716Y-80424278D01*
X158208608Y-80346831D01*
X158335606Y-80242606D01*
X158423916Y-80135000D01*
X158943199Y-80135000D01*
X160723197Y-81915000D01*
%TA.AperFunction,Conductor*%
D20*
G36*
X160723197Y-81915000D02*
G01*
X159106351Y-83531847D01*
X158985271Y-83555932D01*
X158815111Y-83626414D01*
X158661972Y-83728738D01*
X158531738Y-83858972D01*
X158429414Y-84012111D01*
X158358932Y-84182271D01*
X158323000Y-84362911D01*
X158323000Y-84547089D01*
X158358932Y-84727729D01*
X158429414Y-84897889D01*
X158531738Y-85051028D01*
X158661972Y-85181262D01*
X158815111Y-85283586D01*
X158985271Y-85354068D01*
X159165911Y-85390000D01*
X159350089Y-85390000D01*
X159530729Y-85354068D01*
X159700889Y-85283586D01*
X159854028Y-85181262D01*
X159984262Y-85051028D01*
X160086586Y-84897889D01*
X160157068Y-84727729D01*
X160181153Y-84606649D01*
X162112803Y-82675000D01*
X162632084Y-82675000D01*
X162720394Y-82782606D01*
X162847392Y-82886831D01*
X162992284Y-82964278D01*
X163149500Y-83011969D01*
X163313000Y-83028072D01*
X163420126Y-83028072D01*
X160213199Y-86235000D01*
X149533916Y-86235000D01*
X149445606Y-86127394D01*
X149318608Y-86023169D01*
X149173716Y-85945722D01*
X149016500Y-85898031D01*
X148853000Y-85881928D01*
X148453000Y-85881928D01*
X148289500Y-85898031D01*
X148132284Y-85945722D01*
X147987392Y-86023169D01*
X147860394Y-86127394D01*
X147828000Y-86166866D01*
X147795606Y-86127394D01*
X147668608Y-86023169D01*
X147523716Y-85945722D01*
X147366500Y-85898031D01*
X147203000Y-85881928D01*
X146803000Y-85881928D01*
X146639500Y-85898031D01*
X146482284Y-85945722D01*
X146337392Y-86023169D01*
X146210394Y-86127394D01*
X146106169Y-86254392D01*
X146028722Y-86399284D01*
X146008198Y-86466941D01*
X145994201Y-86483997D01*
X136246352Y-96231847D01*
X136125271Y-96255932D01*
X135957629Y-96325371D01*
X136027068Y-96157729D01*
X136051153Y-96036648D01*
X146559961Y-85527841D01*
X146639500Y-85551969D01*
X146803000Y-85568072D01*
X147203000Y-85568072D01*
X147366500Y-85551969D01*
X147523716Y-85504278D01*
X147668608Y-85426831D01*
X147795606Y-85322606D01*
X147828000Y-85283134D01*
X147860394Y-85322606D01*
X147987392Y-85426831D01*
X148132284Y-85504278D01*
X148289500Y-85551969D01*
X148453000Y-85568072D01*
X148853000Y-85568072D01*
X149016500Y-85551969D01*
X149173716Y-85504278D01*
X149318608Y-85426831D01*
X149445606Y-85322606D01*
X149549831Y-85195608D01*
X149627278Y-85050716D01*
X149647802Y-84983059D01*
X149661804Y-84965997D01*
X150885717Y-83742085D01*
X150911738Y-83781028D01*
X151041972Y-83911262D01*
X151195111Y-84013586D01*
X151365271Y-84084068D01*
X151545911Y-84120000D01*
X151730089Y-84120000D01*
X151910729Y-84084068D01*
X152080889Y-84013586D01*
X152234028Y-83911262D01*
X152364262Y-83781028D01*
X152466586Y-83627889D01*
X152537068Y-83457729D01*
X152573000Y-83277089D01*
X152573000Y-83092911D01*
X152537068Y-82912271D01*
X152466586Y-82742111D01*
X152393729Y-82633072D01*
X153088000Y-82633072D01*
X153212482Y-82620812D01*
X153332180Y-82584502D01*
X153442494Y-82525537D01*
X153539185Y-82446185D01*
X153614018Y-82355000D01*
X154871486Y-82355000D01*
X154918722Y-82510716D01*
X154996169Y-82655608D01*
X155100394Y-82782606D01*
X155227392Y-82886831D01*
X155372284Y-82964278D01*
X155529500Y-83011969D01*
X155693000Y-83028072D01*
X156093000Y-83028072D01*
X156256500Y-83011969D01*
X156413716Y-82964278D01*
X156558608Y-82886831D01*
X156685606Y-82782606D01*
X156718000Y-82743134D01*
X156750394Y-82782606D01*
X156877392Y-82886831D01*
X157022284Y-82964278D01*
X157179500Y-83011969D01*
X157343000Y-83028072D01*
X157743000Y-83028072D01*
X157906500Y-83011969D01*
X158063716Y-82964278D01*
X158208608Y-82886831D01*
X158335606Y-82782606D01*
X158423916Y-82675000D01*
X158712465Y-82675000D01*
X158815111Y-82743586D01*
X158985271Y-82814068D01*
X159165911Y-82850000D01*
X159350089Y-82850000D01*
X159530729Y-82814068D01*
X159700889Y-82743586D01*
X159854028Y-82641262D01*
X159984262Y-82511028D01*
X160086586Y-82357889D01*
X160157068Y-82187729D01*
X160193000Y-82007089D01*
X160193000Y-81822911D01*
X160157068Y-81642271D01*
X160086586Y-81472111D01*
X159984262Y-81318972D01*
X159854028Y-81188738D01*
X159700889Y-81086414D01*
X159530729Y-81015932D01*
X159350089Y-80980000D01*
X159165911Y-80980000D01*
X158985271Y-81015932D01*
X158815111Y-81086414D01*
X158712465Y-81155000D01*
X158423916Y-81155000D01*
X158335606Y-81047394D01*
X158208608Y-80943169D01*
X158063716Y-80865722D01*
X157906500Y-80818031D01*
X157743000Y-80801928D01*
X157343000Y-80801928D01*
X157179500Y-80818031D01*
X157022284Y-80865722D01*
X156877392Y-80943169D01*
X156750394Y-81047394D01*
X156718000Y-81086866D01*
X156685606Y-81047394D01*
X156558608Y-80943169D01*
X156413716Y-80865722D01*
X156256500Y-80818031D01*
X156093000Y-80801928D01*
X155693000Y-80801928D01*
X155529500Y-80818031D01*
X155522711Y-80820090D01*
X155854730Y-80488072D01*
X156093000Y-80488072D01*
X156256500Y-80471969D01*
X156413716Y-80424278D01*
X156558608Y-80346831D01*
X156685606Y-80242606D01*
X156718000Y-80203134D01*
X156750394Y-80242606D01*
X156877392Y-80346831D01*
X157022284Y-80424278D01*
X157179500Y-80471969D01*
X157343000Y-80488072D01*
X157743000Y-80488072D01*
X157906500Y-80471969D01*
X158063716Y-80424278D01*
X158208608Y-80346831D01*
X158335606Y-80242606D01*
X158423916Y-80135000D01*
X158943199Y-80135000D01*
X160723197Y-81915000D01*
G37*
%TD.AperFunction*%
D19*
X168165931Y-76554006D02*
X168353203Y-76782197D01*
X168581395Y-76969469D01*
X168680695Y-77022546D01*
X168712454Y-77127246D01*
X168783026Y-77259276D01*
X168850361Y-77341323D01*
X168878000Y-77375001D01*
X168906998Y-77398799D01*
X169928000Y-78419802D01*
X169928001Y-79610867D01*
X169843518Y-79619188D01*
X169723820Y-79655498D01*
X169613506Y-79714463D01*
X169516815Y-79793815D01*
X169506072Y-79806905D01*
X169506072Y-79295000D01*
X169493812Y-79170518D01*
X169457502Y-79050820D01*
X169398537Y-78940506D01*
X169319185Y-78843815D01*
X169222494Y-78764463D01*
X169112180Y-78705498D01*
X168992482Y-78669188D01*
X168868000Y-78656928D01*
X168348952Y-78656928D01*
X168246985Y-78625998D01*
X168098000Y-78611324D01*
X167949015Y-78625998D01*
X167805754Y-78669454D01*
X167757349Y-78695327D01*
X167723820Y-78705498D01*
X167613506Y-78764463D01*
X167516815Y-78843815D01*
X167441982Y-78935000D01*
X166184514Y-78935000D01*
X166137278Y-78779284D01*
X166059831Y-78634392D01*
X165955606Y-78507394D01*
X165828608Y-78403169D01*
X165683716Y-78325722D01*
X165526500Y-78278031D01*
X165363000Y-78261928D01*
X165098000Y-78261928D01*
X165098000Y-77010416D01*
X165174606Y-76969469D01*
X165402797Y-76782197D01*
X165590069Y-76554006D01*
X165608000Y-76520459D01*
X165625931Y-76554006D01*
X165813203Y-76782197D01*
X166041395Y-76969469D01*
X166301737Y-77108625D01*
X166584224Y-77194316D01*
X166878000Y-77223251D01*
X167171777Y-77194316D01*
X167454264Y-77108625D01*
X167714606Y-76969469D01*
X167942797Y-76782197D01*
X168130069Y-76554006D01*
X168148000Y-76520459D01*
X168165931Y-76554006D01*
%TA.AperFunction,Conductor*%
D20*
G36*
X168165931Y-76554006D02*
G01*
X168353203Y-76782197D01*
X168581395Y-76969469D01*
X168680695Y-77022546D01*
X168712454Y-77127246D01*
X168783026Y-77259276D01*
X168850361Y-77341323D01*
X168878000Y-77375001D01*
X168906998Y-77398799D01*
X169928000Y-78419802D01*
X169928001Y-79610867D01*
X169843518Y-79619188D01*
X169723820Y-79655498D01*
X169613506Y-79714463D01*
X169516815Y-79793815D01*
X169506072Y-79806905D01*
X169506072Y-79295000D01*
X169493812Y-79170518D01*
X169457502Y-79050820D01*
X169398537Y-78940506D01*
X169319185Y-78843815D01*
X169222494Y-78764463D01*
X169112180Y-78705498D01*
X168992482Y-78669188D01*
X168868000Y-78656928D01*
X168348952Y-78656928D01*
X168246985Y-78625998D01*
X168098000Y-78611324D01*
X167949015Y-78625998D01*
X167805754Y-78669454D01*
X167757349Y-78695327D01*
X167723820Y-78705498D01*
X167613506Y-78764463D01*
X167516815Y-78843815D01*
X167441982Y-78935000D01*
X166184514Y-78935000D01*
X166137278Y-78779284D01*
X166059831Y-78634392D01*
X165955606Y-78507394D01*
X165828608Y-78403169D01*
X165683716Y-78325722D01*
X165526500Y-78278031D01*
X165363000Y-78261928D01*
X165098000Y-78261928D01*
X165098000Y-77010416D01*
X165174606Y-76969469D01*
X165402797Y-76782197D01*
X165590069Y-76554006D01*
X165608000Y-76520459D01*
X165625931Y-76554006D01*
X165813203Y-76782197D01*
X166041395Y-76969469D01*
X166301737Y-77108625D01*
X166584224Y-77194316D01*
X166878000Y-77223251D01*
X167171777Y-77194316D01*
X167454264Y-77108625D01*
X167714606Y-76969469D01*
X167942797Y-76782197D01*
X168130069Y-76554006D01*
X168148000Y-76520459D01*
X168165931Y-76554006D01*
G37*
%TD.AperFunction*%
%TD*%
M02*
