%TF.GenerationSoftware,KiCad,Pcbnew,(5.1.9)-1*%
%TF.CreationDate,2021-10-28T18:27:29-05:00*%
%TF.ProjectId,KVLShield,4b564c53-6869-4656-9c64-2e6b69636164,1.0*%
%TF.SameCoordinates,Original*%
%TF.FileFunction,Legend,Top*%
%TF.FilePolarity,Positive*%
%FSLAX46Y46*%
G04 Gerber Fmt 4.6, Leading zero omitted, Abs format (unit mm)*
G04 Created by KiCad (PCBNEW (5.1.9)-1) date 2021-10-28 18:27:29*
%MOMM*%
%LPD*%
G01*
G04 APERTURE LIST*
%ADD10C,0.150000*%
%ADD11C,0.500000*%
%ADD12C,0.100000*%
%ADD13C,0.120000*%
G04 APERTURE END LIST*
D10*
X146833595Y-84817380D02*
X146833595Y-84150714D01*
X146833595Y-84341190D02*
X146881214Y-84245952D01*
X146928833Y-84198333D01*
X147024071Y-84150714D01*
X147119309Y-84150714D01*
X147833595Y-84769761D02*
X147738357Y-84817380D01*
X147547880Y-84817380D01*
X147452642Y-84769761D01*
X147405023Y-84674523D01*
X147405023Y-84293571D01*
X147452642Y-84198333D01*
X147547880Y-84150714D01*
X147738357Y-84150714D01*
X147833595Y-84198333D01*
X147881214Y-84293571D01*
X147881214Y-84388809D01*
X147405023Y-84484047D01*
X148214547Y-84150714D02*
X148452642Y-84817380D01*
X148690738Y-84150714D01*
X149785976Y-84531666D02*
X150262166Y-84531666D01*
X149690738Y-84817380D02*
X150024071Y-83817380D01*
X150357404Y-84817380D01*
X151452642Y-84436428D02*
X152214547Y-84436428D01*
X153643119Y-83817380D02*
X153833595Y-83817380D01*
X153928833Y-83865000D01*
X154024071Y-83960238D01*
X154071690Y-84150714D01*
X154071690Y-84484047D01*
X154024071Y-84674523D01*
X153928833Y-84769761D01*
X153833595Y-84817380D01*
X153643119Y-84817380D01*
X153547880Y-84769761D01*
X153452642Y-84674523D01*
X153405023Y-84484047D01*
X153405023Y-84150714D01*
X153452642Y-83960238D01*
X153547880Y-83865000D01*
X153643119Y-83817380D01*
X154928833Y-84769761D02*
X154833595Y-84817380D01*
X154643119Y-84817380D01*
X154547880Y-84769761D01*
X154500261Y-84722142D01*
X154452642Y-84626904D01*
X154452642Y-84341190D01*
X154500261Y-84245952D01*
X154547880Y-84198333D01*
X154643119Y-84150714D01*
X154833595Y-84150714D01*
X154928833Y-84198333D01*
X155214547Y-84150714D02*
X155595500Y-84150714D01*
X155357404Y-83817380D02*
X155357404Y-84674523D01*
X155405023Y-84769761D01*
X155500261Y-84817380D01*
X155595500Y-84817380D01*
X156071690Y-84817380D02*
X155976452Y-84769761D01*
X155928833Y-84722142D01*
X155881214Y-84626904D01*
X155881214Y-84341190D01*
X155928833Y-84245952D01*
X155976452Y-84198333D01*
X156071690Y-84150714D01*
X156214547Y-84150714D01*
X156309785Y-84198333D01*
X156357404Y-84245952D01*
X156405023Y-84341190D01*
X156405023Y-84626904D01*
X156357404Y-84722142D01*
X156309785Y-84769761D01*
X156214547Y-84817380D01*
X156071690Y-84817380D01*
X156833595Y-84817380D02*
X156833595Y-83817380D01*
X156833595Y-84198333D02*
X156928833Y-84150714D01*
X157119309Y-84150714D01*
X157214547Y-84198333D01*
X157262166Y-84245952D01*
X157309785Y-84341190D01*
X157309785Y-84626904D01*
X157262166Y-84722142D01*
X157214547Y-84769761D01*
X157119309Y-84817380D01*
X156928833Y-84817380D01*
X156833595Y-84769761D01*
X158119309Y-84769761D02*
X158024071Y-84817380D01*
X157833595Y-84817380D01*
X157738357Y-84769761D01*
X157690738Y-84674523D01*
X157690738Y-84293571D01*
X157738357Y-84198333D01*
X157833595Y-84150714D01*
X158024071Y-84150714D01*
X158119309Y-84198333D01*
X158166928Y-84293571D01*
X158166928Y-84388809D01*
X157690738Y-84484047D01*
X158595500Y-84817380D02*
X158595500Y-84150714D01*
X158595500Y-84341190D02*
X158643119Y-84245952D01*
X158690738Y-84198333D01*
X158785976Y-84150714D01*
X158881214Y-84150714D01*
X159928833Y-83912619D02*
X159976452Y-83865000D01*
X160071690Y-83817380D01*
X160309785Y-83817380D01*
X160405023Y-83865000D01*
X160452642Y-83912619D01*
X160500261Y-84007857D01*
X160500261Y-84103095D01*
X160452642Y-84245952D01*
X159881214Y-84817380D01*
X160500261Y-84817380D01*
X161119309Y-83817380D02*
X161214547Y-83817380D01*
X161309785Y-83865000D01*
X161357404Y-83912619D01*
X161405023Y-84007857D01*
X161452642Y-84198333D01*
X161452642Y-84436428D01*
X161405023Y-84626904D01*
X161357404Y-84722142D01*
X161309785Y-84769761D01*
X161214547Y-84817380D01*
X161119309Y-84817380D01*
X161024071Y-84769761D01*
X160976452Y-84722142D01*
X160928833Y-84626904D01*
X160881214Y-84436428D01*
X160881214Y-84198333D01*
X160928833Y-84007857D01*
X160976452Y-83912619D01*
X161024071Y-83865000D01*
X161119309Y-83817380D01*
X161833595Y-83912619D02*
X161881214Y-83865000D01*
X161976452Y-83817380D01*
X162214547Y-83817380D01*
X162309785Y-83865000D01*
X162357404Y-83912619D01*
X162405023Y-84007857D01*
X162405023Y-84103095D01*
X162357404Y-84245952D01*
X161785976Y-84817380D01*
X162405023Y-84817380D01*
X163357404Y-84817380D02*
X162785976Y-84817380D01*
X163071690Y-84817380D02*
X163071690Y-83817380D01*
X162976452Y-83960238D01*
X162881214Y-84055476D01*
X162785976Y-84103095D01*
D11*
X147037285Y-82722142D02*
X147037285Y-79722142D01*
X148751571Y-82722142D02*
X147465857Y-81007857D01*
X148751571Y-79722142D02*
X147037285Y-81436428D01*
X151037285Y-81150714D02*
X150037285Y-81150714D01*
X150037285Y-82722142D02*
X150037285Y-79722142D01*
X151465857Y-79722142D01*
X152608714Y-82722142D02*
X152608714Y-79722142D01*
X153323000Y-79722142D01*
X153751571Y-79865000D01*
X154037285Y-80150714D01*
X154180142Y-80436428D01*
X154323000Y-81007857D01*
X154323000Y-81436428D01*
X154180142Y-82007857D01*
X154037285Y-82293571D01*
X153751571Y-82579285D01*
X153323000Y-82722142D01*
X152608714Y-82722142D01*
X155465857Y-82579285D02*
X155894428Y-82722142D01*
X156608714Y-82722142D01*
X156894428Y-82579285D01*
X157037285Y-82436428D01*
X157180142Y-82150714D01*
X157180142Y-81865000D01*
X157037285Y-81579285D01*
X156894428Y-81436428D01*
X156608714Y-81293571D01*
X156037285Y-81150714D01*
X155751571Y-81007857D01*
X155608714Y-80865000D01*
X155465857Y-80579285D01*
X155465857Y-80293571D01*
X155608714Y-80007857D01*
X155751571Y-79865000D01*
X156037285Y-79722142D01*
X156751571Y-79722142D01*
X157180142Y-79865000D01*
X158465857Y-82722142D02*
X158465857Y-79722142D01*
X159751571Y-82722142D02*
X159751571Y-81150714D01*
X159608714Y-80865000D01*
X159323000Y-80722142D01*
X158894428Y-80722142D01*
X158608714Y-80865000D01*
X158465857Y-81007857D01*
X161180142Y-82722142D02*
X161180142Y-80722142D01*
X161180142Y-79722142D02*
X161037285Y-79865000D01*
X161180142Y-80007857D01*
X161323000Y-79865000D01*
X161180142Y-79722142D01*
X161180142Y-80007857D01*
X163751571Y-82579285D02*
X163465857Y-82722142D01*
X162894428Y-82722142D01*
X162608714Y-82579285D01*
X162465857Y-82293571D01*
X162465857Y-81150714D01*
X162608714Y-80865000D01*
X162894428Y-80722142D01*
X163465857Y-80722142D01*
X163751571Y-80865000D01*
X163894428Y-81150714D01*
X163894428Y-81436428D01*
X162465857Y-81722142D01*
X165608714Y-82722142D02*
X165323000Y-82579285D01*
X165180142Y-82293571D01*
X165180142Y-79722142D01*
X168037285Y-82722142D02*
X168037285Y-79722142D01*
X168037285Y-82579285D02*
X167751571Y-82722142D01*
X167180142Y-82722142D01*
X166894428Y-82579285D01*
X166751571Y-82436428D01*
X166608714Y-82150714D01*
X166608714Y-81293571D01*
X166751571Y-81007857D01*
X166894428Y-80865000D01*
X167180142Y-80722142D01*
X167751571Y-80722142D01*
X168037285Y-80865000D01*
D10*
X131617047Y-114067380D02*
X131617047Y-113067380D01*
X131855142Y-113067380D01*
X131998000Y-113115000D01*
X132093238Y-113210238D01*
X132140857Y-113305476D01*
X132188476Y-113495952D01*
X132188476Y-113638809D01*
X132140857Y-113829285D01*
X132093238Y-113924523D01*
X131998000Y-114019761D01*
X131855142Y-114067380D01*
X131617047Y-114067380D01*
X132807523Y-113067380D02*
X132998000Y-113067380D01*
X133093238Y-113115000D01*
X133188476Y-113210238D01*
X133236095Y-113400714D01*
X133236095Y-113734047D01*
X133188476Y-113924523D01*
X133093238Y-114019761D01*
X132998000Y-114067380D01*
X132807523Y-114067380D01*
X132712285Y-114019761D01*
X132617047Y-113924523D01*
X132569428Y-113734047D01*
X132569428Y-113400714D01*
X132617047Y-113210238D01*
X132712285Y-113115000D01*
X132807523Y-113067380D01*
X133569428Y-113067380D02*
X133807523Y-114067380D01*
X133998000Y-113353095D01*
X134188476Y-114067380D01*
X134426571Y-113067380D01*
X134807523Y-114067380D02*
X134807523Y-113067380D01*
X135378952Y-114067380D01*
X135378952Y-113067380D01*
X131021809Y-106519761D02*
X131164666Y-106567380D01*
X131402761Y-106567380D01*
X131498000Y-106519761D01*
X131545619Y-106472142D01*
X131593238Y-106376904D01*
X131593238Y-106281666D01*
X131545619Y-106186428D01*
X131498000Y-106138809D01*
X131402761Y-106091190D01*
X131212285Y-106043571D01*
X131117047Y-105995952D01*
X131069428Y-105948333D01*
X131021809Y-105853095D01*
X131021809Y-105757857D01*
X131069428Y-105662619D01*
X131117047Y-105615000D01*
X131212285Y-105567380D01*
X131450380Y-105567380D01*
X131593238Y-105615000D01*
X132021809Y-106043571D02*
X132355142Y-106043571D01*
X132498000Y-106567380D02*
X132021809Y-106567380D01*
X132021809Y-105567380D01*
X132498000Y-105567380D01*
X133402761Y-106567380D02*
X132926571Y-106567380D01*
X132926571Y-105567380D01*
X133736095Y-106043571D02*
X134069428Y-106043571D01*
X134212285Y-106567380D02*
X133736095Y-106567380D01*
X133736095Y-105567380D01*
X134212285Y-105567380D01*
X135212285Y-106472142D02*
X135164666Y-106519761D01*
X135021809Y-106567380D01*
X134926571Y-106567380D01*
X134783714Y-106519761D01*
X134688476Y-106424523D01*
X134640857Y-106329285D01*
X134593238Y-106138809D01*
X134593238Y-105995952D01*
X134640857Y-105805476D01*
X134688476Y-105710238D01*
X134783714Y-105615000D01*
X134926571Y-105567380D01*
X135021809Y-105567380D01*
X135164666Y-105615000D01*
X135212285Y-105662619D01*
X135498000Y-105567380D02*
X136069428Y-105567380D01*
X135783714Y-106567380D02*
X135783714Y-105567380D01*
X132712285Y-98067380D02*
X132712285Y-98876904D01*
X132759904Y-98972142D01*
X132807523Y-99019761D01*
X132902761Y-99067380D01*
X133093238Y-99067380D01*
X133188476Y-99019761D01*
X133236095Y-98972142D01*
X133283714Y-98876904D01*
X133283714Y-98067380D01*
X133759904Y-99067380D02*
X133759904Y-98067380D01*
X134140857Y-98067380D01*
X134236095Y-98115000D01*
X134283714Y-98162619D01*
X134331333Y-98257857D01*
X134331333Y-98400714D01*
X134283714Y-98495952D01*
X134236095Y-98543571D01*
X134140857Y-98591190D01*
X133759904Y-98591190D01*
X145224666Y-88987380D02*
X145558000Y-89987380D01*
X145891333Y-88987380D01*
X146796095Y-89892142D02*
X146748476Y-89939761D01*
X146605619Y-89987380D01*
X146510380Y-89987380D01*
X146367523Y-89939761D01*
X146272285Y-89844523D01*
X146224666Y-89749285D01*
X146177047Y-89558809D01*
X146177047Y-89415952D01*
X146224666Y-89225476D01*
X146272285Y-89130238D01*
X146367523Y-89035000D01*
X146510380Y-88987380D01*
X146605619Y-88987380D01*
X146748476Y-89035000D01*
X146796095Y-89082619D01*
X147796095Y-89892142D02*
X147748476Y-89939761D01*
X147605619Y-89987380D01*
X147510380Y-89987380D01*
X147367523Y-89939761D01*
X147272285Y-89844523D01*
X147224666Y-89749285D01*
X147177047Y-89558809D01*
X147177047Y-89415952D01*
X147224666Y-89225476D01*
X147272285Y-89130238D01*
X147367523Y-89035000D01*
X147510380Y-88987380D01*
X147605619Y-88987380D01*
X147748476Y-89035000D01*
X147796095Y-89082619D01*
X168656095Y-89035000D02*
X168560857Y-88987380D01*
X168418000Y-88987380D01*
X168275142Y-89035000D01*
X168179904Y-89130238D01*
X168132285Y-89225476D01*
X168084666Y-89415952D01*
X168084666Y-89558809D01*
X168132285Y-89749285D01*
X168179904Y-89844523D01*
X168275142Y-89939761D01*
X168418000Y-89987380D01*
X168513238Y-89987380D01*
X168656095Y-89939761D01*
X168703714Y-89892142D01*
X168703714Y-89558809D01*
X168513238Y-89558809D01*
X169132285Y-89987380D02*
X169132285Y-88987380D01*
X169703714Y-89987380D01*
X169703714Y-88987380D01*
X170179904Y-89987380D02*
X170179904Y-88987380D01*
X170418000Y-88987380D01*
X170560857Y-89035000D01*
X170656095Y-89130238D01*
X170703714Y-89225476D01*
X170751333Y-89415952D01*
X170751333Y-89558809D01*
X170703714Y-89749285D01*
X170656095Y-89844523D01*
X170560857Y-89939761D01*
X170418000Y-89987380D01*
X170179904Y-89987380D01*
D12*
G36*
X171206905Y-91819668D02*
G01*
X171157252Y-117774831D01*
X168098867Y-117771507D01*
X168088162Y-91823680D01*
X168101792Y-91816865D01*
X168098656Y-91816344D01*
X171206905Y-91819668D01*
G37*
X171206905Y-91819668D02*
X171157252Y-117774831D01*
X168098867Y-117771507D01*
X168088162Y-91823680D01*
X168101792Y-91816865D01*
X168098656Y-91816344D01*
X171206905Y-91819668D01*
G36*
X147869342Y-91797418D02*
G01*
X147819689Y-117752581D01*
X144761304Y-117749257D01*
X144750599Y-91801430D01*
X144764229Y-91794615D01*
X144761093Y-91794094D01*
X147869342Y-91797418D01*
G37*
X147869342Y-91797418D02*
X147819689Y-117752581D01*
X144761304Y-117749257D01*
X144750599Y-91801430D01*
X144764229Y-91794615D01*
X144761093Y-91794094D01*
X147869342Y-91797418D01*
D10*
X144018000Y-90805000D02*
X152848000Y-90805000D01*
X171958000Y-90805000D02*
X163068000Y-90805000D01*
X171958000Y-118745000D02*
X171958000Y-90805000D01*
X144018000Y-118745000D02*
X171958000Y-118745000D01*
X144018000Y-90805000D02*
X144018000Y-118745000D01*
X121610380Y-120197380D02*
X121134190Y-120530714D01*
X121610380Y-120768809D02*
X120610380Y-120768809D01*
X120610380Y-120387857D01*
X120658000Y-120292619D01*
X120705619Y-120245000D01*
X120800857Y-120197380D01*
X120943714Y-120197380D01*
X121038952Y-120245000D01*
X121086571Y-120292619D01*
X121134190Y-120387857D01*
X121134190Y-120768809D01*
X121086571Y-119768809D02*
X121086571Y-119435476D01*
X121610380Y-119292619D02*
X121610380Y-119768809D01*
X120610380Y-119768809D01*
X120610380Y-119292619D01*
X121562761Y-118911666D02*
X121610380Y-118768809D01*
X121610380Y-118530714D01*
X121562761Y-118435476D01*
X121515142Y-118387857D01*
X121419904Y-118340238D01*
X121324666Y-118340238D01*
X121229428Y-118387857D01*
X121181809Y-118435476D01*
X121134190Y-118530714D01*
X121086571Y-118721190D01*
X121038952Y-118816428D01*
X120991333Y-118864047D01*
X120896095Y-118911666D01*
X120800857Y-118911666D01*
X120705619Y-118864047D01*
X120658000Y-118816428D01*
X120610380Y-118721190D01*
X120610380Y-118483095D01*
X120658000Y-118340238D01*
X121086571Y-117911666D02*
X121086571Y-117578333D01*
X121610380Y-117435476D02*
X121610380Y-117911666D01*
X120610380Y-117911666D01*
X120610380Y-117435476D01*
X120610380Y-117149761D02*
X120610380Y-116578333D01*
X121610380Y-116864047D02*
X120610380Y-116864047D01*
X113012560Y-97287607D02*
X112917321Y-97239987D01*
X112774464Y-97239987D01*
X112631607Y-97287607D01*
X112536369Y-97382845D01*
X112488750Y-97478083D01*
X112441131Y-97668559D01*
X112441131Y-97811416D01*
X112488750Y-98001892D01*
X112536369Y-98097130D01*
X112631607Y-98192368D01*
X112774464Y-98239987D01*
X112869702Y-98239987D01*
X113012560Y-98192368D01*
X113060179Y-98144749D01*
X113060179Y-97811416D01*
X112869702Y-97811416D01*
X113488750Y-98239987D02*
X113488750Y-97239987D01*
X114060179Y-98239987D01*
X114060179Y-97239987D01*
X114536369Y-98239987D02*
X114536369Y-97239987D01*
X114774464Y-97239987D01*
X114917321Y-97287607D01*
X115012560Y-97382845D01*
X115060179Y-97478083D01*
X115107798Y-97668559D01*
X115107798Y-97811416D01*
X115060179Y-98001892D01*
X115012560Y-98097130D01*
X114917321Y-98192368D01*
X114774464Y-98239987D01*
X114536369Y-98239987D01*
X117012560Y-98192368D02*
X117155417Y-98239987D01*
X117393512Y-98239987D01*
X117488750Y-98192368D01*
X117536369Y-98144749D01*
X117583988Y-98049511D01*
X117583988Y-97954273D01*
X117536369Y-97859035D01*
X117488750Y-97811416D01*
X117393512Y-97763797D01*
X117203036Y-97716178D01*
X117107798Y-97668559D01*
X117060179Y-97620940D01*
X117012560Y-97525702D01*
X117012560Y-97430464D01*
X117060179Y-97335226D01*
X117107798Y-97287607D01*
X117203036Y-97239987D01*
X117441131Y-97239987D01*
X117583988Y-97287607D01*
X118012560Y-98239987D02*
X118012560Y-97239987D01*
X118583988Y-98239987D01*
X118583988Y-97239987D01*
X119012560Y-98192368D02*
X119155417Y-98239987D01*
X119393512Y-98239987D01*
X119488750Y-98192368D01*
X119536369Y-98144749D01*
X119583988Y-98049511D01*
X119583988Y-97954273D01*
X119536369Y-97859035D01*
X119488750Y-97811416D01*
X119393512Y-97763797D01*
X119203036Y-97716178D01*
X119107798Y-97668559D01*
X119060179Y-97620940D01*
X119012560Y-97525702D01*
X119012560Y-97430464D01*
X119060179Y-97335226D01*
X119107798Y-97287607D01*
X119203036Y-97239987D01*
X119441131Y-97239987D01*
X119583988Y-97287607D01*
X122298274Y-98239987D02*
X122298274Y-97239987D01*
X122536369Y-97239987D01*
X122679226Y-97287607D01*
X122774464Y-97382845D01*
X122822083Y-97478083D01*
X122869702Y-97668559D01*
X122869702Y-97811416D01*
X122822083Y-98001892D01*
X122774464Y-98097130D01*
X122679226Y-98192368D01*
X122536369Y-98239987D01*
X122298274Y-98239987D01*
X123250655Y-97954273D02*
X123726845Y-97954273D01*
X123155417Y-98239987D02*
X123488750Y-97239987D01*
X123822083Y-98239987D01*
X124012560Y-97239987D02*
X124583988Y-97239987D01*
X124298274Y-98239987D02*
X124298274Y-97239987D01*
X121281472Y-106258728D02*
X121281472Y-105258728D01*
X121519567Y-105258728D01*
X121662424Y-105306348D01*
X121757662Y-105401586D01*
X121805281Y-105496824D01*
X121852901Y-105687300D01*
X121852901Y-105830157D01*
X121805281Y-106020633D01*
X121757662Y-106115871D01*
X121662424Y-106211109D01*
X121519567Y-106258728D01*
X121281472Y-106258728D01*
X122233853Y-105973014D02*
X122710043Y-105973014D01*
X122138615Y-106258728D02*
X122471948Y-105258728D01*
X122805281Y-106258728D01*
X122995758Y-105258728D02*
X123567186Y-105258728D01*
X123281472Y-106258728D02*
X123281472Y-105258728D01*
X121121803Y-109692957D02*
X121264660Y-109740576D01*
X121502756Y-109740576D01*
X121597994Y-109692957D01*
X121645613Y-109645338D01*
X121693232Y-109550100D01*
X121693232Y-109454862D01*
X121645613Y-109359624D01*
X121597994Y-109312005D01*
X121502756Y-109264386D01*
X121312279Y-109216767D01*
X121217041Y-109169148D01*
X121169422Y-109121529D01*
X121121803Y-109026291D01*
X121121803Y-108931053D01*
X121169422Y-108835815D01*
X121217041Y-108788196D01*
X121312279Y-108740576D01*
X121550375Y-108740576D01*
X121693232Y-108788196D01*
X122121803Y-109740576D02*
X122121803Y-108740576D01*
X122693232Y-109740576D01*
X122693232Y-108740576D01*
X123121803Y-109692957D02*
X123264660Y-109740576D01*
X123502756Y-109740576D01*
X123597994Y-109692957D01*
X123645613Y-109645338D01*
X123693232Y-109550100D01*
X123693232Y-109454862D01*
X123645613Y-109359624D01*
X123597994Y-109312005D01*
X123502756Y-109264386D01*
X123312279Y-109216767D01*
X123217041Y-109169148D01*
X123169422Y-109121529D01*
X123121803Y-109026291D01*
X123121803Y-108931053D01*
X123169422Y-108835815D01*
X123217041Y-108788196D01*
X123312279Y-108740576D01*
X123550375Y-108740576D01*
X123693232Y-108788196D01*
X121666095Y-101735000D02*
X121570857Y-101687380D01*
X121428000Y-101687380D01*
X121285142Y-101735000D01*
X121189904Y-101830238D01*
X121142285Y-101925476D01*
X121094666Y-102115952D01*
X121094666Y-102258809D01*
X121142285Y-102449285D01*
X121189904Y-102544523D01*
X121285142Y-102639761D01*
X121428000Y-102687380D01*
X121523238Y-102687380D01*
X121666095Y-102639761D01*
X121713714Y-102592142D01*
X121713714Y-102258809D01*
X121523238Y-102258809D01*
X122142285Y-102687380D02*
X122142285Y-101687380D01*
X122713714Y-102687380D01*
X122713714Y-101687380D01*
X123189904Y-102687380D02*
X123189904Y-101687380D01*
X123428000Y-101687380D01*
X123570857Y-101735000D01*
X123666095Y-101830238D01*
X123713714Y-101925476D01*
X123761333Y-102115952D01*
X123761333Y-102258809D01*
X123713714Y-102449285D01*
X123666095Y-102544523D01*
X123570857Y-102639761D01*
X123428000Y-102687380D01*
X123189904Y-102687380D01*
X112252285Y-83589761D02*
X112395142Y-83637380D01*
X112633238Y-83637380D01*
X112728476Y-83589761D01*
X112776095Y-83542142D01*
X112823714Y-83446904D01*
X112823714Y-83351666D01*
X112776095Y-83256428D01*
X112728476Y-83208809D01*
X112633238Y-83161190D01*
X112442761Y-83113571D01*
X112347523Y-83065952D01*
X112299904Y-83018333D01*
X112252285Y-82923095D01*
X112252285Y-82827857D01*
X112299904Y-82732619D01*
X112347523Y-82685000D01*
X112442761Y-82637380D01*
X112680857Y-82637380D01*
X112823714Y-82685000D01*
X113252285Y-83637380D02*
X113252285Y-82637380D01*
X113823714Y-83637380D01*
X113823714Y-82637380D01*
X114252285Y-83589761D02*
X114395142Y-83637380D01*
X114633238Y-83637380D01*
X114728476Y-83589761D01*
X114776095Y-83542142D01*
X114823714Y-83446904D01*
X114823714Y-83351666D01*
X114776095Y-83256428D01*
X114728476Y-83208809D01*
X114633238Y-83161190D01*
X114442761Y-83113571D01*
X114347523Y-83065952D01*
X114299904Y-83018333D01*
X114252285Y-82923095D01*
X114252285Y-82827857D01*
X114299904Y-82732619D01*
X114347523Y-82685000D01*
X114442761Y-82637380D01*
X114680857Y-82637380D01*
X114823714Y-82685000D01*
X112418952Y-79541666D02*
X112895142Y-79541666D01*
X112323714Y-79827380D02*
X112657047Y-78827380D01*
X112990380Y-79827380D01*
X113895142Y-79732142D02*
X113847523Y-79779761D01*
X113704666Y-79827380D01*
X113609428Y-79827380D01*
X113466571Y-79779761D01*
X113371333Y-79684523D01*
X113323714Y-79589285D01*
X113276095Y-79398809D01*
X113276095Y-79255952D01*
X113323714Y-79065476D01*
X113371333Y-78970238D01*
X113466571Y-78875000D01*
X113609428Y-78827380D01*
X113704666Y-78827380D01*
X113847523Y-78875000D01*
X113895142Y-78922619D01*
X114180857Y-78827380D02*
X114752285Y-78827380D01*
X114466571Y-79827380D02*
X114466571Y-78827380D01*
X112204666Y-76017380D02*
X112204666Y-75017380D01*
X112585619Y-75017380D01*
X112680857Y-75065000D01*
X112728476Y-75112619D01*
X112776095Y-75207857D01*
X112776095Y-75350714D01*
X112728476Y-75445952D01*
X112680857Y-75493571D01*
X112585619Y-75541190D01*
X112204666Y-75541190D01*
X113109428Y-75017380D02*
X113347523Y-76017380D01*
X113538000Y-75303095D01*
X113728476Y-76017380D01*
X113966571Y-75017380D01*
X114918952Y-76017380D02*
X114585619Y-75541190D01*
X114347523Y-76017380D02*
X114347523Y-75017380D01*
X114728476Y-75017380D01*
X114823714Y-75065000D01*
X114871333Y-75112619D01*
X114918952Y-75207857D01*
X114918952Y-75350714D01*
X114871333Y-75445952D01*
X114823714Y-75493571D01*
X114728476Y-75541190D01*
X114347523Y-75541190D01*
X159075619Y-87717380D02*
X159266095Y-87717380D01*
X159361333Y-87765000D01*
X159456571Y-87860238D01*
X159504190Y-88050714D01*
X159504190Y-88384047D01*
X159456571Y-88574523D01*
X159361333Y-88669761D01*
X159266095Y-88717380D01*
X159075619Y-88717380D01*
X158980380Y-88669761D01*
X158885142Y-88574523D01*
X158837523Y-88384047D01*
X158837523Y-88050714D01*
X158885142Y-87860238D01*
X158980380Y-87765000D01*
X159075619Y-87717380D01*
X160408952Y-88717380D02*
X159932761Y-88717380D01*
X159932761Y-87717380D01*
X160742285Y-88193571D02*
X161075619Y-88193571D01*
X161218476Y-88717380D02*
X160742285Y-88717380D01*
X160742285Y-87717380D01*
X161218476Y-87717380D01*
X161647047Y-88717380D02*
X161647047Y-87717380D01*
X161885142Y-87717380D01*
X162028000Y-87765000D01*
X162123238Y-87860238D01*
X162170857Y-87955476D01*
X162218476Y-88145952D01*
X162218476Y-88288809D01*
X162170857Y-88479285D01*
X162123238Y-88574523D01*
X162028000Y-88669761D01*
X161885142Y-88717380D01*
X161647047Y-88717380D01*
D13*
%TO.C,J3*%
X112448000Y-93905000D02*
X111248000Y-93905000D01*
X111248000Y-93905000D02*
X111248000Y-93405000D01*
X111248000Y-93405000D02*
X108748000Y-93405000D01*
X108748000Y-93405000D02*
X108748000Y-88205000D01*
X108748000Y-88205000D02*
X111248000Y-88205000D01*
X111248000Y-88205000D02*
X111248000Y-87705000D01*
X111248000Y-87705000D02*
X114448000Y-87705000D01*
X117048000Y-87705000D02*
X125948000Y-87705000D01*
X125948000Y-87705000D02*
X125948000Y-93905000D01*
X125948000Y-93905000D02*
X124748000Y-93905000D01*
X121548000Y-93905000D02*
X115048000Y-93905000D01*
X112448000Y-93905000D02*
X112448000Y-95905000D01*
X115048000Y-93905000D02*
X115048000Y-95905000D01*
%TO.C,SW1*%
X119308000Y-121975000D02*
X119278000Y-121975000D01*
X112848000Y-121975000D02*
X112878000Y-121975000D01*
X112848000Y-115515000D02*
X112878000Y-115515000D01*
X119278000Y-115515000D02*
X119308000Y-115515000D01*
X117378000Y-121975000D02*
X114778000Y-121975000D01*
X119308000Y-115515000D02*
X119308000Y-121975000D01*
X117378000Y-115515000D02*
X114778000Y-115515000D01*
X112848000Y-115515000D02*
X112848000Y-121975000D01*
%TO.C,Q1*%
X137078000Y-83105000D02*
X136148000Y-83105000D01*
X133918000Y-83105000D02*
X134848000Y-83105000D01*
X133918000Y-83105000D02*
X133918000Y-85265000D01*
X137078000Y-83105000D02*
X137078000Y-84565000D01*
%TO.C,SW4*%
X130438000Y-114555000D02*
X136558000Y-114555000D01*
X136558000Y-114555000D02*
X136558000Y-118175000D01*
X136558000Y-118175000D02*
X130438000Y-118175000D01*
X130438000Y-118175000D02*
X130438000Y-114555000D01*
%TO.C,SW3*%
X130438000Y-107055000D02*
X136558000Y-107055000D01*
X136558000Y-107055000D02*
X136558000Y-110675000D01*
X136558000Y-110675000D02*
X130438000Y-110675000D01*
X130438000Y-110675000D02*
X130438000Y-107055000D01*
%TO.C,SW2*%
X130438000Y-99555000D02*
X136558000Y-99555000D01*
X136558000Y-99555000D02*
X136558000Y-103175000D01*
X136558000Y-103175000D02*
X130438000Y-103175000D01*
X130438000Y-103175000D02*
X130438000Y-99555000D01*
%TO.C,R12*%
X142770500Y-116127742D02*
X142770500Y-116602258D01*
X141725500Y-116127742D02*
X141725500Y-116602258D01*
%TO.C,R11*%
X142770500Y-108627742D02*
X142770500Y-109102258D01*
X141725500Y-108627742D02*
X141725500Y-109102258D01*
%TO.C,R10*%
X142770500Y-101127742D02*
X142770500Y-101602258D01*
X141725500Y-101127742D02*
X141725500Y-101602258D01*
%TO.C,D2*%
X131248000Y-96215000D02*
X131248000Y-94515000D01*
X131248000Y-94515000D02*
X128698000Y-94515000D01*
X131248000Y-96215000D02*
X128698000Y-96215000D01*
%TO.C,D1*%
X131248000Y-88465000D02*
X131248000Y-86765000D01*
X131248000Y-86765000D02*
X128698000Y-86765000D01*
X131248000Y-88465000D02*
X128698000Y-88465000D01*
%TO.C,J1*%
X117388000Y-99675000D02*
X107968000Y-99675000D01*
X107968000Y-99675000D02*
X107968000Y-111795000D01*
X107968000Y-111795000D02*
X117388000Y-111795000D01*
X117388000Y-99675000D02*
X117388000Y-101185000D01*
X117388000Y-111795000D02*
X117388000Y-110285000D01*
X117388000Y-103285000D02*
X117388000Y-104685000D01*
X117388000Y-106785000D02*
X117388000Y-108185000D01*
X111278000Y-99675000D02*
X111278000Y-111795000D01*
X118678000Y-102535000D02*
X118078000Y-102235000D01*
X118078000Y-102235000D02*
X118678000Y-101935000D01*
X118678000Y-101935000D02*
X118678000Y-102535000D01*
%TO.C,R9*%
X121485258Y-83667500D02*
X121010742Y-83667500D01*
X121485258Y-82622500D02*
X121010742Y-82622500D01*
%TO.C,D5*%
X118148000Y-82450000D02*
X115863000Y-82450000D01*
X115863000Y-82450000D02*
X115863000Y-83920000D01*
X115863000Y-83920000D02*
X118148000Y-83920000D01*
%TO.C,D4*%
X118148000Y-78640000D02*
X115863000Y-78640000D01*
X115863000Y-78640000D02*
X115863000Y-80110000D01*
X115863000Y-80110000D02*
X118148000Y-80110000D01*
%TO.C,D3*%
X118148000Y-74830000D02*
X115863000Y-74830000D01*
X115863000Y-74830000D02*
X115863000Y-76300000D01*
X115863000Y-76300000D02*
X118148000Y-76300000D01*
%TO.C,Q2*%
X137078000Y-90855000D02*
X136148000Y-90855000D01*
X133918000Y-90855000D02*
X134848000Y-90855000D01*
X133918000Y-90855000D02*
X133918000Y-93015000D01*
X137078000Y-90855000D02*
X137078000Y-92315000D01*
%TO.C,R8*%
X121485258Y-79897500D02*
X121010742Y-79897500D01*
X121485258Y-78852500D02*
X121010742Y-78852500D01*
%TO.C,R7*%
X121485258Y-76087500D02*
X121010742Y-76087500D01*
X121485258Y-75042500D02*
X121010742Y-75042500D01*
%TO.C,R6*%
X135735258Y-95887500D02*
X135260742Y-95887500D01*
X135735258Y-94842500D02*
X135260742Y-94842500D01*
%TO.C,R5*%
X129510742Y-92342500D02*
X129985258Y-92342500D01*
X129510742Y-93387500D02*
X129985258Y-93387500D01*
%TO.C,R4*%
X129510742Y-89842500D02*
X129985258Y-89842500D01*
X129510742Y-90887500D02*
X129985258Y-90887500D01*
%TO.C,R3*%
X135735258Y-88137500D02*
X135260742Y-88137500D01*
X135735258Y-87092500D02*
X135260742Y-87092500D01*
%TO.C,R2*%
X129510742Y-84592500D02*
X129985258Y-84592500D01*
X129510742Y-85637500D02*
X129985258Y-85637500D01*
%TO.C,R1*%
X129510742Y-82092500D02*
X129985258Y-82092500D01*
X129510742Y-83137500D02*
X129985258Y-83137500D01*
D10*
%TO.C,P1*%
X140208000Y-125095000D02*
X157988000Y-125095000D01*
X157988000Y-125095000D02*
X157988000Y-122555000D01*
X157988000Y-122555000D02*
X140208000Y-122555000D01*
X137388000Y-125375000D02*
X138938000Y-125375000D01*
X140208000Y-125095000D02*
X140208000Y-122555000D01*
X138938000Y-122275000D02*
X137388000Y-122275000D01*
X137388000Y-122275000D02*
X137388000Y-125375000D01*
%TO.C,P2*%
X163068000Y-125095000D02*
X175768000Y-125095000D01*
X175768000Y-125095000D02*
X175768000Y-122555000D01*
X175768000Y-122555000D02*
X163068000Y-122555000D01*
X160248000Y-125375000D02*
X161798000Y-125375000D01*
X163068000Y-125095000D02*
X163068000Y-122555000D01*
X161798000Y-122275000D02*
X160248000Y-122275000D01*
X160248000Y-122275000D02*
X160248000Y-125375000D01*
%TO.C,P3*%
X131064000Y-76835000D02*
X153924000Y-76835000D01*
X153924000Y-76835000D02*
X153924000Y-74295000D01*
X153924000Y-74295000D02*
X131064000Y-74295000D01*
X128244000Y-77115000D02*
X129794000Y-77115000D01*
X131064000Y-76835000D02*
X131064000Y-74295000D01*
X129794000Y-74015000D02*
X128244000Y-74015000D01*
X128244000Y-74015000D02*
X128244000Y-77115000D01*
%TO.C,P4*%
X157988000Y-76835000D02*
X175768000Y-76835000D01*
X175768000Y-76835000D02*
X175768000Y-74295000D01*
X175768000Y-74295000D02*
X157988000Y-74295000D01*
X155168000Y-77115000D02*
X156718000Y-77115000D01*
X157988000Y-76835000D02*
X157988000Y-74295000D01*
X156718000Y-74015000D02*
X155168000Y-74015000D01*
X155168000Y-74015000D02*
X155168000Y-77115000D01*
%TO.C,P5*%
X127254000Y-123825000D02*
G75*
G03*
X127254000Y-123825000I-2286000J0D01*
G01*
%TO.C,P6*%
X179324000Y-118745000D02*
G75*
G03*
X179324000Y-118745000I-2286000J0D01*
G01*
%TO.C,P7*%
X128524000Y-75565000D02*
G75*
G03*
X128524000Y-75565000I-2286000J0D01*
G01*
%TO.C,P8*%
X179324000Y-90805000D02*
G75*
G03*
X179324000Y-90805000I-2286000J0D01*
G01*
D13*
%TO.C,J2*%
X152848000Y-90805000D02*
X152848000Y-89475000D01*
X152848000Y-89475000D02*
X154178000Y-89475000D01*
X155448000Y-89475000D02*
X163128000Y-89475000D01*
X163128000Y-92135000D02*
X163128000Y-89475000D01*
X155448000Y-92135000D02*
X163128000Y-92135000D01*
X155448000Y-92135000D02*
X155448000Y-89475000D01*
%TO.C,Q1*%
D10*
X138152761Y-84412619D02*
X138057523Y-84365000D01*
X137962285Y-84269761D01*
X137819428Y-84126904D01*
X137724190Y-84079285D01*
X137628952Y-84079285D01*
X137676571Y-84317380D02*
X137581333Y-84269761D01*
X137486095Y-84174523D01*
X137438476Y-83984047D01*
X137438476Y-83650714D01*
X137486095Y-83460238D01*
X137581333Y-83365000D01*
X137676571Y-83317380D01*
X137867047Y-83317380D01*
X137962285Y-83365000D01*
X138057523Y-83460238D01*
X138105142Y-83650714D01*
X138105142Y-83984047D01*
X138057523Y-84174523D01*
X137962285Y-84269761D01*
X137867047Y-84317380D01*
X137676571Y-84317380D01*
X139057523Y-84317380D02*
X138486095Y-84317380D01*
X138771809Y-84317380D02*
X138771809Y-83317380D01*
X138676571Y-83460238D01*
X138581333Y-83555476D01*
X138486095Y-83603095D01*
%TO.C,R12*%
X141605142Y-114567380D02*
X141271809Y-114091190D01*
X141033714Y-114567380D02*
X141033714Y-113567380D01*
X141414666Y-113567380D01*
X141509904Y-113615000D01*
X141557523Y-113662619D01*
X141605142Y-113757857D01*
X141605142Y-113900714D01*
X141557523Y-113995952D01*
X141509904Y-114043571D01*
X141414666Y-114091190D01*
X141033714Y-114091190D01*
X142557523Y-114567380D02*
X141986095Y-114567380D01*
X142271809Y-114567380D02*
X142271809Y-113567380D01*
X142176571Y-113710238D01*
X142081333Y-113805476D01*
X141986095Y-113853095D01*
X142938476Y-113662619D02*
X142986095Y-113615000D01*
X143081333Y-113567380D01*
X143319428Y-113567380D01*
X143414666Y-113615000D01*
X143462285Y-113662619D01*
X143509904Y-113757857D01*
X143509904Y-113853095D01*
X143462285Y-113995952D01*
X142890857Y-114567380D01*
X143509904Y-114567380D01*
%TO.C,R11*%
X141605142Y-107067380D02*
X141271809Y-106591190D01*
X141033714Y-107067380D02*
X141033714Y-106067380D01*
X141414666Y-106067380D01*
X141509904Y-106115000D01*
X141557523Y-106162619D01*
X141605142Y-106257857D01*
X141605142Y-106400714D01*
X141557523Y-106495952D01*
X141509904Y-106543571D01*
X141414666Y-106591190D01*
X141033714Y-106591190D01*
X142557523Y-107067380D02*
X141986095Y-107067380D01*
X142271809Y-107067380D02*
X142271809Y-106067380D01*
X142176571Y-106210238D01*
X142081333Y-106305476D01*
X141986095Y-106353095D01*
X143509904Y-107067380D02*
X142938476Y-107067380D01*
X143224190Y-107067380D02*
X143224190Y-106067380D01*
X143128952Y-106210238D01*
X143033714Y-106305476D01*
X142938476Y-106353095D01*
%TO.C,R10*%
X141605142Y-99567380D02*
X141271809Y-99091190D01*
X141033714Y-99567380D02*
X141033714Y-98567380D01*
X141414666Y-98567380D01*
X141509904Y-98615000D01*
X141557523Y-98662619D01*
X141605142Y-98757857D01*
X141605142Y-98900714D01*
X141557523Y-98995952D01*
X141509904Y-99043571D01*
X141414666Y-99091190D01*
X141033714Y-99091190D01*
X142557523Y-99567380D02*
X141986095Y-99567380D01*
X142271809Y-99567380D02*
X142271809Y-98567380D01*
X142176571Y-98710238D01*
X142081333Y-98805476D01*
X141986095Y-98853095D01*
X143176571Y-98567380D02*
X143271809Y-98567380D01*
X143367047Y-98615000D01*
X143414666Y-98662619D01*
X143462285Y-98757857D01*
X143509904Y-98948333D01*
X143509904Y-99186428D01*
X143462285Y-99376904D01*
X143414666Y-99472142D01*
X143367047Y-99519761D01*
X143271809Y-99567380D01*
X143176571Y-99567380D01*
X143081333Y-99519761D01*
X143033714Y-99472142D01*
X142986095Y-99376904D01*
X142938476Y-99186428D01*
X142938476Y-98948333D01*
X142986095Y-98757857D01*
X143033714Y-98662619D01*
X143081333Y-98615000D01*
X143176571Y-98567380D01*
%TO.C,D2*%
X131759904Y-95817380D02*
X131759904Y-94817380D01*
X131998000Y-94817380D01*
X132140857Y-94865000D01*
X132236095Y-94960238D01*
X132283714Y-95055476D01*
X132331333Y-95245952D01*
X132331333Y-95388809D01*
X132283714Y-95579285D01*
X132236095Y-95674523D01*
X132140857Y-95769761D01*
X131998000Y-95817380D01*
X131759904Y-95817380D01*
X132712285Y-94912619D02*
X132759904Y-94865000D01*
X132855142Y-94817380D01*
X133093238Y-94817380D01*
X133188476Y-94865000D01*
X133236095Y-94912619D01*
X133283714Y-95007857D01*
X133283714Y-95103095D01*
X133236095Y-95245952D01*
X132664666Y-95817380D01*
X133283714Y-95817380D01*
%TO.C,D1*%
X131759904Y-88067380D02*
X131759904Y-87067380D01*
X131998000Y-87067380D01*
X132140857Y-87115000D01*
X132236095Y-87210238D01*
X132283714Y-87305476D01*
X132331333Y-87495952D01*
X132331333Y-87638809D01*
X132283714Y-87829285D01*
X132236095Y-87924523D01*
X132140857Y-88019761D01*
X131998000Y-88067380D01*
X131759904Y-88067380D01*
X133283714Y-88067380D02*
X132712285Y-88067380D01*
X132998000Y-88067380D02*
X132998000Y-87067380D01*
X132902761Y-87210238D01*
X132807523Y-87305476D01*
X132712285Y-87353095D01*
%TO.C,R9*%
X121081333Y-85027380D02*
X120748000Y-84551190D01*
X120509904Y-85027380D02*
X120509904Y-84027380D01*
X120890857Y-84027380D01*
X120986095Y-84075000D01*
X121033714Y-84122619D01*
X121081333Y-84217857D01*
X121081333Y-84360714D01*
X121033714Y-84455952D01*
X120986095Y-84503571D01*
X120890857Y-84551190D01*
X120509904Y-84551190D01*
X121557523Y-85027380D02*
X121748000Y-85027380D01*
X121843238Y-84979761D01*
X121890857Y-84932142D01*
X121986095Y-84789285D01*
X122033714Y-84598809D01*
X122033714Y-84217857D01*
X121986095Y-84122619D01*
X121938476Y-84075000D01*
X121843238Y-84027380D01*
X121652761Y-84027380D01*
X121557523Y-84075000D01*
X121509904Y-84122619D01*
X121462285Y-84217857D01*
X121462285Y-84455952D01*
X121509904Y-84551190D01*
X121557523Y-84598809D01*
X121652761Y-84646428D01*
X121843238Y-84646428D01*
X121938476Y-84598809D01*
X121986095Y-84551190D01*
X122033714Y-84455952D01*
%TO.C,D5*%
X116609904Y-82207380D02*
X116609904Y-81207380D01*
X116848000Y-81207380D01*
X116990857Y-81255000D01*
X117086095Y-81350238D01*
X117133714Y-81445476D01*
X117181333Y-81635952D01*
X117181333Y-81778809D01*
X117133714Y-81969285D01*
X117086095Y-82064523D01*
X116990857Y-82159761D01*
X116848000Y-82207380D01*
X116609904Y-82207380D01*
X118086095Y-81207380D02*
X117609904Y-81207380D01*
X117562285Y-81683571D01*
X117609904Y-81635952D01*
X117705142Y-81588333D01*
X117943238Y-81588333D01*
X118038476Y-81635952D01*
X118086095Y-81683571D01*
X118133714Y-81778809D01*
X118133714Y-82016904D01*
X118086095Y-82112142D01*
X118038476Y-82159761D01*
X117943238Y-82207380D01*
X117705142Y-82207380D01*
X117609904Y-82159761D01*
X117562285Y-82112142D01*
%TO.C,D4*%
X116609904Y-78397380D02*
X116609904Y-77397380D01*
X116848000Y-77397380D01*
X116990857Y-77445000D01*
X117086095Y-77540238D01*
X117133714Y-77635476D01*
X117181333Y-77825952D01*
X117181333Y-77968809D01*
X117133714Y-78159285D01*
X117086095Y-78254523D01*
X116990857Y-78349761D01*
X116848000Y-78397380D01*
X116609904Y-78397380D01*
X118038476Y-77730714D02*
X118038476Y-78397380D01*
X117800380Y-77349761D02*
X117562285Y-78064047D01*
X118181333Y-78064047D01*
%TO.C,D3*%
X116609904Y-74587380D02*
X116609904Y-73587380D01*
X116848000Y-73587380D01*
X116990857Y-73635000D01*
X117086095Y-73730238D01*
X117133714Y-73825476D01*
X117181333Y-74015952D01*
X117181333Y-74158809D01*
X117133714Y-74349285D01*
X117086095Y-74444523D01*
X116990857Y-74539761D01*
X116848000Y-74587380D01*
X116609904Y-74587380D01*
X117514666Y-73587380D02*
X118133714Y-73587380D01*
X117800380Y-73968333D01*
X117943238Y-73968333D01*
X118038476Y-74015952D01*
X118086095Y-74063571D01*
X118133714Y-74158809D01*
X118133714Y-74396904D01*
X118086095Y-74492142D01*
X118038476Y-74539761D01*
X117943238Y-74587380D01*
X117657523Y-74587380D01*
X117562285Y-74539761D01*
X117514666Y-74492142D01*
%TO.C,Q2*%
X138152761Y-92162619D02*
X138057523Y-92115000D01*
X137962285Y-92019761D01*
X137819428Y-91876904D01*
X137724190Y-91829285D01*
X137628952Y-91829285D01*
X137676571Y-92067380D02*
X137581333Y-92019761D01*
X137486095Y-91924523D01*
X137438476Y-91734047D01*
X137438476Y-91400714D01*
X137486095Y-91210238D01*
X137581333Y-91115000D01*
X137676571Y-91067380D01*
X137867047Y-91067380D01*
X137962285Y-91115000D01*
X138057523Y-91210238D01*
X138105142Y-91400714D01*
X138105142Y-91734047D01*
X138057523Y-91924523D01*
X137962285Y-92019761D01*
X137867047Y-92067380D01*
X137676571Y-92067380D01*
X138486095Y-91162619D02*
X138533714Y-91115000D01*
X138628952Y-91067380D01*
X138867047Y-91067380D01*
X138962285Y-91115000D01*
X139009904Y-91162619D01*
X139057523Y-91257857D01*
X139057523Y-91353095D01*
X139009904Y-91495952D01*
X138438476Y-92067380D01*
X139057523Y-92067380D01*
%TO.C,R8*%
X121081333Y-81257380D02*
X120748000Y-80781190D01*
X120509904Y-81257380D02*
X120509904Y-80257380D01*
X120890857Y-80257380D01*
X120986095Y-80305000D01*
X121033714Y-80352619D01*
X121081333Y-80447857D01*
X121081333Y-80590714D01*
X121033714Y-80685952D01*
X120986095Y-80733571D01*
X120890857Y-80781190D01*
X120509904Y-80781190D01*
X121652761Y-80685952D02*
X121557523Y-80638333D01*
X121509904Y-80590714D01*
X121462285Y-80495476D01*
X121462285Y-80447857D01*
X121509904Y-80352619D01*
X121557523Y-80305000D01*
X121652761Y-80257380D01*
X121843238Y-80257380D01*
X121938476Y-80305000D01*
X121986095Y-80352619D01*
X122033714Y-80447857D01*
X122033714Y-80495476D01*
X121986095Y-80590714D01*
X121938476Y-80638333D01*
X121843238Y-80685952D01*
X121652761Y-80685952D01*
X121557523Y-80733571D01*
X121509904Y-80781190D01*
X121462285Y-80876428D01*
X121462285Y-81066904D01*
X121509904Y-81162142D01*
X121557523Y-81209761D01*
X121652761Y-81257380D01*
X121843238Y-81257380D01*
X121938476Y-81209761D01*
X121986095Y-81162142D01*
X122033714Y-81066904D01*
X122033714Y-80876428D01*
X121986095Y-80781190D01*
X121938476Y-80733571D01*
X121843238Y-80685952D01*
%TO.C,R7*%
X121081333Y-77447380D02*
X120748000Y-76971190D01*
X120509904Y-77447380D02*
X120509904Y-76447380D01*
X120890857Y-76447380D01*
X120986095Y-76495000D01*
X121033714Y-76542619D01*
X121081333Y-76637857D01*
X121081333Y-76780714D01*
X121033714Y-76875952D01*
X120986095Y-76923571D01*
X120890857Y-76971190D01*
X120509904Y-76971190D01*
X121414666Y-76447380D02*
X122081333Y-76447380D01*
X121652761Y-77447380D01*
%TO.C,R6*%
X137871333Y-95817380D02*
X137538000Y-95341190D01*
X137299904Y-95817380D02*
X137299904Y-94817380D01*
X137680857Y-94817380D01*
X137776095Y-94865000D01*
X137823714Y-94912619D01*
X137871333Y-95007857D01*
X137871333Y-95150714D01*
X137823714Y-95245952D01*
X137776095Y-95293571D01*
X137680857Y-95341190D01*
X137299904Y-95341190D01*
X138728476Y-94817380D02*
X138538000Y-94817380D01*
X138442761Y-94865000D01*
X138395142Y-94912619D01*
X138299904Y-95055476D01*
X138252285Y-95245952D01*
X138252285Y-95626904D01*
X138299904Y-95722142D01*
X138347523Y-95769761D01*
X138442761Y-95817380D01*
X138633238Y-95817380D01*
X138728476Y-95769761D01*
X138776095Y-95722142D01*
X138823714Y-95626904D01*
X138823714Y-95388809D01*
X138776095Y-95293571D01*
X138728476Y-95245952D01*
X138633238Y-95198333D01*
X138442761Y-95198333D01*
X138347523Y-95245952D01*
X138299904Y-95293571D01*
X138252285Y-95388809D01*
%TO.C,R5*%
X132081333Y-93317380D02*
X131748000Y-92841190D01*
X131509904Y-93317380D02*
X131509904Y-92317380D01*
X131890857Y-92317380D01*
X131986095Y-92365000D01*
X132033714Y-92412619D01*
X132081333Y-92507857D01*
X132081333Y-92650714D01*
X132033714Y-92745952D01*
X131986095Y-92793571D01*
X131890857Y-92841190D01*
X131509904Y-92841190D01*
X132986095Y-92317380D02*
X132509904Y-92317380D01*
X132462285Y-92793571D01*
X132509904Y-92745952D01*
X132605142Y-92698333D01*
X132843238Y-92698333D01*
X132938476Y-92745952D01*
X132986095Y-92793571D01*
X133033714Y-92888809D01*
X133033714Y-93126904D01*
X132986095Y-93222142D01*
X132938476Y-93269761D01*
X132843238Y-93317380D01*
X132605142Y-93317380D01*
X132509904Y-93269761D01*
X132462285Y-93222142D01*
%TO.C,R4*%
X132081333Y-90817380D02*
X131748000Y-90341190D01*
X131509904Y-90817380D02*
X131509904Y-89817380D01*
X131890857Y-89817380D01*
X131986095Y-89865000D01*
X132033714Y-89912619D01*
X132081333Y-90007857D01*
X132081333Y-90150714D01*
X132033714Y-90245952D01*
X131986095Y-90293571D01*
X131890857Y-90341190D01*
X131509904Y-90341190D01*
X132938476Y-90150714D02*
X132938476Y-90817380D01*
X132700380Y-89769761D02*
X132462285Y-90484047D01*
X133081333Y-90484047D01*
%TO.C,R3*%
X137871333Y-88067380D02*
X137538000Y-87591190D01*
X137299904Y-88067380D02*
X137299904Y-87067380D01*
X137680857Y-87067380D01*
X137776095Y-87115000D01*
X137823714Y-87162619D01*
X137871333Y-87257857D01*
X137871333Y-87400714D01*
X137823714Y-87495952D01*
X137776095Y-87543571D01*
X137680857Y-87591190D01*
X137299904Y-87591190D01*
X138204666Y-87067380D02*
X138823714Y-87067380D01*
X138490380Y-87448333D01*
X138633238Y-87448333D01*
X138728476Y-87495952D01*
X138776095Y-87543571D01*
X138823714Y-87638809D01*
X138823714Y-87876904D01*
X138776095Y-87972142D01*
X138728476Y-88019761D01*
X138633238Y-88067380D01*
X138347523Y-88067380D01*
X138252285Y-88019761D01*
X138204666Y-87972142D01*
%TO.C,R2*%
X132081333Y-85567380D02*
X131748000Y-85091190D01*
X131509904Y-85567380D02*
X131509904Y-84567380D01*
X131890857Y-84567380D01*
X131986095Y-84615000D01*
X132033714Y-84662619D01*
X132081333Y-84757857D01*
X132081333Y-84900714D01*
X132033714Y-84995952D01*
X131986095Y-85043571D01*
X131890857Y-85091190D01*
X131509904Y-85091190D01*
X132462285Y-84662619D02*
X132509904Y-84615000D01*
X132605142Y-84567380D01*
X132843238Y-84567380D01*
X132938476Y-84615000D01*
X132986095Y-84662619D01*
X133033714Y-84757857D01*
X133033714Y-84853095D01*
X132986095Y-84995952D01*
X132414666Y-85567380D01*
X133033714Y-85567380D01*
%TO.C,R1*%
X132081333Y-83067380D02*
X131748000Y-82591190D01*
X131509904Y-83067380D02*
X131509904Y-82067380D01*
X131890857Y-82067380D01*
X131986095Y-82115000D01*
X132033714Y-82162619D01*
X132081333Y-82257857D01*
X132081333Y-82400714D01*
X132033714Y-82495952D01*
X131986095Y-82543571D01*
X131890857Y-82591190D01*
X131509904Y-82591190D01*
X133033714Y-83067380D02*
X132462285Y-83067380D01*
X132748000Y-83067380D02*
X132748000Y-82067380D01*
X132652761Y-82210238D01*
X132557523Y-82305476D01*
X132462285Y-82353095D01*
%TO.C,J2*%
X150860380Y-91138333D02*
X151574666Y-91138333D01*
X151717523Y-91185952D01*
X151812761Y-91281190D01*
X151860380Y-91424047D01*
X151860380Y-91519285D01*
X150955619Y-90709761D02*
X150908000Y-90662142D01*
X150860380Y-90566904D01*
X150860380Y-90328809D01*
X150908000Y-90233571D01*
X150955619Y-90185952D01*
X151050857Y-90138333D01*
X151146095Y-90138333D01*
X151288952Y-90185952D01*
X151860380Y-90757380D01*
X151860380Y-90138333D01*
%TD*%
M02*
