M48
; DRILL file {KiCad (5.1.9)-1} date 10/28/21 18:27:33
; FORMAT={-:-/ absolute / inch / decimal}
; #@! TF.CreationDate,2021-10-28T18:27:33-05:00
; #@! TF.GenerationSoftware,Kicad,Pcbnew,(5.1.9)-1
; #@! TF.FileFunction,Plated,1,2,PTH
FMAT,2
INCH
T1C0.0157
T2C0.0394
T3C0.0400
T4C0.0433
T5C0.0472
T6C0.1200
%
G90
G05
T1
X4.9999Y-3.4789
X4.9999Y-3.5577
X4.9999Y-3.6364
X5.433Y-3.2427
X5.433Y-3.3608
X5.433Y-3.538
X5.433Y-3.6758
T2
X6.07Y-3.575
X6.17Y-3.575
X6.27Y-3.575
X6.37Y-3.575
T3
X5.11Y-2.975
X5.21Y-2.975
X5.31Y-2.975
X5.41Y-2.975
X5.47Y-4.875
X5.51Y-2.975
X5.57Y-4.875
X5.61Y-2.975
X5.67Y-4.875
X5.71Y-2.975
X5.77Y-4.875
X5.81Y-2.975
X5.87Y-4.875
X5.91Y-2.975
X5.97Y-4.875
X6.01Y-2.975
X6.07Y-4.875
X6.17Y-2.975
X6.17Y-4.875
X6.27Y-2.975
X6.37Y-2.975
X6.37Y-4.875
X6.47Y-2.975
X6.47Y-4.875
X6.57Y-2.975
X6.57Y-4.875
X6.67Y-2.975
X6.67Y-4.875
X6.77Y-2.975
X6.77Y-4.875
X6.87Y-2.975
X6.87Y-4.875
T4
X5.77Y-3.675
X5.77Y-3.775
X5.77Y-3.875
X5.77Y-3.975
X5.77Y-4.075
X5.77Y-4.175
X5.77Y-4.275
X5.77Y-4.375
X5.77Y-4.475
X5.77Y-4.575
X5.87Y-3.675
X5.87Y-3.775
X5.87Y-3.875
X5.87Y-3.975
X5.87Y-4.075
X5.87Y-4.175
X5.87Y-4.275
X5.87Y-4.375
X5.87Y-4.475
X5.87Y-4.575
X5.97Y-3.675
X5.97Y-3.775
X5.97Y-3.875
X5.97Y-3.975
X5.97Y-4.075
X5.97Y-4.175
X5.97Y-4.275
X5.97Y-4.375
X5.97Y-4.475
X5.97Y-4.575
X6.07Y-3.675
X6.07Y-3.775
X6.07Y-3.875
X6.07Y-3.975
X6.07Y-4.075
X6.07Y-4.175
X6.07Y-4.275
X6.07Y-4.375
X6.07Y-4.475
X6.07Y-4.575
X6.17Y-3.675
X6.17Y-3.775
X6.17Y-3.875
X6.17Y-3.975
X6.17Y-4.075
X6.17Y-4.175
X6.17Y-4.275
X6.17Y-4.375
X6.17Y-4.475
X6.17Y-4.575
X6.27Y-3.675
X6.27Y-3.775
X6.27Y-3.875
X6.27Y-3.975
X6.27Y-4.075
X6.27Y-4.175
X6.27Y-4.275
X6.27Y-4.375
X6.27Y-4.475
X6.27Y-4.575
X6.37Y-3.675
X6.37Y-3.775
X6.37Y-3.875
X6.37Y-3.975
X6.37Y-4.075
X6.37Y-4.175
X6.37Y-4.275
X6.37Y-4.375
X6.37Y-4.475
X6.37Y-4.575
X6.47Y-3.675
X6.47Y-3.775
X6.47Y-3.875
X6.47Y-3.975
X6.47Y-4.075
X6.47Y-4.175
X6.47Y-4.275
X6.47Y-4.375
X6.47Y-4.475
X6.47Y-4.575
X6.57Y-3.675
X6.57Y-3.775
X6.57Y-3.875
X6.57Y-3.975
X6.57Y-4.075
X6.57Y-4.175
X6.57Y-4.275
X6.57Y-4.375
X6.57Y-4.475
X6.57Y-4.575
X6.67Y-3.675
X6.67Y-3.775
X6.67Y-3.875
X6.67Y-3.975
X6.67Y-4.075
X6.67Y-4.175
X6.67Y-4.275
X6.67Y-4.375
X6.67Y-4.475
X6.67Y-4.575
T5
X4.57Y-4.025
X4.57Y-4.1628
X4.57Y-4.3006
T6
X4.92Y-4.875
X4.97Y-2.975
X6.97Y-3.575
X6.97Y-4.675
T0
M30
