%TF.GenerationSoftware,KiCad,Pcbnew,(5.1.9)-1*%
%TF.CreationDate,2021-10-28T18:27:29-05:00*%
%TF.ProjectId,KVLShield,4b564c53-6869-4656-9c64-2e6b69636164,1.0*%
%TF.SameCoordinates,Original*%
%TF.FileFunction,Copper,L1,Top*%
%TF.FilePolarity,Positive*%
%FSLAX46Y46*%
G04 Gerber Fmt 4.6, Leading zero omitted, Abs format (unit mm)*
G04 Created by KiCad (PCBNEW (5.1.9)-1) date 2021-10-28 18:27:29*
%MOMM*%
%LPD*%
G01*
G04 APERTURE LIST*
%TA.AperFunction,SMDPad,CuDef*%
%ADD10R,2.800000X2.800000*%
%TD*%
%TA.AperFunction,SMDPad,CuDef*%
%ADD11R,2.200000X2.800000*%
%TD*%
%TA.AperFunction,SMDPad,CuDef*%
%ADD12R,1.300000X1.550000*%
%TD*%
%TA.AperFunction,SMDPad,CuDef*%
%ADD13R,0.800000X0.900000*%
%TD*%
%TA.AperFunction,ComponentPad*%
%ADD14C,2.100000*%
%TD*%
%TA.AperFunction,SMDPad,CuDef*%
%ADD15R,2.180000X1.600000*%
%TD*%
%TA.AperFunction,SMDPad,CuDef*%
%ADD16R,0.500000X0.500000*%
%TD*%
%TA.AperFunction,ComponentPad*%
%ADD17O,3.600000X1.800000*%
%TD*%
%TA.AperFunction,ComponentPad*%
%ADD18O,1.727200X2.032000*%
%TD*%
%TA.AperFunction,ComponentPad*%
%ADD19C,4.064000*%
%TD*%
%TA.AperFunction,ComponentPad*%
%ADD20R,1.700000X1.700000*%
%TD*%
%TA.AperFunction,ComponentPad*%
%ADD21O,1.700000X1.700000*%
%TD*%
%TA.AperFunction,ViaPad*%
%ADD22C,0.800000*%
%TD*%
%TA.AperFunction,Conductor*%
%ADD23C,0.400000*%
%TD*%
%TA.AperFunction,Conductor*%
%ADD24C,0.250000*%
%TD*%
%TA.AperFunction,Conductor*%
%ADD25C,0.254000*%
%TD*%
%TA.AperFunction,Conductor*%
%ADD26C,0.100000*%
%TD*%
G04 APERTURE END LIST*
D10*
%TO.P,J3,T*%
%TO.N,/KFD_DATA*%
X123148000Y-94505000D03*
D11*
%TO.P,J3,S*%
%TO.N,GND*%
X113748000Y-94505000D03*
%TO.P,J3,R*%
%TO.N,/KFD_SENSE*%
X115748000Y-87105000D03*
%TD*%
D12*
%TO.P,SW1,2*%
%TO.N,/Reset*%
X113828000Y-122720000D03*
%TO.P,SW1,1*%
%TO.N,GND*%
X118328000Y-122720000D03*
X118328000Y-114770000D03*
%TO.P,SW1,2*%
%TO.N,/Reset*%
X113828000Y-114770000D03*
%TD*%
D13*
%TO.P,Q1,3*%
%TO.N,/3(\u002A\u002A)*%
X135498000Y-82865000D03*
%TO.P,Q1,2*%
%TO.N,GND*%
X136448000Y-84865000D03*
%TO.P,Q1,1*%
%TO.N,Net-(Q1-Pad1)*%
X134548000Y-84865000D03*
%TD*%
D14*
%TO.P, ,1*%
%TO.N,N/C*%
X166878000Y-111125000D03*
%TD*%
%TO.P, ,1*%
%TO.N,N/C*%
X166878000Y-98425000D03*
%TD*%
%TO.P, ,1*%
%TO.N,N/C*%
X166878000Y-108585000D03*
%TD*%
%TO.P, ,1*%
%TO.N,N/C*%
X166878000Y-113665000D03*
%TD*%
%TO.P, ,1*%
%TO.N,N/C*%
X166878000Y-116205000D03*
%TD*%
%TO.P, ,1*%
%TO.N,N/C*%
X166878000Y-106045000D03*
%TD*%
%TO.P, ,1*%
%TO.N,N/C*%
X166878000Y-103505000D03*
%TD*%
%TO.P, ,1*%
%TO.N,N/C*%
X166878000Y-100965000D03*
%TD*%
%TO.P, ,1*%
%TO.N,N/C*%
X166878000Y-95885000D03*
%TD*%
%TO.P, ,1*%
%TO.N,N/C*%
X166878000Y-93345000D03*
%TD*%
%TO.P, ,1*%
%TO.N,N/C*%
X164338000Y-111125000D03*
%TD*%
%TO.P, ,1*%
%TO.N,N/C*%
X164338000Y-98425000D03*
%TD*%
%TO.P, ,1*%
%TO.N,N/C*%
X164338000Y-108585000D03*
%TD*%
%TO.P, ,1*%
%TO.N,N/C*%
X164338000Y-113665000D03*
%TD*%
%TO.P, ,1*%
%TO.N,N/C*%
X164338000Y-116205000D03*
%TD*%
%TO.P, ,1*%
%TO.N,N/C*%
X164338000Y-106045000D03*
%TD*%
%TO.P, ,1*%
%TO.N,N/C*%
X164338000Y-103505000D03*
%TD*%
%TO.P, ,1*%
%TO.N,N/C*%
X164338000Y-100965000D03*
%TD*%
%TO.P, ,1*%
%TO.N,N/C*%
X164338000Y-95885000D03*
%TD*%
%TO.P, ,1*%
%TO.N,N/C*%
X164338000Y-93345000D03*
%TD*%
%TO.P, ,1*%
%TO.N,N/C*%
X161798000Y-111125000D03*
%TD*%
%TO.P, ,1*%
%TO.N,N/C*%
X161798000Y-98425000D03*
%TD*%
%TO.P, ,1*%
%TO.N,N/C*%
X161798000Y-108585000D03*
%TD*%
%TO.P, ,1*%
%TO.N,N/C*%
X161798000Y-113665000D03*
%TD*%
%TO.P, ,1*%
%TO.N,N/C*%
X161798000Y-116205000D03*
%TD*%
%TO.P, ,1*%
%TO.N,N/C*%
X161798000Y-106045000D03*
%TD*%
%TO.P, ,1*%
%TO.N,N/C*%
X161798000Y-103505000D03*
%TD*%
%TO.P, ,1*%
%TO.N,N/C*%
X161798000Y-100965000D03*
%TD*%
%TO.P, ,1*%
%TO.N,N/C*%
X161798000Y-95885000D03*
%TD*%
%TO.P, ,1*%
%TO.N,N/C*%
X161798000Y-93345000D03*
%TD*%
%TO.P, ,1*%
%TO.N,N/C*%
X159258000Y-111125000D03*
%TD*%
%TO.P, ,1*%
%TO.N,N/C*%
X159258000Y-98425000D03*
%TD*%
%TO.P, ,1*%
%TO.N,N/C*%
X159258000Y-108585000D03*
%TD*%
%TO.P, ,1*%
%TO.N,N/C*%
X159258000Y-113665000D03*
%TD*%
%TO.P, ,1*%
%TO.N,N/C*%
X159258000Y-116205000D03*
%TD*%
%TO.P, ,1*%
%TO.N,N/C*%
X159258000Y-106045000D03*
%TD*%
%TO.P, ,1*%
%TO.N,N/C*%
X159258000Y-103505000D03*
%TD*%
%TO.P, ,1*%
%TO.N,N/C*%
X159258000Y-100965000D03*
%TD*%
%TO.P, ,1*%
%TO.N,N/C*%
X159258000Y-95885000D03*
%TD*%
%TO.P, ,1*%
%TO.N,N/C*%
X159258000Y-93345000D03*
%TD*%
%TO.P, ,1*%
%TO.N,N/C*%
X156718000Y-111125000D03*
%TD*%
%TO.P, ,1*%
%TO.N,N/C*%
X156718000Y-98425000D03*
%TD*%
%TO.P, ,1*%
%TO.N,N/C*%
X156718000Y-108585000D03*
%TD*%
%TO.P, ,1*%
%TO.N,N/C*%
X156718000Y-113665000D03*
%TD*%
%TO.P, ,1*%
%TO.N,N/C*%
X156718000Y-116205000D03*
%TD*%
%TO.P, ,1*%
%TO.N,N/C*%
X156718000Y-106045000D03*
%TD*%
%TO.P, ,1*%
%TO.N,N/C*%
X156718000Y-103505000D03*
%TD*%
%TO.P, ,1*%
%TO.N,N/C*%
X156718000Y-100965000D03*
%TD*%
%TO.P, ,1*%
%TO.N,N/C*%
X156718000Y-95885000D03*
%TD*%
%TO.P, ,1*%
%TO.N,N/C*%
X156718000Y-93345000D03*
%TD*%
%TO.P, ,1*%
%TO.N,N/C*%
X154178000Y-111125000D03*
%TD*%
%TO.P, ,1*%
%TO.N,N/C*%
X154178000Y-98425000D03*
%TD*%
%TO.P, ,1*%
%TO.N,N/C*%
X154178000Y-108585000D03*
%TD*%
%TO.P, ,1*%
%TO.N,N/C*%
X154178000Y-113665000D03*
%TD*%
%TO.P, ,1*%
%TO.N,N/C*%
X154178000Y-116205000D03*
%TD*%
%TO.P, ,1*%
%TO.N,N/C*%
X154178000Y-106045000D03*
%TD*%
%TO.P, ,1*%
%TO.N,N/C*%
X154178000Y-103505000D03*
%TD*%
%TO.P, ,1*%
%TO.N,N/C*%
X154178000Y-100965000D03*
%TD*%
%TO.P, ,1*%
%TO.N,N/C*%
X154178000Y-95885000D03*
%TD*%
%TO.P, ,1*%
%TO.N,N/C*%
X154178000Y-93345000D03*
%TD*%
%TO.P, ,1*%
%TO.N,N/C*%
X151638000Y-111125000D03*
%TD*%
%TO.P, ,1*%
%TO.N,N/C*%
X151638000Y-98425000D03*
%TD*%
%TO.P, ,1*%
%TO.N,N/C*%
X151638000Y-108585000D03*
%TD*%
%TO.P, ,1*%
%TO.N,N/C*%
X151638000Y-113665000D03*
%TD*%
%TO.P, ,1*%
%TO.N,N/C*%
X151638000Y-116205000D03*
%TD*%
%TO.P, ,1*%
%TO.N,N/C*%
X151638000Y-106045000D03*
%TD*%
%TO.P, ,1*%
%TO.N,N/C*%
X151638000Y-103505000D03*
%TD*%
%TO.P, ,1*%
%TO.N,N/C*%
X151638000Y-100965000D03*
%TD*%
%TO.P, ,1*%
%TO.N,N/C*%
X151638000Y-95885000D03*
%TD*%
%TO.P, ,1*%
%TO.N,N/C*%
X151638000Y-93345000D03*
%TD*%
%TO.P, ,1*%
%TO.N,N/C*%
X149098000Y-116205000D03*
%TD*%
%TO.P, ,1*%
%TO.N,N/C*%
X149098000Y-113665000D03*
%TD*%
%TO.P, ,1*%
%TO.N,N/C*%
X149098000Y-111125000D03*
%TD*%
%TO.P, ,1*%
%TO.N,N/C*%
X149098000Y-108585000D03*
%TD*%
%TO.P, ,1*%
%TO.N,N/C*%
X149098000Y-106045000D03*
%TD*%
%TO.P, ,1*%
%TO.N,N/C*%
X149098000Y-103505000D03*
%TD*%
%TO.P, ,1*%
%TO.N,N/C*%
X149098000Y-100965000D03*
%TD*%
%TO.P, ,1*%
%TO.N,N/C*%
X149098000Y-98425000D03*
%TD*%
%TO.P, ,1*%
%TO.N,N/C*%
X149098000Y-95885000D03*
%TD*%
%TO.P, ,1*%
%TO.N,GND*%
%TA.AperFunction,ComponentPad*%
G36*
G01*
X168368000Y-116730000D02*
X168368000Y-115680000D01*
G75*
G02*
X168893000Y-115155000I525000J0D01*
G01*
X169943000Y-115155000D01*
G75*
G02*
X170468000Y-115680000I0J-525000D01*
G01*
X170468000Y-116730000D01*
G75*
G02*
X169943000Y-117255000I-525000J0D01*
G01*
X168893000Y-117255000D01*
G75*
G02*
X168368000Y-116730000I0J525000D01*
G01*
G37*
%TD.AperFunction*%
%TD*%
%TO.P, ,1*%
%TO.N,GND*%
%TA.AperFunction,ComponentPad*%
G36*
G01*
X168368000Y-114190000D02*
X168368000Y-113140000D01*
G75*
G02*
X168893000Y-112615000I525000J0D01*
G01*
X169943000Y-112615000D01*
G75*
G02*
X170468000Y-113140000I0J-525000D01*
G01*
X170468000Y-114190000D01*
G75*
G02*
X169943000Y-114715000I-525000J0D01*
G01*
X168893000Y-114715000D01*
G75*
G02*
X168368000Y-114190000I0J525000D01*
G01*
G37*
%TD.AperFunction*%
%TD*%
%TO.P, ,1*%
%TO.N,GND*%
%TA.AperFunction,ComponentPad*%
G36*
G01*
X168368000Y-111650000D02*
X168368000Y-110600000D01*
G75*
G02*
X168893000Y-110075000I525000J0D01*
G01*
X169943000Y-110075000D01*
G75*
G02*
X170468000Y-110600000I0J-525000D01*
G01*
X170468000Y-111650000D01*
G75*
G02*
X169943000Y-112175000I-525000J0D01*
G01*
X168893000Y-112175000D01*
G75*
G02*
X168368000Y-111650000I0J525000D01*
G01*
G37*
%TD.AperFunction*%
%TD*%
%TO.P, ,1*%
%TO.N,GND*%
%TA.AperFunction,ComponentPad*%
G36*
G01*
X168368000Y-109110000D02*
X168368000Y-108060000D01*
G75*
G02*
X168893000Y-107535000I525000J0D01*
G01*
X169943000Y-107535000D01*
G75*
G02*
X170468000Y-108060000I0J-525000D01*
G01*
X170468000Y-109110000D01*
G75*
G02*
X169943000Y-109635000I-525000J0D01*
G01*
X168893000Y-109635000D01*
G75*
G02*
X168368000Y-109110000I0J525000D01*
G01*
G37*
%TD.AperFunction*%
%TD*%
%TO.P, ,1*%
%TO.N,GND*%
%TA.AperFunction,ComponentPad*%
G36*
G01*
X168368000Y-106570000D02*
X168368000Y-105520000D01*
G75*
G02*
X168893000Y-104995000I525000J0D01*
G01*
X169943000Y-104995000D01*
G75*
G02*
X170468000Y-105520000I0J-525000D01*
G01*
X170468000Y-106570000D01*
G75*
G02*
X169943000Y-107095000I-525000J0D01*
G01*
X168893000Y-107095000D01*
G75*
G02*
X168368000Y-106570000I0J525000D01*
G01*
G37*
%TD.AperFunction*%
%TD*%
%TO.P, ,1*%
%TO.N,GND*%
%TA.AperFunction,ComponentPad*%
G36*
G01*
X168368000Y-104030000D02*
X168368000Y-102980000D01*
G75*
G02*
X168893000Y-102455000I525000J0D01*
G01*
X169943000Y-102455000D01*
G75*
G02*
X170468000Y-102980000I0J-525000D01*
G01*
X170468000Y-104030000D01*
G75*
G02*
X169943000Y-104555000I-525000J0D01*
G01*
X168893000Y-104555000D01*
G75*
G02*
X168368000Y-104030000I0J525000D01*
G01*
G37*
%TD.AperFunction*%
%TD*%
%TO.P, ,1*%
%TO.N,GND*%
%TA.AperFunction,ComponentPad*%
G36*
G01*
X168368000Y-101490000D02*
X168368000Y-100440000D01*
G75*
G02*
X168893000Y-99915000I525000J0D01*
G01*
X169943000Y-99915000D01*
G75*
G02*
X170468000Y-100440000I0J-525000D01*
G01*
X170468000Y-101490000D01*
G75*
G02*
X169943000Y-102015000I-525000J0D01*
G01*
X168893000Y-102015000D01*
G75*
G02*
X168368000Y-101490000I0J525000D01*
G01*
G37*
%TD.AperFunction*%
%TD*%
%TO.P, ,1*%
%TO.N,GND*%
%TA.AperFunction,ComponentPad*%
G36*
G01*
X168368000Y-98950000D02*
X168368000Y-97900000D01*
G75*
G02*
X168893000Y-97375000I525000J0D01*
G01*
X169943000Y-97375000D01*
G75*
G02*
X170468000Y-97900000I0J-525000D01*
G01*
X170468000Y-98950000D01*
G75*
G02*
X169943000Y-99475000I-525000J0D01*
G01*
X168893000Y-99475000D01*
G75*
G02*
X168368000Y-98950000I0J525000D01*
G01*
G37*
%TD.AperFunction*%
%TD*%
%TO.P, ,1*%
%TO.N,GND*%
%TA.AperFunction,ComponentPad*%
G36*
G01*
X168368000Y-96410000D02*
X168368000Y-95360000D01*
G75*
G02*
X168893000Y-94835000I525000J0D01*
G01*
X169943000Y-94835000D01*
G75*
G02*
X170468000Y-95360000I0J-525000D01*
G01*
X170468000Y-96410000D01*
G75*
G02*
X169943000Y-96935000I-525000J0D01*
G01*
X168893000Y-96935000D01*
G75*
G02*
X168368000Y-96410000I0J525000D01*
G01*
G37*
%TD.AperFunction*%
%TD*%
%TO.P, ,1*%
%TO.N,+5V*%
%TA.AperFunction,ComponentPad*%
G36*
G01*
X145508000Y-116730000D02*
X145508000Y-115680000D01*
G75*
G02*
X146033000Y-115155000I525000J0D01*
G01*
X147083000Y-115155000D01*
G75*
G02*
X147608000Y-115680000I0J-525000D01*
G01*
X147608000Y-116730000D01*
G75*
G02*
X147083000Y-117255000I-525000J0D01*
G01*
X146033000Y-117255000D01*
G75*
G02*
X145508000Y-116730000I0J525000D01*
G01*
G37*
%TD.AperFunction*%
%TD*%
%TO.P, ,1*%
%TO.N,+5V*%
%TA.AperFunction,ComponentPad*%
G36*
G01*
X145508000Y-114190000D02*
X145508000Y-113140000D01*
G75*
G02*
X146033000Y-112615000I525000J0D01*
G01*
X147083000Y-112615000D01*
G75*
G02*
X147608000Y-113140000I0J-525000D01*
G01*
X147608000Y-114190000D01*
G75*
G02*
X147083000Y-114715000I-525000J0D01*
G01*
X146033000Y-114715000D01*
G75*
G02*
X145508000Y-114190000I0J525000D01*
G01*
G37*
%TD.AperFunction*%
%TD*%
%TO.P, ,1*%
%TO.N,+5V*%
%TA.AperFunction,ComponentPad*%
G36*
G01*
X145508000Y-111650000D02*
X145508000Y-110600000D01*
G75*
G02*
X146033000Y-110075000I525000J0D01*
G01*
X147083000Y-110075000D01*
G75*
G02*
X147608000Y-110600000I0J-525000D01*
G01*
X147608000Y-111650000D01*
G75*
G02*
X147083000Y-112175000I-525000J0D01*
G01*
X146033000Y-112175000D01*
G75*
G02*
X145508000Y-111650000I0J525000D01*
G01*
G37*
%TD.AperFunction*%
%TD*%
%TO.P, ,1*%
%TO.N,+5V*%
%TA.AperFunction,ComponentPad*%
G36*
G01*
X145508000Y-109110000D02*
X145508000Y-108060000D01*
G75*
G02*
X146033000Y-107535000I525000J0D01*
G01*
X147083000Y-107535000D01*
G75*
G02*
X147608000Y-108060000I0J-525000D01*
G01*
X147608000Y-109110000D01*
G75*
G02*
X147083000Y-109635000I-525000J0D01*
G01*
X146033000Y-109635000D01*
G75*
G02*
X145508000Y-109110000I0J525000D01*
G01*
G37*
%TD.AperFunction*%
%TD*%
%TO.P, ,1*%
%TO.N,+5V*%
%TA.AperFunction,ComponentPad*%
G36*
G01*
X145508000Y-106570000D02*
X145508000Y-105520000D01*
G75*
G02*
X146033000Y-104995000I525000J0D01*
G01*
X147083000Y-104995000D01*
G75*
G02*
X147608000Y-105520000I0J-525000D01*
G01*
X147608000Y-106570000D01*
G75*
G02*
X147083000Y-107095000I-525000J0D01*
G01*
X146033000Y-107095000D01*
G75*
G02*
X145508000Y-106570000I0J525000D01*
G01*
G37*
%TD.AperFunction*%
%TD*%
%TO.P, ,1*%
%TO.N,+5V*%
%TA.AperFunction,ComponentPad*%
G36*
G01*
X145508000Y-104030000D02*
X145508000Y-102980000D01*
G75*
G02*
X146033000Y-102455000I525000J0D01*
G01*
X147083000Y-102455000D01*
G75*
G02*
X147608000Y-102980000I0J-525000D01*
G01*
X147608000Y-104030000D01*
G75*
G02*
X147083000Y-104555000I-525000J0D01*
G01*
X146033000Y-104555000D01*
G75*
G02*
X145508000Y-104030000I0J525000D01*
G01*
G37*
%TD.AperFunction*%
%TD*%
%TO.P, ,1*%
%TO.N,+5V*%
%TA.AperFunction,ComponentPad*%
G36*
G01*
X145508000Y-101490000D02*
X145508000Y-100440000D01*
G75*
G02*
X146033000Y-99915000I525000J0D01*
G01*
X147083000Y-99915000D01*
G75*
G02*
X147608000Y-100440000I0J-525000D01*
G01*
X147608000Y-101490000D01*
G75*
G02*
X147083000Y-102015000I-525000J0D01*
G01*
X146033000Y-102015000D01*
G75*
G02*
X145508000Y-101490000I0J525000D01*
G01*
G37*
%TD.AperFunction*%
%TD*%
%TO.P, ,1*%
%TO.N,+5V*%
%TA.AperFunction,ComponentPad*%
G36*
G01*
X145508000Y-98950000D02*
X145508000Y-97900000D01*
G75*
G02*
X146033000Y-97375000I525000J0D01*
G01*
X147083000Y-97375000D01*
G75*
G02*
X147608000Y-97900000I0J-525000D01*
G01*
X147608000Y-98950000D01*
G75*
G02*
X147083000Y-99475000I-525000J0D01*
G01*
X146033000Y-99475000D01*
G75*
G02*
X145508000Y-98950000I0J525000D01*
G01*
G37*
%TD.AperFunction*%
%TD*%
%TO.P, ,1*%
%TO.N,+5V*%
%TA.AperFunction,ComponentPad*%
G36*
G01*
X145508000Y-96410000D02*
X145508000Y-95360000D01*
G75*
G02*
X146033000Y-94835000I525000J0D01*
G01*
X147083000Y-94835000D01*
G75*
G02*
X147608000Y-95360000I0J-525000D01*
G01*
X147608000Y-96410000D01*
G75*
G02*
X147083000Y-96935000I-525000J0D01*
G01*
X146033000Y-96935000D01*
G75*
G02*
X145508000Y-96410000I0J525000D01*
G01*
G37*
%TD.AperFunction*%
%TD*%
%TO.P, ,1*%
%TO.N,GND*%
%TA.AperFunction,ComponentPad*%
G36*
G01*
X168368000Y-93870000D02*
X168368000Y-92820000D01*
G75*
G02*
X168893000Y-92295000I525000J0D01*
G01*
X169943000Y-92295000D01*
G75*
G02*
X170468000Y-92820000I0J-525000D01*
G01*
X170468000Y-93870000D01*
G75*
G02*
X169943000Y-94395000I-525000J0D01*
G01*
X168893000Y-94395000D01*
G75*
G02*
X168368000Y-93870000I0J525000D01*
G01*
G37*
%TD.AperFunction*%
%TD*%
%TO.P, ,1*%
%TO.N,N/C*%
X149098000Y-93345000D03*
%TD*%
%TO.P, ,1*%
%TO.N,+5V*%
%TA.AperFunction,ComponentPad*%
G36*
G01*
X145508000Y-93870000D02*
X145508000Y-92820000D01*
G75*
G02*
X146033000Y-92295000I525000J0D01*
G01*
X147083000Y-92295000D01*
G75*
G02*
X147608000Y-92820000I0J-525000D01*
G01*
X147608000Y-93870000D01*
G75*
G02*
X147083000Y-94395000I-525000J0D01*
G01*
X146033000Y-94395000D01*
G75*
G02*
X145508000Y-93870000I0J525000D01*
G01*
G37*
%TD.AperFunction*%
%TD*%
D15*
%TO.P,SW4,2*%
%TO.N,/A2*%
X138088000Y-116365000D03*
%TO.P,SW4,1*%
%TO.N,GND*%
X128908000Y-116365000D03*
%TD*%
%TO.P,SW3,2*%
%TO.N,/A1*%
X138088000Y-108865000D03*
%TO.P,SW3,1*%
%TO.N,GND*%
X128908000Y-108865000D03*
%TD*%
%TO.P,SW2,2*%
%TO.N,/A0*%
X138088000Y-101365000D03*
%TO.P,SW2,1*%
%TO.N,GND*%
X128908000Y-101365000D03*
%TD*%
%TO.P,R12,2*%
%TO.N,/A2*%
%TA.AperFunction,SMDPad,CuDef*%
G36*
G01*
X141973000Y-116790000D02*
X142523000Y-116790000D01*
G75*
G02*
X142723000Y-116990000I0J-200000D01*
G01*
X142723000Y-117390000D01*
G75*
G02*
X142523000Y-117590000I-200000J0D01*
G01*
X141973000Y-117590000D01*
G75*
G02*
X141773000Y-117390000I0J200000D01*
G01*
X141773000Y-116990000D01*
G75*
G02*
X141973000Y-116790000I200000J0D01*
G01*
G37*
%TD.AperFunction*%
%TO.P,R12,1*%
%TO.N,+5V*%
%TA.AperFunction,SMDPad,CuDef*%
G36*
G01*
X141973000Y-115140000D02*
X142523000Y-115140000D01*
G75*
G02*
X142723000Y-115340000I0J-200000D01*
G01*
X142723000Y-115740000D01*
G75*
G02*
X142523000Y-115940000I-200000J0D01*
G01*
X141973000Y-115940000D01*
G75*
G02*
X141773000Y-115740000I0J200000D01*
G01*
X141773000Y-115340000D01*
G75*
G02*
X141973000Y-115140000I200000J0D01*
G01*
G37*
%TD.AperFunction*%
%TD*%
%TO.P,R11,2*%
%TO.N,/A1*%
%TA.AperFunction,SMDPad,CuDef*%
G36*
G01*
X141973000Y-109290000D02*
X142523000Y-109290000D01*
G75*
G02*
X142723000Y-109490000I0J-200000D01*
G01*
X142723000Y-109890000D01*
G75*
G02*
X142523000Y-110090000I-200000J0D01*
G01*
X141973000Y-110090000D01*
G75*
G02*
X141773000Y-109890000I0J200000D01*
G01*
X141773000Y-109490000D01*
G75*
G02*
X141973000Y-109290000I200000J0D01*
G01*
G37*
%TD.AperFunction*%
%TO.P,R11,1*%
%TO.N,+5V*%
%TA.AperFunction,SMDPad,CuDef*%
G36*
G01*
X141973000Y-107640000D02*
X142523000Y-107640000D01*
G75*
G02*
X142723000Y-107840000I0J-200000D01*
G01*
X142723000Y-108240000D01*
G75*
G02*
X142523000Y-108440000I-200000J0D01*
G01*
X141973000Y-108440000D01*
G75*
G02*
X141773000Y-108240000I0J200000D01*
G01*
X141773000Y-107840000D01*
G75*
G02*
X141973000Y-107640000I200000J0D01*
G01*
G37*
%TD.AperFunction*%
%TD*%
%TO.P,R10,2*%
%TO.N,/A0*%
%TA.AperFunction,SMDPad,CuDef*%
G36*
G01*
X141973000Y-101790000D02*
X142523000Y-101790000D01*
G75*
G02*
X142723000Y-101990000I0J-200000D01*
G01*
X142723000Y-102390000D01*
G75*
G02*
X142523000Y-102590000I-200000J0D01*
G01*
X141973000Y-102590000D01*
G75*
G02*
X141773000Y-102390000I0J200000D01*
G01*
X141773000Y-101990000D01*
G75*
G02*
X141973000Y-101790000I200000J0D01*
G01*
G37*
%TD.AperFunction*%
%TO.P,R10,1*%
%TO.N,+5V*%
%TA.AperFunction,SMDPad,CuDef*%
G36*
G01*
X141973000Y-100140000D02*
X142523000Y-100140000D01*
G75*
G02*
X142723000Y-100340000I0J-200000D01*
G01*
X142723000Y-100740000D01*
G75*
G02*
X142523000Y-100940000I-200000J0D01*
G01*
X141973000Y-100940000D01*
G75*
G02*
X141773000Y-100740000I0J200000D01*
G01*
X141773000Y-100340000D01*
G75*
G02*
X141973000Y-100140000I200000J0D01*
G01*
G37*
%TD.AperFunction*%
%TD*%
D16*
%TO.P,D2,2*%
%TO.N,GND*%
X128648000Y-95365000D03*
%TO.P,D2,1*%
%TO.N,/2*%
X130848000Y-95365000D03*
%TD*%
%TO.P,D1,2*%
%TO.N,GND*%
X128648000Y-87615000D03*
%TO.P,D1,1*%
%TO.N,/3(\u002A\u002A)*%
X130848000Y-87615000D03*
%TD*%
D17*
%TO.P,J1,3*%
%TO.N,/KFD_SENSE*%
X116078000Y-109235000D03*
%TO.P,J1,2*%
%TO.N,/KFD_DATA*%
X116078000Y-105735000D03*
%TO.P,J1,1*%
%TO.N,GND*%
%TA.AperFunction,ComponentPad*%
G36*
G01*
X114528000Y-101335000D02*
X117628000Y-101335000D01*
G75*
G02*
X117878000Y-101585000I0J-250000D01*
G01*
X117878000Y-102885000D01*
G75*
G02*
X117628000Y-103135000I-250000J0D01*
G01*
X114528000Y-103135000D01*
G75*
G02*
X114278000Y-102885000I0J250000D01*
G01*
X114278000Y-101585000D01*
G75*
G02*
X114528000Y-101335000I250000J0D01*
G01*
G37*
%TD.AperFunction*%
%TD*%
%TO.P,R9,2*%
%TO.N,Net-(D5-Pad2)*%
%TA.AperFunction,SMDPad,CuDef*%
G36*
G01*
X120823000Y-82870000D02*
X120823000Y-83420000D01*
G75*
G02*
X120623000Y-83620000I-200000J0D01*
G01*
X120223000Y-83620000D01*
G75*
G02*
X120023000Y-83420000I0J200000D01*
G01*
X120023000Y-82870000D01*
G75*
G02*
X120223000Y-82670000I200000J0D01*
G01*
X120623000Y-82670000D01*
G75*
G02*
X120823000Y-82870000I0J-200000D01*
G01*
G37*
%TD.AperFunction*%
%TO.P,R9,1*%
%TO.N,/6(\u002A\u002A)*%
%TA.AperFunction,SMDPad,CuDef*%
G36*
G01*
X122473000Y-82870000D02*
X122473000Y-83420000D01*
G75*
G02*
X122273000Y-83620000I-200000J0D01*
G01*
X121873000Y-83620000D01*
G75*
G02*
X121673000Y-83420000I0J200000D01*
G01*
X121673000Y-82870000D01*
G75*
G02*
X121873000Y-82670000I200000J0D01*
G01*
X122273000Y-82670000D01*
G75*
G02*
X122473000Y-82870000I0J-200000D01*
G01*
G37*
%TD.AperFunction*%
%TD*%
%TO.P,D5,2*%
%TO.N,Net-(D5-Pad2)*%
%TA.AperFunction,SMDPad,CuDef*%
G36*
G01*
X117698000Y-83441250D02*
X117698000Y-82928750D01*
G75*
G02*
X117916750Y-82710000I218750J0D01*
G01*
X118354250Y-82710000D01*
G75*
G02*
X118573000Y-82928750I0J-218750D01*
G01*
X118573000Y-83441250D01*
G75*
G02*
X118354250Y-83660000I-218750J0D01*
G01*
X117916750Y-83660000D01*
G75*
G02*
X117698000Y-83441250I0J218750D01*
G01*
G37*
%TD.AperFunction*%
%TO.P,D5,1*%
%TO.N,GND*%
%TA.AperFunction,SMDPad,CuDef*%
G36*
G01*
X116123000Y-83441250D02*
X116123000Y-82928750D01*
G75*
G02*
X116341750Y-82710000I218750J0D01*
G01*
X116779250Y-82710000D01*
G75*
G02*
X116998000Y-82928750I0J-218750D01*
G01*
X116998000Y-83441250D01*
G75*
G02*
X116779250Y-83660000I-218750J0D01*
G01*
X116341750Y-83660000D01*
G75*
G02*
X116123000Y-83441250I0J218750D01*
G01*
G37*
%TD.AperFunction*%
%TD*%
%TO.P,D4,2*%
%TO.N,Net-(D4-Pad2)*%
%TA.AperFunction,SMDPad,CuDef*%
G36*
G01*
X117698000Y-79631250D02*
X117698000Y-79118750D01*
G75*
G02*
X117916750Y-78900000I218750J0D01*
G01*
X118354250Y-78900000D01*
G75*
G02*
X118573000Y-79118750I0J-218750D01*
G01*
X118573000Y-79631250D01*
G75*
G02*
X118354250Y-79850000I-218750J0D01*
G01*
X117916750Y-79850000D01*
G75*
G02*
X117698000Y-79631250I0J218750D01*
G01*
G37*
%TD.AperFunction*%
%TO.P,D4,1*%
%TO.N,GND*%
%TA.AperFunction,SMDPad,CuDef*%
G36*
G01*
X116123000Y-79631250D02*
X116123000Y-79118750D01*
G75*
G02*
X116341750Y-78900000I218750J0D01*
G01*
X116779250Y-78900000D01*
G75*
G02*
X116998000Y-79118750I0J-218750D01*
G01*
X116998000Y-79631250D01*
G75*
G02*
X116779250Y-79850000I-218750J0D01*
G01*
X116341750Y-79850000D01*
G75*
G02*
X116123000Y-79631250I0J218750D01*
G01*
G37*
%TD.AperFunction*%
%TD*%
%TO.P,D3,2*%
%TO.N,Net-(D3-Pad2)*%
%TA.AperFunction,SMDPad,CuDef*%
G36*
G01*
X117698000Y-75821250D02*
X117698000Y-75308750D01*
G75*
G02*
X117916750Y-75090000I218750J0D01*
G01*
X118354250Y-75090000D01*
G75*
G02*
X118573000Y-75308750I0J-218750D01*
G01*
X118573000Y-75821250D01*
G75*
G02*
X118354250Y-76040000I-218750J0D01*
G01*
X117916750Y-76040000D01*
G75*
G02*
X117698000Y-75821250I0J218750D01*
G01*
G37*
%TD.AperFunction*%
%TO.P,D3,1*%
%TO.N,GND*%
%TA.AperFunction,SMDPad,CuDef*%
G36*
G01*
X116123000Y-75821250D02*
X116123000Y-75308750D01*
G75*
G02*
X116341750Y-75090000I218750J0D01*
G01*
X116779250Y-75090000D01*
G75*
G02*
X116998000Y-75308750I0J-218750D01*
G01*
X116998000Y-75821250D01*
G75*
G02*
X116779250Y-76040000I-218750J0D01*
G01*
X116341750Y-76040000D01*
G75*
G02*
X116123000Y-75821250I0J218750D01*
G01*
G37*
%TD.AperFunction*%
%TD*%
D13*
%TO.P,Q2,3*%
%TO.N,/2*%
X135498000Y-90615000D03*
%TO.P,Q2,2*%
%TO.N,GND*%
X136448000Y-92615000D03*
%TO.P,Q2,1*%
%TO.N,Net-(Q2-Pad1)*%
X134548000Y-92615000D03*
%TD*%
%TO.P,R8,2*%
%TO.N,Net-(D4-Pad2)*%
%TA.AperFunction,SMDPad,CuDef*%
G36*
G01*
X120823000Y-79100000D02*
X120823000Y-79650000D01*
G75*
G02*
X120623000Y-79850000I-200000J0D01*
G01*
X120223000Y-79850000D01*
G75*
G02*
X120023000Y-79650000I0J200000D01*
G01*
X120023000Y-79100000D01*
G75*
G02*
X120223000Y-78900000I200000J0D01*
G01*
X120623000Y-78900000D01*
G75*
G02*
X120823000Y-79100000I0J-200000D01*
G01*
G37*
%TD.AperFunction*%
%TO.P,R8,1*%
%TO.N,/7*%
%TA.AperFunction,SMDPad,CuDef*%
G36*
G01*
X122473000Y-79100000D02*
X122473000Y-79650000D01*
G75*
G02*
X122273000Y-79850000I-200000J0D01*
G01*
X121873000Y-79850000D01*
G75*
G02*
X121673000Y-79650000I0J200000D01*
G01*
X121673000Y-79100000D01*
G75*
G02*
X121873000Y-78900000I200000J0D01*
G01*
X122273000Y-78900000D01*
G75*
G02*
X122473000Y-79100000I0J-200000D01*
G01*
G37*
%TD.AperFunction*%
%TD*%
%TO.P,R7,2*%
%TO.N,Net-(D3-Pad2)*%
%TA.AperFunction,SMDPad,CuDef*%
G36*
G01*
X120823000Y-75290000D02*
X120823000Y-75840000D01*
G75*
G02*
X120623000Y-76040000I-200000J0D01*
G01*
X120223000Y-76040000D01*
G75*
G02*
X120023000Y-75840000I0J200000D01*
G01*
X120023000Y-75290000D01*
G75*
G02*
X120223000Y-75090000I200000J0D01*
G01*
X120623000Y-75090000D01*
G75*
G02*
X120823000Y-75290000I0J-200000D01*
G01*
G37*
%TD.AperFunction*%
%TO.P,R7,1*%
%TO.N,+5V*%
%TA.AperFunction,SMDPad,CuDef*%
G36*
G01*
X122473000Y-75290000D02*
X122473000Y-75840000D01*
G75*
G02*
X122273000Y-76040000I-200000J0D01*
G01*
X121873000Y-76040000D01*
G75*
G02*
X121673000Y-75840000I0J200000D01*
G01*
X121673000Y-75290000D01*
G75*
G02*
X121873000Y-75090000I200000J0D01*
G01*
X122273000Y-75090000D01*
G75*
G02*
X122473000Y-75290000I0J-200000D01*
G01*
G37*
%TD.AperFunction*%
%TD*%
%TO.P,R6,2*%
%TO.N,Net-(Q2-Pad1)*%
%TA.AperFunction,SMDPad,CuDef*%
G36*
G01*
X135073000Y-95090000D02*
X135073000Y-95640000D01*
G75*
G02*
X134873000Y-95840000I-200000J0D01*
G01*
X134473000Y-95840000D01*
G75*
G02*
X134273000Y-95640000I0J200000D01*
G01*
X134273000Y-95090000D01*
G75*
G02*
X134473000Y-94890000I200000J0D01*
G01*
X134873000Y-94890000D01*
G75*
G02*
X135073000Y-95090000I0J-200000D01*
G01*
G37*
%TD.AperFunction*%
%TO.P,R6,1*%
%TO.N,/4*%
%TA.AperFunction,SMDPad,CuDef*%
G36*
G01*
X136723000Y-95090000D02*
X136723000Y-95640000D01*
G75*
G02*
X136523000Y-95840000I-200000J0D01*
G01*
X136123000Y-95840000D01*
G75*
G02*
X135923000Y-95640000I0J200000D01*
G01*
X135923000Y-95090000D01*
G75*
G02*
X136123000Y-94890000I200000J0D01*
G01*
X136523000Y-94890000D01*
G75*
G02*
X136723000Y-95090000I0J-200000D01*
G01*
G37*
%TD.AperFunction*%
%TD*%
%TO.P,R5,2*%
%TO.N,/2*%
%TA.AperFunction,SMDPad,CuDef*%
G36*
G01*
X130173000Y-93140000D02*
X130173000Y-92590000D01*
G75*
G02*
X130373000Y-92390000I200000J0D01*
G01*
X130773000Y-92390000D01*
G75*
G02*
X130973000Y-92590000I0J-200000D01*
G01*
X130973000Y-93140000D01*
G75*
G02*
X130773000Y-93340000I-200000J0D01*
G01*
X130373000Y-93340000D01*
G75*
G02*
X130173000Y-93140000I0J200000D01*
G01*
G37*
%TD.AperFunction*%
%TO.P,R5,1*%
%TO.N,/KFD_SENSE*%
%TA.AperFunction,SMDPad,CuDef*%
G36*
G01*
X128523000Y-93140000D02*
X128523000Y-92590000D01*
G75*
G02*
X128723000Y-92390000I200000J0D01*
G01*
X129123000Y-92390000D01*
G75*
G02*
X129323000Y-92590000I0J-200000D01*
G01*
X129323000Y-93140000D01*
G75*
G02*
X129123000Y-93340000I-200000J0D01*
G01*
X128723000Y-93340000D01*
G75*
G02*
X128523000Y-93140000I0J200000D01*
G01*
G37*
%TD.AperFunction*%
%TD*%
%TO.P,R4,2*%
%TO.N,/2*%
%TA.AperFunction,SMDPad,CuDef*%
G36*
G01*
X130173000Y-90640000D02*
X130173000Y-90090000D01*
G75*
G02*
X130373000Y-89890000I200000J0D01*
G01*
X130773000Y-89890000D01*
G75*
G02*
X130973000Y-90090000I0J-200000D01*
G01*
X130973000Y-90640000D01*
G75*
G02*
X130773000Y-90840000I-200000J0D01*
G01*
X130373000Y-90840000D01*
G75*
G02*
X130173000Y-90640000I0J200000D01*
G01*
G37*
%TD.AperFunction*%
%TO.P,R4,1*%
%TO.N,+5V*%
%TA.AperFunction,SMDPad,CuDef*%
G36*
G01*
X128523000Y-90640000D02*
X128523000Y-90090000D01*
G75*
G02*
X128723000Y-89890000I200000J0D01*
G01*
X129123000Y-89890000D01*
G75*
G02*
X129323000Y-90090000I0J-200000D01*
G01*
X129323000Y-90640000D01*
G75*
G02*
X129123000Y-90840000I-200000J0D01*
G01*
X128723000Y-90840000D01*
G75*
G02*
X128523000Y-90640000I0J200000D01*
G01*
G37*
%TD.AperFunction*%
%TD*%
%TO.P,R3,2*%
%TO.N,Net-(Q1-Pad1)*%
%TA.AperFunction,SMDPad,CuDef*%
G36*
G01*
X135073000Y-87340000D02*
X135073000Y-87890000D01*
G75*
G02*
X134873000Y-88090000I-200000J0D01*
G01*
X134473000Y-88090000D01*
G75*
G02*
X134273000Y-87890000I0J200000D01*
G01*
X134273000Y-87340000D01*
G75*
G02*
X134473000Y-87140000I200000J0D01*
G01*
X134873000Y-87140000D01*
G75*
G02*
X135073000Y-87340000I0J-200000D01*
G01*
G37*
%TD.AperFunction*%
%TO.P,R3,1*%
%TO.N,/5(\u002A\u002A)*%
%TA.AperFunction,SMDPad,CuDef*%
G36*
G01*
X136723000Y-87340000D02*
X136723000Y-87890000D01*
G75*
G02*
X136523000Y-88090000I-200000J0D01*
G01*
X136123000Y-88090000D01*
G75*
G02*
X135923000Y-87890000I0J200000D01*
G01*
X135923000Y-87340000D01*
G75*
G02*
X136123000Y-87140000I200000J0D01*
G01*
X136523000Y-87140000D01*
G75*
G02*
X136723000Y-87340000I0J-200000D01*
G01*
G37*
%TD.AperFunction*%
%TD*%
%TO.P,R2,2*%
%TO.N,/3(\u002A\u002A)*%
%TA.AperFunction,SMDPad,CuDef*%
G36*
G01*
X130173000Y-85390000D02*
X130173000Y-84840000D01*
G75*
G02*
X130373000Y-84640000I200000J0D01*
G01*
X130773000Y-84640000D01*
G75*
G02*
X130973000Y-84840000I0J-200000D01*
G01*
X130973000Y-85390000D01*
G75*
G02*
X130773000Y-85590000I-200000J0D01*
G01*
X130373000Y-85590000D01*
G75*
G02*
X130173000Y-85390000I0J200000D01*
G01*
G37*
%TD.AperFunction*%
%TO.P,R2,1*%
%TO.N,/KFD_DATA*%
%TA.AperFunction,SMDPad,CuDef*%
G36*
G01*
X128523000Y-85390000D02*
X128523000Y-84840000D01*
G75*
G02*
X128723000Y-84640000I200000J0D01*
G01*
X129123000Y-84640000D01*
G75*
G02*
X129323000Y-84840000I0J-200000D01*
G01*
X129323000Y-85390000D01*
G75*
G02*
X129123000Y-85590000I-200000J0D01*
G01*
X128723000Y-85590000D01*
G75*
G02*
X128523000Y-85390000I0J200000D01*
G01*
G37*
%TD.AperFunction*%
%TD*%
%TO.P,R1,2*%
%TO.N,/3(\u002A\u002A)*%
%TA.AperFunction,SMDPad,CuDef*%
G36*
G01*
X130173000Y-82890000D02*
X130173000Y-82340000D01*
G75*
G02*
X130373000Y-82140000I200000J0D01*
G01*
X130773000Y-82140000D01*
G75*
G02*
X130973000Y-82340000I0J-200000D01*
G01*
X130973000Y-82890000D01*
G75*
G02*
X130773000Y-83090000I-200000J0D01*
G01*
X130373000Y-83090000D01*
G75*
G02*
X130173000Y-82890000I0J200000D01*
G01*
G37*
%TD.AperFunction*%
%TO.P,R1,1*%
%TO.N,+5V*%
%TA.AperFunction,SMDPad,CuDef*%
G36*
G01*
X128523000Y-82890000D02*
X128523000Y-82340000D01*
G75*
G02*
X128723000Y-82140000I200000J0D01*
G01*
X129123000Y-82140000D01*
G75*
G02*
X129323000Y-82340000I0J-200000D01*
G01*
X129323000Y-82890000D01*
G75*
G02*
X129123000Y-83090000I-200000J0D01*
G01*
X128723000Y-83090000D01*
G75*
G02*
X128523000Y-82890000I0J200000D01*
G01*
G37*
%TD.AperFunction*%
%TD*%
D18*
%TO.P,P1,8*%
%TO.N,/Vin*%
X156718000Y-123825000D03*
%TO.P,P1,7*%
%TO.N,GND*%
X154178000Y-123825000D03*
%TO.P,P1,6*%
X151638000Y-123825000D03*
%TO.P,P1,5*%
%TO.N,+5V*%
X149098000Y-123825000D03*
%TO.P,P1,4*%
%TO.N,+3V3*%
X146558000Y-123825000D03*
%TO.P,P1,3*%
%TO.N,/Reset*%
X144018000Y-123825000D03*
%TO.P,P1,2*%
%TO.N,/IOREF*%
X141478000Y-123825000D03*
%TO.P,P1,1*%
%TO.N,Net-(P1-Pad1)*%
X138938000Y-123825000D03*
%TD*%
%TO.P,P2,6*%
%TO.N,/A5(SCL)*%
X174498000Y-123825000D03*
%TO.P,P2,5*%
%TO.N,/A4(SDA)*%
X171958000Y-123825000D03*
%TO.P,P2,4*%
%TO.N,/A3*%
X169418000Y-123825000D03*
%TO.P,P2,3*%
%TO.N,/A2*%
X166878000Y-123825000D03*
%TO.P,P2,2*%
%TO.N,/A1*%
X164338000Y-123825000D03*
%TO.P,P2,1*%
%TO.N,/A0*%
X161798000Y-123825000D03*
%TD*%
%TO.P,P3,10*%
%TO.N,/8*%
X152654000Y-75565000D03*
%TO.P,P3,9*%
%TO.N,/9(\u002A\u002A)*%
X150114000Y-75565000D03*
%TO.P,P3,8*%
%TO.N,/10(\u002A\u002A/SS)*%
X147574000Y-75565000D03*
%TO.P,P3,7*%
%TO.N,/11(\u002A\u002A/MOSI)*%
X145034000Y-75565000D03*
%TO.P,P3,6*%
%TO.N,/12(MISO)*%
X142494000Y-75565000D03*
%TO.P,P3,5*%
%TO.N,/13(SCK)*%
X139954000Y-75565000D03*
%TO.P,P3,4*%
%TO.N,GND*%
X137414000Y-75565000D03*
%TO.P,P3,3*%
%TO.N,/AREF*%
X134874000Y-75565000D03*
%TO.P,P3,2*%
%TO.N,Net-(P3-Pad2)*%
X132334000Y-75565000D03*
%TO.P,P3,1*%
%TO.N,Net-(P3-Pad1)*%
X129794000Y-75565000D03*
%TD*%
%TO.P,P4,8*%
%TO.N,/0(Rx)*%
X174498000Y-75565000D03*
%TO.P,P4,7*%
%TO.N,/1(Tx)*%
X171958000Y-75565000D03*
%TO.P,P4,6*%
%TO.N,/2*%
X169418000Y-75565000D03*
%TO.P,P4,5*%
%TO.N,/3(\u002A\u002A)*%
X166878000Y-75565000D03*
%TO.P,P4,4*%
%TO.N,/4*%
X164338000Y-75565000D03*
%TO.P,P4,3*%
%TO.N,/5(\u002A\u002A)*%
X161798000Y-75565000D03*
%TO.P,P4,2*%
%TO.N,/6(\u002A\u002A)*%
X159258000Y-75565000D03*
%TO.P,P4,1*%
%TO.N,/7*%
X156718000Y-75565000D03*
%TD*%
D19*
%TO.P,P5,1*%
%TO.N,Net-(P5-Pad1)*%
X124968000Y-123825000D03*
%TD*%
%TO.P,P6,1*%
%TO.N,Net-(P6-Pad1)*%
X177038000Y-118745000D03*
%TD*%
%TO.P,P7,1*%
%TO.N,Net-(P7-Pad1)*%
X126238000Y-75565000D03*
%TD*%
%TO.P,P8,1*%
%TO.N,Net-(P8-Pad1)*%
X177038000Y-90805000D03*
%TD*%
D20*
%TO.P,J2,1*%
%TO.N,+5V*%
X154178000Y-90805000D03*
D21*
%TO.P,J2,2*%
%TO.N,GND*%
X156718000Y-90805000D03*
%TO.P,J2,3*%
%TO.N,/A5(SCL)*%
X159258000Y-90805000D03*
%TO.P,J2,4*%
%TO.N,/A4(SDA)*%
X161798000Y-90805000D03*
%TD*%
D22*
%TO.N,GND*%
X126998000Y-88365000D03*
X126998000Y-90365000D03*
X126998000Y-92365000D03*
X137998000Y-82365000D03*
X137998000Y-85365000D03*
X137998000Y-89865000D03*
X137998000Y-93365000D03*
%TD*%
D23*
%TO.N,/Reset*%
X113828000Y-114770000D02*
X113828000Y-122720000D01*
X144018000Y-123825000D02*
X144018000Y-121885000D01*
X144018000Y-121885000D02*
X142998000Y-120865000D01*
X115683000Y-120865000D02*
X113828000Y-122720000D01*
X142998000Y-120865000D02*
X115683000Y-120865000D01*
%TO.N,+5V*%
X145893000Y-115540000D02*
X146558000Y-116205000D01*
X142248000Y-115540000D02*
X145893000Y-115540000D01*
X146013000Y-108040000D02*
X146558000Y-108585000D01*
X142248000Y-108040000D02*
X146013000Y-108040000D01*
X122073000Y-75565000D02*
X122073000Y-76540000D01*
X121223010Y-77389990D02*
X121223010Y-84590010D01*
X122073000Y-76540000D02*
X121223010Y-77389990D01*
X121223010Y-84590010D02*
X121748000Y-85115000D01*
X121748000Y-85115000D02*
X125998000Y-85115000D01*
X128498000Y-82615000D02*
X128923000Y-82615000D01*
X125998000Y-85115000D02*
X128498000Y-82615000D01*
X142673000Y-100965000D02*
X142248000Y-100540000D01*
X146558000Y-100965000D02*
X142673000Y-100965000D01*
X142248000Y-100540000D02*
X142248000Y-99865000D01*
X142248000Y-99865000D02*
X141498000Y-99115000D01*
X141498000Y-99115000D02*
X131248000Y-99115000D01*
X129723010Y-91165010D02*
X128923000Y-90365000D01*
X129723010Y-97590010D02*
X129723010Y-91165010D01*
X131248000Y-99115000D02*
X129723010Y-97590010D01*
X129723010Y-83415010D02*
X128923000Y-82615000D01*
X129723010Y-89564990D02*
X129723010Y-83415010D01*
X128923000Y-90365000D02*
X129723010Y-89564990D01*
%TO.N,/A0*%
X138913000Y-102190000D02*
X138088000Y-101365000D01*
X142248000Y-102190000D02*
X138913000Y-102190000D01*
X138088000Y-101365000D02*
X136998000Y-101365000D01*
X136998000Y-101365000D02*
X135248000Y-103115000D01*
X135248000Y-103115000D02*
X135248000Y-118865000D01*
X135248000Y-118865000D02*
X136498000Y-120115000D01*
X136498000Y-120115000D02*
X160498000Y-120115000D01*
X161798000Y-121415000D02*
X161798000Y-123825000D01*
X160498000Y-120115000D02*
X161798000Y-121415000D01*
%TO.N,/A1*%
X138913000Y-109690000D02*
X138088000Y-108865000D01*
X142248000Y-109690000D02*
X138913000Y-109690000D01*
X142248000Y-109690000D02*
X142248000Y-110115000D01*
X138088000Y-108865000D02*
X136998000Y-108865000D01*
X136998000Y-108865000D02*
X135998000Y-109865000D01*
X135998000Y-109865000D02*
X135998000Y-118615000D01*
X135998000Y-118615000D02*
X136848010Y-119465010D01*
X136848010Y-119465010D02*
X163598010Y-119465010D01*
X164338000Y-120205000D02*
X164338000Y-123825000D01*
X163598010Y-119465010D02*
X164338000Y-120205000D01*
%TO.N,/A2*%
X138913000Y-117190000D02*
X138088000Y-116365000D01*
X142248000Y-117190000D02*
X138913000Y-117190000D01*
X142248000Y-117190000D02*
X142248000Y-117615000D01*
X142248000Y-117615000D02*
X143498000Y-118865000D01*
X143498000Y-118865000D02*
X165498000Y-118865000D01*
X166878000Y-120245000D02*
X166878000Y-123825000D01*
X165498000Y-118865000D02*
X166878000Y-120245000D01*
%TO.N,/A4(SDA)*%
X161798000Y-90805000D02*
X171938000Y-90805000D01*
X171938000Y-90805000D02*
X173248000Y-92115000D01*
X173248000Y-122535000D02*
X171958000Y-123825000D01*
X173248000Y-92115000D02*
X173248000Y-122535000D01*
%TO.N,/A5(SCL)*%
X174498000Y-122409000D02*
X173998000Y-121909000D01*
X174498000Y-123825000D02*
X174498000Y-122409000D01*
X173998000Y-121909000D02*
X173998000Y-91865000D01*
X173998000Y-91865000D02*
X172248000Y-90115000D01*
X172248000Y-90115000D02*
X163498000Y-90115000D01*
X162937999Y-89554999D02*
X160308001Y-89554999D01*
X163498000Y-90115000D02*
X162937999Y-89554999D01*
X159258000Y-90605000D02*
X159258000Y-90805000D01*
X160308001Y-89554999D02*
X159258000Y-90605000D01*
%TO.N,/7*%
X156718000Y-75565000D02*
X156718000Y-76645000D01*
X153988000Y-79375000D02*
X121983000Y-79375000D01*
X156718000Y-76645000D02*
X153988000Y-79375000D01*
%TO.N,/6(\u002A\u002A)*%
X121983000Y-83145000D02*
X121983000Y-82380000D01*
X121983000Y-82380000D02*
X124248000Y-80115000D01*
X124248000Y-80115000D02*
X156248000Y-80115000D01*
X159258000Y-77105000D02*
X159258000Y-75565000D01*
X156248000Y-80115000D02*
X159258000Y-77105000D01*
%TO.N,/5(\u002A\u002A)*%
X136323000Y-87615000D02*
X141498000Y-87615000D01*
X141498000Y-87615000D02*
X144748000Y-84365000D01*
X144748000Y-84365000D02*
X159998000Y-84365000D01*
X161798000Y-82565000D02*
X161798000Y-75565000D01*
X159998000Y-84365000D02*
X161798000Y-82565000D01*
%TO.N,/4*%
X136323000Y-95365000D02*
X141498000Y-95365000D01*
X141498000Y-95365000D02*
X142248000Y-94615000D01*
X142248000Y-94615000D02*
X142248000Y-89865000D01*
X142248000Y-89865000D02*
X145998000Y-86115000D01*
X145998000Y-86115000D02*
X162998000Y-86115000D01*
X164338000Y-84775000D02*
X164338000Y-75565000D01*
X162998000Y-86115000D02*
X164338000Y-84775000D01*
%TO.N,/3(\u002A\u002A)*%
X130823000Y-82865000D02*
X130573000Y-82615000D01*
X135498000Y-82865000D02*
X130823000Y-82865000D01*
X130573000Y-82615000D02*
X130573000Y-85115000D01*
X130848000Y-85390000D02*
X130573000Y-85115000D01*
X130848000Y-87615000D02*
X130848000Y-85390000D01*
X135498000Y-82865000D02*
X135498000Y-88365000D01*
X135522990Y-92090010D02*
X135522990Y-96139990D01*
X136298001Y-91314999D02*
X135522990Y-92090010D01*
X136298001Y-89165001D02*
X136298001Y-91314999D01*
X135498000Y-88365000D02*
X136298001Y-89165001D01*
X135522990Y-96139990D02*
X135748000Y-96365000D01*
X135748000Y-96365000D02*
X141998000Y-96365000D01*
X141998000Y-96365000D02*
X143248000Y-95115000D01*
X143248000Y-95115000D02*
X143248000Y-90115000D01*
X143248000Y-90115000D02*
X146498000Y-86865000D01*
X146498000Y-86865000D02*
X164498000Y-86865000D01*
X166878000Y-84485000D02*
X166878000Y-75565000D01*
X164498000Y-86865000D02*
X166878000Y-84485000D01*
%TO.N,/2*%
X130823000Y-90615000D02*
X130573000Y-90365000D01*
X135498000Y-90615000D02*
X130823000Y-90615000D01*
X130573000Y-92865000D02*
X130573000Y-90365000D01*
X130848000Y-93140000D02*
X130573000Y-92865000D01*
X130848000Y-95365000D02*
X130848000Y-93140000D01*
X135498000Y-90615000D02*
X134498000Y-90615000D01*
X134498000Y-90615000D02*
X133248000Y-91865000D01*
X133248000Y-91865000D02*
X133248000Y-96615000D01*
X133248000Y-96615000D02*
X134248000Y-97615000D01*
X134248000Y-97615000D02*
X142498000Y-97615000D01*
X142498000Y-97615000D02*
X143998000Y-96115000D01*
X143998000Y-96115000D02*
X143998000Y-90865000D01*
X143998000Y-90865000D02*
X146998000Y-87865000D01*
X146998000Y-87865000D02*
X166748000Y-87865000D01*
X169418000Y-85195000D02*
X169418000Y-75565000D01*
X166748000Y-87865000D02*
X169418000Y-85195000D01*
%TO.N,Net-(Q1-Pad1)*%
X134548000Y-87490000D02*
X134673000Y-87615000D01*
X134548000Y-84865000D02*
X134548000Y-87490000D01*
%TO.N,Net-(Q2-Pad1)*%
X134548000Y-95240000D02*
X134673000Y-95365000D01*
X134548000Y-92615000D02*
X134548000Y-95240000D01*
%TO.N,/KFD_DATA*%
X116078000Y-105735000D02*
X120378000Y-105735000D01*
X123148000Y-102965000D02*
X123148000Y-94505000D01*
X120378000Y-105735000D02*
X123148000Y-102965000D01*
X128923000Y-85115000D02*
X127998000Y-85115000D01*
X127998000Y-85115000D02*
X125748000Y-87365000D01*
X125748000Y-91905000D02*
X123148000Y-94505000D01*
X125748000Y-87365000D02*
X125748000Y-91905000D01*
D24*
%TO.N,/KFD_SENSE*%
X115748000Y-87105000D02*
X116023001Y-87380001D01*
D23*
X116078000Y-109235000D02*
X121378000Y-109235000D01*
X121378000Y-109235000D02*
X125998000Y-104615000D01*
X125998000Y-95790000D02*
X128923000Y-92865000D01*
X125998000Y-104615000D02*
X125998000Y-95790000D01*
X116078000Y-109235000D02*
X114118000Y-109235000D01*
X114118000Y-109235000D02*
X113248000Y-108365000D01*
X113248000Y-108365000D02*
X113248000Y-100865000D01*
X113248000Y-100865000D02*
X117248000Y-96865000D01*
X117248000Y-88605000D02*
X115748000Y-87105000D01*
X117248000Y-96865000D02*
X117248000Y-88605000D01*
%TO.N,Net-(D3-Pad2)*%
X120333000Y-75565000D02*
X118135500Y-75565000D01*
%TO.N,Net-(D4-Pad2)*%
X120333000Y-79375000D02*
X118135500Y-79375000D01*
D24*
%TO.N,Net-(D5-Pad2)*%
X120493000Y-83185000D02*
X120533000Y-83145000D01*
D23*
X118175500Y-83145000D02*
X118135500Y-83185000D01*
X120333000Y-83145000D02*
X118175500Y-83145000D01*
%TD*%
D25*
%TO.N,GND*%
X124166406Y-73864887D02*
X123874536Y-74301702D01*
X123673492Y-74787065D01*
X123571000Y-75302323D01*
X123571000Y-75827677D01*
X123673492Y-76342935D01*
X123874536Y-76828298D01*
X124166406Y-77265113D01*
X124537887Y-77636594D01*
X124974702Y-77928464D01*
X125460065Y-78129508D01*
X125975323Y-78232000D01*
X126500677Y-78232000D01*
X127015935Y-78129508D01*
X127501298Y-77928464D01*
X127938113Y-77636594D01*
X128309594Y-77265113D01*
X128601464Y-76828298D01*
X128657001Y-76694219D01*
X128729203Y-76782197D01*
X128957395Y-76969469D01*
X129217737Y-77108625D01*
X129500224Y-77194316D01*
X129794000Y-77223251D01*
X130087777Y-77194316D01*
X130370264Y-77108625D01*
X130630606Y-76969469D01*
X130858797Y-76782197D01*
X131046069Y-76554006D01*
X131064000Y-76520459D01*
X131081931Y-76554006D01*
X131269203Y-76782197D01*
X131497395Y-76969469D01*
X131757737Y-77108625D01*
X132040224Y-77194316D01*
X132334000Y-77223251D01*
X132627777Y-77194316D01*
X132910264Y-77108625D01*
X133170606Y-76969469D01*
X133398797Y-76782197D01*
X133586069Y-76554006D01*
X133604000Y-76520459D01*
X133621931Y-76554006D01*
X133809203Y-76782197D01*
X134037395Y-76969469D01*
X134297737Y-77108625D01*
X134580224Y-77194316D01*
X134874000Y-77223251D01*
X135167777Y-77194316D01*
X135450264Y-77108625D01*
X135710606Y-76969469D01*
X135938797Y-76782197D01*
X136126069Y-76554006D01*
X136147424Y-76514053D01*
X136295514Y-76716729D01*
X136511965Y-76915733D01*
X136763081Y-77068686D01*
X137039211Y-77169709D01*
X137054974Y-77172358D01*
X137287000Y-77051217D01*
X137287000Y-75692000D01*
X137267000Y-75692000D01*
X137267000Y-75438000D01*
X137287000Y-75438000D01*
X137287000Y-74078783D01*
X137541000Y-74078783D01*
X137541000Y-75438000D01*
X137561000Y-75438000D01*
X137561000Y-75692000D01*
X137541000Y-75692000D01*
X137541000Y-77051217D01*
X137773026Y-77172358D01*
X137788789Y-77169709D01*
X138064919Y-77068686D01*
X138316035Y-76915733D01*
X138532486Y-76716729D01*
X138680576Y-76514053D01*
X138701931Y-76554006D01*
X138889203Y-76782197D01*
X139117395Y-76969469D01*
X139377737Y-77108625D01*
X139660224Y-77194316D01*
X139954000Y-77223251D01*
X140247777Y-77194316D01*
X140530264Y-77108625D01*
X140790606Y-76969469D01*
X141018797Y-76782197D01*
X141206069Y-76554006D01*
X141224000Y-76520459D01*
X141241931Y-76554006D01*
X141429203Y-76782197D01*
X141657395Y-76969469D01*
X141917737Y-77108625D01*
X142200224Y-77194316D01*
X142494000Y-77223251D01*
X142787777Y-77194316D01*
X143070264Y-77108625D01*
X143330606Y-76969469D01*
X143558797Y-76782197D01*
X143746069Y-76554006D01*
X143764000Y-76520459D01*
X143781931Y-76554006D01*
X143969203Y-76782197D01*
X144197395Y-76969469D01*
X144457737Y-77108625D01*
X144740224Y-77194316D01*
X145034000Y-77223251D01*
X145327777Y-77194316D01*
X145610264Y-77108625D01*
X145870606Y-76969469D01*
X146098797Y-76782197D01*
X146286069Y-76554006D01*
X146304000Y-76520459D01*
X146321931Y-76554006D01*
X146509203Y-76782197D01*
X146737395Y-76969469D01*
X146997737Y-77108625D01*
X147280224Y-77194316D01*
X147574000Y-77223251D01*
X147867777Y-77194316D01*
X148150264Y-77108625D01*
X148410606Y-76969469D01*
X148638797Y-76782197D01*
X148826069Y-76554006D01*
X148844000Y-76520459D01*
X148861931Y-76554006D01*
X149049203Y-76782197D01*
X149277395Y-76969469D01*
X149537737Y-77108625D01*
X149820224Y-77194316D01*
X150114000Y-77223251D01*
X150407777Y-77194316D01*
X150690264Y-77108625D01*
X150950606Y-76969469D01*
X151178797Y-76782197D01*
X151366069Y-76554006D01*
X151384000Y-76520459D01*
X151401931Y-76554006D01*
X151589203Y-76782197D01*
X151817395Y-76969469D01*
X152077737Y-77108625D01*
X152360224Y-77194316D01*
X152654000Y-77223251D01*
X152947777Y-77194316D01*
X153230264Y-77108625D01*
X153490606Y-76969469D01*
X153718797Y-76782197D01*
X153906069Y-76554006D01*
X154045225Y-76293663D01*
X154130916Y-76011176D01*
X154152600Y-75791018D01*
X154152600Y-75338981D01*
X154130916Y-75118823D01*
X154045225Y-74836336D01*
X153906069Y-74575994D01*
X153718797Y-74347803D01*
X153490605Y-74160531D01*
X153230263Y-74021375D01*
X152947776Y-73935684D01*
X152654000Y-73906749D01*
X152360223Y-73935684D01*
X152077736Y-74021375D01*
X151817394Y-74160531D01*
X151589203Y-74347803D01*
X151401931Y-74575995D01*
X151384000Y-74609541D01*
X151366069Y-74575994D01*
X151178797Y-74347803D01*
X150950605Y-74160531D01*
X150690263Y-74021375D01*
X150407776Y-73935684D01*
X150114000Y-73906749D01*
X149820223Y-73935684D01*
X149537736Y-74021375D01*
X149277394Y-74160531D01*
X149049203Y-74347803D01*
X148861931Y-74575995D01*
X148844000Y-74609541D01*
X148826069Y-74575994D01*
X148638797Y-74347803D01*
X148410605Y-74160531D01*
X148150263Y-74021375D01*
X147867776Y-73935684D01*
X147574000Y-73906749D01*
X147280223Y-73935684D01*
X146997736Y-74021375D01*
X146737394Y-74160531D01*
X146509203Y-74347803D01*
X146321931Y-74575995D01*
X146304000Y-74609541D01*
X146286069Y-74575994D01*
X146098797Y-74347803D01*
X145870605Y-74160531D01*
X145610263Y-74021375D01*
X145327776Y-73935684D01*
X145034000Y-73906749D01*
X144740223Y-73935684D01*
X144457736Y-74021375D01*
X144197394Y-74160531D01*
X143969203Y-74347803D01*
X143781931Y-74575995D01*
X143764000Y-74609541D01*
X143746069Y-74575994D01*
X143558797Y-74347803D01*
X143330605Y-74160531D01*
X143070263Y-74021375D01*
X142787776Y-73935684D01*
X142494000Y-73906749D01*
X142200223Y-73935684D01*
X141917736Y-74021375D01*
X141657394Y-74160531D01*
X141429203Y-74347803D01*
X141241931Y-74575995D01*
X141224000Y-74609541D01*
X141206069Y-74575994D01*
X141018797Y-74347803D01*
X140790605Y-74160531D01*
X140530263Y-74021375D01*
X140247776Y-73935684D01*
X139954000Y-73906749D01*
X139660223Y-73935684D01*
X139377736Y-74021375D01*
X139117394Y-74160531D01*
X138889203Y-74347803D01*
X138701931Y-74575995D01*
X138680576Y-74615947D01*
X138532486Y-74413271D01*
X138316035Y-74214267D01*
X138064919Y-74061314D01*
X137788789Y-73960291D01*
X137773026Y-73957642D01*
X137541000Y-74078783D01*
X137287000Y-74078783D01*
X137054974Y-73957642D01*
X137039211Y-73960291D01*
X136763081Y-74061314D01*
X136511965Y-74214267D01*
X136295514Y-74413271D01*
X136147424Y-74615947D01*
X136126069Y-74575994D01*
X135938797Y-74347803D01*
X135710605Y-74160531D01*
X135450263Y-74021375D01*
X135167776Y-73935684D01*
X134874000Y-73906749D01*
X134580223Y-73935684D01*
X134297736Y-74021375D01*
X134037394Y-74160531D01*
X133809203Y-74347803D01*
X133621931Y-74575995D01*
X133604000Y-74609541D01*
X133586069Y-74575994D01*
X133398797Y-74347803D01*
X133170605Y-74160531D01*
X132910263Y-74021375D01*
X132627776Y-73935684D01*
X132334000Y-73906749D01*
X132040223Y-73935684D01*
X131757736Y-74021375D01*
X131497394Y-74160531D01*
X131269203Y-74347803D01*
X131081931Y-74575995D01*
X131064000Y-74609541D01*
X131046069Y-74575994D01*
X130858797Y-74347803D01*
X130630605Y-74160531D01*
X130370263Y-74021375D01*
X130087776Y-73935684D01*
X129794000Y-73906749D01*
X129500223Y-73935684D01*
X129217736Y-74021375D01*
X128957394Y-74160531D01*
X128729203Y-74347803D01*
X128657001Y-74435781D01*
X128601464Y-74301702D01*
X128309594Y-73864887D01*
X128179707Y-73735000D01*
X175219909Y-73735000D01*
X176328001Y-74843093D01*
X176328000Y-85944125D01*
X176324565Y-85979000D01*
X176328000Y-86013875D01*
X176328000Y-86013876D01*
X176338273Y-86118183D01*
X176378872Y-86252019D01*
X176444800Y-86375362D01*
X176533525Y-86483474D01*
X176560617Y-86505708D01*
X178868001Y-88813093D01*
X178868001Y-88863294D01*
X178738113Y-88733406D01*
X178301298Y-88441536D01*
X177815935Y-88240492D01*
X177300677Y-88138000D01*
X176775323Y-88138000D01*
X176260065Y-88240492D01*
X175774702Y-88441536D01*
X175337887Y-88733406D01*
X174966406Y-89104887D01*
X174674536Y-89541702D01*
X174473492Y-90027065D01*
X174371000Y-90542323D01*
X174371000Y-91057131D01*
X172867446Y-89553579D01*
X172841291Y-89521709D01*
X172714146Y-89417364D01*
X172569087Y-89339828D01*
X172411689Y-89292082D01*
X172289019Y-89280000D01*
X172289018Y-89280000D01*
X172248000Y-89275960D01*
X172206982Y-89280000D01*
X163843867Y-89280000D01*
X163557445Y-88993578D01*
X163531290Y-88961708D01*
X163404145Y-88857363D01*
X163259086Y-88779827D01*
X163101688Y-88732081D01*
X162979018Y-88719999D01*
X162979017Y-88719999D01*
X162937999Y-88715959D01*
X162896981Y-88719999D01*
X160349019Y-88719999D01*
X160308001Y-88715959D01*
X160266983Y-88719999D01*
X160266982Y-88719999D01*
X160144312Y-88732081D01*
X160023638Y-88768687D01*
X159986914Y-88779827D01*
X159841855Y-88857363D01*
X159757698Y-88926429D01*
X159714710Y-88961708D01*
X159688564Y-88993567D01*
X159362132Y-89320000D01*
X159111740Y-89320000D01*
X158824842Y-89377068D01*
X158554589Y-89489010D01*
X158311368Y-89651525D01*
X158104525Y-89858368D01*
X157982805Y-90040534D01*
X157913178Y-89923645D01*
X157718269Y-89707412D01*
X157484920Y-89533359D01*
X157222099Y-89408175D01*
X157074890Y-89363524D01*
X156845000Y-89484845D01*
X156845000Y-90678000D01*
X156865000Y-90678000D01*
X156865000Y-90932000D01*
X156845000Y-90932000D01*
X156845000Y-90952000D01*
X156591000Y-90952000D01*
X156591000Y-90932000D01*
X156571000Y-90932000D01*
X156571000Y-90678000D01*
X156591000Y-90678000D01*
X156591000Y-89484845D01*
X156361110Y-89363524D01*
X156213901Y-89408175D01*
X155951080Y-89533359D01*
X155717731Y-89707412D01*
X155641966Y-89791466D01*
X155617502Y-89710820D01*
X155558537Y-89600506D01*
X155479185Y-89503815D01*
X155382494Y-89424463D01*
X155272180Y-89365498D01*
X155152482Y-89329188D01*
X155028000Y-89316928D01*
X153328000Y-89316928D01*
X153203518Y-89329188D01*
X153083820Y-89365498D01*
X152973506Y-89424463D01*
X152876815Y-89503815D01*
X152797463Y-89600506D01*
X152738498Y-89710820D01*
X152702188Y-89830518D01*
X152689928Y-89955000D01*
X152689928Y-91655000D01*
X152702188Y-91779482D01*
X152738498Y-91899180D01*
X152797463Y-92009494D01*
X152876815Y-92106185D01*
X152963074Y-92176976D01*
X152908000Y-92232050D01*
X152712125Y-92036175D01*
X152436147Y-91851772D01*
X152129496Y-91724754D01*
X151803958Y-91660000D01*
X151472042Y-91660000D01*
X151146504Y-91724754D01*
X150839853Y-91851772D01*
X150563875Y-92036175D01*
X150368000Y-92232050D01*
X150172125Y-92036175D01*
X149896147Y-91851772D01*
X149589496Y-91724754D01*
X149263958Y-91660000D01*
X148932042Y-91660000D01*
X148606504Y-91724754D01*
X148299853Y-91851772D01*
X148023875Y-92036175D01*
X147976207Y-92083843D01*
X147905416Y-91997584D01*
X147729168Y-91852941D01*
X147528088Y-91745462D01*
X147309904Y-91679276D01*
X147083000Y-91656928D01*
X146033000Y-91656928D01*
X145806096Y-91679276D01*
X145587912Y-91745462D01*
X145386832Y-91852941D01*
X145210584Y-91997584D01*
X145065941Y-92173832D01*
X144958462Y-92374912D01*
X144892276Y-92593096D01*
X144869928Y-92820000D01*
X144869928Y-93870000D01*
X144892276Y-94096904D01*
X144958462Y-94315088D01*
X145065941Y-94516168D01*
X145147050Y-94615000D01*
X145065941Y-94713832D01*
X144958462Y-94914912D01*
X144892276Y-95133096D01*
X144869928Y-95360000D01*
X144869928Y-96410000D01*
X144892276Y-96636904D01*
X144958462Y-96855088D01*
X145065941Y-97056168D01*
X145147050Y-97155000D01*
X145065941Y-97253832D01*
X144958462Y-97454912D01*
X144892276Y-97673096D01*
X144869928Y-97900000D01*
X144869928Y-98950000D01*
X144892276Y-99176904D01*
X144958462Y-99395088D01*
X145065941Y-99596168D01*
X145147050Y-99695000D01*
X145065941Y-99793832D01*
X144958462Y-99994912D01*
X144917483Y-100130000D01*
X143330863Y-100130000D01*
X143297278Y-100019284D01*
X143219831Y-99874392D01*
X143115606Y-99747394D01*
X143071926Y-99711547D01*
X143070918Y-99701311D01*
X143023172Y-99543913D01*
X142945636Y-99398854D01*
X142885434Y-99325498D01*
X142841291Y-99271709D01*
X142809426Y-99245558D01*
X142117446Y-98553578D01*
X142091291Y-98521709D01*
X142003913Y-98450000D01*
X142456982Y-98450000D01*
X142498000Y-98454040D01*
X142539018Y-98450000D01*
X142539019Y-98450000D01*
X142661689Y-98437918D01*
X142819087Y-98390172D01*
X142964146Y-98312636D01*
X143091291Y-98208291D01*
X143117446Y-98176421D01*
X144559428Y-96734440D01*
X144591291Y-96708291D01*
X144695636Y-96581146D01*
X144773172Y-96436087D01*
X144820918Y-96278689D01*
X144833000Y-96156019D01*
X144833000Y-96156009D01*
X144837039Y-96115001D01*
X144833000Y-96073993D01*
X144833000Y-91210867D01*
X147343869Y-88700000D01*
X166706982Y-88700000D01*
X166748000Y-88704040D01*
X166789018Y-88700000D01*
X166789019Y-88700000D01*
X166911689Y-88687918D01*
X167069087Y-88640172D01*
X167214146Y-88562636D01*
X167341291Y-88458291D01*
X167367446Y-88426421D01*
X169979428Y-85814440D01*
X170011291Y-85788291D01*
X170115636Y-85661146D01*
X170193172Y-85516087D01*
X170240918Y-85358689D01*
X170253000Y-85236019D01*
X170253000Y-85236017D01*
X170257040Y-85195001D01*
X170253000Y-85153985D01*
X170253000Y-76970327D01*
X170254606Y-76969469D01*
X170482797Y-76782197D01*
X170670069Y-76554006D01*
X170688000Y-76520459D01*
X170705931Y-76554006D01*
X170893203Y-76782197D01*
X171121395Y-76969469D01*
X171381737Y-77108625D01*
X171664224Y-77194316D01*
X171958000Y-77223251D01*
X172251777Y-77194316D01*
X172534264Y-77108625D01*
X172794606Y-76969469D01*
X173022797Y-76782197D01*
X173210069Y-76554006D01*
X173228000Y-76520459D01*
X173245931Y-76554006D01*
X173433203Y-76782197D01*
X173661395Y-76969469D01*
X173921737Y-77108625D01*
X174204224Y-77194316D01*
X174498000Y-77223251D01*
X174791777Y-77194316D01*
X175074264Y-77108625D01*
X175334606Y-76969469D01*
X175562797Y-76782197D01*
X175750069Y-76554006D01*
X175889225Y-76293663D01*
X175974916Y-76011176D01*
X175996600Y-75791018D01*
X175996600Y-75338981D01*
X175974916Y-75118823D01*
X175889225Y-74836336D01*
X175750069Y-74575994D01*
X175562797Y-74347803D01*
X175334605Y-74160531D01*
X175074263Y-74021375D01*
X174791776Y-73935684D01*
X174498000Y-73906749D01*
X174204223Y-73935684D01*
X173921736Y-74021375D01*
X173661394Y-74160531D01*
X173433203Y-74347803D01*
X173245931Y-74575995D01*
X173228000Y-74609541D01*
X173210069Y-74575994D01*
X173022797Y-74347803D01*
X172794605Y-74160531D01*
X172534263Y-74021375D01*
X172251776Y-73935684D01*
X171958000Y-73906749D01*
X171664223Y-73935684D01*
X171381736Y-74021375D01*
X171121394Y-74160531D01*
X170893203Y-74347803D01*
X170705931Y-74575995D01*
X170688000Y-74609541D01*
X170670069Y-74575994D01*
X170482797Y-74347803D01*
X170254605Y-74160531D01*
X169994263Y-74021375D01*
X169711776Y-73935684D01*
X169418000Y-73906749D01*
X169124223Y-73935684D01*
X168841736Y-74021375D01*
X168581394Y-74160531D01*
X168353203Y-74347803D01*
X168165931Y-74575995D01*
X168148000Y-74609541D01*
X168130069Y-74575994D01*
X167942797Y-74347803D01*
X167714605Y-74160531D01*
X167454263Y-74021375D01*
X167171776Y-73935684D01*
X166878000Y-73906749D01*
X166584223Y-73935684D01*
X166301736Y-74021375D01*
X166041394Y-74160531D01*
X165813203Y-74347803D01*
X165625931Y-74575995D01*
X165608000Y-74609541D01*
X165590069Y-74575994D01*
X165402797Y-74347803D01*
X165174605Y-74160531D01*
X164914263Y-74021375D01*
X164631776Y-73935684D01*
X164338000Y-73906749D01*
X164044223Y-73935684D01*
X163761736Y-74021375D01*
X163501394Y-74160531D01*
X163273203Y-74347803D01*
X163085931Y-74575995D01*
X163068000Y-74609541D01*
X163050069Y-74575994D01*
X162862797Y-74347803D01*
X162634605Y-74160531D01*
X162374263Y-74021375D01*
X162091776Y-73935684D01*
X161798000Y-73906749D01*
X161504223Y-73935684D01*
X161221736Y-74021375D01*
X160961394Y-74160531D01*
X160733203Y-74347803D01*
X160545931Y-74575995D01*
X160528000Y-74609541D01*
X160510069Y-74575994D01*
X160322797Y-74347803D01*
X160094605Y-74160531D01*
X159834263Y-74021375D01*
X159551776Y-73935684D01*
X159258000Y-73906749D01*
X158964223Y-73935684D01*
X158681736Y-74021375D01*
X158421394Y-74160531D01*
X158193203Y-74347803D01*
X158005931Y-74575995D01*
X157988000Y-74609541D01*
X157970069Y-74575994D01*
X157782797Y-74347803D01*
X157554605Y-74160531D01*
X157294263Y-74021375D01*
X157011776Y-73935684D01*
X156718000Y-73906749D01*
X156424223Y-73935684D01*
X156141736Y-74021375D01*
X155881394Y-74160531D01*
X155653203Y-74347803D01*
X155465931Y-74575995D01*
X155326775Y-74836337D01*
X155241084Y-75118824D01*
X155219400Y-75338982D01*
X155219400Y-75791019D01*
X155241084Y-76011177D01*
X155326775Y-76293664D01*
X155465931Y-76554006D01*
X155539041Y-76643091D01*
X153642133Y-78540000D01*
X122892365Y-78540000D01*
X122865606Y-78507394D01*
X122738608Y-78403169D01*
X122593716Y-78325722D01*
X122436500Y-78278031D01*
X122273000Y-78261928D01*
X122058010Y-78261928D01*
X122058010Y-77735857D01*
X122634426Y-77159442D01*
X122666291Y-77133291D01*
X122770636Y-77006146D01*
X122848172Y-76861087D01*
X122895918Y-76703689D01*
X122908000Y-76581019D01*
X122908000Y-76581009D01*
X122912039Y-76540001D01*
X122908000Y-76498993D01*
X122908000Y-76380949D01*
X122969831Y-76305608D01*
X123047278Y-76160716D01*
X123094969Y-76003500D01*
X123111072Y-75840000D01*
X123111072Y-75290000D01*
X123094969Y-75126500D01*
X123047278Y-74969284D01*
X122969831Y-74824392D01*
X122865606Y-74697394D01*
X122738608Y-74593169D01*
X122593716Y-74515722D01*
X122436500Y-74468031D01*
X122273000Y-74451928D01*
X121873000Y-74451928D01*
X121709500Y-74468031D01*
X121552284Y-74515722D01*
X121407392Y-74593169D01*
X121280394Y-74697394D01*
X121248000Y-74736866D01*
X121215606Y-74697394D01*
X121088608Y-74593169D01*
X120943716Y-74515722D01*
X120786500Y-74468031D01*
X120623000Y-74451928D01*
X120223000Y-74451928D01*
X120059500Y-74468031D01*
X119902284Y-74515722D01*
X119757392Y-74593169D01*
X119630394Y-74697394D01*
X119603635Y-74730000D01*
X118982368Y-74730000D01*
X118960115Y-74702885D01*
X118830275Y-74596329D01*
X118682142Y-74517150D01*
X118521408Y-74468392D01*
X118354250Y-74451928D01*
X117916750Y-74451928D01*
X117749592Y-74468392D01*
X117588858Y-74517150D01*
X117440725Y-74596329D01*
X117419070Y-74614100D01*
X117352494Y-74559463D01*
X117242180Y-74500498D01*
X117122482Y-74464188D01*
X116998000Y-74451928D01*
X116846250Y-74455000D01*
X116687500Y-74613750D01*
X116687500Y-75438000D01*
X116707500Y-75438000D01*
X116707500Y-75692000D01*
X116687500Y-75692000D01*
X116687500Y-76516250D01*
X116846250Y-76675000D01*
X116998000Y-76678072D01*
X117122482Y-76665812D01*
X117242180Y-76629502D01*
X117352494Y-76570537D01*
X117419070Y-76515900D01*
X117440725Y-76533671D01*
X117588858Y-76612850D01*
X117749592Y-76661608D01*
X117916750Y-76678072D01*
X118354250Y-76678072D01*
X118521408Y-76661608D01*
X118682142Y-76612850D01*
X118830275Y-76533671D01*
X118960115Y-76427115D01*
X118982368Y-76400000D01*
X119603635Y-76400000D01*
X119630394Y-76432606D01*
X119757392Y-76536831D01*
X119902284Y-76614278D01*
X120059500Y-76661969D01*
X120223000Y-76678072D01*
X120623000Y-76678072D01*
X120768379Y-76663754D01*
X120661589Y-76770544D01*
X120629719Y-76796699D01*
X120576878Y-76861087D01*
X120525374Y-76923845D01*
X120447838Y-77068904D01*
X120400092Y-77226302D01*
X120383970Y-77389990D01*
X120388010Y-77431009D01*
X120388010Y-78261928D01*
X120223000Y-78261928D01*
X120059500Y-78278031D01*
X119902284Y-78325722D01*
X119757392Y-78403169D01*
X119630394Y-78507394D01*
X119603635Y-78540000D01*
X118982368Y-78540000D01*
X118960115Y-78512885D01*
X118830275Y-78406329D01*
X118682142Y-78327150D01*
X118521408Y-78278392D01*
X118354250Y-78261928D01*
X117916750Y-78261928D01*
X117749592Y-78278392D01*
X117588858Y-78327150D01*
X117440725Y-78406329D01*
X117419070Y-78424100D01*
X117352494Y-78369463D01*
X117242180Y-78310498D01*
X117122482Y-78274188D01*
X116998000Y-78261928D01*
X116846250Y-78265000D01*
X116687500Y-78423750D01*
X116687500Y-79248000D01*
X116707500Y-79248000D01*
X116707500Y-79502000D01*
X116687500Y-79502000D01*
X116687500Y-80326250D01*
X116846250Y-80485000D01*
X116998000Y-80488072D01*
X117122482Y-80475812D01*
X117242180Y-80439502D01*
X117352494Y-80380537D01*
X117419070Y-80325900D01*
X117440725Y-80343671D01*
X117588858Y-80422850D01*
X117749592Y-80471608D01*
X117916750Y-80488072D01*
X118354250Y-80488072D01*
X118521408Y-80471608D01*
X118682142Y-80422850D01*
X118830275Y-80343671D01*
X118960115Y-80237115D01*
X118982368Y-80210000D01*
X119603635Y-80210000D01*
X119630394Y-80242606D01*
X119757392Y-80346831D01*
X119902284Y-80424278D01*
X120059500Y-80471969D01*
X120223000Y-80488072D01*
X120388010Y-80488072D01*
X120388011Y-82031928D01*
X120223000Y-82031928D01*
X120059500Y-82048031D01*
X119902284Y-82095722D01*
X119757392Y-82173169D01*
X119630394Y-82277394D01*
X119603635Y-82310000D01*
X118944414Y-82310000D01*
X118830275Y-82216329D01*
X118682142Y-82137150D01*
X118521408Y-82088392D01*
X118354250Y-82071928D01*
X117916750Y-82071928D01*
X117749592Y-82088392D01*
X117588858Y-82137150D01*
X117440725Y-82216329D01*
X117419070Y-82234100D01*
X117352494Y-82179463D01*
X117242180Y-82120498D01*
X117122482Y-82084188D01*
X116998000Y-82071928D01*
X116846250Y-82075000D01*
X116687500Y-82233750D01*
X116687500Y-83058000D01*
X116707500Y-83058000D01*
X116707500Y-83312000D01*
X116687500Y-83312000D01*
X116687500Y-84136250D01*
X116846250Y-84295000D01*
X116998000Y-84298072D01*
X117122482Y-84285812D01*
X117242180Y-84249502D01*
X117352494Y-84190537D01*
X117419070Y-84135900D01*
X117440725Y-84153671D01*
X117588858Y-84232850D01*
X117749592Y-84281608D01*
X117916750Y-84298072D01*
X118354250Y-84298072D01*
X118521408Y-84281608D01*
X118682142Y-84232850D01*
X118830275Y-84153671D01*
X118960115Y-84047115D01*
X119015194Y-83980000D01*
X119603635Y-83980000D01*
X119630394Y-84012606D01*
X119757392Y-84116831D01*
X119902284Y-84194278D01*
X120059500Y-84241969D01*
X120223000Y-84258072D01*
X120388011Y-84258072D01*
X120388011Y-84548982D01*
X120383970Y-84590010D01*
X120400092Y-84753698D01*
X120447838Y-84911096D01*
X120512096Y-85031313D01*
X120525375Y-85056156D01*
X120629720Y-85183301D01*
X120661584Y-85209451D01*
X121128554Y-85676421D01*
X121154709Y-85708291D01*
X121281854Y-85812636D01*
X121426913Y-85890172D01*
X121584311Y-85937918D01*
X121748000Y-85954040D01*
X121789018Y-85950000D01*
X125956982Y-85950000D01*
X125979877Y-85952255D01*
X125186579Y-86745554D01*
X125154709Y-86771709D01*
X125070440Y-86874392D01*
X125050364Y-86898855D01*
X124972828Y-87043914D01*
X124925082Y-87201312D01*
X124908960Y-87365000D01*
X124913000Y-87406019D01*
X124913001Y-91559131D01*
X124005204Y-92466928D01*
X121748000Y-92466928D01*
X121623518Y-92479188D01*
X121503820Y-92515498D01*
X121393506Y-92574463D01*
X121296815Y-92653815D01*
X121217463Y-92750506D01*
X121158498Y-92860820D01*
X121122188Y-92980518D01*
X121109928Y-93105000D01*
X121109928Y-95905000D01*
X121122188Y-96029482D01*
X121158498Y-96149180D01*
X121217463Y-96259494D01*
X121296815Y-96356185D01*
X121393506Y-96435537D01*
X121503820Y-96494502D01*
X121623518Y-96530812D01*
X121748000Y-96543072D01*
X122313001Y-96543072D01*
X122313000Y-102619131D01*
X120032133Y-104900000D01*
X118272201Y-104900000D01*
X118260481Y-104878073D01*
X118068661Y-104644339D01*
X117834927Y-104452519D01*
X117568261Y-104309983D01*
X117278913Y-104222210D01*
X117053408Y-104200000D01*
X115102592Y-104200000D01*
X114877087Y-104222210D01*
X114587739Y-104309983D01*
X114321073Y-104452519D01*
X114087339Y-104644339D01*
X114083000Y-104649626D01*
X114083000Y-103739421D01*
X114153518Y-103760812D01*
X114278000Y-103773072D01*
X115792250Y-103770000D01*
X115951000Y-103611250D01*
X115951000Y-102362000D01*
X116205000Y-102362000D01*
X116205000Y-103611250D01*
X116363750Y-103770000D01*
X117878000Y-103773072D01*
X118002482Y-103760812D01*
X118122180Y-103724502D01*
X118232494Y-103665537D01*
X118329185Y-103586185D01*
X118408537Y-103489494D01*
X118467502Y-103379180D01*
X118503812Y-103259482D01*
X118516072Y-103135000D01*
X118513000Y-102520750D01*
X118354250Y-102362000D01*
X116205000Y-102362000D01*
X115951000Y-102362000D01*
X115931000Y-102362000D01*
X115931000Y-102108000D01*
X115951000Y-102108000D01*
X115951000Y-100858750D01*
X116205000Y-100858750D01*
X116205000Y-102108000D01*
X118354250Y-102108000D01*
X118513000Y-101949250D01*
X118516072Y-101335000D01*
X118503812Y-101210518D01*
X118467502Y-101090820D01*
X118408537Y-100980506D01*
X118329185Y-100883815D01*
X118232494Y-100804463D01*
X118122180Y-100745498D01*
X118002482Y-100709188D01*
X117878000Y-100696928D01*
X116363750Y-100700000D01*
X116205000Y-100858750D01*
X115951000Y-100858750D01*
X115792250Y-100700000D01*
X114596293Y-100697574D01*
X117809428Y-97484440D01*
X117841291Y-97458291D01*
X117945636Y-97331146D01*
X118023172Y-97186087D01*
X118070918Y-97028689D01*
X118083000Y-96906019D01*
X118083000Y-96906017D01*
X118087040Y-96865001D01*
X118083000Y-96823985D01*
X118083000Y-90658740D01*
X120363000Y-90658740D01*
X120363000Y-90951260D01*
X120420068Y-91238158D01*
X120532010Y-91508411D01*
X120694525Y-91751632D01*
X120901368Y-91958475D01*
X121144589Y-92120990D01*
X121414842Y-92232932D01*
X121701740Y-92290000D01*
X121994260Y-92290000D01*
X122281158Y-92232932D01*
X122551411Y-92120990D01*
X122794632Y-91958475D01*
X123001475Y-91751632D01*
X123163990Y-91508411D01*
X123275932Y-91238158D01*
X123333000Y-90951260D01*
X123333000Y-90658740D01*
X123275932Y-90371842D01*
X123163990Y-90101589D01*
X123001475Y-89858368D01*
X122794632Y-89651525D01*
X122551411Y-89489010D01*
X122281158Y-89377068D01*
X121994260Y-89320000D01*
X121701740Y-89320000D01*
X121414842Y-89377068D01*
X121144589Y-89489010D01*
X120901368Y-89651525D01*
X120694525Y-89858368D01*
X120532010Y-90101589D01*
X120420068Y-90371842D01*
X120363000Y-90658740D01*
X118083000Y-90658740D01*
X118083000Y-88646007D01*
X118087039Y-88604999D01*
X118083000Y-88563991D01*
X118083000Y-88563981D01*
X118070918Y-88441311D01*
X118023172Y-88283913D01*
X117945636Y-88138854D01*
X117841291Y-88011709D01*
X117809426Y-87985559D01*
X117486072Y-87662204D01*
X117486072Y-85705000D01*
X117473812Y-85580518D01*
X117437502Y-85460820D01*
X117378537Y-85350506D01*
X117299185Y-85253815D01*
X117202494Y-85174463D01*
X117092180Y-85115498D01*
X116972482Y-85079188D01*
X116848000Y-85066928D01*
X114648000Y-85066928D01*
X114523518Y-85079188D01*
X114403820Y-85115498D01*
X114293506Y-85174463D01*
X114196815Y-85253815D01*
X114117463Y-85350506D01*
X114058498Y-85460820D01*
X114022188Y-85580518D01*
X114009928Y-85705000D01*
X114009928Y-88505000D01*
X114022188Y-88629482D01*
X114058498Y-88749180D01*
X114117463Y-88859494D01*
X114196815Y-88956185D01*
X114293506Y-89035537D01*
X114403820Y-89094502D01*
X114523518Y-89130812D01*
X114648000Y-89143072D01*
X116413001Y-89143072D01*
X116413000Y-96519132D01*
X112686574Y-100245559D01*
X112654710Y-100271709D01*
X112628562Y-100303571D01*
X112550364Y-100398855D01*
X112472828Y-100543914D01*
X112425082Y-100701312D01*
X112408960Y-100865000D01*
X112413001Y-100906028D01*
X112413000Y-108323981D01*
X112408960Y-108365000D01*
X112413000Y-108406018D01*
X112425082Y-108528688D01*
X112472828Y-108686086D01*
X112550364Y-108831145D01*
X112654709Y-108958291D01*
X112686578Y-108984445D01*
X113498563Y-109796432D01*
X113524709Y-109828291D01*
X113556568Y-109854437D01*
X113556570Y-109854439D01*
X113651854Y-109932636D01*
X113796913Y-110010172D01*
X113862446Y-110030051D01*
X113895519Y-110091927D01*
X114087339Y-110325661D01*
X114321073Y-110517481D01*
X114587739Y-110660017D01*
X114877087Y-110747790D01*
X115102592Y-110770000D01*
X117053408Y-110770000D01*
X117278913Y-110747790D01*
X117568261Y-110660017D01*
X117834927Y-110517481D01*
X118068661Y-110325661D01*
X118260481Y-110091927D01*
X118272201Y-110070000D01*
X121336982Y-110070000D01*
X121378000Y-110074040D01*
X121419018Y-110070000D01*
X121419019Y-110070000D01*
X121541689Y-110057918D01*
X121699087Y-110010172D01*
X121844146Y-109932636D01*
X121971291Y-109828291D01*
X121997446Y-109796421D01*
X122128867Y-109665000D01*
X127179928Y-109665000D01*
X127192188Y-109789482D01*
X127228498Y-109909180D01*
X127287463Y-110019494D01*
X127366815Y-110116185D01*
X127463506Y-110195537D01*
X127573820Y-110254502D01*
X127693518Y-110290812D01*
X127818000Y-110303072D01*
X128622250Y-110300000D01*
X128781000Y-110141250D01*
X128781000Y-108992000D01*
X129035000Y-108992000D01*
X129035000Y-110141250D01*
X129193750Y-110300000D01*
X129998000Y-110303072D01*
X130122482Y-110290812D01*
X130242180Y-110254502D01*
X130352494Y-110195537D01*
X130449185Y-110116185D01*
X130528537Y-110019494D01*
X130587502Y-109909180D01*
X130623812Y-109789482D01*
X130636072Y-109665000D01*
X130633000Y-109150750D01*
X130474250Y-108992000D01*
X129035000Y-108992000D01*
X128781000Y-108992000D01*
X127341750Y-108992000D01*
X127183000Y-109150750D01*
X127179928Y-109665000D01*
X122128867Y-109665000D01*
X123728867Y-108065000D01*
X127179928Y-108065000D01*
X127183000Y-108579250D01*
X127341750Y-108738000D01*
X128781000Y-108738000D01*
X128781000Y-107588750D01*
X129035000Y-107588750D01*
X129035000Y-108738000D01*
X130474250Y-108738000D01*
X130633000Y-108579250D01*
X130636072Y-108065000D01*
X130623812Y-107940518D01*
X130587502Y-107820820D01*
X130528537Y-107710506D01*
X130449185Y-107613815D01*
X130352494Y-107534463D01*
X130242180Y-107475498D01*
X130122482Y-107439188D01*
X129998000Y-107426928D01*
X129193750Y-107430000D01*
X129035000Y-107588750D01*
X128781000Y-107588750D01*
X128622250Y-107430000D01*
X127818000Y-107426928D01*
X127693518Y-107439188D01*
X127573820Y-107475498D01*
X127463506Y-107534463D01*
X127366815Y-107613815D01*
X127287463Y-107710506D01*
X127228498Y-107820820D01*
X127192188Y-107940518D01*
X127179928Y-108065000D01*
X123728867Y-108065000D01*
X126559433Y-105234436D01*
X126591291Y-105208291D01*
X126622122Y-105170724D01*
X126695636Y-105081146D01*
X126773172Y-104936087D01*
X126798553Y-104852416D01*
X126820918Y-104778689D01*
X126833000Y-104656019D01*
X126833000Y-104656018D01*
X126837040Y-104615000D01*
X126833000Y-104573982D01*
X126833000Y-102165000D01*
X127179928Y-102165000D01*
X127192188Y-102289482D01*
X127228498Y-102409180D01*
X127287463Y-102519494D01*
X127366815Y-102616185D01*
X127463506Y-102695537D01*
X127573820Y-102754502D01*
X127693518Y-102790812D01*
X127818000Y-102803072D01*
X128622250Y-102800000D01*
X128781000Y-102641250D01*
X128781000Y-101492000D01*
X129035000Y-101492000D01*
X129035000Y-102641250D01*
X129193750Y-102800000D01*
X129998000Y-102803072D01*
X130122482Y-102790812D01*
X130242180Y-102754502D01*
X130352494Y-102695537D01*
X130449185Y-102616185D01*
X130528537Y-102519494D01*
X130587502Y-102409180D01*
X130623812Y-102289482D01*
X130636072Y-102165000D01*
X130633000Y-101650750D01*
X130474250Y-101492000D01*
X129035000Y-101492000D01*
X128781000Y-101492000D01*
X127341750Y-101492000D01*
X127183000Y-101650750D01*
X127179928Y-102165000D01*
X126833000Y-102165000D01*
X126833000Y-100565000D01*
X127179928Y-100565000D01*
X127183000Y-101079250D01*
X127341750Y-101238000D01*
X128781000Y-101238000D01*
X128781000Y-100088750D01*
X129035000Y-100088750D01*
X129035000Y-101238000D01*
X130474250Y-101238000D01*
X130633000Y-101079250D01*
X130636072Y-100565000D01*
X130623812Y-100440518D01*
X130587502Y-100320820D01*
X130528537Y-100210506D01*
X130449185Y-100113815D01*
X130352494Y-100034463D01*
X130242180Y-99975498D01*
X130122482Y-99939188D01*
X129998000Y-99926928D01*
X129193750Y-99930000D01*
X129035000Y-100088750D01*
X128781000Y-100088750D01*
X128622250Y-99930000D01*
X127818000Y-99926928D01*
X127693518Y-99939188D01*
X127573820Y-99975498D01*
X127463506Y-100034463D01*
X127366815Y-100113815D01*
X127287463Y-100210506D01*
X127228498Y-100320820D01*
X127192188Y-100440518D01*
X127179928Y-100565000D01*
X126833000Y-100565000D01*
X126833000Y-96135867D01*
X127322117Y-95646750D01*
X127763000Y-95646750D01*
X127768952Y-95721934D01*
X127801901Y-95842600D01*
X127857757Y-95954520D01*
X127934375Y-96053392D01*
X128028810Y-96135417D01*
X128137432Y-96197443D01*
X128256068Y-96237086D01*
X128366250Y-96250000D01*
X128525000Y-96091250D01*
X128525000Y-95488000D01*
X127921750Y-95488000D01*
X127763000Y-95646750D01*
X127322117Y-95646750D01*
X127824309Y-95144559D01*
X127921750Y-95242000D01*
X128525000Y-95242000D01*
X128525000Y-94638750D01*
X128427559Y-94541309D01*
X128888011Y-94080858D01*
X128888010Y-94521740D01*
X128771000Y-94638750D01*
X128771000Y-95242000D01*
X128795000Y-95242000D01*
X128795000Y-95488000D01*
X128771000Y-95488000D01*
X128771000Y-96091250D01*
X128888010Y-96208260D01*
X128888010Y-97548991D01*
X128883970Y-97590010D01*
X128888010Y-97631028D01*
X128900092Y-97753698D01*
X128947838Y-97911096D01*
X129025374Y-98056155D01*
X129129719Y-98183301D01*
X129161588Y-98209456D01*
X130628563Y-99676432D01*
X130654709Y-99708291D01*
X130781854Y-99812636D01*
X130926913Y-99890172D01*
X131084311Y-99937918D01*
X131206981Y-99950000D01*
X131206982Y-99950000D01*
X131248000Y-99954040D01*
X131289018Y-99950000D01*
X136837876Y-99950000D01*
X136753820Y-99975498D01*
X136643506Y-100034463D01*
X136546815Y-100113815D01*
X136467463Y-100210506D01*
X136408498Y-100320820D01*
X136372188Y-100440518D01*
X136359928Y-100565000D01*
X136359928Y-100822203D01*
X134686579Y-102495554D01*
X134654709Y-102521709D01*
X134565244Y-102630724D01*
X134550364Y-102648855D01*
X134472828Y-102793914D01*
X134425082Y-102951312D01*
X134408960Y-103115000D01*
X134413000Y-103156019D01*
X134413001Y-118823971D01*
X134408960Y-118865000D01*
X134425082Y-119028688D01*
X134472828Y-119186086D01*
X134540471Y-119312636D01*
X134550365Y-119331146D01*
X134654710Y-119458291D01*
X134686574Y-119484441D01*
X135232132Y-120030000D01*
X115724018Y-120030000D01*
X115682999Y-120025960D01*
X115641981Y-120030000D01*
X115519311Y-120042082D01*
X115361913Y-120089828D01*
X115216854Y-120167364D01*
X115089709Y-120271709D01*
X115063559Y-120303573D01*
X114663000Y-120704132D01*
X114663000Y-117165000D01*
X127179928Y-117165000D01*
X127192188Y-117289482D01*
X127228498Y-117409180D01*
X127287463Y-117519494D01*
X127366815Y-117616185D01*
X127463506Y-117695537D01*
X127573820Y-117754502D01*
X127693518Y-117790812D01*
X127818000Y-117803072D01*
X128622250Y-117800000D01*
X128781000Y-117641250D01*
X128781000Y-116492000D01*
X129035000Y-116492000D01*
X129035000Y-117641250D01*
X129193750Y-117800000D01*
X129998000Y-117803072D01*
X130122482Y-117790812D01*
X130242180Y-117754502D01*
X130352494Y-117695537D01*
X130449185Y-117616185D01*
X130528537Y-117519494D01*
X130587502Y-117409180D01*
X130623812Y-117289482D01*
X130636072Y-117165000D01*
X130633000Y-116650750D01*
X130474250Y-116492000D01*
X129035000Y-116492000D01*
X128781000Y-116492000D01*
X127341750Y-116492000D01*
X127183000Y-116650750D01*
X127179928Y-117165000D01*
X114663000Y-117165000D01*
X114663000Y-116152454D01*
X114722180Y-116134502D01*
X114832494Y-116075537D01*
X114929185Y-115996185D01*
X115008537Y-115899494D01*
X115067502Y-115789180D01*
X115103812Y-115669482D01*
X115116072Y-115545000D01*
X117039928Y-115545000D01*
X117052188Y-115669482D01*
X117088498Y-115789180D01*
X117147463Y-115899494D01*
X117226815Y-115996185D01*
X117323506Y-116075537D01*
X117433820Y-116134502D01*
X117553518Y-116170812D01*
X117678000Y-116183072D01*
X118042250Y-116180000D01*
X118201000Y-116021250D01*
X118201000Y-114897000D01*
X118455000Y-114897000D01*
X118455000Y-116021250D01*
X118613750Y-116180000D01*
X118978000Y-116183072D01*
X119102482Y-116170812D01*
X119222180Y-116134502D01*
X119332494Y-116075537D01*
X119429185Y-115996185D01*
X119508537Y-115899494D01*
X119567502Y-115789180D01*
X119603812Y-115669482D01*
X119614102Y-115565000D01*
X127179928Y-115565000D01*
X127183000Y-116079250D01*
X127341750Y-116238000D01*
X128781000Y-116238000D01*
X128781000Y-115088750D01*
X129035000Y-115088750D01*
X129035000Y-116238000D01*
X130474250Y-116238000D01*
X130633000Y-116079250D01*
X130636072Y-115565000D01*
X130623812Y-115440518D01*
X130587502Y-115320820D01*
X130528537Y-115210506D01*
X130449185Y-115113815D01*
X130352494Y-115034463D01*
X130242180Y-114975498D01*
X130122482Y-114939188D01*
X129998000Y-114926928D01*
X129193750Y-114930000D01*
X129035000Y-115088750D01*
X128781000Y-115088750D01*
X128622250Y-114930000D01*
X127818000Y-114926928D01*
X127693518Y-114939188D01*
X127573820Y-114975498D01*
X127463506Y-115034463D01*
X127366815Y-115113815D01*
X127287463Y-115210506D01*
X127228498Y-115320820D01*
X127192188Y-115440518D01*
X127179928Y-115565000D01*
X119614102Y-115565000D01*
X119616072Y-115545000D01*
X119613000Y-115055750D01*
X119454250Y-114897000D01*
X118455000Y-114897000D01*
X118201000Y-114897000D01*
X117201750Y-114897000D01*
X117043000Y-115055750D01*
X117039928Y-115545000D01*
X115116072Y-115545000D01*
X115116072Y-113995000D01*
X117039928Y-113995000D01*
X117043000Y-114484250D01*
X117201750Y-114643000D01*
X118201000Y-114643000D01*
X118201000Y-113518750D01*
X118455000Y-113518750D01*
X118455000Y-114643000D01*
X119454250Y-114643000D01*
X119613000Y-114484250D01*
X119616072Y-113995000D01*
X119603812Y-113870518D01*
X119567502Y-113750820D01*
X119508537Y-113640506D01*
X119429185Y-113543815D01*
X119332494Y-113464463D01*
X119222180Y-113405498D01*
X119102482Y-113369188D01*
X118978000Y-113356928D01*
X118613750Y-113360000D01*
X118455000Y-113518750D01*
X118201000Y-113518750D01*
X118042250Y-113360000D01*
X117678000Y-113356928D01*
X117553518Y-113369188D01*
X117433820Y-113405498D01*
X117323506Y-113464463D01*
X117226815Y-113543815D01*
X117147463Y-113640506D01*
X117088498Y-113750820D01*
X117052188Y-113870518D01*
X117039928Y-113995000D01*
X115116072Y-113995000D01*
X115103812Y-113870518D01*
X115067502Y-113750820D01*
X115008537Y-113640506D01*
X114929185Y-113543815D01*
X114832494Y-113464463D01*
X114722180Y-113405498D01*
X114602482Y-113369188D01*
X114478000Y-113356928D01*
X113178000Y-113356928D01*
X113053518Y-113369188D01*
X112933820Y-113405498D01*
X112823506Y-113464463D01*
X112726815Y-113543815D01*
X112647463Y-113640506D01*
X112588498Y-113750820D01*
X112552188Y-113870518D01*
X112539928Y-113995000D01*
X112539928Y-115545000D01*
X112552188Y-115669482D01*
X112588498Y-115789180D01*
X112647463Y-115899494D01*
X112726815Y-115996185D01*
X112823506Y-116075537D01*
X112933820Y-116134502D01*
X112993000Y-116152454D01*
X112993001Y-121337546D01*
X112933820Y-121355498D01*
X112823506Y-121414463D01*
X112726815Y-121493815D01*
X112647463Y-121590506D01*
X112588498Y-121700820D01*
X112552188Y-121820518D01*
X112539928Y-121945000D01*
X112539928Y-123495000D01*
X112552188Y-123619482D01*
X112588498Y-123739180D01*
X112647463Y-123849494D01*
X112726815Y-123946185D01*
X112823506Y-124025537D01*
X112933820Y-124084502D01*
X113053518Y-124120812D01*
X113178000Y-124133072D01*
X114478000Y-124133072D01*
X114602482Y-124120812D01*
X114722180Y-124084502D01*
X114832494Y-124025537D01*
X114929185Y-123946185D01*
X115008537Y-123849494D01*
X115067502Y-123739180D01*
X115103812Y-123619482D01*
X115116072Y-123495000D01*
X117039928Y-123495000D01*
X117052188Y-123619482D01*
X117088498Y-123739180D01*
X117147463Y-123849494D01*
X117226815Y-123946185D01*
X117323506Y-124025537D01*
X117433820Y-124084502D01*
X117553518Y-124120812D01*
X117678000Y-124133072D01*
X118042250Y-124130000D01*
X118201000Y-123971250D01*
X118201000Y-122847000D01*
X118455000Y-122847000D01*
X118455000Y-123971250D01*
X118613750Y-124130000D01*
X118978000Y-124133072D01*
X119102482Y-124120812D01*
X119222180Y-124084502D01*
X119332494Y-124025537D01*
X119429185Y-123946185D01*
X119508537Y-123849494D01*
X119567502Y-123739180D01*
X119603812Y-123619482D01*
X119616072Y-123495000D01*
X119613000Y-123005750D01*
X119454250Y-122847000D01*
X118455000Y-122847000D01*
X118201000Y-122847000D01*
X117201750Y-122847000D01*
X117043000Y-123005750D01*
X117039928Y-123495000D01*
X115116072Y-123495000D01*
X115116072Y-122612795D01*
X116028868Y-121700000D01*
X117088936Y-121700000D01*
X117088498Y-121700820D01*
X117052188Y-121820518D01*
X117039928Y-121945000D01*
X117043000Y-122434250D01*
X117201750Y-122593000D01*
X118201000Y-122593000D01*
X118201000Y-122573000D01*
X118455000Y-122573000D01*
X118455000Y-122593000D01*
X119454250Y-122593000D01*
X119613000Y-122434250D01*
X119616072Y-121945000D01*
X119603812Y-121820518D01*
X119567502Y-121700820D01*
X119567064Y-121700000D01*
X123347815Y-121700000D01*
X123267887Y-121753406D01*
X122896406Y-122124887D01*
X122604536Y-122561702D01*
X122403492Y-123047065D01*
X122301000Y-123562323D01*
X122301000Y-124087677D01*
X122403492Y-124602935D01*
X122604536Y-125088298D01*
X122896406Y-125525113D01*
X123026293Y-125655000D01*
X111708000Y-125655000D01*
X111708000Y-95905000D01*
X112009928Y-95905000D01*
X112022188Y-96029482D01*
X112058498Y-96149180D01*
X112117463Y-96259494D01*
X112196815Y-96356185D01*
X112293506Y-96435537D01*
X112403820Y-96494502D01*
X112523518Y-96530812D01*
X112648000Y-96543072D01*
X113462250Y-96540000D01*
X113621000Y-96381250D01*
X113621000Y-94632000D01*
X113875000Y-94632000D01*
X113875000Y-96381250D01*
X114033750Y-96540000D01*
X114848000Y-96543072D01*
X114972482Y-96530812D01*
X115092180Y-96494502D01*
X115202494Y-96435537D01*
X115299185Y-96356185D01*
X115378537Y-96259494D01*
X115437502Y-96149180D01*
X115473812Y-96029482D01*
X115486072Y-95905000D01*
X115483000Y-94790750D01*
X115324250Y-94632000D01*
X113875000Y-94632000D01*
X113621000Y-94632000D01*
X112171750Y-94632000D01*
X112013000Y-94790750D01*
X112009928Y-95905000D01*
X111708000Y-95905000D01*
X111708000Y-93105000D01*
X112009928Y-93105000D01*
X112013000Y-94219250D01*
X112171750Y-94378000D01*
X113621000Y-94378000D01*
X113621000Y-92628750D01*
X113875000Y-92628750D01*
X113875000Y-94378000D01*
X115324250Y-94378000D01*
X115483000Y-94219250D01*
X115486072Y-93105000D01*
X115473812Y-92980518D01*
X115437502Y-92860820D01*
X115378537Y-92750506D01*
X115299185Y-92653815D01*
X115202494Y-92574463D01*
X115092180Y-92515498D01*
X114972482Y-92479188D01*
X114848000Y-92466928D01*
X114033750Y-92470000D01*
X113875000Y-92628750D01*
X113621000Y-92628750D01*
X113462250Y-92470000D01*
X112648000Y-92466928D01*
X112523518Y-92479188D01*
X112403820Y-92515498D01*
X112293506Y-92574463D01*
X112196815Y-92653815D01*
X112117463Y-92750506D01*
X112058498Y-92860820D01*
X112022188Y-92980518D01*
X112009928Y-93105000D01*
X111708000Y-93105000D01*
X111708000Y-90658740D01*
X113363000Y-90658740D01*
X113363000Y-90951260D01*
X113420068Y-91238158D01*
X113532010Y-91508411D01*
X113694525Y-91751632D01*
X113901368Y-91958475D01*
X114144589Y-92120990D01*
X114414842Y-92232932D01*
X114701740Y-92290000D01*
X114994260Y-92290000D01*
X115281158Y-92232932D01*
X115551411Y-92120990D01*
X115794632Y-91958475D01*
X116001475Y-91751632D01*
X116163990Y-91508411D01*
X116275932Y-91238158D01*
X116333000Y-90951260D01*
X116333000Y-90658740D01*
X116275932Y-90371842D01*
X116163990Y-90101589D01*
X116001475Y-89858368D01*
X115794632Y-89651525D01*
X115551411Y-89489010D01*
X115281158Y-89377068D01*
X114994260Y-89320000D01*
X114701740Y-89320000D01*
X114414842Y-89377068D01*
X114144589Y-89489010D01*
X113901368Y-89651525D01*
X113694525Y-89858368D01*
X113532010Y-90101589D01*
X113420068Y-90371842D01*
X113363000Y-90658740D01*
X111708000Y-90658740D01*
X111708000Y-83660000D01*
X115484928Y-83660000D01*
X115497188Y-83784482D01*
X115533498Y-83904180D01*
X115592463Y-84014494D01*
X115671815Y-84111185D01*
X115768506Y-84190537D01*
X115878820Y-84249502D01*
X115998518Y-84285812D01*
X116123000Y-84298072D01*
X116274750Y-84295000D01*
X116433500Y-84136250D01*
X116433500Y-83312000D01*
X115646750Y-83312000D01*
X115488000Y-83470750D01*
X115484928Y-83660000D01*
X111708000Y-83660000D01*
X111708000Y-82710000D01*
X115484928Y-82710000D01*
X115488000Y-82899250D01*
X115646750Y-83058000D01*
X116433500Y-83058000D01*
X116433500Y-82233750D01*
X116274750Y-82075000D01*
X116123000Y-82071928D01*
X115998518Y-82084188D01*
X115878820Y-82120498D01*
X115768506Y-82179463D01*
X115671815Y-82258815D01*
X115592463Y-82355506D01*
X115533498Y-82465820D01*
X115497188Y-82585518D01*
X115484928Y-82710000D01*
X111708000Y-82710000D01*
X111708000Y-79850000D01*
X115484928Y-79850000D01*
X115497188Y-79974482D01*
X115533498Y-80094180D01*
X115592463Y-80204494D01*
X115671815Y-80301185D01*
X115768506Y-80380537D01*
X115878820Y-80439502D01*
X115998518Y-80475812D01*
X116123000Y-80488072D01*
X116274750Y-80485000D01*
X116433500Y-80326250D01*
X116433500Y-79502000D01*
X115646750Y-79502000D01*
X115488000Y-79660750D01*
X115484928Y-79850000D01*
X111708000Y-79850000D01*
X111708000Y-78900000D01*
X115484928Y-78900000D01*
X115488000Y-79089250D01*
X115646750Y-79248000D01*
X116433500Y-79248000D01*
X116433500Y-78423750D01*
X116274750Y-78265000D01*
X116123000Y-78261928D01*
X115998518Y-78274188D01*
X115878820Y-78310498D01*
X115768506Y-78369463D01*
X115671815Y-78448815D01*
X115592463Y-78545506D01*
X115533498Y-78655820D01*
X115497188Y-78775518D01*
X115484928Y-78900000D01*
X111708000Y-78900000D01*
X111708000Y-76040000D01*
X115484928Y-76040000D01*
X115497188Y-76164482D01*
X115533498Y-76284180D01*
X115592463Y-76394494D01*
X115671815Y-76491185D01*
X115768506Y-76570537D01*
X115878820Y-76629502D01*
X115998518Y-76665812D01*
X116123000Y-76678072D01*
X116274750Y-76675000D01*
X116433500Y-76516250D01*
X116433500Y-75692000D01*
X115646750Y-75692000D01*
X115488000Y-75850750D01*
X115484928Y-76040000D01*
X111708000Y-76040000D01*
X111708000Y-75090000D01*
X115484928Y-75090000D01*
X115488000Y-75279250D01*
X115646750Y-75438000D01*
X116433500Y-75438000D01*
X116433500Y-74613750D01*
X116274750Y-74455000D01*
X116123000Y-74451928D01*
X115998518Y-74464188D01*
X115878820Y-74500498D01*
X115768506Y-74559463D01*
X115671815Y-74638815D01*
X115592463Y-74735506D01*
X115533498Y-74845820D01*
X115497188Y-74965518D01*
X115484928Y-75090000D01*
X111708000Y-75090000D01*
X111708000Y-73735000D01*
X124296293Y-73735000D01*
X124166406Y-73864887D01*
%TA.AperFunction,Conductor*%
D26*
G36*
X124166406Y-73864887D02*
G01*
X123874536Y-74301702D01*
X123673492Y-74787065D01*
X123571000Y-75302323D01*
X123571000Y-75827677D01*
X123673492Y-76342935D01*
X123874536Y-76828298D01*
X124166406Y-77265113D01*
X124537887Y-77636594D01*
X124974702Y-77928464D01*
X125460065Y-78129508D01*
X125975323Y-78232000D01*
X126500677Y-78232000D01*
X127015935Y-78129508D01*
X127501298Y-77928464D01*
X127938113Y-77636594D01*
X128309594Y-77265113D01*
X128601464Y-76828298D01*
X128657001Y-76694219D01*
X128729203Y-76782197D01*
X128957395Y-76969469D01*
X129217737Y-77108625D01*
X129500224Y-77194316D01*
X129794000Y-77223251D01*
X130087777Y-77194316D01*
X130370264Y-77108625D01*
X130630606Y-76969469D01*
X130858797Y-76782197D01*
X131046069Y-76554006D01*
X131064000Y-76520459D01*
X131081931Y-76554006D01*
X131269203Y-76782197D01*
X131497395Y-76969469D01*
X131757737Y-77108625D01*
X132040224Y-77194316D01*
X132334000Y-77223251D01*
X132627777Y-77194316D01*
X132910264Y-77108625D01*
X133170606Y-76969469D01*
X133398797Y-76782197D01*
X133586069Y-76554006D01*
X133604000Y-76520459D01*
X133621931Y-76554006D01*
X133809203Y-76782197D01*
X134037395Y-76969469D01*
X134297737Y-77108625D01*
X134580224Y-77194316D01*
X134874000Y-77223251D01*
X135167777Y-77194316D01*
X135450264Y-77108625D01*
X135710606Y-76969469D01*
X135938797Y-76782197D01*
X136126069Y-76554006D01*
X136147424Y-76514053D01*
X136295514Y-76716729D01*
X136511965Y-76915733D01*
X136763081Y-77068686D01*
X137039211Y-77169709D01*
X137054974Y-77172358D01*
X137287000Y-77051217D01*
X137287000Y-75692000D01*
X137267000Y-75692000D01*
X137267000Y-75438000D01*
X137287000Y-75438000D01*
X137287000Y-74078783D01*
X137541000Y-74078783D01*
X137541000Y-75438000D01*
X137561000Y-75438000D01*
X137561000Y-75692000D01*
X137541000Y-75692000D01*
X137541000Y-77051217D01*
X137773026Y-77172358D01*
X137788789Y-77169709D01*
X138064919Y-77068686D01*
X138316035Y-76915733D01*
X138532486Y-76716729D01*
X138680576Y-76514053D01*
X138701931Y-76554006D01*
X138889203Y-76782197D01*
X139117395Y-76969469D01*
X139377737Y-77108625D01*
X139660224Y-77194316D01*
X139954000Y-77223251D01*
X140247777Y-77194316D01*
X140530264Y-77108625D01*
X140790606Y-76969469D01*
X141018797Y-76782197D01*
X141206069Y-76554006D01*
X141224000Y-76520459D01*
X141241931Y-76554006D01*
X141429203Y-76782197D01*
X141657395Y-76969469D01*
X141917737Y-77108625D01*
X142200224Y-77194316D01*
X142494000Y-77223251D01*
X142787777Y-77194316D01*
X143070264Y-77108625D01*
X143330606Y-76969469D01*
X143558797Y-76782197D01*
X143746069Y-76554006D01*
X143764000Y-76520459D01*
X143781931Y-76554006D01*
X143969203Y-76782197D01*
X144197395Y-76969469D01*
X144457737Y-77108625D01*
X144740224Y-77194316D01*
X145034000Y-77223251D01*
X145327777Y-77194316D01*
X145610264Y-77108625D01*
X145870606Y-76969469D01*
X146098797Y-76782197D01*
X146286069Y-76554006D01*
X146304000Y-76520459D01*
X146321931Y-76554006D01*
X146509203Y-76782197D01*
X146737395Y-76969469D01*
X146997737Y-77108625D01*
X147280224Y-77194316D01*
X147574000Y-77223251D01*
X147867777Y-77194316D01*
X148150264Y-77108625D01*
X148410606Y-76969469D01*
X148638797Y-76782197D01*
X148826069Y-76554006D01*
X148844000Y-76520459D01*
X148861931Y-76554006D01*
X149049203Y-76782197D01*
X149277395Y-76969469D01*
X149537737Y-77108625D01*
X149820224Y-77194316D01*
X150114000Y-77223251D01*
X150407777Y-77194316D01*
X150690264Y-77108625D01*
X150950606Y-76969469D01*
X151178797Y-76782197D01*
X151366069Y-76554006D01*
X151384000Y-76520459D01*
X151401931Y-76554006D01*
X151589203Y-76782197D01*
X151817395Y-76969469D01*
X152077737Y-77108625D01*
X152360224Y-77194316D01*
X152654000Y-77223251D01*
X152947777Y-77194316D01*
X153230264Y-77108625D01*
X153490606Y-76969469D01*
X153718797Y-76782197D01*
X153906069Y-76554006D01*
X154045225Y-76293663D01*
X154130916Y-76011176D01*
X154152600Y-75791018D01*
X154152600Y-75338981D01*
X154130916Y-75118823D01*
X154045225Y-74836336D01*
X153906069Y-74575994D01*
X153718797Y-74347803D01*
X153490605Y-74160531D01*
X153230263Y-74021375D01*
X152947776Y-73935684D01*
X152654000Y-73906749D01*
X152360223Y-73935684D01*
X152077736Y-74021375D01*
X151817394Y-74160531D01*
X151589203Y-74347803D01*
X151401931Y-74575995D01*
X151384000Y-74609541D01*
X151366069Y-74575994D01*
X151178797Y-74347803D01*
X150950605Y-74160531D01*
X150690263Y-74021375D01*
X150407776Y-73935684D01*
X150114000Y-73906749D01*
X149820223Y-73935684D01*
X149537736Y-74021375D01*
X149277394Y-74160531D01*
X149049203Y-74347803D01*
X148861931Y-74575995D01*
X148844000Y-74609541D01*
X148826069Y-74575994D01*
X148638797Y-74347803D01*
X148410605Y-74160531D01*
X148150263Y-74021375D01*
X147867776Y-73935684D01*
X147574000Y-73906749D01*
X147280223Y-73935684D01*
X146997736Y-74021375D01*
X146737394Y-74160531D01*
X146509203Y-74347803D01*
X146321931Y-74575995D01*
X146304000Y-74609541D01*
X146286069Y-74575994D01*
X146098797Y-74347803D01*
X145870605Y-74160531D01*
X145610263Y-74021375D01*
X145327776Y-73935684D01*
X145034000Y-73906749D01*
X144740223Y-73935684D01*
X144457736Y-74021375D01*
X144197394Y-74160531D01*
X143969203Y-74347803D01*
X143781931Y-74575995D01*
X143764000Y-74609541D01*
X143746069Y-74575994D01*
X143558797Y-74347803D01*
X143330605Y-74160531D01*
X143070263Y-74021375D01*
X142787776Y-73935684D01*
X142494000Y-73906749D01*
X142200223Y-73935684D01*
X141917736Y-74021375D01*
X141657394Y-74160531D01*
X141429203Y-74347803D01*
X141241931Y-74575995D01*
X141224000Y-74609541D01*
X141206069Y-74575994D01*
X141018797Y-74347803D01*
X140790605Y-74160531D01*
X140530263Y-74021375D01*
X140247776Y-73935684D01*
X139954000Y-73906749D01*
X139660223Y-73935684D01*
X139377736Y-74021375D01*
X139117394Y-74160531D01*
X138889203Y-74347803D01*
X138701931Y-74575995D01*
X138680576Y-74615947D01*
X138532486Y-74413271D01*
X138316035Y-74214267D01*
X138064919Y-74061314D01*
X137788789Y-73960291D01*
X137773026Y-73957642D01*
X137541000Y-74078783D01*
X137287000Y-74078783D01*
X137054974Y-73957642D01*
X137039211Y-73960291D01*
X136763081Y-74061314D01*
X136511965Y-74214267D01*
X136295514Y-74413271D01*
X136147424Y-74615947D01*
X136126069Y-74575994D01*
X135938797Y-74347803D01*
X135710605Y-74160531D01*
X135450263Y-74021375D01*
X135167776Y-73935684D01*
X134874000Y-73906749D01*
X134580223Y-73935684D01*
X134297736Y-74021375D01*
X134037394Y-74160531D01*
X133809203Y-74347803D01*
X133621931Y-74575995D01*
X133604000Y-74609541D01*
X133586069Y-74575994D01*
X133398797Y-74347803D01*
X133170605Y-74160531D01*
X132910263Y-74021375D01*
X132627776Y-73935684D01*
X132334000Y-73906749D01*
X132040223Y-73935684D01*
X131757736Y-74021375D01*
X131497394Y-74160531D01*
X131269203Y-74347803D01*
X131081931Y-74575995D01*
X131064000Y-74609541D01*
X131046069Y-74575994D01*
X130858797Y-74347803D01*
X130630605Y-74160531D01*
X130370263Y-74021375D01*
X130087776Y-73935684D01*
X129794000Y-73906749D01*
X129500223Y-73935684D01*
X129217736Y-74021375D01*
X128957394Y-74160531D01*
X128729203Y-74347803D01*
X128657001Y-74435781D01*
X128601464Y-74301702D01*
X128309594Y-73864887D01*
X128179707Y-73735000D01*
X175219909Y-73735000D01*
X176328001Y-74843093D01*
X176328000Y-85944125D01*
X176324565Y-85979000D01*
X176328000Y-86013875D01*
X176328000Y-86013876D01*
X176338273Y-86118183D01*
X176378872Y-86252019D01*
X176444800Y-86375362D01*
X176533525Y-86483474D01*
X176560617Y-86505708D01*
X178868001Y-88813093D01*
X178868001Y-88863294D01*
X178738113Y-88733406D01*
X178301298Y-88441536D01*
X177815935Y-88240492D01*
X177300677Y-88138000D01*
X176775323Y-88138000D01*
X176260065Y-88240492D01*
X175774702Y-88441536D01*
X175337887Y-88733406D01*
X174966406Y-89104887D01*
X174674536Y-89541702D01*
X174473492Y-90027065D01*
X174371000Y-90542323D01*
X174371000Y-91057131D01*
X172867446Y-89553579D01*
X172841291Y-89521709D01*
X172714146Y-89417364D01*
X172569087Y-89339828D01*
X172411689Y-89292082D01*
X172289019Y-89280000D01*
X172289018Y-89280000D01*
X172248000Y-89275960D01*
X172206982Y-89280000D01*
X163843867Y-89280000D01*
X163557445Y-88993578D01*
X163531290Y-88961708D01*
X163404145Y-88857363D01*
X163259086Y-88779827D01*
X163101688Y-88732081D01*
X162979018Y-88719999D01*
X162979017Y-88719999D01*
X162937999Y-88715959D01*
X162896981Y-88719999D01*
X160349019Y-88719999D01*
X160308001Y-88715959D01*
X160266983Y-88719999D01*
X160266982Y-88719999D01*
X160144312Y-88732081D01*
X160023638Y-88768687D01*
X159986914Y-88779827D01*
X159841855Y-88857363D01*
X159757698Y-88926429D01*
X159714710Y-88961708D01*
X159688564Y-88993567D01*
X159362132Y-89320000D01*
X159111740Y-89320000D01*
X158824842Y-89377068D01*
X158554589Y-89489010D01*
X158311368Y-89651525D01*
X158104525Y-89858368D01*
X157982805Y-90040534D01*
X157913178Y-89923645D01*
X157718269Y-89707412D01*
X157484920Y-89533359D01*
X157222099Y-89408175D01*
X157074890Y-89363524D01*
X156845000Y-89484845D01*
X156845000Y-90678000D01*
X156865000Y-90678000D01*
X156865000Y-90932000D01*
X156845000Y-90932000D01*
X156845000Y-90952000D01*
X156591000Y-90952000D01*
X156591000Y-90932000D01*
X156571000Y-90932000D01*
X156571000Y-90678000D01*
X156591000Y-90678000D01*
X156591000Y-89484845D01*
X156361110Y-89363524D01*
X156213901Y-89408175D01*
X155951080Y-89533359D01*
X155717731Y-89707412D01*
X155641966Y-89791466D01*
X155617502Y-89710820D01*
X155558537Y-89600506D01*
X155479185Y-89503815D01*
X155382494Y-89424463D01*
X155272180Y-89365498D01*
X155152482Y-89329188D01*
X155028000Y-89316928D01*
X153328000Y-89316928D01*
X153203518Y-89329188D01*
X153083820Y-89365498D01*
X152973506Y-89424463D01*
X152876815Y-89503815D01*
X152797463Y-89600506D01*
X152738498Y-89710820D01*
X152702188Y-89830518D01*
X152689928Y-89955000D01*
X152689928Y-91655000D01*
X152702188Y-91779482D01*
X152738498Y-91899180D01*
X152797463Y-92009494D01*
X152876815Y-92106185D01*
X152963074Y-92176976D01*
X152908000Y-92232050D01*
X152712125Y-92036175D01*
X152436147Y-91851772D01*
X152129496Y-91724754D01*
X151803958Y-91660000D01*
X151472042Y-91660000D01*
X151146504Y-91724754D01*
X150839853Y-91851772D01*
X150563875Y-92036175D01*
X150368000Y-92232050D01*
X150172125Y-92036175D01*
X149896147Y-91851772D01*
X149589496Y-91724754D01*
X149263958Y-91660000D01*
X148932042Y-91660000D01*
X148606504Y-91724754D01*
X148299853Y-91851772D01*
X148023875Y-92036175D01*
X147976207Y-92083843D01*
X147905416Y-91997584D01*
X147729168Y-91852941D01*
X147528088Y-91745462D01*
X147309904Y-91679276D01*
X147083000Y-91656928D01*
X146033000Y-91656928D01*
X145806096Y-91679276D01*
X145587912Y-91745462D01*
X145386832Y-91852941D01*
X145210584Y-91997584D01*
X145065941Y-92173832D01*
X144958462Y-92374912D01*
X144892276Y-92593096D01*
X144869928Y-92820000D01*
X144869928Y-93870000D01*
X144892276Y-94096904D01*
X144958462Y-94315088D01*
X145065941Y-94516168D01*
X145147050Y-94615000D01*
X145065941Y-94713832D01*
X144958462Y-94914912D01*
X144892276Y-95133096D01*
X144869928Y-95360000D01*
X144869928Y-96410000D01*
X144892276Y-96636904D01*
X144958462Y-96855088D01*
X145065941Y-97056168D01*
X145147050Y-97155000D01*
X145065941Y-97253832D01*
X144958462Y-97454912D01*
X144892276Y-97673096D01*
X144869928Y-97900000D01*
X144869928Y-98950000D01*
X144892276Y-99176904D01*
X144958462Y-99395088D01*
X145065941Y-99596168D01*
X145147050Y-99695000D01*
X145065941Y-99793832D01*
X144958462Y-99994912D01*
X144917483Y-100130000D01*
X143330863Y-100130000D01*
X143297278Y-100019284D01*
X143219831Y-99874392D01*
X143115606Y-99747394D01*
X143071926Y-99711547D01*
X143070918Y-99701311D01*
X143023172Y-99543913D01*
X142945636Y-99398854D01*
X142885434Y-99325498D01*
X142841291Y-99271709D01*
X142809426Y-99245558D01*
X142117446Y-98553578D01*
X142091291Y-98521709D01*
X142003913Y-98450000D01*
X142456982Y-98450000D01*
X142498000Y-98454040D01*
X142539018Y-98450000D01*
X142539019Y-98450000D01*
X142661689Y-98437918D01*
X142819087Y-98390172D01*
X142964146Y-98312636D01*
X143091291Y-98208291D01*
X143117446Y-98176421D01*
X144559428Y-96734440D01*
X144591291Y-96708291D01*
X144695636Y-96581146D01*
X144773172Y-96436087D01*
X144820918Y-96278689D01*
X144833000Y-96156019D01*
X144833000Y-96156009D01*
X144837039Y-96115001D01*
X144833000Y-96073993D01*
X144833000Y-91210867D01*
X147343869Y-88700000D01*
X166706982Y-88700000D01*
X166748000Y-88704040D01*
X166789018Y-88700000D01*
X166789019Y-88700000D01*
X166911689Y-88687918D01*
X167069087Y-88640172D01*
X167214146Y-88562636D01*
X167341291Y-88458291D01*
X167367446Y-88426421D01*
X169979428Y-85814440D01*
X170011291Y-85788291D01*
X170115636Y-85661146D01*
X170193172Y-85516087D01*
X170240918Y-85358689D01*
X170253000Y-85236019D01*
X170253000Y-85236017D01*
X170257040Y-85195001D01*
X170253000Y-85153985D01*
X170253000Y-76970327D01*
X170254606Y-76969469D01*
X170482797Y-76782197D01*
X170670069Y-76554006D01*
X170688000Y-76520459D01*
X170705931Y-76554006D01*
X170893203Y-76782197D01*
X171121395Y-76969469D01*
X171381737Y-77108625D01*
X171664224Y-77194316D01*
X171958000Y-77223251D01*
X172251777Y-77194316D01*
X172534264Y-77108625D01*
X172794606Y-76969469D01*
X173022797Y-76782197D01*
X173210069Y-76554006D01*
X173228000Y-76520459D01*
X173245931Y-76554006D01*
X173433203Y-76782197D01*
X173661395Y-76969469D01*
X173921737Y-77108625D01*
X174204224Y-77194316D01*
X174498000Y-77223251D01*
X174791777Y-77194316D01*
X175074264Y-77108625D01*
X175334606Y-76969469D01*
X175562797Y-76782197D01*
X175750069Y-76554006D01*
X175889225Y-76293663D01*
X175974916Y-76011176D01*
X175996600Y-75791018D01*
X175996600Y-75338981D01*
X175974916Y-75118823D01*
X175889225Y-74836336D01*
X175750069Y-74575994D01*
X175562797Y-74347803D01*
X175334605Y-74160531D01*
X175074263Y-74021375D01*
X174791776Y-73935684D01*
X174498000Y-73906749D01*
X174204223Y-73935684D01*
X173921736Y-74021375D01*
X173661394Y-74160531D01*
X173433203Y-74347803D01*
X173245931Y-74575995D01*
X173228000Y-74609541D01*
X173210069Y-74575994D01*
X173022797Y-74347803D01*
X172794605Y-74160531D01*
X172534263Y-74021375D01*
X172251776Y-73935684D01*
X171958000Y-73906749D01*
X171664223Y-73935684D01*
X171381736Y-74021375D01*
X171121394Y-74160531D01*
X170893203Y-74347803D01*
X170705931Y-74575995D01*
X170688000Y-74609541D01*
X170670069Y-74575994D01*
X170482797Y-74347803D01*
X170254605Y-74160531D01*
X169994263Y-74021375D01*
X169711776Y-73935684D01*
X169418000Y-73906749D01*
X169124223Y-73935684D01*
X168841736Y-74021375D01*
X168581394Y-74160531D01*
X168353203Y-74347803D01*
X168165931Y-74575995D01*
X168148000Y-74609541D01*
X168130069Y-74575994D01*
X167942797Y-74347803D01*
X167714605Y-74160531D01*
X167454263Y-74021375D01*
X167171776Y-73935684D01*
X166878000Y-73906749D01*
X166584223Y-73935684D01*
X166301736Y-74021375D01*
X166041394Y-74160531D01*
X165813203Y-74347803D01*
X165625931Y-74575995D01*
X165608000Y-74609541D01*
X165590069Y-74575994D01*
X165402797Y-74347803D01*
X165174605Y-74160531D01*
X164914263Y-74021375D01*
X164631776Y-73935684D01*
X164338000Y-73906749D01*
X164044223Y-73935684D01*
X163761736Y-74021375D01*
X163501394Y-74160531D01*
X163273203Y-74347803D01*
X163085931Y-74575995D01*
X163068000Y-74609541D01*
X163050069Y-74575994D01*
X162862797Y-74347803D01*
X162634605Y-74160531D01*
X162374263Y-74021375D01*
X162091776Y-73935684D01*
X161798000Y-73906749D01*
X161504223Y-73935684D01*
X161221736Y-74021375D01*
X160961394Y-74160531D01*
X160733203Y-74347803D01*
X160545931Y-74575995D01*
X160528000Y-74609541D01*
X160510069Y-74575994D01*
X160322797Y-74347803D01*
X160094605Y-74160531D01*
X159834263Y-74021375D01*
X159551776Y-73935684D01*
X159258000Y-73906749D01*
X158964223Y-73935684D01*
X158681736Y-74021375D01*
X158421394Y-74160531D01*
X158193203Y-74347803D01*
X158005931Y-74575995D01*
X157988000Y-74609541D01*
X157970069Y-74575994D01*
X157782797Y-74347803D01*
X157554605Y-74160531D01*
X157294263Y-74021375D01*
X157011776Y-73935684D01*
X156718000Y-73906749D01*
X156424223Y-73935684D01*
X156141736Y-74021375D01*
X155881394Y-74160531D01*
X155653203Y-74347803D01*
X155465931Y-74575995D01*
X155326775Y-74836337D01*
X155241084Y-75118824D01*
X155219400Y-75338982D01*
X155219400Y-75791019D01*
X155241084Y-76011177D01*
X155326775Y-76293664D01*
X155465931Y-76554006D01*
X155539041Y-76643091D01*
X153642133Y-78540000D01*
X122892365Y-78540000D01*
X122865606Y-78507394D01*
X122738608Y-78403169D01*
X122593716Y-78325722D01*
X122436500Y-78278031D01*
X122273000Y-78261928D01*
X122058010Y-78261928D01*
X122058010Y-77735857D01*
X122634426Y-77159442D01*
X122666291Y-77133291D01*
X122770636Y-77006146D01*
X122848172Y-76861087D01*
X122895918Y-76703689D01*
X122908000Y-76581019D01*
X122908000Y-76581009D01*
X122912039Y-76540001D01*
X122908000Y-76498993D01*
X122908000Y-76380949D01*
X122969831Y-76305608D01*
X123047278Y-76160716D01*
X123094969Y-76003500D01*
X123111072Y-75840000D01*
X123111072Y-75290000D01*
X123094969Y-75126500D01*
X123047278Y-74969284D01*
X122969831Y-74824392D01*
X122865606Y-74697394D01*
X122738608Y-74593169D01*
X122593716Y-74515722D01*
X122436500Y-74468031D01*
X122273000Y-74451928D01*
X121873000Y-74451928D01*
X121709500Y-74468031D01*
X121552284Y-74515722D01*
X121407392Y-74593169D01*
X121280394Y-74697394D01*
X121248000Y-74736866D01*
X121215606Y-74697394D01*
X121088608Y-74593169D01*
X120943716Y-74515722D01*
X120786500Y-74468031D01*
X120623000Y-74451928D01*
X120223000Y-74451928D01*
X120059500Y-74468031D01*
X119902284Y-74515722D01*
X119757392Y-74593169D01*
X119630394Y-74697394D01*
X119603635Y-74730000D01*
X118982368Y-74730000D01*
X118960115Y-74702885D01*
X118830275Y-74596329D01*
X118682142Y-74517150D01*
X118521408Y-74468392D01*
X118354250Y-74451928D01*
X117916750Y-74451928D01*
X117749592Y-74468392D01*
X117588858Y-74517150D01*
X117440725Y-74596329D01*
X117419070Y-74614100D01*
X117352494Y-74559463D01*
X117242180Y-74500498D01*
X117122482Y-74464188D01*
X116998000Y-74451928D01*
X116846250Y-74455000D01*
X116687500Y-74613750D01*
X116687500Y-75438000D01*
X116707500Y-75438000D01*
X116707500Y-75692000D01*
X116687500Y-75692000D01*
X116687500Y-76516250D01*
X116846250Y-76675000D01*
X116998000Y-76678072D01*
X117122482Y-76665812D01*
X117242180Y-76629502D01*
X117352494Y-76570537D01*
X117419070Y-76515900D01*
X117440725Y-76533671D01*
X117588858Y-76612850D01*
X117749592Y-76661608D01*
X117916750Y-76678072D01*
X118354250Y-76678072D01*
X118521408Y-76661608D01*
X118682142Y-76612850D01*
X118830275Y-76533671D01*
X118960115Y-76427115D01*
X118982368Y-76400000D01*
X119603635Y-76400000D01*
X119630394Y-76432606D01*
X119757392Y-76536831D01*
X119902284Y-76614278D01*
X120059500Y-76661969D01*
X120223000Y-76678072D01*
X120623000Y-76678072D01*
X120768379Y-76663754D01*
X120661589Y-76770544D01*
X120629719Y-76796699D01*
X120576878Y-76861087D01*
X120525374Y-76923845D01*
X120447838Y-77068904D01*
X120400092Y-77226302D01*
X120383970Y-77389990D01*
X120388010Y-77431009D01*
X120388010Y-78261928D01*
X120223000Y-78261928D01*
X120059500Y-78278031D01*
X119902284Y-78325722D01*
X119757392Y-78403169D01*
X119630394Y-78507394D01*
X119603635Y-78540000D01*
X118982368Y-78540000D01*
X118960115Y-78512885D01*
X118830275Y-78406329D01*
X118682142Y-78327150D01*
X118521408Y-78278392D01*
X118354250Y-78261928D01*
X117916750Y-78261928D01*
X117749592Y-78278392D01*
X117588858Y-78327150D01*
X117440725Y-78406329D01*
X117419070Y-78424100D01*
X117352494Y-78369463D01*
X117242180Y-78310498D01*
X117122482Y-78274188D01*
X116998000Y-78261928D01*
X116846250Y-78265000D01*
X116687500Y-78423750D01*
X116687500Y-79248000D01*
X116707500Y-79248000D01*
X116707500Y-79502000D01*
X116687500Y-79502000D01*
X116687500Y-80326250D01*
X116846250Y-80485000D01*
X116998000Y-80488072D01*
X117122482Y-80475812D01*
X117242180Y-80439502D01*
X117352494Y-80380537D01*
X117419070Y-80325900D01*
X117440725Y-80343671D01*
X117588858Y-80422850D01*
X117749592Y-80471608D01*
X117916750Y-80488072D01*
X118354250Y-80488072D01*
X118521408Y-80471608D01*
X118682142Y-80422850D01*
X118830275Y-80343671D01*
X118960115Y-80237115D01*
X118982368Y-80210000D01*
X119603635Y-80210000D01*
X119630394Y-80242606D01*
X119757392Y-80346831D01*
X119902284Y-80424278D01*
X120059500Y-80471969D01*
X120223000Y-80488072D01*
X120388010Y-80488072D01*
X120388011Y-82031928D01*
X120223000Y-82031928D01*
X120059500Y-82048031D01*
X119902284Y-82095722D01*
X119757392Y-82173169D01*
X119630394Y-82277394D01*
X119603635Y-82310000D01*
X118944414Y-82310000D01*
X118830275Y-82216329D01*
X118682142Y-82137150D01*
X118521408Y-82088392D01*
X118354250Y-82071928D01*
X117916750Y-82071928D01*
X117749592Y-82088392D01*
X117588858Y-82137150D01*
X117440725Y-82216329D01*
X117419070Y-82234100D01*
X117352494Y-82179463D01*
X117242180Y-82120498D01*
X117122482Y-82084188D01*
X116998000Y-82071928D01*
X116846250Y-82075000D01*
X116687500Y-82233750D01*
X116687500Y-83058000D01*
X116707500Y-83058000D01*
X116707500Y-83312000D01*
X116687500Y-83312000D01*
X116687500Y-84136250D01*
X116846250Y-84295000D01*
X116998000Y-84298072D01*
X117122482Y-84285812D01*
X117242180Y-84249502D01*
X117352494Y-84190537D01*
X117419070Y-84135900D01*
X117440725Y-84153671D01*
X117588858Y-84232850D01*
X117749592Y-84281608D01*
X117916750Y-84298072D01*
X118354250Y-84298072D01*
X118521408Y-84281608D01*
X118682142Y-84232850D01*
X118830275Y-84153671D01*
X118960115Y-84047115D01*
X119015194Y-83980000D01*
X119603635Y-83980000D01*
X119630394Y-84012606D01*
X119757392Y-84116831D01*
X119902284Y-84194278D01*
X120059500Y-84241969D01*
X120223000Y-84258072D01*
X120388011Y-84258072D01*
X120388011Y-84548982D01*
X120383970Y-84590010D01*
X120400092Y-84753698D01*
X120447838Y-84911096D01*
X120512096Y-85031313D01*
X120525375Y-85056156D01*
X120629720Y-85183301D01*
X120661584Y-85209451D01*
X121128554Y-85676421D01*
X121154709Y-85708291D01*
X121281854Y-85812636D01*
X121426913Y-85890172D01*
X121584311Y-85937918D01*
X121748000Y-85954040D01*
X121789018Y-85950000D01*
X125956982Y-85950000D01*
X125979877Y-85952255D01*
X125186579Y-86745554D01*
X125154709Y-86771709D01*
X125070440Y-86874392D01*
X125050364Y-86898855D01*
X124972828Y-87043914D01*
X124925082Y-87201312D01*
X124908960Y-87365000D01*
X124913000Y-87406019D01*
X124913001Y-91559131D01*
X124005204Y-92466928D01*
X121748000Y-92466928D01*
X121623518Y-92479188D01*
X121503820Y-92515498D01*
X121393506Y-92574463D01*
X121296815Y-92653815D01*
X121217463Y-92750506D01*
X121158498Y-92860820D01*
X121122188Y-92980518D01*
X121109928Y-93105000D01*
X121109928Y-95905000D01*
X121122188Y-96029482D01*
X121158498Y-96149180D01*
X121217463Y-96259494D01*
X121296815Y-96356185D01*
X121393506Y-96435537D01*
X121503820Y-96494502D01*
X121623518Y-96530812D01*
X121748000Y-96543072D01*
X122313001Y-96543072D01*
X122313000Y-102619131D01*
X120032133Y-104900000D01*
X118272201Y-104900000D01*
X118260481Y-104878073D01*
X118068661Y-104644339D01*
X117834927Y-104452519D01*
X117568261Y-104309983D01*
X117278913Y-104222210D01*
X117053408Y-104200000D01*
X115102592Y-104200000D01*
X114877087Y-104222210D01*
X114587739Y-104309983D01*
X114321073Y-104452519D01*
X114087339Y-104644339D01*
X114083000Y-104649626D01*
X114083000Y-103739421D01*
X114153518Y-103760812D01*
X114278000Y-103773072D01*
X115792250Y-103770000D01*
X115951000Y-103611250D01*
X115951000Y-102362000D01*
X116205000Y-102362000D01*
X116205000Y-103611250D01*
X116363750Y-103770000D01*
X117878000Y-103773072D01*
X118002482Y-103760812D01*
X118122180Y-103724502D01*
X118232494Y-103665537D01*
X118329185Y-103586185D01*
X118408537Y-103489494D01*
X118467502Y-103379180D01*
X118503812Y-103259482D01*
X118516072Y-103135000D01*
X118513000Y-102520750D01*
X118354250Y-102362000D01*
X116205000Y-102362000D01*
X115951000Y-102362000D01*
X115931000Y-102362000D01*
X115931000Y-102108000D01*
X115951000Y-102108000D01*
X115951000Y-100858750D01*
X116205000Y-100858750D01*
X116205000Y-102108000D01*
X118354250Y-102108000D01*
X118513000Y-101949250D01*
X118516072Y-101335000D01*
X118503812Y-101210518D01*
X118467502Y-101090820D01*
X118408537Y-100980506D01*
X118329185Y-100883815D01*
X118232494Y-100804463D01*
X118122180Y-100745498D01*
X118002482Y-100709188D01*
X117878000Y-100696928D01*
X116363750Y-100700000D01*
X116205000Y-100858750D01*
X115951000Y-100858750D01*
X115792250Y-100700000D01*
X114596293Y-100697574D01*
X117809428Y-97484440D01*
X117841291Y-97458291D01*
X117945636Y-97331146D01*
X118023172Y-97186087D01*
X118070918Y-97028689D01*
X118083000Y-96906019D01*
X118083000Y-96906017D01*
X118087040Y-96865001D01*
X118083000Y-96823985D01*
X118083000Y-90658740D01*
X120363000Y-90658740D01*
X120363000Y-90951260D01*
X120420068Y-91238158D01*
X120532010Y-91508411D01*
X120694525Y-91751632D01*
X120901368Y-91958475D01*
X121144589Y-92120990D01*
X121414842Y-92232932D01*
X121701740Y-92290000D01*
X121994260Y-92290000D01*
X122281158Y-92232932D01*
X122551411Y-92120990D01*
X122794632Y-91958475D01*
X123001475Y-91751632D01*
X123163990Y-91508411D01*
X123275932Y-91238158D01*
X123333000Y-90951260D01*
X123333000Y-90658740D01*
X123275932Y-90371842D01*
X123163990Y-90101589D01*
X123001475Y-89858368D01*
X122794632Y-89651525D01*
X122551411Y-89489010D01*
X122281158Y-89377068D01*
X121994260Y-89320000D01*
X121701740Y-89320000D01*
X121414842Y-89377068D01*
X121144589Y-89489010D01*
X120901368Y-89651525D01*
X120694525Y-89858368D01*
X120532010Y-90101589D01*
X120420068Y-90371842D01*
X120363000Y-90658740D01*
X118083000Y-90658740D01*
X118083000Y-88646007D01*
X118087039Y-88604999D01*
X118083000Y-88563991D01*
X118083000Y-88563981D01*
X118070918Y-88441311D01*
X118023172Y-88283913D01*
X117945636Y-88138854D01*
X117841291Y-88011709D01*
X117809426Y-87985559D01*
X117486072Y-87662204D01*
X117486072Y-85705000D01*
X117473812Y-85580518D01*
X117437502Y-85460820D01*
X117378537Y-85350506D01*
X117299185Y-85253815D01*
X117202494Y-85174463D01*
X117092180Y-85115498D01*
X116972482Y-85079188D01*
X116848000Y-85066928D01*
X114648000Y-85066928D01*
X114523518Y-85079188D01*
X114403820Y-85115498D01*
X114293506Y-85174463D01*
X114196815Y-85253815D01*
X114117463Y-85350506D01*
X114058498Y-85460820D01*
X114022188Y-85580518D01*
X114009928Y-85705000D01*
X114009928Y-88505000D01*
X114022188Y-88629482D01*
X114058498Y-88749180D01*
X114117463Y-88859494D01*
X114196815Y-88956185D01*
X114293506Y-89035537D01*
X114403820Y-89094502D01*
X114523518Y-89130812D01*
X114648000Y-89143072D01*
X116413001Y-89143072D01*
X116413000Y-96519132D01*
X112686574Y-100245559D01*
X112654710Y-100271709D01*
X112628562Y-100303571D01*
X112550364Y-100398855D01*
X112472828Y-100543914D01*
X112425082Y-100701312D01*
X112408960Y-100865000D01*
X112413001Y-100906028D01*
X112413000Y-108323981D01*
X112408960Y-108365000D01*
X112413000Y-108406018D01*
X112425082Y-108528688D01*
X112472828Y-108686086D01*
X112550364Y-108831145D01*
X112654709Y-108958291D01*
X112686578Y-108984445D01*
X113498563Y-109796432D01*
X113524709Y-109828291D01*
X113556568Y-109854437D01*
X113556570Y-109854439D01*
X113651854Y-109932636D01*
X113796913Y-110010172D01*
X113862446Y-110030051D01*
X113895519Y-110091927D01*
X114087339Y-110325661D01*
X114321073Y-110517481D01*
X114587739Y-110660017D01*
X114877087Y-110747790D01*
X115102592Y-110770000D01*
X117053408Y-110770000D01*
X117278913Y-110747790D01*
X117568261Y-110660017D01*
X117834927Y-110517481D01*
X118068661Y-110325661D01*
X118260481Y-110091927D01*
X118272201Y-110070000D01*
X121336982Y-110070000D01*
X121378000Y-110074040D01*
X121419018Y-110070000D01*
X121419019Y-110070000D01*
X121541689Y-110057918D01*
X121699087Y-110010172D01*
X121844146Y-109932636D01*
X121971291Y-109828291D01*
X121997446Y-109796421D01*
X122128867Y-109665000D01*
X127179928Y-109665000D01*
X127192188Y-109789482D01*
X127228498Y-109909180D01*
X127287463Y-110019494D01*
X127366815Y-110116185D01*
X127463506Y-110195537D01*
X127573820Y-110254502D01*
X127693518Y-110290812D01*
X127818000Y-110303072D01*
X128622250Y-110300000D01*
X128781000Y-110141250D01*
X128781000Y-108992000D01*
X129035000Y-108992000D01*
X129035000Y-110141250D01*
X129193750Y-110300000D01*
X129998000Y-110303072D01*
X130122482Y-110290812D01*
X130242180Y-110254502D01*
X130352494Y-110195537D01*
X130449185Y-110116185D01*
X130528537Y-110019494D01*
X130587502Y-109909180D01*
X130623812Y-109789482D01*
X130636072Y-109665000D01*
X130633000Y-109150750D01*
X130474250Y-108992000D01*
X129035000Y-108992000D01*
X128781000Y-108992000D01*
X127341750Y-108992000D01*
X127183000Y-109150750D01*
X127179928Y-109665000D01*
X122128867Y-109665000D01*
X123728867Y-108065000D01*
X127179928Y-108065000D01*
X127183000Y-108579250D01*
X127341750Y-108738000D01*
X128781000Y-108738000D01*
X128781000Y-107588750D01*
X129035000Y-107588750D01*
X129035000Y-108738000D01*
X130474250Y-108738000D01*
X130633000Y-108579250D01*
X130636072Y-108065000D01*
X130623812Y-107940518D01*
X130587502Y-107820820D01*
X130528537Y-107710506D01*
X130449185Y-107613815D01*
X130352494Y-107534463D01*
X130242180Y-107475498D01*
X130122482Y-107439188D01*
X129998000Y-107426928D01*
X129193750Y-107430000D01*
X129035000Y-107588750D01*
X128781000Y-107588750D01*
X128622250Y-107430000D01*
X127818000Y-107426928D01*
X127693518Y-107439188D01*
X127573820Y-107475498D01*
X127463506Y-107534463D01*
X127366815Y-107613815D01*
X127287463Y-107710506D01*
X127228498Y-107820820D01*
X127192188Y-107940518D01*
X127179928Y-108065000D01*
X123728867Y-108065000D01*
X126559433Y-105234436D01*
X126591291Y-105208291D01*
X126622122Y-105170724D01*
X126695636Y-105081146D01*
X126773172Y-104936087D01*
X126798553Y-104852416D01*
X126820918Y-104778689D01*
X126833000Y-104656019D01*
X126833000Y-104656018D01*
X126837040Y-104615000D01*
X126833000Y-104573982D01*
X126833000Y-102165000D01*
X127179928Y-102165000D01*
X127192188Y-102289482D01*
X127228498Y-102409180D01*
X127287463Y-102519494D01*
X127366815Y-102616185D01*
X127463506Y-102695537D01*
X127573820Y-102754502D01*
X127693518Y-102790812D01*
X127818000Y-102803072D01*
X128622250Y-102800000D01*
X128781000Y-102641250D01*
X128781000Y-101492000D01*
X129035000Y-101492000D01*
X129035000Y-102641250D01*
X129193750Y-102800000D01*
X129998000Y-102803072D01*
X130122482Y-102790812D01*
X130242180Y-102754502D01*
X130352494Y-102695537D01*
X130449185Y-102616185D01*
X130528537Y-102519494D01*
X130587502Y-102409180D01*
X130623812Y-102289482D01*
X130636072Y-102165000D01*
X130633000Y-101650750D01*
X130474250Y-101492000D01*
X129035000Y-101492000D01*
X128781000Y-101492000D01*
X127341750Y-101492000D01*
X127183000Y-101650750D01*
X127179928Y-102165000D01*
X126833000Y-102165000D01*
X126833000Y-100565000D01*
X127179928Y-100565000D01*
X127183000Y-101079250D01*
X127341750Y-101238000D01*
X128781000Y-101238000D01*
X128781000Y-100088750D01*
X129035000Y-100088750D01*
X129035000Y-101238000D01*
X130474250Y-101238000D01*
X130633000Y-101079250D01*
X130636072Y-100565000D01*
X130623812Y-100440518D01*
X130587502Y-100320820D01*
X130528537Y-100210506D01*
X130449185Y-100113815D01*
X130352494Y-100034463D01*
X130242180Y-99975498D01*
X130122482Y-99939188D01*
X129998000Y-99926928D01*
X129193750Y-99930000D01*
X129035000Y-100088750D01*
X128781000Y-100088750D01*
X128622250Y-99930000D01*
X127818000Y-99926928D01*
X127693518Y-99939188D01*
X127573820Y-99975498D01*
X127463506Y-100034463D01*
X127366815Y-100113815D01*
X127287463Y-100210506D01*
X127228498Y-100320820D01*
X127192188Y-100440518D01*
X127179928Y-100565000D01*
X126833000Y-100565000D01*
X126833000Y-96135867D01*
X127322117Y-95646750D01*
X127763000Y-95646750D01*
X127768952Y-95721934D01*
X127801901Y-95842600D01*
X127857757Y-95954520D01*
X127934375Y-96053392D01*
X128028810Y-96135417D01*
X128137432Y-96197443D01*
X128256068Y-96237086D01*
X128366250Y-96250000D01*
X128525000Y-96091250D01*
X128525000Y-95488000D01*
X127921750Y-95488000D01*
X127763000Y-95646750D01*
X127322117Y-95646750D01*
X127824309Y-95144559D01*
X127921750Y-95242000D01*
X128525000Y-95242000D01*
X128525000Y-94638750D01*
X128427559Y-94541309D01*
X128888011Y-94080858D01*
X128888010Y-94521740D01*
X128771000Y-94638750D01*
X128771000Y-95242000D01*
X128795000Y-95242000D01*
X128795000Y-95488000D01*
X128771000Y-95488000D01*
X128771000Y-96091250D01*
X128888010Y-96208260D01*
X128888010Y-97548991D01*
X128883970Y-97590010D01*
X128888010Y-97631028D01*
X128900092Y-97753698D01*
X128947838Y-97911096D01*
X129025374Y-98056155D01*
X129129719Y-98183301D01*
X129161588Y-98209456D01*
X130628563Y-99676432D01*
X130654709Y-99708291D01*
X130781854Y-99812636D01*
X130926913Y-99890172D01*
X131084311Y-99937918D01*
X131206981Y-99950000D01*
X131206982Y-99950000D01*
X131248000Y-99954040D01*
X131289018Y-99950000D01*
X136837876Y-99950000D01*
X136753820Y-99975498D01*
X136643506Y-100034463D01*
X136546815Y-100113815D01*
X136467463Y-100210506D01*
X136408498Y-100320820D01*
X136372188Y-100440518D01*
X136359928Y-100565000D01*
X136359928Y-100822203D01*
X134686579Y-102495554D01*
X134654709Y-102521709D01*
X134565244Y-102630724D01*
X134550364Y-102648855D01*
X134472828Y-102793914D01*
X134425082Y-102951312D01*
X134408960Y-103115000D01*
X134413000Y-103156019D01*
X134413001Y-118823971D01*
X134408960Y-118865000D01*
X134425082Y-119028688D01*
X134472828Y-119186086D01*
X134540471Y-119312636D01*
X134550365Y-119331146D01*
X134654710Y-119458291D01*
X134686574Y-119484441D01*
X135232132Y-120030000D01*
X115724018Y-120030000D01*
X115682999Y-120025960D01*
X115641981Y-120030000D01*
X115519311Y-120042082D01*
X115361913Y-120089828D01*
X115216854Y-120167364D01*
X115089709Y-120271709D01*
X115063559Y-120303573D01*
X114663000Y-120704132D01*
X114663000Y-117165000D01*
X127179928Y-117165000D01*
X127192188Y-117289482D01*
X127228498Y-117409180D01*
X127287463Y-117519494D01*
X127366815Y-117616185D01*
X127463506Y-117695537D01*
X127573820Y-117754502D01*
X127693518Y-117790812D01*
X127818000Y-117803072D01*
X128622250Y-117800000D01*
X128781000Y-117641250D01*
X128781000Y-116492000D01*
X129035000Y-116492000D01*
X129035000Y-117641250D01*
X129193750Y-117800000D01*
X129998000Y-117803072D01*
X130122482Y-117790812D01*
X130242180Y-117754502D01*
X130352494Y-117695537D01*
X130449185Y-117616185D01*
X130528537Y-117519494D01*
X130587502Y-117409180D01*
X130623812Y-117289482D01*
X130636072Y-117165000D01*
X130633000Y-116650750D01*
X130474250Y-116492000D01*
X129035000Y-116492000D01*
X128781000Y-116492000D01*
X127341750Y-116492000D01*
X127183000Y-116650750D01*
X127179928Y-117165000D01*
X114663000Y-117165000D01*
X114663000Y-116152454D01*
X114722180Y-116134502D01*
X114832494Y-116075537D01*
X114929185Y-115996185D01*
X115008537Y-115899494D01*
X115067502Y-115789180D01*
X115103812Y-115669482D01*
X115116072Y-115545000D01*
X117039928Y-115545000D01*
X117052188Y-115669482D01*
X117088498Y-115789180D01*
X117147463Y-115899494D01*
X117226815Y-115996185D01*
X117323506Y-116075537D01*
X117433820Y-116134502D01*
X117553518Y-116170812D01*
X117678000Y-116183072D01*
X118042250Y-116180000D01*
X118201000Y-116021250D01*
X118201000Y-114897000D01*
X118455000Y-114897000D01*
X118455000Y-116021250D01*
X118613750Y-116180000D01*
X118978000Y-116183072D01*
X119102482Y-116170812D01*
X119222180Y-116134502D01*
X119332494Y-116075537D01*
X119429185Y-115996185D01*
X119508537Y-115899494D01*
X119567502Y-115789180D01*
X119603812Y-115669482D01*
X119614102Y-115565000D01*
X127179928Y-115565000D01*
X127183000Y-116079250D01*
X127341750Y-116238000D01*
X128781000Y-116238000D01*
X128781000Y-115088750D01*
X129035000Y-115088750D01*
X129035000Y-116238000D01*
X130474250Y-116238000D01*
X130633000Y-116079250D01*
X130636072Y-115565000D01*
X130623812Y-115440518D01*
X130587502Y-115320820D01*
X130528537Y-115210506D01*
X130449185Y-115113815D01*
X130352494Y-115034463D01*
X130242180Y-114975498D01*
X130122482Y-114939188D01*
X129998000Y-114926928D01*
X129193750Y-114930000D01*
X129035000Y-115088750D01*
X128781000Y-115088750D01*
X128622250Y-114930000D01*
X127818000Y-114926928D01*
X127693518Y-114939188D01*
X127573820Y-114975498D01*
X127463506Y-115034463D01*
X127366815Y-115113815D01*
X127287463Y-115210506D01*
X127228498Y-115320820D01*
X127192188Y-115440518D01*
X127179928Y-115565000D01*
X119614102Y-115565000D01*
X119616072Y-115545000D01*
X119613000Y-115055750D01*
X119454250Y-114897000D01*
X118455000Y-114897000D01*
X118201000Y-114897000D01*
X117201750Y-114897000D01*
X117043000Y-115055750D01*
X117039928Y-115545000D01*
X115116072Y-115545000D01*
X115116072Y-113995000D01*
X117039928Y-113995000D01*
X117043000Y-114484250D01*
X117201750Y-114643000D01*
X118201000Y-114643000D01*
X118201000Y-113518750D01*
X118455000Y-113518750D01*
X118455000Y-114643000D01*
X119454250Y-114643000D01*
X119613000Y-114484250D01*
X119616072Y-113995000D01*
X119603812Y-113870518D01*
X119567502Y-113750820D01*
X119508537Y-113640506D01*
X119429185Y-113543815D01*
X119332494Y-113464463D01*
X119222180Y-113405498D01*
X119102482Y-113369188D01*
X118978000Y-113356928D01*
X118613750Y-113360000D01*
X118455000Y-113518750D01*
X118201000Y-113518750D01*
X118042250Y-113360000D01*
X117678000Y-113356928D01*
X117553518Y-113369188D01*
X117433820Y-113405498D01*
X117323506Y-113464463D01*
X117226815Y-113543815D01*
X117147463Y-113640506D01*
X117088498Y-113750820D01*
X117052188Y-113870518D01*
X117039928Y-113995000D01*
X115116072Y-113995000D01*
X115103812Y-113870518D01*
X115067502Y-113750820D01*
X115008537Y-113640506D01*
X114929185Y-113543815D01*
X114832494Y-113464463D01*
X114722180Y-113405498D01*
X114602482Y-113369188D01*
X114478000Y-113356928D01*
X113178000Y-113356928D01*
X113053518Y-113369188D01*
X112933820Y-113405498D01*
X112823506Y-113464463D01*
X112726815Y-113543815D01*
X112647463Y-113640506D01*
X112588498Y-113750820D01*
X112552188Y-113870518D01*
X112539928Y-113995000D01*
X112539928Y-115545000D01*
X112552188Y-115669482D01*
X112588498Y-115789180D01*
X112647463Y-115899494D01*
X112726815Y-115996185D01*
X112823506Y-116075537D01*
X112933820Y-116134502D01*
X112993000Y-116152454D01*
X112993001Y-121337546D01*
X112933820Y-121355498D01*
X112823506Y-121414463D01*
X112726815Y-121493815D01*
X112647463Y-121590506D01*
X112588498Y-121700820D01*
X112552188Y-121820518D01*
X112539928Y-121945000D01*
X112539928Y-123495000D01*
X112552188Y-123619482D01*
X112588498Y-123739180D01*
X112647463Y-123849494D01*
X112726815Y-123946185D01*
X112823506Y-124025537D01*
X112933820Y-124084502D01*
X113053518Y-124120812D01*
X113178000Y-124133072D01*
X114478000Y-124133072D01*
X114602482Y-124120812D01*
X114722180Y-124084502D01*
X114832494Y-124025537D01*
X114929185Y-123946185D01*
X115008537Y-123849494D01*
X115067502Y-123739180D01*
X115103812Y-123619482D01*
X115116072Y-123495000D01*
X117039928Y-123495000D01*
X117052188Y-123619482D01*
X117088498Y-123739180D01*
X117147463Y-123849494D01*
X117226815Y-123946185D01*
X117323506Y-124025537D01*
X117433820Y-124084502D01*
X117553518Y-124120812D01*
X117678000Y-124133072D01*
X118042250Y-124130000D01*
X118201000Y-123971250D01*
X118201000Y-122847000D01*
X118455000Y-122847000D01*
X118455000Y-123971250D01*
X118613750Y-124130000D01*
X118978000Y-124133072D01*
X119102482Y-124120812D01*
X119222180Y-124084502D01*
X119332494Y-124025537D01*
X119429185Y-123946185D01*
X119508537Y-123849494D01*
X119567502Y-123739180D01*
X119603812Y-123619482D01*
X119616072Y-123495000D01*
X119613000Y-123005750D01*
X119454250Y-122847000D01*
X118455000Y-122847000D01*
X118201000Y-122847000D01*
X117201750Y-122847000D01*
X117043000Y-123005750D01*
X117039928Y-123495000D01*
X115116072Y-123495000D01*
X115116072Y-122612795D01*
X116028868Y-121700000D01*
X117088936Y-121700000D01*
X117088498Y-121700820D01*
X117052188Y-121820518D01*
X117039928Y-121945000D01*
X117043000Y-122434250D01*
X117201750Y-122593000D01*
X118201000Y-122593000D01*
X118201000Y-122573000D01*
X118455000Y-122573000D01*
X118455000Y-122593000D01*
X119454250Y-122593000D01*
X119613000Y-122434250D01*
X119616072Y-121945000D01*
X119603812Y-121820518D01*
X119567502Y-121700820D01*
X119567064Y-121700000D01*
X123347815Y-121700000D01*
X123267887Y-121753406D01*
X122896406Y-122124887D01*
X122604536Y-122561702D01*
X122403492Y-123047065D01*
X122301000Y-123562323D01*
X122301000Y-124087677D01*
X122403492Y-124602935D01*
X122604536Y-125088298D01*
X122896406Y-125525113D01*
X123026293Y-125655000D01*
X111708000Y-125655000D01*
X111708000Y-95905000D01*
X112009928Y-95905000D01*
X112022188Y-96029482D01*
X112058498Y-96149180D01*
X112117463Y-96259494D01*
X112196815Y-96356185D01*
X112293506Y-96435537D01*
X112403820Y-96494502D01*
X112523518Y-96530812D01*
X112648000Y-96543072D01*
X113462250Y-96540000D01*
X113621000Y-96381250D01*
X113621000Y-94632000D01*
X113875000Y-94632000D01*
X113875000Y-96381250D01*
X114033750Y-96540000D01*
X114848000Y-96543072D01*
X114972482Y-96530812D01*
X115092180Y-96494502D01*
X115202494Y-96435537D01*
X115299185Y-96356185D01*
X115378537Y-96259494D01*
X115437502Y-96149180D01*
X115473812Y-96029482D01*
X115486072Y-95905000D01*
X115483000Y-94790750D01*
X115324250Y-94632000D01*
X113875000Y-94632000D01*
X113621000Y-94632000D01*
X112171750Y-94632000D01*
X112013000Y-94790750D01*
X112009928Y-95905000D01*
X111708000Y-95905000D01*
X111708000Y-93105000D01*
X112009928Y-93105000D01*
X112013000Y-94219250D01*
X112171750Y-94378000D01*
X113621000Y-94378000D01*
X113621000Y-92628750D01*
X113875000Y-92628750D01*
X113875000Y-94378000D01*
X115324250Y-94378000D01*
X115483000Y-94219250D01*
X115486072Y-93105000D01*
X115473812Y-92980518D01*
X115437502Y-92860820D01*
X115378537Y-92750506D01*
X115299185Y-92653815D01*
X115202494Y-92574463D01*
X115092180Y-92515498D01*
X114972482Y-92479188D01*
X114848000Y-92466928D01*
X114033750Y-92470000D01*
X113875000Y-92628750D01*
X113621000Y-92628750D01*
X113462250Y-92470000D01*
X112648000Y-92466928D01*
X112523518Y-92479188D01*
X112403820Y-92515498D01*
X112293506Y-92574463D01*
X112196815Y-92653815D01*
X112117463Y-92750506D01*
X112058498Y-92860820D01*
X112022188Y-92980518D01*
X112009928Y-93105000D01*
X111708000Y-93105000D01*
X111708000Y-90658740D01*
X113363000Y-90658740D01*
X113363000Y-90951260D01*
X113420068Y-91238158D01*
X113532010Y-91508411D01*
X113694525Y-91751632D01*
X113901368Y-91958475D01*
X114144589Y-92120990D01*
X114414842Y-92232932D01*
X114701740Y-92290000D01*
X114994260Y-92290000D01*
X115281158Y-92232932D01*
X115551411Y-92120990D01*
X115794632Y-91958475D01*
X116001475Y-91751632D01*
X116163990Y-91508411D01*
X116275932Y-91238158D01*
X116333000Y-90951260D01*
X116333000Y-90658740D01*
X116275932Y-90371842D01*
X116163990Y-90101589D01*
X116001475Y-89858368D01*
X115794632Y-89651525D01*
X115551411Y-89489010D01*
X115281158Y-89377068D01*
X114994260Y-89320000D01*
X114701740Y-89320000D01*
X114414842Y-89377068D01*
X114144589Y-89489010D01*
X113901368Y-89651525D01*
X113694525Y-89858368D01*
X113532010Y-90101589D01*
X113420068Y-90371842D01*
X113363000Y-90658740D01*
X111708000Y-90658740D01*
X111708000Y-83660000D01*
X115484928Y-83660000D01*
X115497188Y-83784482D01*
X115533498Y-83904180D01*
X115592463Y-84014494D01*
X115671815Y-84111185D01*
X115768506Y-84190537D01*
X115878820Y-84249502D01*
X115998518Y-84285812D01*
X116123000Y-84298072D01*
X116274750Y-84295000D01*
X116433500Y-84136250D01*
X116433500Y-83312000D01*
X115646750Y-83312000D01*
X115488000Y-83470750D01*
X115484928Y-83660000D01*
X111708000Y-83660000D01*
X111708000Y-82710000D01*
X115484928Y-82710000D01*
X115488000Y-82899250D01*
X115646750Y-83058000D01*
X116433500Y-83058000D01*
X116433500Y-82233750D01*
X116274750Y-82075000D01*
X116123000Y-82071928D01*
X115998518Y-82084188D01*
X115878820Y-82120498D01*
X115768506Y-82179463D01*
X115671815Y-82258815D01*
X115592463Y-82355506D01*
X115533498Y-82465820D01*
X115497188Y-82585518D01*
X115484928Y-82710000D01*
X111708000Y-82710000D01*
X111708000Y-79850000D01*
X115484928Y-79850000D01*
X115497188Y-79974482D01*
X115533498Y-80094180D01*
X115592463Y-80204494D01*
X115671815Y-80301185D01*
X115768506Y-80380537D01*
X115878820Y-80439502D01*
X115998518Y-80475812D01*
X116123000Y-80488072D01*
X116274750Y-80485000D01*
X116433500Y-80326250D01*
X116433500Y-79502000D01*
X115646750Y-79502000D01*
X115488000Y-79660750D01*
X115484928Y-79850000D01*
X111708000Y-79850000D01*
X111708000Y-78900000D01*
X115484928Y-78900000D01*
X115488000Y-79089250D01*
X115646750Y-79248000D01*
X116433500Y-79248000D01*
X116433500Y-78423750D01*
X116274750Y-78265000D01*
X116123000Y-78261928D01*
X115998518Y-78274188D01*
X115878820Y-78310498D01*
X115768506Y-78369463D01*
X115671815Y-78448815D01*
X115592463Y-78545506D01*
X115533498Y-78655820D01*
X115497188Y-78775518D01*
X115484928Y-78900000D01*
X111708000Y-78900000D01*
X111708000Y-76040000D01*
X115484928Y-76040000D01*
X115497188Y-76164482D01*
X115533498Y-76284180D01*
X115592463Y-76394494D01*
X115671815Y-76491185D01*
X115768506Y-76570537D01*
X115878820Y-76629502D01*
X115998518Y-76665812D01*
X116123000Y-76678072D01*
X116274750Y-76675000D01*
X116433500Y-76516250D01*
X116433500Y-75692000D01*
X115646750Y-75692000D01*
X115488000Y-75850750D01*
X115484928Y-76040000D01*
X111708000Y-76040000D01*
X111708000Y-75090000D01*
X115484928Y-75090000D01*
X115488000Y-75279250D01*
X115646750Y-75438000D01*
X116433500Y-75438000D01*
X116433500Y-74613750D01*
X116274750Y-74455000D01*
X116123000Y-74451928D01*
X115998518Y-74464188D01*
X115878820Y-74500498D01*
X115768506Y-74559463D01*
X115671815Y-74638815D01*
X115592463Y-74735506D01*
X115533498Y-74845820D01*
X115497188Y-74965518D01*
X115484928Y-75090000D01*
X111708000Y-75090000D01*
X111708000Y-73735000D01*
X124296293Y-73735000D01*
X124166406Y-73864887D01*
G37*
%TD.AperFunction*%
D25*
X174966406Y-120445113D02*
X175337887Y-120816594D01*
X175774702Y-121108464D01*
X176260065Y-121309508D01*
X176775323Y-121412000D01*
X177300677Y-121412000D01*
X177815935Y-121309508D01*
X178301298Y-121108464D01*
X178738113Y-120816594D01*
X178868000Y-120686707D01*
X178868000Y-120990908D01*
X176560617Y-123298292D01*
X176533526Y-123320525D01*
X176511293Y-123347616D01*
X176444801Y-123428637D01*
X176378872Y-123551981D01*
X176338274Y-123685816D01*
X176324565Y-123825000D01*
X176328001Y-123859885D01*
X176328000Y-125655000D01*
X126909707Y-125655000D01*
X127039594Y-125525113D01*
X127331464Y-125088298D01*
X127532508Y-124602935D01*
X127635000Y-124087677D01*
X127635000Y-123562323D01*
X127532508Y-123047065D01*
X127331464Y-122561702D01*
X127039594Y-122124887D01*
X126668113Y-121753406D01*
X126588185Y-121700000D01*
X142652132Y-121700000D01*
X143183001Y-122230869D01*
X143183001Y-122419672D01*
X143181394Y-122420531D01*
X142953203Y-122607803D01*
X142765931Y-122835995D01*
X142748000Y-122869541D01*
X142730069Y-122835994D01*
X142542797Y-122607803D01*
X142314605Y-122420531D01*
X142054263Y-122281375D01*
X141771776Y-122195684D01*
X141478000Y-122166749D01*
X141184223Y-122195684D01*
X140901736Y-122281375D01*
X140641394Y-122420531D01*
X140413203Y-122607803D01*
X140225931Y-122835995D01*
X140208000Y-122869541D01*
X140190069Y-122835994D01*
X140002797Y-122607803D01*
X139774605Y-122420531D01*
X139514263Y-122281375D01*
X139231776Y-122195684D01*
X138938000Y-122166749D01*
X138644223Y-122195684D01*
X138361736Y-122281375D01*
X138101394Y-122420531D01*
X137873203Y-122607803D01*
X137685931Y-122835995D01*
X137546775Y-123096337D01*
X137461084Y-123378824D01*
X137439400Y-123598982D01*
X137439400Y-124051019D01*
X137461084Y-124271177D01*
X137546775Y-124553664D01*
X137685931Y-124814006D01*
X137873203Y-125042197D01*
X138101395Y-125229469D01*
X138361737Y-125368625D01*
X138644224Y-125454316D01*
X138938000Y-125483251D01*
X139231777Y-125454316D01*
X139514264Y-125368625D01*
X139774606Y-125229469D01*
X140002797Y-125042197D01*
X140190069Y-124814006D01*
X140208000Y-124780459D01*
X140225931Y-124814006D01*
X140413203Y-125042197D01*
X140641395Y-125229469D01*
X140901737Y-125368625D01*
X141184224Y-125454316D01*
X141478000Y-125483251D01*
X141771777Y-125454316D01*
X142054264Y-125368625D01*
X142314606Y-125229469D01*
X142542797Y-125042197D01*
X142730069Y-124814006D01*
X142748000Y-124780459D01*
X142765931Y-124814006D01*
X142953203Y-125042197D01*
X143181395Y-125229469D01*
X143441737Y-125368625D01*
X143724224Y-125454316D01*
X144018000Y-125483251D01*
X144311777Y-125454316D01*
X144594264Y-125368625D01*
X144854606Y-125229469D01*
X145082797Y-125042197D01*
X145270069Y-124814006D01*
X145288000Y-124780459D01*
X145305931Y-124814006D01*
X145493203Y-125042197D01*
X145721395Y-125229469D01*
X145981737Y-125368625D01*
X146264224Y-125454316D01*
X146558000Y-125483251D01*
X146851777Y-125454316D01*
X147134264Y-125368625D01*
X147394606Y-125229469D01*
X147622797Y-125042197D01*
X147810069Y-124814006D01*
X147828000Y-124780459D01*
X147845931Y-124814006D01*
X148033203Y-125042197D01*
X148261395Y-125229469D01*
X148521737Y-125368625D01*
X148804224Y-125454316D01*
X149098000Y-125483251D01*
X149391777Y-125454316D01*
X149674264Y-125368625D01*
X149934606Y-125229469D01*
X150162797Y-125042197D01*
X150350069Y-124814006D01*
X150371424Y-124774053D01*
X150519514Y-124976729D01*
X150735965Y-125175733D01*
X150987081Y-125328686D01*
X151263211Y-125429709D01*
X151278974Y-125432358D01*
X151511000Y-125311217D01*
X151511000Y-123952000D01*
X151765000Y-123952000D01*
X151765000Y-125311217D01*
X151997026Y-125432358D01*
X152012789Y-125429709D01*
X152288919Y-125328686D01*
X152540035Y-125175733D01*
X152756486Y-124976729D01*
X152908000Y-124769367D01*
X153059514Y-124976729D01*
X153275965Y-125175733D01*
X153527081Y-125328686D01*
X153803211Y-125429709D01*
X153818974Y-125432358D01*
X154051000Y-125311217D01*
X154051000Y-123952000D01*
X151765000Y-123952000D01*
X151511000Y-123952000D01*
X151491000Y-123952000D01*
X151491000Y-123698000D01*
X151511000Y-123698000D01*
X151511000Y-122338783D01*
X151765000Y-122338783D01*
X151765000Y-123698000D01*
X154051000Y-123698000D01*
X154051000Y-122338783D01*
X154305000Y-122338783D01*
X154305000Y-123698000D01*
X154325000Y-123698000D01*
X154325000Y-123952000D01*
X154305000Y-123952000D01*
X154305000Y-125311217D01*
X154537026Y-125432358D01*
X154552789Y-125429709D01*
X154828919Y-125328686D01*
X155080035Y-125175733D01*
X155296486Y-124976729D01*
X155444576Y-124774053D01*
X155465931Y-124814006D01*
X155653203Y-125042197D01*
X155881395Y-125229469D01*
X156141737Y-125368625D01*
X156424224Y-125454316D01*
X156718000Y-125483251D01*
X157011777Y-125454316D01*
X157294264Y-125368625D01*
X157554606Y-125229469D01*
X157782797Y-125042197D01*
X157970069Y-124814006D01*
X158109225Y-124553663D01*
X158194916Y-124271176D01*
X158216600Y-124051018D01*
X158216600Y-123598981D01*
X158194916Y-123378823D01*
X158109225Y-123096336D01*
X157970069Y-122835994D01*
X157782797Y-122607803D01*
X157554605Y-122420531D01*
X157294263Y-122281375D01*
X157011776Y-122195684D01*
X156718000Y-122166749D01*
X156424223Y-122195684D01*
X156141736Y-122281375D01*
X155881394Y-122420531D01*
X155653203Y-122607803D01*
X155465931Y-122835995D01*
X155444576Y-122875947D01*
X155296486Y-122673271D01*
X155080035Y-122474267D01*
X154828919Y-122321314D01*
X154552789Y-122220291D01*
X154537026Y-122217642D01*
X154305000Y-122338783D01*
X154051000Y-122338783D01*
X153818974Y-122217642D01*
X153803211Y-122220291D01*
X153527081Y-122321314D01*
X153275965Y-122474267D01*
X153059514Y-122673271D01*
X152908000Y-122880633D01*
X152756486Y-122673271D01*
X152540035Y-122474267D01*
X152288919Y-122321314D01*
X152012789Y-122220291D01*
X151997026Y-122217642D01*
X151765000Y-122338783D01*
X151511000Y-122338783D01*
X151278974Y-122217642D01*
X151263211Y-122220291D01*
X150987081Y-122321314D01*
X150735965Y-122474267D01*
X150519514Y-122673271D01*
X150371424Y-122875947D01*
X150350069Y-122835994D01*
X150162797Y-122607803D01*
X149934605Y-122420531D01*
X149674263Y-122281375D01*
X149391776Y-122195684D01*
X149098000Y-122166749D01*
X148804223Y-122195684D01*
X148521736Y-122281375D01*
X148261394Y-122420531D01*
X148033203Y-122607803D01*
X147845931Y-122835995D01*
X147828000Y-122869541D01*
X147810069Y-122835994D01*
X147622797Y-122607803D01*
X147394605Y-122420531D01*
X147134263Y-122281375D01*
X146851776Y-122195684D01*
X146558000Y-122166749D01*
X146264223Y-122195684D01*
X145981736Y-122281375D01*
X145721394Y-122420531D01*
X145493203Y-122607803D01*
X145305931Y-122835995D01*
X145288000Y-122869541D01*
X145270069Y-122835994D01*
X145082797Y-122607803D01*
X144854605Y-122420531D01*
X144853000Y-122419673D01*
X144853000Y-121926018D01*
X144857040Y-121885000D01*
X144847632Y-121789474D01*
X144840918Y-121721311D01*
X144793172Y-121563913D01*
X144715636Y-121418854D01*
X144643656Y-121331146D01*
X144637439Y-121323570D01*
X144637437Y-121323568D01*
X144611291Y-121291709D01*
X144579432Y-121265563D01*
X144263868Y-120950000D01*
X160152133Y-120950000D01*
X160963000Y-121760869D01*
X160963000Y-122419672D01*
X160961394Y-122420531D01*
X160733203Y-122607803D01*
X160545931Y-122835995D01*
X160406775Y-123096337D01*
X160321084Y-123378824D01*
X160299400Y-123598982D01*
X160299400Y-124051019D01*
X160321084Y-124271177D01*
X160406775Y-124553664D01*
X160545931Y-124814006D01*
X160733203Y-125042197D01*
X160961395Y-125229469D01*
X161221737Y-125368625D01*
X161504224Y-125454316D01*
X161798000Y-125483251D01*
X162091777Y-125454316D01*
X162374264Y-125368625D01*
X162634606Y-125229469D01*
X162862797Y-125042197D01*
X163050069Y-124814006D01*
X163068000Y-124780459D01*
X163085931Y-124814006D01*
X163273203Y-125042197D01*
X163501395Y-125229469D01*
X163761737Y-125368625D01*
X164044224Y-125454316D01*
X164338000Y-125483251D01*
X164631777Y-125454316D01*
X164914264Y-125368625D01*
X165174606Y-125229469D01*
X165402797Y-125042197D01*
X165590069Y-124814006D01*
X165608000Y-124780459D01*
X165625931Y-124814006D01*
X165813203Y-125042197D01*
X166041395Y-125229469D01*
X166301737Y-125368625D01*
X166584224Y-125454316D01*
X166878000Y-125483251D01*
X167171777Y-125454316D01*
X167454264Y-125368625D01*
X167714606Y-125229469D01*
X167942797Y-125042197D01*
X168130069Y-124814006D01*
X168148000Y-124780459D01*
X168165931Y-124814006D01*
X168353203Y-125042197D01*
X168581395Y-125229469D01*
X168841737Y-125368625D01*
X169124224Y-125454316D01*
X169418000Y-125483251D01*
X169711777Y-125454316D01*
X169994264Y-125368625D01*
X170254606Y-125229469D01*
X170482797Y-125042197D01*
X170670069Y-124814006D01*
X170688000Y-124780459D01*
X170705931Y-124814006D01*
X170893203Y-125042197D01*
X171121395Y-125229469D01*
X171381737Y-125368625D01*
X171664224Y-125454316D01*
X171958000Y-125483251D01*
X172251777Y-125454316D01*
X172534264Y-125368625D01*
X172794606Y-125229469D01*
X173022797Y-125042197D01*
X173210069Y-124814006D01*
X173228000Y-124780459D01*
X173245931Y-124814006D01*
X173433203Y-125042197D01*
X173661395Y-125229469D01*
X173921737Y-125368625D01*
X174204224Y-125454316D01*
X174498000Y-125483251D01*
X174791777Y-125454316D01*
X175074264Y-125368625D01*
X175334606Y-125229469D01*
X175562797Y-125042197D01*
X175750069Y-124814006D01*
X175889225Y-124553663D01*
X175974916Y-124271176D01*
X175996600Y-124051018D01*
X175996600Y-123598981D01*
X175974916Y-123378823D01*
X175889225Y-123096336D01*
X175750069Y-122835994D01*
X175562797Y-122607803D01*
X175335807Y-122421518D01*
X175337040Y-122409000D01*
X175321778Y-122254040D01*
X175320918Y-122245311D01*
X175273172Y-122087913D01*
X175195636Y-121942854D01*
X175091291Y-121815709D01*
X175059426Y-121789558D01*
X174833000Y-121563133D01*
X174833000Y-120245457D01*
X174966406Y-120445113D01*
%TA.AperFunction,Conductor*%
D26*
G36*
X174966406Y-120445113D02*
G01*
X175337887Y-120816594D01*
X175774702Y-121108464D01*
X176260065Y-121309508D01*
X176775323Y-121412000D01*
X177300677Y-121412000D01*
X177815935Y-121309508D01*
X178301298Y-121108464D01*
X178738113Y-120816594D01*
X178868000Y-120686707D01*
X178868000Y-120990908D01*
X176560617Y-123298292D01*
X176533526Y-123320525D01*
X176511293Y-123347616D01*
X176444801Y-123428637D01*
X176378872Y-123551981D01*
X176338274Y-123685816D01*
X176324565Y-123825000D01*
X176328001Y-123859885D01*
X176328000Y-125655000D01*
X126909707Y-125655000D01*
X127039594Y-125525113D01*
X127331464Y-125088298D01*
X127532508Y-124602935D01*
X127635000Y-124087677D01*
X127635000Y-123562323D01*
X127532508Y-123047065D01*
X127331464Y-122561702D01*
X127039594Y-122124887D01*
X126668113Y-121753406D01*
X126588185Y-121700000D01*
X142652132Y-121700000D01*
X143183001Y-122230869D01*
X143183001Y-122419672D01*
X143181394Y-122420531D01*
X142953203Y-122607803D01*
X142765931Y-122835995D01*
X142748000Y-122869541D01*
X142730069Y-122835994D01*
X142542797Y-122607803D01*
X142314605Y-122420531D01*
X142054263Y-122281375D01*
X141771776Y-122195684D01*
X141478000Y-122166749D01*
X141184223Y-122195684D01*
X140901736Y-122281375D01*
X140641394Y-122420531D01*
X140413203Y-122607803D01*
X140225931Y-122835995D01*
X140208000Y-122869541D01*
X140190069Y-122835994D01*
X140002797Y-122607803D01*
X139774605Y-122420531D01*
X139514263Y-122281375D01*
X139231776Y-122195684D01*
X138938000Y-122166749D01*
X138644223Y-122195684D01*
X138361736Y-122281375D01*
X138101394Y-122420531D01*
X137873203Y-122607803D01*
X137685931Y-122835995D01*
X137546775Y-123096337D01*
X137461084Y-123378824D01*
X137439400Y-123598982D01*
X137439400Y-124051019D01*
X137461084Y-124271177D01*
X137546775Y-124553664D01*
X137685931Y-124814006D01*
X137873203Y-125042197D01*
X138101395Y-125229469D01*
X138361737Y-125368625D01*
X138644224Y-125454316D01*
X138938000Y-125483251D01*
X139231777Y-125454316D01*
X139514264Y-125368625D01*
X139774606Y-125229469D01*
X140002797Y-125042197D01*
X140190069Y-124814006D01*
X140208000Y-124780459D01*
X140225931Y-124814006D01*
X140413203Y-125042197D01*
X140641395Y-125229469D01*
X140901737Y-125368625D01*
X141184224Y-125454316D01*
X141478000Y-125483251D01*
X141771777Y-125454316D01*
X142054264Y-125368625D01*
X142314606Y-125229469D01*
X142542797Y-125042197D01*
X142730069Y-124814006D01*
X142748000Y-124780459D01*
X142765931Y-124814006D01*
X142953203Y-125042197D01*
X143181395Y-125229469D01*
X143441737Y-125368625D01*
X143724224Y-125454316D01*
X144018000Y-125483251D01*
X144311777Y-125454316D01*
X144594264Y-125368625D01*
X144854606Y-125229469D01*
X145082797Y-125042197D01*
X145270069Y-124814006D01*
X145288000Y-124780459D01*
X145305931Y-124814006D01*
X145493203Y-125042197D01*
X145721395Y-125229469D01*
X145981737Y-125368625D01*
X146264224Y-125454316D01*
X146558000Y-125483251D01*
X146851777Y-125454316D01*
X147134264Y-125368625D01*
X147394606Y-125229469D01*
X147622797Y-125042197D01*
X147810069Y-124814006D01*
X147828000Y-124780459D01*
X147845931Y-124814006D01*
X148033203Y-125042197D01*
X148261395Y-125229469D01*
X148521737Y-125368625D01*
X148804224Y-125454316D01*
X149098000Y-125483251D01*
X149391777Y-125454316D01*
X149674264Y-125368625D01*
X149934606Y-125229469D01*
X150162797Y-125042197D01*
X150350069Y-124814006D01*
X150371424Y-124774053D01*
X150519514Y-124976729D01*
X150735965Y-125175733D01*
X150987081Y-125328686D01*
X151263211Y-125429709D01*
X151278974Y-125432358D01*
X151511000Y-125311217D01*
X151511000Y-123952000D01*
X151765000Y-123952000D01*
X151765000Y-125311217D01*
X151997026Y-125432358D01*
X152012789Y-125429709D01*
X152288919Y-125328686D01*
X152540035Y-125175733D01*
X152756486Y-124976729D01*
X152908000Y-124769367D01*
X153059514Y-124976729D01*
X153275965Y-125175733D01*
X153527081Y-125328686D01*
X153803211Y-125429709D01*
X153818974Y-125432358D01*
X154051000Y-125311217D01*
X154051000Y-123952000D01*
X151765000Y-123952000D01*
X151511000Y-123952000D01*
X151491000Y-123952000D01*
X151491000Y-123698000D01*
X151511000Y-123698000D01*
X151511000Y-122338783D01*
X151765000Y-122338783D01*
X151765000Y-123698000D01*
X154051000Y-123698000D01*
X154051000Y-122338783D01*
X154305000Y-122338783D01*
X154305000Y-123698000D01*
X154325000Y-123698000D01*
X154325000Y-123952000D01*
X154305000Y-123952000D01*
X154305000Y-125311217D01*
X154537026Y-125432358D01*
X154552789Y-125429709D01*
X154828919Y-125328686D01*
X155080035Y-125175733D01*
X155296486Y-124976729D01*
X155444576Y-124774053D01*
X155465931Y-124814006D01*
X155653203Y-125042197D01*
X155881395Y-125229469D01*
X156141737Y-125368625D01*
X156424224Y-125454316D01*
X156718000Y-125483251D01*
X157011777Y-125454316D01*
X157294264Y-125368625D01*
X157554606Y-125229469D01*
X157782797Y-125042197D01*
X157970069Y-124814006D01*
X158109225Y-124553663D01*
X158194916Y-124271176D01*
X158216600Y-124051018D01*
X158216600Y-123598981D01*
X158194916Y-123378823D01*
X158109225Y-123096336D01*
X157970069Y-122835994D01*
X157782797Y-122607803D01*
X157554605Y-122420531D01*
X157294263Y-122281375D01*
X157011776Y-122195684D01*
X156718000Y-122166749D01*
X156424223Y-122195684D01*
X156141736Y-122281375D01*
X155881394Y-122420531D01*
X155653203Y-122607803D01*
X155465931Y-122835995D01*
X155444576Y-122875947D01*
X155296486Y-122673271D01*
X155080035Y-122474267D01*
X154828919Y-122321314D01*
X154552789Y-122220291D01*
X154537026Y-122217642D01*
X154305000Y-122338783D01*
X154051000Y-122338783D01*
X153818974Y-122217642D01*
X153803211Y-122220291D01*
X153527081Y-122321314D01*
X153275965Y-122474267D01*
X153059514Y-122673271D01*
X152908000Y-122880633D01*
X152756486Y-122673271D01*
X152540035Y-122474267D01*
X152288919Y-122321314D01*
X152012789Y-122220291D01*
X151997026Y-122217642D01*
X151765000Y-122338783D01*
X151511000Y-122338783D01*
X151278974Y-122217642D01*
X151263211Y-122220291D01*
X150987081Y-122321314D01*
X150735965Y-122474267D01*
X150519514Y-122673271D01*
X150371424Y-122875947D01*
X150350069Y-122835994D01*
X150162797Y-122607803D01*
X149934605Y-122420531D01*
X149674263Y-122281375D01*
X149391776Y-122195684D01*
X149098000Y-122166749D01*
X148804223Y-122195684D01*
X148521736Y-122281375D01*
X148261394Y-122420531D01*
X148033203Y-122607803D01*
X147845931Y-122835995D01*
X147828000Y-122869541D01*
X147810069Y-122835994D01*
X147622797Y-122607803D01*
X147394605Y-122420531D01*
X147134263Y-122281375D01*
X146851776Y-122195684D01*
X146558000Y-122166749D01*
X146264223Y-122195684D01*
X145981736Y-122281375D01*
X145721394Y-122420531D01*
X145493203Y-122607803D01*
X145305931Y-122835995D01*
X145288000Y-122869541D01*
X145270069Y-122835994D01*
X145082797Y-122607803D01*
X144854605Y-122420531D01*
X144853000Y-122419673D01*
X144853000Y-121926018D01*
X144857040Y-121885000D01*
X144847632Y-121789474D01*
X144840918Y-121721311D01*
X144793172Y-121563913D01*
X144715636Y-121418854D01*
X144643656Y-121331146D01*
X144637439Y-121323570D01*
X144637437Y-121323568D01*
X144611291Y-121291709D01*
X144579432Y-121265563D01*
X144263868Y-120950000D01*
X160152133Y-120950000D01*
X160963000Y-121760869D01*
X160963000Y-122419672D01*
X160961394Y-122420531D01*
X160733203Y-122607803D01*
X160545931Y-122835995D01*
X160406775Y-123096337D01*
X160321084Y-123378824D01*
X160299400Y-123598982D01*
X160299400Y-124051019D01*
X160321084Y-124271177D01*
X160406775Y-124553664D01*
X160545931Y-124814006D01*
X160733203Y-125042197D01*
X160961395Y-125229469D01*
X161221737Y-125368625D01*
X161504224Y-125454316D01*
X161798000Y-125483251D01*
X162091777Y-125454316D01*
X162374264Y-125368625D01*
X162634606Y-125229469D01*
X162862797Y-125042197D01*
X163050069Y-124814006D01*
X163068000Y-124780459D01*
X163085931Y-124814006D01*
X163273203Y-125042197D01*
X163501395Y-125229469D01*
X163761737Y-125368625D01*
X164044224Y-125454316D01*
X164338000Y-125483251D01*
X164631777Y-125454316D01*
X164914264Y-125368625D01*
X165174606Y-125229469D01*
X165402797Y-125042197D01*
X165590069Y-124814006D01*
X165608000Y-124780459D01*
X165625931Y-124814006D01*
X165813203Y-125042197D01*
X166041395Y-125229469D01*
X166301737Y-125368625D01*
X166584224Y-125454316D01*
X166878000Y-125483251D01*
X167171777Y-125454316D01*
X167454264Y-125368625D01*
X167714606Y-125229469D01*
X167942797Y-125042197D01*
X168130069Y-124814006D01*
X168148000Y-124780459D01*
X168165931Y-124814006D01*
X168353203Y-125042197D01*
X168581395Y-125229469D01*
X168841737Y-125368625D01*
X169124224Y-125454316D01*
X169418000Y-125483251D01*
X169711777Y-125454316D01*
X169994264Y-125368625D01*
X170254606Y-125229469D01*
X170482797Y-125042197D01*
X170670069Y-124814006D01*
X170688000Y-124780459D01*
X170705931Y-124814006D01*
X170893203Y-125042197D01*
X171121395Y-125229469D01*
X171381737Y-125368625D01*
X171664224Y-125454316D01*
X171958000Y-125483251D01*
X172251777Y-125454316D01*
X172534264Y-125368625D01*
X172794606Y-125229469D01*
X173022797Y-125042197D01*
X173210069Y-124814006D01*
X173228000Y-124780459D01*
X173245931Y-124814006D01*
X173433203Y-125042197D01*
X173661395Y-125229469D01*
X173921737Y-125368625D01*
X174204224Y-125454316D01*
X174498000Y-125483251D01*
X174791777Y-125454316D01*
X175074264Y-125368625D01*
X175334606Y-125229469D01*
X175562797Y-125042197D01*
X175750069Y-124814006D01*
X175889225Y-124553663D01*
X175974916Y-124271176D01*
X175996600Y-124051018D01*
X175996600Y-123598981D01*
X175974916Y-123378823D01*
X175889225Y-123096336D01*
X175750069Y-122835994D01*
X175562797Y-122607803D01*
X175335807Y-122421518D01*
X175337040Y-122409000D01*
X175321778Y-122254040D01*
X175320918Y-122245311D01*
X175273172Y-122087913D01*
X175195636Y-121942854D01*
X175091291Y-121815709D01*
X175059426Y-121789558D01*
X174833000Y-121563133D01*
X174833000Y-120245457D01*
X174966406Y-120445113D01*
G37*
%TD.AperFunction*%
D25*
X172413000Y-92460869D02*
X172413001Y-122189131D01*
X172370449Y-122231683D01*
X172251776Y-122195684D01*
X171958000Y-122166749D01*
X171664223Y-122195684D01*
X171381736Y-122281375D01*
X171121394Y-122420531D01*
X170893203Y-122607803D01*
X170705931Y-122835995D01*
X170688000Y-122869541D01*
X170670069Y-122835994D01*
X170482797Y-122607803D01*
X170254605Y-122420531D01*
X169994263Y-122281375D01*
X169711776Y-122195684D01*
X169418000Y-122166749D01*
X169124223Y-122195684D01*
X168841736Y-122281375D01*
X168581394Y-122420531D01*
X168353203Y-122607803D01*
X168165931Y-122835995D01*
X168148000Y-122869541D01*
X168130069Y-122835994D01*
X167942797Y-122607803D01*
X167714605Y-122420531D01*
X167713000Y-122419673D01*
X167713000Y-120286018D01*
X167717040Y-120245000D01*
X167713000Y-120203981D01*
X167700918Y-120081311D01*
X167653172Y-119923913D01*
X167575636Y-119778854D01*
X167514238Y-119704040D01*
X167497439Y-119683570D01*
X167497437Y-119683568D01*
X167471291Y-119651709D01*
X167439433Y-119625564D01*
X166117446Y-118303578D01*
X166091291Y-118271709D01*
X165964146Y-118167364D01*
X165819087Y-118089828D01*
X165661689Y-118042082D01*
X165539019Y-118030000D01*
X165539018Y-118030000D01*
X165498000Y-118025960D01*
X165456982Y-118030000D01*
X143843869Y-118030000D01*
X143346977Y-117533109D01*
X143361072Y-117390000D01*
X143361072Y-116990000D01*
X143344969Y-116826500D01*
X143297278Y-116669284D01*
X143219831Y-116524392D01*
X143115606Y-116397394D01*
X143088319Y-116375000D01*
X144869928Y-116375000D01*
X144869928Y-116730000D01*
X144892276Y-116956904D01*
X144958462Y-117175088D01*
X145065941Y-117376168D01*
X145210584Y-117552416D01*
X145386832Y-117697059D01*
X145587912Y-117804538D01*
X145806096Y-117870724D01*
X146033000Y-117893072D01*
X147083000Y-117893072D01*
X147309904Y-117870724D01*
X147528088Y-117804538D01*
X147729168Y-117697059D01*
X147905416Y-117552416D01*
X147976207Y-117466157D01*
X148023875Y-117513825D01*
X148299853Y-117698228D01*
X148606504Y-117825246D01*
X148932042Y-117890000D01*
X149263958Y-117890000D01*
X149589496Y-117825246D01*
X149896147Y-117698228D01*
X150172125Y-117513825D01*
X150368000Y-117317950D01*
X150563875Y-117513825D01*
X150839853Y-117698228D01*
X151146504Y-117825246D01*
X151472042Y-117890000D01*
X151803958Y-117890000D01*
X152129496Y-117825246D01*
X152436147Y-117698228D01*
X152712125Y-117513825D01*
X152908000Y-117317950D01*
X153103875Y-117513825D01*
X153379853Y-117698228D01*
X153686504Y-117825246D01*
X154012042Y-117890000D01*
X154343958Y-117890000D01*
X154669496Y-117825246D01*
X154976147Y-117698228D01*
X155252125Y-117513825D01*
X155448000Y-117317950D01*
X155643875Y-117513825D01*
X155919853Y-117698228D01*
X156226504Y-117825246D01*
X156552042Y-117890000D01*
X156883958Y-117890000D01*
X157209496Y-117825246D01*
X157516147Y-117698228D01*
X157792125Y-117513825D01*
X157988000Y-117317950D01*
X158183875Y-117513825D01*
X158459853Y-117698228D01*
X158766504Y-117825246D01*
X159092042Y-117890000D01*
X159423958Y-117890000D01*
X159749496Y-117825246D01*
X160056147Y-117698228D01*
X160332125Y-117513825D01*
X160528000Y-117317950D01*
X160723875Y-117513825D01*
X160999853Y-117698228D01*
X161306504Y-117825246D01*
X161632042Y-117890000D01*
X161963958Y-117890000D01*
X162289496Y-117825246D01*
X162596147Y-117698228D01*
X162872125Y-117513825D01*
X163068000Y-117317950D01*
X163263875Y-117513825D01*
X163539853Y-117698228D01*
X163846504Y-117825246D01*
X164172042Y-117890000D01*
X164503958Y-117890000D01*
X164829496Y-117825246D01*
X165136147Y-117698228D01*
X165412125Y-117513825D01*
X165608000Y-117317950D01*
X165803875Y-117513825D01*
X166079853Y-117698228D01*
X166386504Y-117825246D01*
X166712042Y-117890000D01*
X167043958Y-117890000D01*
X167369496Y-117825246D01*
X167676147Y-117698228D01*
X167829958Y-117595454D01*
X167837463Y-117609494D01*
X167916815Y-117706185D01*
X168013506Y-117785537D01*
X168123820Y-117844502D01*
X168243518Y-117880812D01*
X168368000Y-117893072D01*
X169132250Y-117890000D01*
X169291000Y-117731250D01*
X169291000Y-116332000D01*
X169545000Y-116332000D01*
X169545000Y-117731250D01*
X169703750Y-117890000D01*
X170468000Y-117893072D01*
X170592482Y-117880812D01*
X170712180Y-117844502D01*
X170822494Y-117785537D01*
X170919185Y-117706185D01*
X170998537Y-117609494D01*
X171057502Y-117499180D01*
X171093812Y-117379482D01*
X171106072Y-117255000D01*
X171103000Y-116490750D01*
X170944250Y-116332000D01*
X169545000Y-116332000D01*
X169291000Y-116332000D01*
X169271000Y-116332000D01*
X169271000Y-116078000D01*
X169291000Y-116078000D01*
X169291000Y-113792000D01*
X169545000Y-113792000D01*
X169545000Y-116078000D01*
X170944250Y-116078000D01*
X171103000Y-115919250D01*
X171106072Y-115155000D01*
X171093812Y-115030518D01*
X171064837Y-114935000D01*
X171093812Y-114839482D01*
X171106072Y-114715000D01*
X171103000Y-113950750D01*
X170944250Y-113792000D01*
X169545000Y-113792000D01*
X169291000Y-113792000D01*
X169271000Y-113792000D01*
X169271000Y-113538000D01*
X169291000Y-113538000D01*
X169291000Y-111252000D01*
X169545000Y-111252000D01*
X169545000Y-113538000D01*
X170944250Y-113538000D01*
X171103000Y-113379250D01*
X171106072Y-112615000D01*
X171093812Y-112490518D01*
X171064837Y-112395000D01*
X171093812Y-112299482D01*
X171106072Y-112175000D01*
X171103000Y-111410750D01*
X170944250Y-111252000D01*
X169545000Y-111252000D01*
X169291000Y-111252000D01*
X169271000Y-111252000D01*
X169271000Y-110998000D01*
X169291000Y-110998000D01*
X169291000Y-108712000D01*
X169545000Y-108712000D01*
X169545000Y-110998000D01*
X170944250Y-110998000D01*
X171103000Y-110839250D01*
X171106072Y-110075000D01*
X171093812Y-109950518D01*
X171064837Y-109855000D01*
X171093812Y-109759482D01*
X171106072Y-109635000D01*
X171103000Y-108870750D01*
X170944250Y-108712000D01*
X169545000Y-108712000D01*
X169291000Y-108712000D01*
X169271000Y-108712000D01*
X169271000Y-108458000D01*
X169291000Y-108458000D01*
X169291000Y-106172000D01*
X169545000Y-106172000D01*
X169545000Y-108458000D01*
X170944250Y-108458000D01*
X171103000Y-108299250D01*
X171106072Y-107535000D01*
X171093812Y-107410518D01*
X171064837Y-107315000D01*
X171093812Y-107219482D01*
X171106072Y-107095000D01*
X171103000Y-106330750D01*
X170944250Y-106172000D01*
X169545000Y-106172000D01*
X169291000Y-106172000D01*
X169271000Y-106172000D01*
X169271000Y-105918000D01*
X169291000Y-105918000D01*
X169291000Y-103632000D01*
X169545000Y-103632000D01*
X169545000Y-105918000D01*
X170944250Y-105918000D01*
X171103000Y-105759250D01*
X171106072Y-104995000D01*
X171093812Y-104870518D01*
X171064837Y-104775000D01*
X171093812Y-104679482D01*
X171106072Y-104555000D01*
X171103000Y-103790750D01*
X170944250Y-103632000D01*
X169545000Y-103632000D01*
X169291000Y-103632000D01*
X169271000Y-103632000D01*
X169271000Y-103378000D01*
X169291000Y-103378000D01*
X169291000Y-101092000D01*
X169545000Y-101092000D01*
X169545000Y-103378000D01*
X170944250Y-103378000D01*
X171103000Y-103219250D01*
X171106072Y-102455000D01*
X171093812Y-102330518D01*
X171064837Y-102235000D01*
X171093812Y-102139482D01*
X171106072Y-102015000D01*
X171103000Y-101250750D01*
X170944250Y-101092000D01*
X169545000Y-101092000D01*
X169291000Y-101092000D01*
X169271000Y-101092000D01*
X169271000Y-100838000D01*
X169291000Y-100838000D01*
X169291000Y-98552000D01*
X169545000Y-98552000D01*
X169545000Y-100838000D01*
X170944250Y-100838000D01*
X171103000Y-100679250D01*
X171106072Y-99915000D01*
X171093812Y-99790518D01*
X171064837Y-99695000D01*
X171093812Y-99599482D01*
X171106072Y-99475000D01*
X171103000Y-98710750D01*
X170944250Y-98552000D01*
X169545000Y-98552000D01*
X169291000Y-98552000D01*
X169271000Y-98552000D01*
X169271000Y-98298000D01*
X169291000Y-98298000D01*
X169291000Y-96012000D01*
X169545000Y-96012000D01*
X169545000Y-98298000D01*
X170944250Y-98298000D01*
X171103000Y-98139250D01*
X171106072Y-97375000D01*
X171093812Y-97250518D01*
X171064837Y-97155000D01*
X171093812Y-97059482D01*
X171106072Y-96935000D01*
X171103000Y-96170750D01*
X170944250Y-96012000D01*
X169545000Y-96012000D01*
X169291000Y-96012000D01*
X169271000Y-96012000D01*
X169271000Y-95758000D01*
X169291000Y-95758000D01*
X169291000Y-93472000D01*
X169545000Y-93472000D01*
X169545000Y-95758000D01*
X170944250Y-95758000D01*
X171103000Y-95599250D01*
X171106072Y-94835000D01*
X171093812Y-94710518D01*
X171064837Y-94615000D01*
X171093812Y-94519482D01*
X171106072Y-94395000D01*
X171103000Y-93630750D01*
X170944250Y-93472000D01*
X169545000Y-93472000D01*
X169291000Y-93472000D01*
X169271000Y-93472000D01*
X169271000Y-93218000D01*
X169291000Y-93218000D01*
X169291000Y-91818750D01*
X169545000Y-91818750D01*
X169545000Y-93218000D01*
X170944250Y-93218000D01*
X171103000Y-93059250D01*
X171106072Y-92295000D01*
X171093812Y-92170518D01*
X171057502Y-92050820D01*
X170998537Y-91940506D01*
X170919185Y-91843815D01*
X170822494Y-91764463D01*
X170712180Y-91705498D01*
X170592482Y-91669188D01*
X170468000Y-91656928D01*
X169703750Y-91660000D01*
X169545000Y-91818750D01*
X169291000Y-91818750D01*
X169132250Y-91660000D01*
X168368000Y-91656928D01*
X168243518Y-91669188D01*
X168123820Y-91705498D01*
X168013506Y-91764463D01*
X167916815Y-91843815D01*
X167837463Y-91940506D01*
X167829958Y-91954546D01*
X167676147Y-91851772D01*
X167369496Y-91724754D01*
X167043958Y-91660000D01*
X166712042Y-91660000D01*
X166386504Y-91724754D01*
X166079853Y-91851772D01*
X165803875Y-92036175D01*
X165608000Y-92232050D01*
X165412125Y-92036175D01*
X165136147Y-91851772D01*
X164829496Y-91724754D01*
X164503958Y-91660000D01*
X164172042Y-91660000D01*
X163846504Y-91724754D01*
X163539853Y-91851772D01*
X163263875Y-92036175D01*
X163068000Y-92232050D01*
X162872125Y-92036175D01*
X162749121Y-91953986D01*
X162951475Y-91751632D01*
X163026065Y-91640000D01*
X171592133Y-91640000D01*
X172413000Y-92460869D01*
%TA.AperFunction,Conductor*%
D26*
G36*
X172413000Y-92460869D02*
G01*
X172413001Y-122189131D01*
X172370449Y-122231683D01*
X172251776Y-122195684D01*
X171958000Y-122166749D01*
X171664223Y-122195684D01*
X171381736Y-122281375D01*
X171121394Y-122420531D01*
X170893203Y-122607803D01*
X170705931Y-122835995D01*
X170688000Y-122869541D01*
X170670069Y-122835994D01*
X170482797Y-122607803D01*
X170254605Y-122420531D01*
X169994263Y-122281375D01*
X169711776Y-122195684D01*
X169418000Y-122166749D01*
X169124223Y-122195684D01*
X168841736Y-122281375D01*
X168581394Y-122420531D01*
X168353203Y-122607803D01*
X168165931Y-122835995D01*
X168148000Y-122869541D01*
X168130069Y-122835994D01*
X167942797Y-122607803D01*
X167714605Y-122420531D01*
X167713000Y-122419673D01*
X167713000Y-120286018D01*
X167717040Y-120245000D01*
X167713000Y-120203981D01*
X167700918Y-120081311D01*
X167653172Y-119923913D01*
X167575636Y-119778854D01*
X167514238Y-119704040D01*
X167497439Y-119683570D01*
X167497437Y-119683568D01*
X167471291Y-119651709D01*
X167439433Y-119625564D01*
X166117446Y-118303578D01*
X166091291Y-118271709D01*
X165964146Y-118167364D01*
X165819087Y-118089828D01*
X165661689Y-118042082D01*
X165539019Y-118030000D01*
X165539018Y-118030000D01*
X165498000Y-118025960D01*
X165456982Y-118030000D01*
X143843869Y-118030000D01*
X143346977Y-117533109D01*
X143361072Y-117390000D01*
X143361072Y-116990000D01*
X143344969Y-116826500D01*
X143297278Y-116669284D01*
X143219831Y-116524392D01*
X143115606Y-116397394D01*
X143088319Y-116375000D01*
X144869928Y-116375000D01*
X144869928Y-116730000D01*
X144892276Y-116956904D01*
X144958462Y-117175088D01*
X145065941Y-117376168D01*
X145210584Y-117552416D01*
X145386832Y-117697059D01*
X145587912Y-117804538D01*
X145806096Y-117870724D01*
X146033000Y-117893072D01*
X147083000Y-117893072D01*
X147309904Y-117870724D01*
X147528088Y-117804538D01*
X147729168Y-117697059D01*
X147905416Y-117552416D01*
X147976207Y-117466157D01*
X148023875Y-117513825D01*
X148299853Y-117698228D01*
X148606504Y-117825246D01*
X148932042Y-117890000D01*
X149263958Y-117890000D01*
X149589496Y-117825246D01*
X149896147Y-117698228D01*
X150172125Y-117513825D01*
X150368000Y-117317950D01*
X150563875Y-117513825D01*
X150839853Y-117698228D01*
X151146504Y-117825246D01*
X151472042Y-117890000D01*
X151803958Y-117890000D01*
X152129496Y-117825246D01*
X152436147Y-117698228D01*
X152712125Y-117513825D01*
X152908000Y-117317950D01*
X153103875Y-117513825D01*
X153379853Y-117698228D01*
X153686504Y-117825246D01*
X154012042Y-117890000D01*
X154343958Y-117890000D01*
X154669496Y-117825246D01*
X154976147Y-117698228D01*
X155252125Y-117513825D01*
X155448000Y-117317950D01*
X155643875Y-117513825D01*
X155919853Y-117698228D01*
X156226504Y-117825246D01*
X156552042Y-117890000D01*
X156883958Y-117890000D01*
X157209496Y-117825246D01*
X157516147Y-117698228D01*
X157792125Y-117513825D01*
X157988000Y-117317950D01*
X158183875Y-117513825D01*
X158459853Y-117698228D01*
X158766504Y-117825246D01*
X159092042Y-117890000D01*
X159423958Y-117890000D01*
X159749496Y-117825246D01*
X160056147Y-117698228D01*
X160332125Y-117513825D01*
X160528000Y-117317950D01*
X160723875Y-117513825D01*
X160999853Y-117698228D01*
X161306504Y-117825246D01*
X161632042Y-117890000D01*
X161963958Y-117890000D01*
X162289496Y-117825246D01*
X162596147Y-117698228D01*
X162872125Y-117513825D01*
X163068000Y-117317950D01*
X163263875Y-117513825D01*
X163539853Y-117698228D01*
X163846504Y-117825246D01*
X164172042Y-117890000D01*
X164503958Y-117890000D01*
X164829496Y-117825246D01*
X165136147Y-117698228D01*
X165412125Y-117513825D01*
X165608000Y-117317950D01*
X165803875Y-117513825D01*
X166079853Y-117698228D01*
X166386504Y-117825246D01*
X166712042Y-117890000D01*
X167043958Y-117890000D01*
X167369496Y-117825246D01*
X167676147Y-117698228D01*
X167829958Y-117595454D01*
X167837463Y-117609494D01*
X167916815Y-117706185D01*
X168013506Y-117785537D01*
X168123820Y-117844502D01*
X168243518Y-117880812D01*
X168368000Y-117893072D01*
X169132250Y-117890000D01*
X169291000Y-117731250D01*
X169291000Y-116332000D01*
X169545000Y-116332000D01*
X169545000Y-117731250D01*
X169703750Y-117890000D01*
X170468000Y-117893072D01*
X170592482Y-117880812D01*
X170712180Y-117844502D01*
X170822494Y-117785537D01*
X170919185Y-117706185D01*
X170998537Y-117609494D01*
X171057502Y-117499180D01*
X171093812Y-117379482D01*
X171106072Y-117255000D01*
X171103000Y-116490750D01*
X170944250Y-116332000D01*
X169545000Y-116332000D01*
X169291000Y-116332000D01*
X169271000Y-116332000D01*
X169271000Y-116078000D01*
X169291000Y-116078000D01*
X169291000Y-113792000D01*
X169545000Y-113792000D01*
X169545000Y-116078000D01*
X170944250Y-116078000D01*
X171103000Y-115919250D01*
X171106072Y-115155000D01*
X171093812Y-115030518D01*
X171064837Y-114935000D01*
X171093812Y-114839482D01*
X171106072Y-114715000D01*
X171103000Y-113950750D01*
X170944250Y-113792000D01*
X169545000Y-113792000D01*
X169291000Y-113792000D01*
X169271000Y-113792000D01*
X169271000Y-113538000D01*
X169291000Y-113538000D01*
X169291000Y-111252000D01*
X169545000Y-111252000D01*
X169545000Y-113538000D01*
X170944250Y-113538000D01*
X171103000Y-113379250D01*
X171106072Y-112615000D01*
X171093812Y-112490518D01*
X171064837Y-112395000D01*
X171093812Y-112299482D01*
X171106072Y-112175000D01*
X171103000Y-111410750D01*
X170944250Y-111252000D01*
X169545000Y-111252000D01*
X169291000Y-111252000D01*
X169271000Y-111252000D01*
X169271000Y-110998000D01*
X169291000Y-110998000D01*
X169291000Y-108712000D01*
X169545000Y-108712000D01*
X169545000Y-110998000D01*
X170944250Y-110998000D01*
X171103000Y-110839250D01*
X171106072Y-110075000D01*
X171093812Y-109950518D01*
X171064837Y-109855000D01*
X171093812Y-109759482D01*
X171106072Y-109635000D01*
X171103000Y-108870750D01*
X170944250Y-108712000D01*
X169545000Y-108712000D01*
X169291000Y-108712000D01*
X169271000Y-108712000D01*
X169271000Y-108458000D01*
X169291000Y-108458000D01*
X169291000Y-106172000D01*
X169545000Y-106172000D01*
X169545000Y-108458000D01*
X170944250Y-108458000D01*
X171103000Y-108299250D01*
X171106072Y-107535000D01*
X171093812Y-107410518D01*
X171064837Y-107315000D01*
X171093812Y-107219482D01*
X171106072Y-107095000D01*
X171103000Y-106330750D01*
X170944250Y-106172000D01*
X169545000Y-106172000D01*
X169291000Y-106172000D01*
X169271000Y-106172000D01*
X169271000Y-105918000D01*
X169291000Y-105918000D01*
X169291000Y-103632000D01*
X169545000Y-103632000D01*
X169545000Y-105918000D01*
X170944250Y-105918000D01*
X171103000Y-105759250D01*
X171106072Y-104995000D01*
X171093812Y-104870518D01*
X171064837Y-104775000D01*
X171093812Y-104679482D01*
X171106072Y-104555000D01*
X171103000Y-103790750D01*
X170944250Y-103632000D01*
X169545000Y-103632000D01*
X169291000Y-103632000D01*
X169271000Y-103632000D01*
X169271000Y-103378000D01*
X169291000Y-103378000D01*
X169291000Y-101092000D01*
X169545000Y-101092000D01*
X169545000Y-103378000D01*
X170944250Y-103378000D01*
X171103000Y-103219250D01*
X171106072Y-102455000D01*
X171093812Y-102330518D01*
X171064837Y-102235000D01*
X171093812Y-102139482D01*
X171106072Y-102015000D01*
X171103000Y-101250750D01*
X170944250Y-101092000D01*
X169545000Y-101092000D01*
X169291000Y-101092000D01*
X169271000Y-101092000D01*
X169271000Y-100838000D01*
X169291000Y-100838000D01*
X169291000Y-98552000D01*
X169545000Y-98552000D01*
X169545000Y-100838000D01*
X170944250Y-100838000D01*
X171103000Y-100679250D01*
X171106072Y-99915000D01*
X171093812Y-99790518D01*
X171064837Y-99695000D01*
X171093812Y-99599482D01*
X171106072Y-99475000D01*
X171103000Y-98710750D01*
X170944250Y-98552000D01*
X169545000Y-98552000D01*
X169291000Y-98552000D01*
X169271000Y-98552000D01*
X169271000Y-98298000D01*
X169291000Y-98298000D01*
X169291000Y-96012000D01*
X169545000Y-96012000D01*
X169545000Y-98298000D01*
X170944250Y-98298000D01*
X171103000Y-98139250D01*
X171106072Y-97375000D01*
X171093812Y-97250518D01*
X171064837Y-97155000D01*
X171093812Y-97059482D01*
X171106072Y-96935000D01*
X171103000Y-96170750D01*
X170944250Y-96012000D01*
X169545000Y-96012000D01*
X169291000Y-96012000D01*
X169271000Y-96012000D01*
X169271000Y-95758000D01*
X169291000Y-95758000D01*
X169291000Y-93472000D01*
X169545000Y-93472000D01*
X169545000Y-95758000D01*
X170944250Y-95758000D01*
X171103000Y-95599250D01*
X171106072Y-94835000D01*
X171093812Y-94710518D01*
X171064837Y-94615000D01*
X171093812Y-94519482D01*
X171106072Y-94395000D01*
X171103000Y-93630750D01*
X170944250Y-93472000D01*
X169545000Y-93472000D01*
X169291000Y-93472000D01*
X169271000Y-93472000D01*
X169271000Y-93218000D01*
X169291000Y-93218000D01*
X169291000Y-91818750D01*
X169545000Y-91818750D01*
X169545000Y-93218000D01*
X170944250Y-93218000D01*
X171103000Y-93059250D01*
X171106072Y-92295000D01*
X171093812Y-92170518D01*
X171057502Y-92050820D01*
X170998537Y-91940506D01*
X170919185Y-91843815D01*
X170822494Y-91764463D01*
X170712180Y-91705498D01*
X170592482Y-91669188D01*
X170468000Y-91656928D01*
X169703750Y-91660000D01*
X169545000Y-91818750D01*
X169291000Y-91818750D01*
X169132250Y-91660000D01*
X168368000Y-91656928D01*
X168243518Y-91669188D01*
X168123820Y-91705498D01*
X168013506Y-91764463D01*
X167916815Y-91843815D01*
X167837463Y-91940506D01*
X167829958Y-91954546D01*
X167676147Y-91851772D01*
X167369496Y-91724754D01*
X167043958Y-91660000D01*
X166712042Y-91660000D01*
X166386504Y-91724754D01*
X166079853Y-91851772D01*
X165803875Y-92036175D01*
X165608000Y-92232050D01*
X165412125Y-92036175D01*
X165136147Y-91851772D01*
X164829496Y-91724754D01*
X164503958Y-91660000D01*
X164172042Y-91660000D01*
X163846504Y-91724754D01*
X163539853Y-91851772D01*
X163263875Y-92036175D01*
X163068000Y-92232050D01*
X162872125Y-92036175D01*
X162749121Y-91953986D01*
X162951475Y-91751632D01*
X163026065Y-91640000D01*
X171592133Y-91640000D01*
X172413000Y-92460869D01*
G37*
%TD.AperFunction*%
D25*
X128257392Y-86086831D02*
X128402284Y-86164278D01*
X128559500Y-86211969D01*
X128723000Y-86228072D01*
X128888011Y-86228072D01*
X128888010Y-86771740D01*
X128771000Y-86888750D01*
X128771000Y-87492000D01*
X128795000Y-87492000D01*
X128795000Y-87738000D01*
X128771000Y-87738000D01*
X128771000Y-88341250D01*
X128888010Y-88458260D01*
X128888010Y-89219122D01*
X128855204Y-89251928D01*
X128723000Y-89251928D01*
X128559500Y-89268031D01*
X128402284Y-89315722D01*
X128257392Y-89393169D01*
X128130394Y-89497394D01*
X128026169Y-89624392D01*
X127948722Y-89769284D01*
X127901031Y-89926500D01*
X127884928Y-90090000D01*
X127884928Y-90640000D01*
X127901031Y-90803500D01*
X127948722Y-90960716D01*
X128026169Y-91105608D01*
X128130394Y-91232606D01*
X128257392Y-91336831D01*
X128402284Y-91414278D01*
X128559500Y-91461969D01*
X128723000Y-91478072D01*
X128855204Y-91478072D01*
X128888011Y-91510879D01*
X128888011Y-91751928D01*
X128723000Y-91751928D01*
X128559500Y-91768031D01*
X128402284Y-91815722D01*
X128257392Y-91893169D01*
X128130394Y-91997394D01*
X128026169Y-92124392D01*
X127948722Y-92269284D01*
X127901031Y-92426500D01*
X127884928Y-92590000D01*
X127884928Y-92722203D01*
X125436574Y-95170559D01*
X125404710Y-95196709D01*
X125378562Y-95228571D01*
X125300364Y-95323855D01*
X125222828Y-95468914D01*
X125186072Y-95590083D01*
X125186072Y-93647796D01*
X126309427Y-92524441D01*
X126341291Y-92498291D01*
X126445636Y-92371146D01*
X126523172Y-92226087D01*
X126570918Y-92068689D01*
X126583000Y-91946019D01*
X126583000Y-91946009D01*
X126587039Y-91905001D01*
X126583000Y-91863993D01*
X126583000Y-87896750D01*
X127763000Y-87896750D01*
X127768952Y-87971934D01*
X127801901Y-88092600D01*
X127857757Y-88204520D01*
X127934375Y-88303392D01*
X128028810Y-88385417D01*
X128137432Y-88447443D01*
X128256068Y-88487086D01*
X128366250Y-88500000D01*
X128525000Y-88341250D01*
X128525000Y-87738000D01*
X127921750Y-87738000D01*
X127763000Y-87896750D01*
X126583000Y-87896750D01*
X126583000Y-87710867D01*
X126960617Y-87333250D01*
X127763000Y-87333250D01*
X127921750Y-87492000D01*
X128525000Y-87492000D01*
X128525000Y-86888750D01*
X128366250Y-86730000D01*
X128256068Y-86742914D01*
X128137432Y-86782557D01*
X128028810Y-86844583D01*
X127934375Y-86926608D01*
X127857757Y-87025480D01*
X127801901Y-87137400D01*
X127768952Y-87258066D01*
X127763000Y-87333250D01*
X126960617Y-87333250D01*
X128229735Y-86064134D01*
X128257392Y-86086831D01*
%TA.AperFunction,Conductor*%
D26*
G36*
X128257392Y-86086831D02*
G01*
X128402284Y-86164278D01*
X128559500Y-86211969D01*
X128723000Y-86228072D01*
X128888011Y-86228072D01*
X128888010Y-86771740D01*
X128771000Y-86888750D01*
X128771000Y-87492000D01*
X128795000Y-87492000D01*
X128795000Y-87738000D01*
X128771000Y-87738000D01*
X128771000Y-88341250D01*
X128888010Y-88458260D01*
X128888010Y-89219122D01*
X128855204Y-89251928D01*
X128723000Y-89251928D01*
X128559500Y-89268031D01*
X128402284Y-89315722D01*
X128257392Y-89393169D01*
X128130394Y-89497394D01*
X128026169Y-89624392D01*
X127948722Y-89769284D01*
X127901031Y-89926500D01*
X127884928Y-90090000D01*
X127884928Y-90640000D01*
X127901031Y-90803500D01*
X127948722Y-90960716D01*
X128026169Y-91105608D01*
X128130394Y-91232606D01*
X128257392Y-91336831D01*
X128402284Y-91414278D01*
X128559500Y-91461969D01*
X128723000Y-91478072D01*
X128855204Y-91478072D01*
X128888011Y-91510879D01*
X128888011Y-91751928D01*
X128723000Y-91751928D01*
X128559500Y-91768031D01*
X128402284Y-91815722D01*
X128257392Y-91893169D01*
X128130394Y-91997394D01*
X128026169Y-92124392D01*
X127948722Y-92269284D01*
X127901031Y-92426500D01*
X127884928Y-92590000D01*
X127884928Y-92722203D01*
X125436574Y-95170559D01*
X125404710Y-95196709D01*
X125378562Y-95228571D01*
X125300364Y-95323855D01*
X125222828Y-95468914D01*
X125186072Y-95590083D01*
X125186072Y-93647796D01*
X126309427Y-92524441D01*
X126341291Y-92498291D01*
X126445636Y-92371146D01*
X126523172Y-92226087D01*
X126570918Y-92068689D01*
X126583000Y-91946019D01*
X126583000Y-91946009D01*
X126587039Y-91905001D01*
X126583000Y-91863993D01*
X126583000Y-87896750D01*
X127763000Y-87896750D01*
X127768952Y-87971934D01*
X127801901Y-88092600D01*
X127857757Y-88204520D01*
X127934375Y-88303392D01*
X128028810Y-88385417D01*
X128137432Y-88447443D01*
X128256068Y-88487086D01*
X128366250Y-88500000D01*
X128525000Y-88341250D01*
X128525000Y-87738000D01*
X127921750Y-87738000D01*
X127763000Y-87896750D01*
X126583000Y-87896750D01*
X126583000Y-87710867D01*
X126960617Y-87333250D01*
X127763000Y-87333250D01*
X127921750Y-87492000D01*
X128525000Y-87492000D01*
X128525000Y-86888750D01*
X128366250Y-86730000D01*
X128256068Y-86742914D01*
X128137432Y-86782557D01*
X128028810Y-86844583D01*
X127934375Y-86926608D01*
X127857757Y-87025480D01*
X127801901Y-87137400D01*
X127768952Y-87258066D01*
X127763000Y-87333250D01*
X126960617Y-87333250D01*
X128229735Y-86064134D01*
X128257392Y-86086831D01*
G37*
%TD.AperFunction*%
D25*
X163085931Y-76554006D02*
X163273203Y-76782197D01*
X163501395Y-76969469D01*
X163503001Y-76970327D01*
X163503000Y-84429132D01*
X162652133Y-85280000D01*
X146039018Y-85280000D01*
X145998000Y-85275960D01*
X145834311Y-85292082D01*
X145676913Y-85339828D01*
X145531854Y-85417364D01*
X145462202Y-85474526D01*
X145404709Y-85521709D01*
X145378563Y-85553568D01*
X141686574Y-89245559D01*
X141654710Y-89271709D01*
X141598806Y-89339828D01*
X141550364Y-89398855D01*
X141472828Y-89543914D01*
X141425082Y-89701312D01*
X141408960Y-89865000D01*
X141413001Y-89906028D01*
X141413000Y-94269132D01*
X141152133Y-94530000D01*
X137142365Y-94530000D01*
X137115606Y-94497394D01*
X136988608Y-94393169D01*
X136843716Y-94315722D01*
X136686500Y-94268031D01*
X136523000Y-94251928D01*
X136357990Y-94251928D01*
X136357990Y-92742000D01*
X136575000Y-92742000D01*
X136575000Y-93541250D01*
X136733750Y-93700000D01*
X136848000Y-93703072D01*
X136972482Y-93690812D01*
X137092180Y-93654502D01*
X137202494Y-93595537D01*
X137299185Y-93516185D01*
X137378537Y-93419494D01*
X137437502Y-93309180D01*
X137473812Y-93189482D01*
X137486072Y-93065000D01*
X137483000Y-92900750D01*
X137324250Y-92742000D01*
X136575000Y-92742000D01*
X136357990Y-92742000D01*
X136357990Y-92468000D01*
X136575000Y-92468000D01*
X136575000Y-92488000D01*
X137324250Y-92488000D01*
X137483000Y-92329250D01*
X137486072Y-92165000D01*
X137473812Y-92040518D01*
X137437502Y-91920820D01*
X137378537Y-91810506D01*
X137299185Y-91713815D01*
X137202494Y-91634463D01*
X137092180Y-91575498D01*
X137091605Y-91575324D01*
X137120919Y-91478688D01*
X137133001Y-91356018D01*
X137137041Y-91315000D01*
X137133001Y-91273981D01*
X137133001Y-89206008D01*
X137137040Y-89165000D01*
X137133001Y-89123992D01*
X137133001Y-89123982D01*
X137120919Y-89001312D01*
X137073173Y-88843914D01*
X136995637Y-88698855D01*
X136929590Y-88618377D01*
X136988608Y-88586831D01*
X137115606Y-88482606D01*
X137142365Y-88450000D01*
X141456982Y-88450000D01*
X141498000Y-88454040D01*
X141539018Y-88450000D01*
X141539019Y-88450000D01*
X141661689Y-88437918D01*
X141819087Y-88390172D01*
X141964146Y-88312636D01*
X142091291Y-88208291D01*
X142117446Y-88176421D01*
X145093868Y-85200000D01*
X159956982Y-85200000D01*
X159998000Y-85204040D01*
X160039018Y-85200000D01*
X160039019Y-85200000D01*
X160161689Y-85187918D01*
X160319087Y-85140172D01*
X160464146Y-85062636D01*
X160591291Y-84958291D01*
X160617446Y-84926421D01*
X162359428Y-83184440D01*
X162391291Y-83158291D01*
X162495636Y-83031146D01*
X162573172Y-82886087D01*
X162620918Y-82728689D01*
X162633000Y-82606019D01*
X162633000Y-82606009D01*
X162637039Y-82565001D01*
X162633000Y-82523993D01*
X162633000Y-76970327D01*
X162634606Y-76969469D01*
X162862797Y-76782197D01*
X163050069Y-76554006D01*
X163068000Y-76520459D01*
X163085931Y-76554006D01*
%TA.AperFunction,Conductor*%
D26*
G36*
X163085931Y-76554006D02*
G01*
X163273203Y-76782197D01*
X163501395Y-76969469D01*
X163503001Y-76970327D01*
X163503000Y-84429132D01*
X162652133Y-85280000D01*
X146039018Y-85280000D01*
X145998000Y-85275960D01*
X145834311Y-85292082D01*
X145676913Y-85339828D01*
X145531854Y-85417364D01*
X145462202Y-85474526D01*
X145404709Y-85521709D01*
X145378563Y-85553568D01*
X141686574Y-89245559D01*
X141654710Y-89271709D01*
X141598806Y-89339828D01*
X141550364Y-89398855D01*
X141472828Y-89543914D01*
X141425082Y-89701312D01*
X141408960Y-89865000D01*
X141413001Y-89906028D01*
X141413000Y-94269132D01*
X141152133Y-94530000D01*
X137142365Y-94530000D01*
X137115606Y-94497394D01*
X136988608Y-94393169D01*
X136843716Y-94315722D01*
X136686500Y-94268031D01*
X136523000Y-94251928D01*
X136357990Y-94251928D01*
X136357990Y-92742000D01*
X136575000Y-92742000D01*
X136575000Y-93541250D01*
X136733750Y-93700000D01*
X136848000Y-93703072D01*
X136972482Y-93690812D01*
X137092180Y-93654502D01*
X137202494Y-93595537D01*
X137299185Y-93516185D01*
X137378537Y-93419494D01*
X137437502Y-93309180D01*
X137473812Y-93189482D01*
X137486072Y-93065000D01*
X137483000Y-92900750D01*
X137324250Y-92742000D01*
X136575000Y-92742000D01*
X136357990Y-92742000D01*
X136357990Y-92468000D01*
X136575000Y-92468000D01*
X136575000Y-92488000D01*
X137324250Y-92488000D01*
X137483000Y-92329250D01*
X137486072Y-92165000D01*
X137473812Y-92040518D01*
X137437502Y-91920820D01*
X137378537Y-91810506D01*
X137299185Y-91713815D01*
X137202494Y-91634463D01*
X137092180Y-91575498D01*
X137091605Y-91575324D01*
X137120919Y-91478688D01*
X137133001Y-91356018D01*
X137137041Y-91315000D01*
X137133001Y-91273981D01*
X137133001Y-89206008D01*
X137137040Y-89165000D01*
X137133001Y-89123992D01*
X137133001Y-89123982D01*
X137120919Y-89001312D01*
X137073173Y-88843914D01*
X136995637Y-88698855D01*
X136929590Y-88618377D01*
X136988608Y-88586831D01*
X137115606Y-88482606D01*
X137142365Y-88450000D01*
X141456982Y-88450000D01*
X141498000Y-88454040D01*
X141539018Y-88450000D01*
X141539019Y-88450000D01*
X141661689Y-88437918D01*
X141819087Y-88390172D01*
X141964146Y-88312636D01*
X142091291Y-88208291D01*
X142117446Y-88176421D01*
X145093868Y-85200000D01*
X159956982Y-85200000D01*
X159998000Y-85204040D01*
X160039018Y-85200000D01*
X160039019Y-85200000D01*
X160161689Y-85187918D01*
X160319087Y-85140172D01*
X160464146Y-85062636D01*
X160591291Y-84958291D01*
X160617446Y-84926421D01*
X162359428Y-83184440D01*
X162391291Y-83158291D01*
X162495636Y-83031146D01*
X162573172Y-82886087D01*
X162620918Y-82728689D01*
X162633000Y-82606019D01*
X162633000Y-82606009D01*
X162637039Y-82565001D01*
X162633000Y-82523993D01*
X162633000Y-76970327D01*
X162634606Y-76969469D01*
X162862797Y-76782197D01*
X163050069Y-76554006D01*
X163068000Y-76520459D01*
X163085931Y-76554006D01*
G37*
%TD.AperFunction*%
D25*
X160545931Y-76554006D02*
X160733203Y-76782197D01*
X160961395Y-76969469D01*
X160963001Y-76970327D01*
X160963000Y-82219132D01*
X159652133Y-83530000D01*
X144789018Y-83530000D01*
X144747999Y-83525960D01*
X144706981Y-83530000D01*
X144584311Y-83542082D01*
X144426913Y-83589828D01*
X144281854Y-83667364D01*
X144154709Y-83771709D01*
X144128561Y-83803571D01*
X141152133Y-86780000D01*
X137142365Y-86780000D01*
X137115606Y-86747394D01*
X136988608Y-86643169D01*
X136843716Y-86565722D01*
X136686500Y-86518031D01*
X136523000Y-86501928D01*
X136333000Y-86501928D01*
X136333000Y-84992000D01*
X136575000Y-84992000D01*
X136575000Y-85791250D01*
X136733750Y-85950000D01*
X136848000Y-85953072D01*
X136972482Y-85940812D01*
X137092180Y-85904502D01*
X137202494Y-85845537D01*
X137299185Y-85766185D01*
X137378537Y-85669494D01*
X137437502Y-85559180D01*
X137473812Y-85439482D01*
X137486072Y-85315000D01*
X137483000Y-85150750D01*
X137324250Y-84992000D01*
X136575000Y-84992000D01*
X136333000Y-84992000D01*
X136333000Y-83938750D01*
X136575000Y-83938750D01*
X136575000Y-84738000D01*
X137324250Y-84738000D01*
X137483000Y-84579250D01*
X137486072Y-84415000D01*
X137473812Y-84290518D01*
X137437502Y-84170820D01*
X137378537Y-84060506D01*
X137299185Y-83963815D01*
X137202494Y-83884463D01*
X137092180Y-83825498D01*
X136972482Y-83789188D01*
X136848000Y-83776928D01*
X136733750Y-83780000D01*
X136575000Y-83938750D01*
X136333000Y-83938750D01*
X136333000Y-83779468D01*
X136349185Y-83766185D01*
X136428537Y-83669494D01*
X136487502Y-83559180D01*
X136523812Y-83439482D01*
X136536072Y-83315000D01*
X136536072Y-82415000D01*
X136523812Y-82290518D01*
X136487502Y-82170820D01*
X136428537Y-82060506D01*
X136349185Y-81963815D01*
X136252494Y-81884463D01*
X136142180Y-81825498D01*
X136022482Y-81789188D01*
X135898000Y-81776928D01*
X135098000Y-81776928D01*
X134973518Y-81789188D01*
X134853820Y-81825498D01*
X134743506Y-81884463D01*
X134646815Y-81963815D01*
X134592499Y-82030000D01*
X131550529Y-82030000D01*
X131547278Y-82019284D01*
X131469831Y-81874392D01*
X131365606Y-81747394D01*
X131238608Y-81643169D01*
X131093716Y-81565722D01*
X130936500Y-81518031D01*
X130773000Y-81501928D01*
X130373000Y-81501928D01*
X130209500Y-81518031D01*
X130052284Y-81565722D01*
X129907392Y-81643169D01*
X129780394Y-81747394D01*
X129748000Y-81786866D01*
X129715606Y-81747394D01*
X129588608Y-81643169D01*
X129443716Y-81565722D01*
X129286500Y-81518031D01*
X129123000Y-81501928D01*
X128723000Y-81501928D01*
X128559500Y-81518031D01*
X128402284Y-81565722D01*
X128257392Y-81643169D01*
X128130394Y-81747394D01*
X128026169Y-81874392D01*
X127980808Y-81959257D01*
X127904709Y-82021709D01*
X127878563Y-82053568D01*
X125652133Y-84280000D01*
X122093867Y-84280000D01*
X122071939Y-84258072D01*
X122273000Y-84258072D01*
X122436500Y-84241969D01*
X122593716Y-84194278D01*
X122738608Y-84116831D01*
X122865606Y-84012606D01*
X122969831Y-83885608D01*
X123047278Y-83740716D01*
X123094969Y-83583500D01*
X123111072Y-83420000D01*
X123111072Y-82870000D01*
X123094969Y-82706500D01*
X123047278Y-82549284D01*
X123028923Y-82514944D01*
X124593869Y-80950000D01*
X156206982Y-80950000D01*
X156248000Y-80954040D01*
X156289018Y-80950000D01*
X156289019Y-80950000D01*
X156411689Y-80937918D01*
X156569087Y-80890172D01*
X156714146Y-80812636D01*
X156841291Y-80708291D01*
X156867446Y-80676421D01*
X159819433Y-77724436D01*
X159851291Y-77698291D01*
X159901925Y-77636594D01*
X159955636Y-77571146D01*
X160033172Y-77426087D01*
X160080918Y-77268689D01*
X160097040Y-77105000D01*
X160093000Y-77063982D01*
X160093000Y-76970327D01*
X160094606Y-76969469D01*
X160322797Y-76782197D01*
X160510069Y-76554006D01*
X160528000Y-76520459D01*
X160545931Y-76554006D01*
%TA.AperFunction,Conductor*%
D26*
G36*
X160545931Y-76554006D02*
G01*
X160733203Y-76782197D01*
X160961395Y-76969469D01*
X160963001Y-76970327D01*
X160963000Y-82219132D01*
X159652133Y-83530000D01*
X144789018Y-83530000D01*
X144747999Y-83525960D01*
X144706981Y-83530000D01*
X144584311Y-83542082D01*
X144426913Y-83589828D01*
X144281854Y-83667364D01*
X144154709Y-83771709D01*
X144128561Y-83803571D01*
X141152133Y-86780000D01*
X137142365Y-86780000D01*
X137115606Y-86747394D01*
X136988608Y-86643169D01*
X136843716Y-86565722D01*
X136686500Y-86518031D01*
X136523000Y-86501928D01*
X136333000Y-86501928D01*
X136333000Y-84992000D01*
X136575000Y-84992000D01*
X136575000Y-85791250D01*
X136733750Y-85950000D01*
X136848000Y-85953072D01*
X136972482Y-85940812D01*
X137092180Y-85904502D01*
X137202494Y-85845537D01*
X137299185Y-85766185D01*
X137378537Y-85669494D01*
X137437502Y-85559180D01*
X137473812Y-85439482D01*
X137486072Y-85315000D01*
X137483000Y-85150750D01*
X137324250Y-84992000D01*
X136575000Y-84992000D01*
X136333000Y-84992000D01*
X136333000Y-83938750D01*
X136575000Y-83938750D01*
X136575000Y-84738000D01*
X137324250Y-84738000D01*
X137483000Y-84579250D01*
X137486072Y-84415000D01*
X137473812Y-84290518D01*
X137437502Y-84170820D01*
X137378537Y-84060506D01*
X137299185Y-83963815D01*
X137202494Y-83884463D01*
X137092180Y-83825498D01*
X136972482Y-83789188D01*
X136848000Y-83776928D01*
X136733750Y-83780000D01*
X136575000Y-83938750D01*
X136333000Y-83938750D01*
X136333000Y-83779468D01*
X136349185Y-83766185D01*
X136428537Y-83669494D01*
X136487502Y-83559180D01*
X136523812Y-83439482D01*
X136536072Y-83315000D01*
X136536072Y-82415000D01*
X136523812Y-82290518D01*
X136487502Y-82170820D01*
X136428537Y-82060506D01*
X136349185Y-81963815D01*
X136252494Y-81884463D01*
X136142180Y-81825498D01*
X136022482Y-81789188D01*
X135898000Y-81776928D01*
X135098000Y-81776928D01*
X134973518Y-81789188D01*
X134853820Y-81825498D01*
X134743506Y-81884463D01*
X134646815Y-81963815D01*
X134592499Y-82030000D01*
X131550529Y-82030000D01*
X131547278Y-82019284D01*
X131469831Y-81874392D01*
X131365606Y-81747394D01*
X131238608Y-81643169D01*
X131093716Y-81565722D01*
X130936500Y-81518031D01*
X130773000Y-81501928D01*
X130373000Y-81501928D01*
X130209500Y-81518031D01*
X130052284Y-81565722D01*
X129907392Y-81643169D01*
X129780394Y-81747394D01*
X129748000Y-81786866D01*
X129715606Y-81747394D01*
X129588608Y-81643169D01*
X129443716Y-81565722D01*
X129286500Y-81518031D01*
X129123000Y-81501928D01*
X128723000Y-81501928D01*
X128559500Y-81518031D01*
X128402284Y-81565722D01*
X128257392Y-81643169D01*
X128130394Y-81747394D01*
X128026169Y-81874392D01*
X127980808Y-81959257D01*
X127904709Y-82021709D01*
X127878563Y-82053568D01*
X125652133Y-84280000D01*
X122093867Y-84280000D01*
X122071939Y-84258072D01*
X122273000Y-84258072D01*
X122436500Y-84241969D01*
X122593716Y-84194278D01*
X122738608Y-84116831D01*
X122865606Y-84012606D01*
X122969831Y-83885608D01*
X123047278Y-83740716D01*
X123094969Y-83583500D01*
X123111072Y-83420000D01*
X123111072Y-82870000D01*
X123094969Y-82706500D01*
X123047278Y-82549284D01*
X123028923Y-82514944D01*
X124593869Y-80950000D01*
X156206982Y-80950000D01*
X156248000Y-80954040D01*
X156289018Y-80950000D01*
X156289019Y-80950000D01*
X156411689Y-80937918D01*
X156569087Y-80890172D01*
X156714146Y-80812636D01*
X156841291Y-80708291D01*
X156867446Y-80676421D01*
X159819433Y-77724436D01*
X159851291Y-77698291D01*
X159901925Y-77636594D01*
X159955636Y-77571146D01*
X160033172Y-77426087D01*
X160080918Y-77268689D01*
X160097040Y-77105000D01*
X160093000Y-77063982D01*
X160093000Y-76970327D01*
X160094606Y-76969469D01*
X160322797Y-76782197D01*
X160510069Y-76554006D01*
X160528000Y-76520459D01*
X160545931Y-76554006D01*
G37*
%TD.AperFunction*%
%TD*%
M02*
