M48
; DRILL file {KiCad (5.1.10)-1} date 11/05/21 01:01:13
; FORMAT={-:-/ absolute / metric / decimal}
; #@! TF.CreationDate,2021-11-05T01:01:13-05:00
; #@! TF.GenerationSoftware,Kicad,Pcbnew,(5.1.10)-1
FMAT,2
METRIC
T1C0.400
T2C1.000
T3C1.016
T4C1.100
T5C1.200
T6C3.048
T7C1.500
%
G90
G05
T1
X126.998Y-88.365
X126.998Y-90.365
X126.998Y-92.365
X137.998Y-82.365
X137.998Y-85.365
X137.998Y-89.865
X137.998Y-93.365
X175.768Y-94.615
X175.768Y-114.935
X178.308Y-94.615
X178.308Y-114.935
T2
X154.178Y-90.805
X156.718Y-90.805
X159.258Y-90.805
X161.798Y-90.805
T3
X129.794Y-75.565
X132.334Y-75.565
X134.874Y-75.565
X137.414Y-75.565
X138.938Y-123.825
X139.954Y-75.565
X141.478Y-123.825
X142.494Y-75.565
X144.018Y-123.825
X145.034Y-75.565
X146.558Y-123.825
X147.574Y-75.565
X149.098Y-123.825
X150.114Y-75.565
X151.638Y-123.825
X152.654Y-75.565
X154.178Y-123.825
X156.718Y-75.565
X156.718Y-123.825
X159.258Y-75.565
X161.798Y-75.565
X161.798Y-123.825
X164.338Y-75.565
X164.338Y-123.825
X166.878Y-75.565
X166.878Y-123.825
X169.418Y-75.565
X169.418Y-123.825
X171.958Y-75.565
X171.958Y-123.825
X174.498Y-75.565
X174.498Y-123.825
T4
X146.558Y-93.345
X146.558Y-95.885
X146.558Y-98.425
X146.558Y-100.965
X146.558Y-103.505
X146.558Y-106.045
X146.558Y-108.585
X146.558Y-111.125
X146.558Y-113.665
X146.558Y-116.205
X149.098Y-93.345
X149.098Y-95.885
X149.098Y-98.425
X149.098Y-100.965
X149.098Y-103.505
X149.098Y-106.045
X149.098Y-108.585
X149.098Y-111.125
X149.098Y-113.665
X149.098Y-116.205
X151.638Y-93.345
X151.638Y-95.885
X151.638Y-98.425
X151.638Y-100.965
X151.638Y-103.505
X151.638Y-106.045
X151.638Y-108.585
X151.638Y-111.125
X151.638Y-113.665
X151.638Y-116.205
X154.178Y-93.345
X154.178Y-95.885
X154.178Y-98.425
X154.178Y-100.965
X154.178Y-103.505
X154.178Y-106.045
X154.178Y-108.585
X154.178Y-111.125
X154.178Y-113.665
X154.178Y-116.205
X156.718Y-93.345
X156.718Y-95.885
X156.718Y-98.425
X156.718Y-100.965
X156.718Y-103.505
X156.718Y-106.045
X156.718Y-108.585
X156.718Y-111.125
X156.718Y-113.665
X156.718Y-116.205
X159.258Y-93.345
X159.258Y-95.885
X159.258Y-98.425
X159.258Y-100.965
X159.258Y-103.505
X159.258Y-106.045
X159.258Y-108.585
X159.258Y-111.125
X159.258Y-113.665
X159.258Y-116.205
X161.798Y-93.345
X161.798Y-95.885
X161.798Y-98.425
X161.798Y-100.965
X161.798Y-103.505
X161.798Y-106.045
X161.798Y-108.585
X161.798Y-111.125
X161.798Y-113.665
X161.798Y-116.205
X164.338Y-93.345
X164.338Y-95.885
X164.338Y-98.425
X164.338Y-100.965
X164.338Y-103.505
X164.338Y-106.045
X164.338Y-108.585
X164.338Y-111.125
X164.338Y-113.665
X164.338Y-116.205
X166.878Y-93.345
X166.878Y-95.885
X166.878Y-98.425
X166.878Y-100.965
X166.878Y-103.505
X166.878Y-106.045
X166.878Y-108.585
X166.878Y-111.125
X166.878Y-113.665
X166.878Y-116.205
X169.418Y-93.345
X169.418Y-95.885
X169.418Y-98.425
X169.418Y-100.965
X169.418Y-103.505
X169.418Y-106.045
X169.418Y-108.585
X169.418Y-111.125
X169.418Y-113.665
X169.418Y-116.205
T5
X116.078Y-102.235
X116.078Y-105.735
X116.078Y-109.235
T6
X124.968Y-123.825
X126.238Y-75.565
X177.038Y-90.805
X177.038Y-118.745
T7
X112.573Y-90.805
X119.573Y-90.805
T0
M30
