%TF.GenerationSoftware,KiCad,Pcbnew,(5.1.10)-1*%
%TF.CreationDate,2021-11-05T01:01:10-05:00*%
%TF.ProjectId,KVLShield,4b564c53-6869-4656-9c64-2e6b69636164,1.0*%
%TF.SameCoordinates,Original*%
%TF.FileFunction,Soldermask,Top*%
%TF.FilePolarity,Negative*%
%FSLAX46Y46*%
G04 Gerber Fmt 4.6, Leading zero omitted, Abs format (unit mm)*
G04 Created by KiCad (PCBNEW (5.1.10)-1) date 2021-11-05 01:01:10*
%MOMM*%
%LPD*%
G01*
G04 APERTURE LIST*
%ADD10R,1.500000X1.500000*%
%ADD11C,1.500000*%
%ADD12R,1.200000X2.500000*%
%ADD13R,1.300000X1.550000*%
%ADD14R,0.800000X0.900000*%
%ADD15C,2.300000*%
%ADD16R,0.500000X0.500000*%
%ADD17O,3.600000X1.800000*%
%ADD18O,1.727200X2.032000*%
%ADD19C,4.064000*%
%ADD20R,1.700000X1.700000*%
%ADD21O,1.700000X1.700000*%
G04 APERTURE END LIST*
D10*
%TO.C,SW4*%
X137398000Y-116365000D03*
X129598000Y-116365000D03*
%TD*%
%TO.C,SW3*%
X137398000Y-108865000D03*
X129598000Y-108865000D03*
%TD*%
%TO.C,SW2*%
X137398000Y-101365000D03*
X129598000Y-101365000D03*
%TD*%
D11*
%TO.C,J3*%
X119573000Y-90805000D03*
X112573000Y-90805000D03*
D12*
X114173000Y-87555000D03*
X117173000Y-87555000D03*
X121173000Y-87555000D03*
X122273000Y-94055000D03*
%TD*%
D13*
%TO.C,SW1*%
X113828000Y-122720000D03*
X118328000Y-122720000D03*
X118328000Y-114770000D03*
X113828000Y-114770000D03*
%TD*%
D14*
%TO.C,Q1*%
X135498000Y-82865000D03*
X136448000Y-84865000D03*
X134548000Y-84865000D03*
%TD*%
D15*
%TO.C, *%
X166878000Y-111125000D03*
%TD*%
%TO.C, *%
X166878000Y-98425000D03*
%TD*%
%TO.C, *%
X166878000Y-108585000D03*
%TD*%
%TO.C, *%
X166878000Y-113665000D03*
%TD*%
%TO.C, *%
X166878000Y-116205000D03*
%TD*%
%TO.C, *%
X166878000Y-106045000D03*
%TD*%
%TO.C, *%
X166878000Y-103505000D03*
%TD*%
%TO.C, *%
X166878000Y-100965000D03*
%TD*%
%TO.C, *%
X166878000Y-95885000D03*
%TD*%
%TO.C, *%
X166878000Y-93345000D03*
%TD*%
%TO.C, *%
X164338000Y-111125000D03*
%TD*%
%TO.C, *%
X164338000Y-98425000D03*
%TD*%
%TO.C, *%
X164338000Y-108585000D03*
%TD*%
%TO.C, *%
X164338000Y-113665000D03*
%TD*%
%TO.C, *%
X164338000Y-116205000D03*
%TD*%
%TO.C, *%
X164338000Y-106045000D03*
%TD*%
%TO.C, *%
X164338000Y-103505000D03*
%TD*%
%TO.C, *%
X164338000Y-100965000D03*
%TD*%
%TO.C, *%
X164338000Y-95885000D03*
%TD*%
%TO.C, *%
X164338000Y-93345000D03*
%TD*%
%TO.C, *%
X161798000Y-111125000D03*
%TD*%
%TO.C, *%
X161798000Y-98425000D03*
%TD*%
%TO.C, *%
X161798000Y-108585000D03*
%TD*%
%TO.C, *%
X161798000Y-113665000D03*
%TD*%
%TO.C, *%
X161798000Y-116205000D03*
%TD*%
%TO.C, *%
X161798000Y-106045000D03*
%TD*%
%TO.C, *%
X161798000Y-103505000D03*
%TD*%
%TO.C, *%
X161798000Y-100965000D03*
%TD*%
%TO.C, *%
X161798000Y-95885000D03*
%TD*%
%TO.C, *%
X161798000Y-93345000D03*
%TD*%
%TO.C, *%
X159258000Y-111125000D03*
%TD*%
%TO.C, *%
X159258000Y-98425000D03*
%TD*%
%TO.C, *%
X159258000Y-108585000D03*
%TD*%
%TO.C, *%
X159258000Y-113665000D03*
%TD*%
%TO.C, *%
X159258000Y-116205000D03*
%TD*%
%TO.C, *%
X159258000Y-106045000D03*
%TD*%
%TO.C, *%
X159258000Y-103505000D03*
%TD*%
%TO.C, *%
X159258000Y-100965000D03*
%TD*%
%TO.C, *%
X159258000Y-95885000D03*
%TD*%
%TO.C, *%
X159258000Y-93345000D03*
%TD*%
%TO.C, *%
X156718000Y-111125000D03*
%TD*%
%TO.C, *%
X156718000Y-98425000D03*
%TD*%
%TO.C, *%
X156718000Y-108585000D03*
%TD*%
%TO.C, *%
X156718000Y-113665000D03*
%TD*%
%TO.C, *%
X156718000Y-116205000D03*
%TD*%
%TO.C, *%
X156718000Y-106045000D03*
%TD*%
%TO.C, *%
X156718000Y-103505000D03*
%TD*%
%TO.C, *%
X156718000Y-100965000D03*
%TD*%
%TO.C, *%
X156718000Y-95885000D03*
%TD*%
%TO.C, *%
X156718000Y-93345000D03*
%TD*%
%TO.C, *%
X154178000Y-111125000D03*
%TD*%
%TO.C, *%
X154178000Y-98425000D03*
%TD*%
%TO.C, *%
X154178000Y-108585000D03*
%TD*%
%TO.C, *%
X154178000Y-113665000D03*
%TD*%
%TO.C, *%
X154178000Y-116205000D03*
%TD*%
%TO.C, *%
X154178000Y-106045000D03*
%TD*%
%TO.C, *%
X154178000Y-103505000D03*
%TD*%
%TO.C, *%
X154178000Y-100965000D03*
%TD*%
%TO.C, *%
X154178000Y-95885000D03*
%TD*%
%TO.C, *%
X154178000Y-93345000D03*
%TD*%
%TO.C, *%
X151638000Y-111125000D03*
%TD*%
%TO.C, *%
X151638000Y-98425000D03*
%TD*%
%TO.C, *%
X151638000Y-108585000D03*
%TD*%
%TO.C, *%
X151638000Y-113665000D03*
%TD*%
%TO.C, *%
X151638000Y-116205000D03*
%TD*%
%TO.C, *%
X151638000Y-106045000D03*
%TD*%
%TO.C, *%
X151638000Y-103505000D03*
%TD*%
%TO.C, *%
X151638000Y-100965000D03*
%TD*%
%TO.C, *%
X151638000Y-95885000D03*
%TD*%
%TO.C, *%
X151638000Y-93345000D03*
%TD*%
%TO.C, *%
X149098000Y-116205000D03*
%TD*%
%TO.C, *%
X149098000Y-113665000D03*
%TD*%
%TO.C, *%
X149098000Y-111125000D03*
%TD*%
%TO.C, *%
X149098000Y-108585000D03*
%TD*%
%TO.C, *%
X149098000Y-106045000D03*
%TD*%
%TO.C, *%
X149098000Y-103505000D03*
%TD*%
%TO.C, *%
X149098000Y-100965000D03*
%TD*%
%TO.C, *%
X149098000Y-98425000D03*
%TD*%
%TO.C, *%
X149098000Y-95885000D03*
%TD*%
%TO.C, *%
G36*
G01*
X168268000Y-116780000D02*
X168268000Y-115630000D01*
G75*
G02*
X168843000Y-115055000I575000J0D01*
G01*
X169993000Y-115055000D01*
G75*
G02*
X170568000Y-115630000I0J-575000D01*
G01*
X170568000Y-116780000D01*
G75*
G02*
X169993000Y-117355000I-575000J0D01*
G01*
X168843000Y-117355000D01*
G75*
G02*
X168268000Y-116780000I0J575000D01*
G01*
G37*
%TD*%
%TO.C, *%
G36*
G01*
X168268000Y-114240000D02*
X168268000Y-113090000D01*
G75*
G02*
X168843000Y-112515000I575000J0D01*
G01*
X169993000Y-112515000D01*
G75*
G02*
X170568000Y-113090000I0J-575000D01*
G01*
X170568000Y-114240000D01*
G75*
G02*
X169993000Y-114815000I-575000J0D01*
G01*
X168843000Y-114815000D01*
G75*
G02*
X168268000Y-114240000I0J575000D01*
G01*
G37*
%TD*%
%TO.C, *%
G36*
G01*
X168268000Y-111700000D02*
X168268000Y-110550000D01*
G75*
G02*
X168843000Y-109975000I575000J0D01*
G01*
X169993000Y-109975000D01*
G75*
G02*
X170568000Y-110550000I0J-575000D01*
G01*
X170568000Y-111700000D01*
G75*
G02*
X169993000Y-112275000I-575000J0D01*
G01*
X168843000Y-112275000D01*
G75*
G02*
X168268000Y-111700000I0J575000D01*
G01*
G37*
%TD*%
%TO.C, *%
G36*
G01*
X168268000Y-109160000D02*
X168268000Y-108010000D01*
G75*
G02*
X168843000Y-107435000I575000J0D01*
G01*
X169993000Y-107435000D01*
G75*
G02*
X170568000Y-108010000I0J-575000D01*
G01*
X170568000Y-109160000D01*
G75*
G02*
X169993000Y-109735000I-575000J0D01*
G01*
X168843000Y-109735000D01*
G75*
G02*
X168268000Y-109160000I0J575000D01*
G01*
G37*
%TD*%
%TO.C, *%
G36*
G01*
X168268000Y-106620000D02*
X168268000Y-105470000D01*
G75*
G02*
X168843000Y-104895000I575000J0D01*
G01*
X169993000Y-104895000D01*
G75*
G02*
X170568000Y-105470000I0J-575000D01*
G01*
X170568000Y-106620000D01*
G75*
G02*
X169993000Y-107195000I-575000J0D01*
G01*
X168843000Y-107195000D01*
G75*
G02*
X168268000Y-106620000I0J575000D01*
G01*
G37*
%TD*%
%TO.C, *%
G36*
G01*
X168268000Y-104080000D02*
X168268000Y-102930000D01*
G75*
G02*
X168843000Y-102355000I575000J0D01*
G01*
X169993000Y-102355000D01*
G75*
G02*
X170568000Y-102930000I0J-575000D01*
G01*
X170568000Y-104080000D01*
G75*
G02*
X169993000Y-104655000I-575000J0D01*
G01*
X168843000Y-104655000D01*
G75*
G02*
X168268000Y-104080000I0J575000D01*
G01*
G37*
%TD*%
%TO.C, *%
G36*
G01*
X168268000Y-101540000D02*
X168268000Y-100390000D01*
G75*
G02*
X168843000Y-99815000I575000J0D01*
G01*
X169993000Y-99815000D01*
G75*
G02*
X170568000Y-100390000I0J-575000D01*
G01*
X170568000Y-101540000D01*
G75*
G02*
X169993000Y-102115000I-575000J0D01*
G01*
X168843000Y-102115000D01*
G75*
G02*
X168268000Y-101540000I0J575000D01*
G01*
G37*
%TD*%
%TO.C, *%
G36*
G01*
X168268000Y-99000000D02*
X168268000Y-97850000D01*
G75*
G02*
X168843000Y-97275000I575000J0D01*
G01*
X169993000Y-97275000D01*
G75*
G02*
X170568000Y-97850000I0J-575000D01*
G01*
X170568000Y-99000000D01*
G75*
G02*
X169993000Y-99575000I-575000J0D01*
G01*
X168843000Y-99575000D01*
G75*
G02*
X168268000Y-99000000I0J575000D01*
G01*
G37*
%TD*%
%TO.C, *%
G36*
G01*
X168268000Y-96460000D02*
X168268000Y-95310000D01*
G75*
G02*
X168843000Y-94735000I575000J0D01*
G01*
X169993000Y-94735000D01*
G75*
G02*
X170568000Y-95310000I0J-575000D01*
G01*
X170568000Y-96460000D01*
G75*
G02*
X169993000Y-97035000I-575000J0D01*
G01*
X168843000Y-97035000D01*
G75*
G02*
X168268000Y-96460000I0J575000D01*
G01*
G37*
%TD*%
%TO.C, *%
G36*
G01*
X145408000Y-116780000D02*
X145408000Y-115630000D01*
G75*
G02*
X145983000Y-115055000I575000J0D01*
G01*
X147133000Y-115055000D01*
G75*
G02*
X147708000Y-115630000I0J-575000D01*
G01*
X147708000Y-116780000D01*
G75*
G02*
X147133000Y-117355000I-575000J0D01*
G01*
X145983000Y-117355000D01*
G75*
G02*
X145408000Y-116780000I0J575000D01*
G01*
G37*
%TD*%
%TO.C, *%
G36*
G01*
X145408000Y-114240000D02*
X145408000Y-113090000D01*
G75*
G02*
X145983000Y-112515000I575000J0D01*
G01*
X147133000Y-112515000D01*
G75*
G02*
X147708000Y-113090000I0J-575000D01*
G01*
X147708000Y-114240000D01*
G75*
G02*
X147133000Y-114815000I-575000J0D01*
G01*
X145983000Y-114815000D01*
G75*
G02*
X145408000Y-114240000I0J575000D01*
G01*
G37*
%TD*%
%TO.C, *%
G36*
G01*
X145408000Y-111700000D02*
X145408000Y-110550000D01*
G75*
G02*
X145983000Y-109975000I575000J0D01*
G01*
X147133000Y-109975000D01*
G75*
G02*
X147708000Y-110550000I0J-575000D01*
G01*
X147708000Y-111700000D01*
G75*
G02*
X147133000Y-112275000I-575000J0D01*
G01*
X145983000Y-112275000D01*
G75*
G02*
X145408000Y-111700000I0J575000D01*
G01*
G37*
%TD*%
%TO.C, *%
G36*
G01*
X145408000Y-109160000D02*
X145408000Y-108010000D01*
G75*
G02*
X145983000Y-107435000I575000J0D01*
G01*
X147133000Y-107435000D01*
G75*
G02*
X147708000Y-108010000I0J-575000D01*
G01*
X147708000Y-109160000D01*
G75*
G02*
X147133000Y-109735000I-575000J0D01*
G01*
X145983000Y-109735000D01*
G75*
G02*
X145408000Y-109160000I0J575000D01*
G01*
G37*
%TD*%
%TO.C, *%
G36*
G01*
X145408000Y-106620000D02*
X145408000Y-105470000D01*
G75*
G02*
X145983000Y-104895000I575000J0D01*
G01*
X147133000Y-104895000D01*
G75*
G02*
X147708000Y-105470000I0J-575000D01*
G01*
X147708000Y-106620000D01*
G75*
G02*
X147133000Y-107195000I-575000J0D01*
G01*
X145983000Y-107195000D01*
G75*
G02*
X145408000Y-106620000I0J575000D01*
G01*
G37*
%TD*%
%TO.C, *%
G36*
G01*
X145408000Y-104080000D02*
X145408000Y-102930000D01*
G75*
G02*
X145983000Y-102355000I575000J0D01*
G01*
X147133000Y-102355000D01*
G75*
G02*
X147708000Y-102930000I0J-575000D01*
G01*
X147708000Y-104080000D01*
G75*
G02*
X147133000Y-104655000I-575000J0D01*
G01*
X145983000Y-104655000D01*
G75*
G02*
X145408000Y-104080000I0J575000D01*
G01*
G37*
%TD*%
%TO.C, *%
G36*
G01*
X145408000Y-101540000D02*
X145408000Y-100390000D01*
G75*
G02*
X145983000Y-99815000I575000J0D01*
G01*
X147133000Y-99815000D01*
G75*
G02*
X147708000Y-100390000I0J-575000D01*
G01*
X147708000Y-101540000D01*
G75*
G02*
X147133000Y-102115000I-575000J0D01*
G01*
X145983000Y-102115000D01*
G75*
G02*
X145408000Y-101540000I0J575000D01*
G01*
G37*
%TD*%
%TO.C, *%
G36*
G01*
X145408000Y-99000000D02*
X145408000Y-97850000D01*
G75*
G02*
X145983000Y-97275000I575000J0D01*
G01*
X147133000Y-97275000D01*
G75*
G02*
X147708000Y-97850000I0J-575000D01*
G01*
X147708000Y-99000000D01*
G75*
G02*
X147133000Y-99575000I-575000J0D01*
G01*
X145983000Y-99575000D01*
G75*
G02*
X145408000Y-99000000I0J575000D01*
G01*
G37*
%TD*%
%TO.C, *%
G36*
G01*
X145408000Y-96460000D02*
X145408000Y-95310000D01*
G75*
G02*
X145983000Y-94735000I575000J0D01*
G01*
X147133000Y-94735000D01*
G75*
G02*
X147708000Y-95310000I0J-575000D01*
G01*
X147708000Y-96460000D01*
G75*
G02*
X147133000Y-97035000I-575000J0D01*
G01*
X145983000Y-97035000D01*
G75*
G02*
X145408000Y-96460000I0J575000D01*
G01*
G37*
%TD*%
%TO.C, *%
G36*
G01*
X168268000Y-93920000D02*
X168268000Y-92770000D01*
G75*
G02*
X168843000Y-92195000I575000J0D01*
G01*
X169993000Y-92195000D01*
G75*
G02*
X170568000Y-92770000I0J-575000D01*
G01*
X170568000Y-93920000D01*
G75*
G02*
X169993000Y-94495000I-575000J0D01*
G01*
X168843000Y-94495000D01*
G75*
G02*
X168268000Y-93920000I0J575000D01*
G01*
G37*
%TD*%
%TO.C, *%
X149098000Y-93345000D03*
%TD*%
%TO.C, *%
G36*
G01*
X145408000Y-93920000D02*
X145408000Y-92770000D01*
G75*
G02*
X145983000Y-92195000I575000J0D01*
G01*
X147133000Y-92195000D01*
G75*
G02*
X147708000Y-92770000I0J-575000D01*
G01*
X147708000Y-93920000D01*
G75*
G02*
X147133000Y-94495000I-575000J0D01*
G01*
X145983000Y-94495000D01*
G75*
G02*
X145408000Y-93920000I0J575000D01*
G01*
G37*
%TD*%
%TO.C,R12*%
G36*
G01*
X141973000Y-116790000D02*
X142523000Y-116790000D01*
G75*
G02*
X142723000Y-116990000I0J-200000D01*
G01*
X142723000Y-117390000D01*
G75*
G02*
X142523000Y-117590000I-200000J0D01*
G01*
X141973000Y-117590000D01*
G75*
G02*
X141773000Y-117390000I0J200000D01*
G01*
X141773000Y-116990000D01*
G75*
G02*
X141973000Y-116790000I200000J0D01*
G01*
G37*
G36*
G01*
X141973000Y-115140000D02*
X142523000Y-115140000D01*
G75*
G02*
X142723000Y-115340000I0J-200000D01*
G01*
X142723000Y-115740000D01*
G75*
G02*
X142523000Y-115940000I-200000J0D01*
G01*
X141973000Y-115940000D01*
G75*
G02*
X141773000Y-115740000I0J200000D01*
G01*
X141773000Y-115340000D01*
G75*
G02*
X141973000Y-115140000I200000J0D01*
G01*
G37*
%TD*%
%TO.C,R11*%
G36*
G01*
X141973000Y-109290000D02*
X142523000Y-109290000D01*
G75*
G02*
X142723000Y-109490000I0J-200000D01*
G01*
X142723000Y-109890000D01*
G75*
G02*
X142523000Y-110090000I-200000J0D01*
G01*
X141973000Y-110090000D01*
G75*
G02*
X141773000Y-109890000I0J200000D01*
G01*
X141773000Y-109490000D01*
G75*
G02*
X141973000Y-109290000I200000J0D01*
G01*
G37*
G36*
G01*
X141973000Y-107640000D02*
X142523000Y-107640000D01*
G75*
G02*
X142723000Y-107840000I0J-200000D01*
G01*
X142723000Y-108240000D01*
G75*
G02*
X142523000Y-108440000I-200000J0D01*
G01*
X141973000Y-108440000D01*
G75*
G02*
X141773000Y-108240000I0J200000D01*
G01*
X141773000Y-107840000D01*
G75*
G02*
X141973000Y-107640000I200000J0D01*
G01*
G37*
%TD*%
%TO.C,R10*%
G36*
G01*
X141973000Y-101790000D02*
X142523000Y-101790000D01*
G75*
G02*
X142723000Y-101990000I0J-200000D01*
G01*
X142723000Y-102390000D01*
G75*
G02*
X142523000Y-102590000I-200000J0D01*
G01*
X141973000Y-102590000D01*
G75*
G02*
X141773000Y-102390000I0J200000D01*
G01*
X141773000Y-101990000D01*
G75*
G02*
X141973000Y-101790000I200000J0D01*
G01*
G37*
G36*
G01*
X141973000Y-100140000D02*
X142523000Y-100140000D01*
G75*
G02*
X142723000Y-100340000I0J-200000D01*
G01*
X142723000Y-100740000D01*
G75*
G02*
X142523000Y-100940000I-200000J0D01*
G01*
X141973000Y-100940000D01*
G75*
G02*
X141773000Y-100740000I0J200000D01*
G01*
X141773000Y-100340000D01*
G75*
G02*
X141973000Y-100140000I200000J0D01*
G01*
G37*
%TD*%
D16*
%TO.C,D2*%
X128648000Y-95365000D03*
X130848000Y-95365000D03*
%TD*%
%TO.C,D1*%
X128648000Y-87615000D03*
X130848000Y-87615000D03*
%TD*%
D17*
%TO.C,J1*%
X116078000Y-109235000D03*
X116078000Y-105735000D03*
G36*
G01*
X114528000Y-101335000D02*
X117628000Y-101335000D01*
G75*
G02*
X117878000Y-101585000I0J-250000D01*
G01*
X117878000Y-102885000D01*
G75*
G02*
X117628000Y-103135000I-250000J0D01*
G01*
X114528000Y-103135000D01*
G75*
G02*
X114278000Y-102885000I0J250000D01*
G01*
X114278000Y-101585000D01*
G75*
G02*
X114528000Y-101335000I250000J0D01*
G01*
G37*
%TD*%
%TO.C,R9*%
G36*
G01*
X120823000Y-82870000D02*
X120823000Y-83420000D01*
G75*
G02*
X120623000Y-83620000I-200000J0D01*
G01*
X120223000Y-83620000D01*
G75*
G02*
X120023000Y-83420000I0J200000D01*
G01*
X120023000Y-82870000D01*
G75*
G02*
X120223000Y-82670000I200000J0D01*
G01*
X120623000Y-82670000D01*
G75*
G02*
X120823000Y-82870000I0J-200000D01*
G01*
G37*
G36*
G01*
X122473000Y-82870000D02*
X122473000Y-83420000D01*
G75*
G02*
X122273000Y-83620000I-200000J0D01*
G01*
X121873000Y-83620000D01*
G75*
G02*
X121673000Y-83420000I0J200000D01*
G01*
X121673000Y-82870000D01*
G75*
G02*
X121873000Y-82670000I200000J0D01*
G01*
X122273000Y-82670000D01*
G75*
G02*
X122473000Y-82870000I0J-200000D01*
G01*
G37*
%TD*%
%TO.C,D5*%
G36*
G01*
X117698000Y-83441250D02*
X117698000Y-82928750D01*
G75*
G02*
X117916750Y-82710000I218750J0D01*
G01*
X118354250Y-82710000D01*
G75*
G02*
X118573000Y-82928750I0J-218750D01*
G01*
X118573000Y-83441250D01*
G75*
G02*
X118354250Y-83660000I-218750J0D01*
G01*
X117916750Y-83660000D01*
G75*
G02*
X117698000Y-83441250I0J218750D01*
G01*
G37*
G36*
G01*
X116123000Y-83441250D02*
X116123000Y-82928750D01*
G75*
G02*
X116341750Y-82710000I218750J0D01*
G01*
X116779250Y-82710000D01*
G75*
G02*
X116998000Y-82928750I0J-218750D01*
G01*
X116998000Y-83441250D01*
G75*
G02*
X116779250Y-83660000I-218750J0D01*
G01*
X116341750Y-83660000D01*
G75*
G02*
X116123000Y-83441250I0J218750D01*
G01*
G37*
%TD*%
%TO.C,D4*%
G36*
G01*
X117698000Y-79631250D02*
X117698000Y-79118750D01*
G75*
G02*
X117916750Y-78900000I218750J0D01*
G01*
X118354250Y-78900000D01*
G75*
G02*
X118573000Y-79118750I0J-218750D01*
G01*
X118573000Y-79631250D01*
G75*
G02*
X118354250Y-79850000I-218750J0D01*
G01*
X117916750Y-79850000D01*
G75*
G02*
X117698000Y-79631250I0J218750D01*
G01*
G37*
G36*
G01*
X116123000Y-79631250D02*
X116123000Y-79118750D01*
G75*
G02*
X116341750Y-78900000I218750J0D01*
G01*
X116779250Y-78900000D01*
G75*
G02*
X116998000Y-79118750I0J-218750D01*
G01*
X116998000Y-79631250D01*
G75*
G02*
X116779250Y-79850000I-218750J0D01*
G01*
X116341750Y-79850000D01*
G75*
G02*
X116123000Y-79631250I0J218750D01*
G01*
G37*
%TD*%
%TO.C,D3*%
G36*
G01*
X117698000Y-75821250D02*
X117698000Y-75308750D01*
G75*
G02*
X117916750Y-75090000I218750J0D01*
G01*
X118354250Y-75090000D01*
G75*
G02*
X118573000Y-75308750I0J-218750D01*
G01*
X118573000Y-75821250D01*
G75*
G02*
X118354250Y-76040000I-218750J0D01*
G01*
X117916750Y-76040000D01*
G75*
G02*
X117698000Y-75821250I0J218750D01*
G01*
G37*
G36*
G01*
X116123000Y-75821250D02*
X116123000Y-75308750D01*
G75*
G02*
X116341750Y-75090000I218750J0D01*
G01*
X116779250Y-75090000D01*
G75*
G02*
X116998000Y-75308750I0J-218750D01*
G01*
X116998000Y-75821250D01*
G75*
G02*
X116779250Y-76040000I-218750J0D01*
G01*
X116341750Y-76040000D01*
G75*
G02*
X116123000Y-75821250I0J218750D01*
G01*
G37*
%TD*%
D14*
%TO.C,Q2*%
X135498000Y-90615000D03*
X136448000Y-92615000D03*
X134548000Y-92615000D03*
%TD*%
%TO.C,R8*%
G36*
G01*
X120823000Y-79100000D02*
X120823000Y-79650000D01*
G75*
G02*
X120623000Y-79850000I-200000J0D01*
G01*
X120223000Y-79850000D01*
G75*
G02*
X120023000Y-79650000I0J200000D01*
G01*
X120023000Y-79100000D01*
G75*
G02*
X120223000Y-78900000I200000J0D01*
G01*
X120623000Y-78900000D01*
G75*
G02*
X120823000Y-79100000I0J-200000D01*
G01*
G37*
G36*
G01*
X122473000Y-79100000D02*
X122473000Y-79650000D01*
G75*
G02*
X122273000Y-79850000I-200000J0D01*
G01*
X121873000Y-79850000D01*
G75*
G02*
X121673000Y-79650000I0J200000D01*
G01*
X121673000Y-79100000D01*
G75*
G02*
X121873000Y-78900000I200000J0D01*
G01*
X122273000Y-78900000D01*
G75*
G02*
X122473000Y-79100000I0J-200000D01*
G01*
G37*
%TD*%
%TO.C,R7*%
G36*
G01*
X120823000Y-75290000D02*
X120823000Y-75840000D01*
G75*
G02*
X120623000Y-76040000I-200000J0D01*
G01*
X120223000Y-76040000D01*
G75*
G02*
X120023000Y-75840000I0J200000D01*
G01*
X120023000Y-75290000D01*
G75*
G02*
X120223000Y-75090000I200000J0D01*
G01*
X120623000Y-75090000D01*
G75*
G02*
X120823000Y-75290000I0J-200000D01*
G01*
G37*
G36*
G01*
X122473000Y-75290000D02*
X122473000Y-75840000D01*
G75*
G02*
X122273000Y-76040000I-200000J0D01*
G01*
X121873000Y-76040000D01*
G75*
G02*
X121673000Y-75840000I0J200000D01*
G01*
X121673000Y-75290000D01*
G75*
G02*
X121873000Y-75090000I200000J0D01*
G01*
X122273000Y-75090000D01*
G75*
G02*
X122473000Y-75290000I0J-200000D01*
G01*
G37*
%TD*%
%TO.C,R6*%
G36*
G01*
X135073000Y-95090000D02*
X135073000Y-95640000D01*
G75*
G02*
X134873000Y-95840000I-200000J0D01*
G01*
X134473000Y-95840000D01*
G75*
G02*
X134273000Y-95640000I0J200000D01*
G01*
X134273000Y-95090000D01*
G75*
G02*
X134473000Y-94890000I200000J0D01*
G01*
X134873000Y-94890000D01*
G75*
G02*
X135073000Y-95090000I0J-200000D01*
G01*
G37*
G36*
G01*
X136723000Y-95090000D02*
X136723000Y-95640000D01*
G75*
G02*
X136523000Y-95840000I-200000J0D01*
G01*
X136123000Y-95840000D01*
G75*
G02*
X135923000Y-95640000I0J200000D01*
G01*
X135923000Y-95090000D01*
G75*
G02*
X136123000Y-94890000I200000J0D01*
G01*
X136523000Y-94890000D01*
G75*
G02*
X136723000Y-95090000I0J-200000D01*
G01*
G37*
%TD*%
%TO.C,R5*%
G36*
G01*
X130173000Y-93140000D02*
X130173000Y-92590000D01*
G75*
G02*
X130373000Y-92390000I200000J0D01*
G01*
X130773000Y-92390000D01*
G75*
G02*
X130973000Y-92590000I0J-200000D01*
G01*
X130973000Y-93140000D01*
G75*
G02*
X130773000Y-93340000I-200000J0D01*
G01*
X130373000Y-93340000D01*
G75*
G02*
X130173000Y-93140000I0J200000D01*
G01*
G37*
G36*
G01*
X128523000Y-93140000D02*
X128523000Y-92590000D01*
G75*
G02*
X128723000Y-92390000I200000J0D01*
G01*
X129123000Y-92390000D01*
G75*
G02*
X129323000Y-92590000I0J-200000D01*
G01*
X129323000Y-93140000D01*
G75*
G02*
X129123000Y-93340000I-200000J0D01*
G01*
X128723000Y-93340000D01*
G75*
G02*
X128523000Y-93140000I0J200000D01*
G01*
G37*
%TD*%
%TO.C,R4*%
G36*
G01*
X130173000Y-90640000D02*
X130173000Y-90090000D01*
G75*
G02*
X130373000Y-89890000I200000J0D01*
G01*
X130773000Y-89890000D01*
G75*
G02*
X130973000Y-90090000I0J-200000D01*
G01*
X130973000Y-90640000D01*
G75*
G02*
X130773000Y-90840000I-200000J0D01*
G01*
X130373000Y-90840000D01*
G75*
G02*
X130173000Y-90640000I0J200000D01*
G01*
G37*
G36*
G01*
X128523000Y-90640000D02*
X128523000Y-90090000D01*
G75*
G02*
X128723000Y-89890000I200000J0D01*
G01*
X129123000Y-89890000D01*
G75*
G02*
X129323000Y-90090000I0J-200000D01*
G01*
X129323000Y-90640000D01*
G75*
G02*
X129123000Y-90840000I-200000J0D01*
G01*
X128723000Y-90840000D01*
G75*
G02*
X128523000Y-90640000I0J200000D01*
G01*
G37*
%TD*%
%TO.C,R3*%
G36*
G01*
X135073000Y-87340000D02*
X135073000Y-87890000D01*
G75*
G02*
X134873000Y-88090000I-200000J0D01*
G01*
X134473000Y-88090000D01*
G75*
G02*
X134273000Y-87890000I0J200000D01*
G01*
X134273000Y-87340000D01*
G75*
G02*
X134473000Y-87140000I200000J0D01*
G01*
X134873000Y-87140000D01*
G75*
G02*
X135073000Y-87340000I0J-200000D01*
G01*
G37*
G36*
G01*
X136723000Y-87340000D02*
X136723000Y-87890000D01*
G75*
G02*
X136523000Y-88090000I-200000J0D01*
G01*
X136123000Y-88090000D01*
G75*
G02*
X135923000Y-87890000I0J200000D01*
G01*
X135923000Y-87340000D01*
G75*
G02*
X136123000Y-87140000I200000J0D01*
G01*
X136523000Y-87140000D01*
G75*
G02*
X136723000Y-87340000I0J-200000D01*
G01*
G37*
%TD*%
%TO.C,R2*%
G36*
G01*
X130173000Y-85390000D02*
X130173000Y-84840000D01*
G75*
G02*
X130373000Y-84640000I200000J0D01*
G01*
X130773000Y-84640000D01*
G75*
G02*
X130973000Y-84840000I0J-200000D01*
G01*
X130973000Y-85390000D01*
G75*
G02*
X130773000Y-85590000I-200000J0D01*
G01*
X130373000Y-85590000D01*
G75*
G02*
X130173000Y-85390000I0J200000D01*
G01*
G37*
G36*
G01*
X128523000Y-85390000D02*
X128523000Y-84840000D01*
G75*
G02*
X128723000Y-84640000I200000J0D01*
G01*
X129123000Y-84640000D01*
G75*
G02*
X129323000Y-84840000I0J-200000D01*
G01*
X129323000Y-85390000D01*
G75*
G02*
X129123000Y-85590000I-200000J0D01*
G01*
X128723000Y-85590000D01*
G75*
G02*
X128523000Y-85390000I0J200000D01*
G01*
G37*
%TD*%
%TO.C,R1*%
G36*
G01*
X130173000Y-82890000D02*
X130173000Y-82340000D01*
G75*
G02*
X130373000Y-82140000I200000J0D01*
G01*
X130773000Y-82140000D01*
G75*
G02*
X130973000Y-82340000I0J-200000D01*
G01*
X130973000Y-82890000D01*
G75*
G02*
X130773000Y-83090000I-200000J0D01*
G01*
X130373000Y-83090000D01*
G75*
G02*
X130173000Y-82890000I0J200000D01*
G01*
G37*
G36*
G01*
X128523000Y-82890000D02*
X128523000Y-82340000D01*
G75*
G02*
X128723000Y-82140000I200000J0D01*
G01*
X129123000Y-82140000D01*
G75*
G02*
X129323000Y-82340000I0J-200000D01*
G01*
X129323000Y-82890000D01*
G75*
G02*
X129123000Y-83090000I-200000J0D01*
G01*
X128723000Y-83090000D01*
G75*
G02*
X128523000Y-82890000I0J200000D01*
G01*
G37*
%TD*%
D18*
%TO.C,P1*%
X156718000Y-123825000D03*
X154178000Y-123825000D03*
X151638000Y-123825000D03*
X149098000Y-123825000D03*
X146558000Y-123825000D03*
X144018000Y-123825000D03*
X141478000Y-123825000D03*
X138938000Y-123825000D03*
%TD*%
%TO.C,P2*%
X174498000Y-123825000D03*
X171958000Y-123825000D03*
X169418000Y-123825000D03*
X166878000Y-123825000D03*
X164338000Y-123825000D03*
X161798000Y-123825000D03*
%TD*%
%TO.C,P3*%
X152654000Y-75565000D03*
X150114000Y-75565000D03*
X147574000Y-75565000D03*
X145034000Y-75565000D03*
X142494000Y-75565000D03*
X139954000Y-75565000D03*
X137414000Y-75565000D03*
X134874000Y-75565000D03*
X132334000Y-75565000D03*
X129794000Y-75565000D03*
%TD*%
%TO.C,P4*%
X174498000Y-75565000D03*
X171958000Y-75565000D03*
X169418000Y-75565000D03*
X166878000Y-75565000D03*
X164338000Y-75565000D03*
X161798000Y-75565000D03*
X159258000Y-75565000D03*
X156718000Y-75565000D03*
%TD*%
D19*
%TO.C,P5*%
X124968000Y-123825000D03*
%TD*%
%TO.C,P6*%
X177038000Y-118745000D03*
%TD*%
%TO.C,P7*%
X126238000Y-75565000D03*
%TD*%
%TO.C,P8*%
X177038000Y-90805000D03*
%TD*%
D20*
%TO.C,J2*%
X154178000Y-90805000D03*
D21*
X156718000Y-90805000D03*
X159258000Y-90805000D03*
X161798000Y-90805000D03*
%TD*%
M02*
